<svg width="18" height="19" viewBox="0 0 18 19" fill="none" xmlns="http://www.w3.org/2000/svg">
<g clip-path="url(#clip0_535_2913)">
<path d="M12.75 0.5H5.25C4.2558 0.501191 3.30267 0.896661 2.59967 1.59966C1.89666 2.30267 1.50119 3.2558 1.5 4.25V15.5C1.5 16.2956 1.81607 17.0587 2.37868 17.6213C2.94129 18.1839 3.70435 18.5 4.5 18.5H12.75C13.7442 18.4988 14.6973 18.1033 15.4003 17.4003C16.1033 16.6973 16.4988 15.7442 16.5 14.75V4.25C16.4988 3.2558 16.1033 2.30267 15.4003 1.59966C14.6973 0.896661 13.7442 0.501191 12.75 0.5V0.5ZM15 4.25V12.5H6V2H12.75C13.3467 2 13.919 2.23705 14.341 2.65901C14.7629 3.08097 15 3.65326 15 4.25ZM4.5 2.129V12.5C3.97322 12.4995 3.4557 12.6385 3 12.9028V4.25C3.00007 3.78477 3.14435 3.33099 3.41298 2.95115C3.6816 2.57131 4.06137 2.28408 4.5 2.129ZM12.75 17H4.5C4.10218 17 3.72064 16.842 3.43934 16.5607C3.15804 16.2794 3 15.8978 3 15.5C3 15.1022 3.15804 14.7206 3.43934 14.4393C3.72064 14.158 4.10218 14 4.5 14H15V14.75C15 15.3467 14.7629 15.919 14.341 16.341C13.919 16.7629 13.3467 17 12.75 17Z" fill="#1D72D2"/>
</g>
<defs>
<clipPath id="clip0_535_2913">
<rect width="18" height="18" fill="white" transform="translate(0 0.5)"/>
</clipPath>
</defs>
</svg>
