<svg width="70" height="70" viewBox="0 0 70 70" fill="none" xmlns="http://www.w3.org/2000/svg">
<circle cx="35" cy="35" r="35" fill="#F1F8FF"/>
<g clip-path="url(#clip0_533_2916)">
<path d="M44.333 35.0001C43.6173 34.9999 42.9111 35.1647 42.2694 35.4815C41.6276 35.7984 41.0674 36.2588 40.6323 36.8271L40.5507 36.7921C40.8715 35.7981 40.9196 34.7362 40.6899 33.7173C40.4602 32.6984 39.9612 31.7598 39.2449 30.9996C38.5286 30.2395 37.6213 29.6856 36.6178 29.3958C35.6143 29.106 34.5514 29.091 33.5402 29.3522L33.434 29.1516C34.2814 28.3976 34.8248 27.3604 34.9623 26.2345C35.0998 25.1085 34.822 23.9711 34.181 23.0353C33.5399 22.0996 32.5796 21.4297 31.48 21.1512C30.3804 20.8728 29.217 21.0049 28.2078 21.5228C27.1986 22.0408 26.413 22.9089 25.998 23.9646C25.5831 25.0203 25.5674 26.1911 25.9539 27.2575C26.3404 28.324 27.1025 29.2128 28.0975 29.7576C29.0924 30.3024 30.2518 30.4656 31.3585 30.2167L31.4437 30.3766C30.2771 31.2718 29.4923 32.5752 29.2469 34.0251C29.0015 35.4749 29.3136 36.964 30.1207 38.1932L27.9215 40.2501C26.9275 39.7009 25.7673 39.533 24.6583 39.7779C23.5494 40.0228 22.5678 40.6637 21.8975 41.5805C21.2273 42.4973 20.9143 43.627 21.0173 44.758C21.1203 45.889 21.6322 46.9436 22.457 47.7242C23.2818 48.5048 24.363 48.9579 25.498 48.9985C26.6329 49.039 27.7437 48.6644 28.6222 47.9446C29.5007 47.2249 30.0866 46.2096 30.2701 45.0888C30.4536 43.9681 30.2221 42.8189 29.619 41.8566L31.7633 39.8522C32.9411 40.6394 34.3653 40.9705 35.7695 40.7834C37.1737 40.5964 38.4616 39.9041 39.3922 38.8361L39.7177 38.9749C39.5765 39.9169 39.7269 40.8796 40.1488 41.7337C40.5707 42.5877 41.2438 43.2922 42.0778 43.7524C42.9118 44.2127 43.8667 44.4068 44.8141 44.3085C45.7616 44.2103 46.6563 43.8244 47.3781 43.2028C48.0999 42.5812 48.6142 41.7536 48.8518 40.8311C49.0895 39.9087 49.0392 38.9356 48.7077 38.0426C48.3762 37.1496 47.7793 36.3794 46.9973 35.8356C46.2153 35.2917 45.2856 35.0001 44.333 35.0001ZM27.9997 25.6667C27.9997 25.2053 28.1365 24.7541 28.3929 24.3704C28.6493 23.9867 29.0137 23.6876 29.4401 23.511C29.8664 23.3344 30.3356 23.2882 30.7882 23.3782C31.2408 23.4683 31.6566 23.6905 31.9829 24.0168C32.3092 24.3431 32.5315 24.7589 32.6215 25.2115C32.7115 25.6642 32.6653 26.1333 32.4887 26.5597C32.3121 26.986 32.0131 27.3504 31.6293 27.6068C31.2456 27.8632 30.7945 28.0001 30.333 28.0001C29.7142 28.0001 29.1207 27.7542 28.6831 27.3167C28.2455 26.8791 27.9997 26.2856 27.9997 25.6667ZM25.6663 46.6667C25.2048 46.6667 24.7537 46.5299 24.37 46.2735C23.9863 46.0171 23.6872 45.6527 23.5106 45.2263C23.334 44.8 23.2878 44.3308 23.3778 43.8782C23.4679 43.4256 23.6901 43.0098 24.0164 42.6835C24.3427 42.3572 24.7585 42.1349 25.2111 42.0449C25.6637 41.9549 26.1329 42.0011 26.5593 42.1777C26.9856 42.3543 27.35 42.6534 27.6064 43.0371C27.8628 43.4208 27.9997 43.8719 27.9997 44.3334C27.9997 44.9522 27.7538 45.5457 27.3163 45.9833C26.8787 46.4209 26.2852 46.6667 25.6663 46.6667ZM34.9997 38.5001C34.2421 38.4986 33.5055 38.2514 32.9005 37.7956C32.2955 37.3397 31.8546 36.6999 31.6442 35.9722C31.4338 35.2445 31.4652 34.4681 31.7337 33.7598C32.0021 33.0514 32.4931 32.4492 33.133 32.0437L33.6078 31.7906C34.085 31.583 34.6023 31.4845 35.1223 31.5021C35.6424 31.5197 36.1519 31.653 36.6139 31.8923C37.0759 32.1317 37.4787 32.471 37.793 32.8856C38.1074 33.3002 38.3253 33.7797 38.431 34.2892C38.5367 34.7986 38.5274 35.3252 38.404 35.8307C38.2805 36.3361 38.0459 36.8077 37.7172 37.211C37.3885 37.6144 36.9741 37.9393 36.504 38.1623C36.0339 38.3853 35.52 38.5007 34.9997 38.5001ZM44.333 42.0001C43.8715 42.0001 43.4204 41.8632 43.0367 41.6068C42.653 41.3504 42.3539 40.986 42.1773 40.5597C42.0007 40.1333 41.9545 39.6642 42.0445 39.2115C42.1345 38.7589 42.3568 38.3431 42.6831 38.0168C43.0094 37.6905 43.4252 37.4683 43.8778 37.3782C44.3304 37.2882 44.7996 37.3344 45.2259 37.511C45.6523 37.6876 46.0167 37.9867 46.2731 38.3704C46.5295 38.7541 46.6663 39.2052 46.6663 39.6667C46.6663 40.2856 46.4205 40.8791 45.9829 41.3167C45.5453 41.7542 44.9518 42.0001 44.333 42.0001Z" fill="#1D72D2"/>
</g>
<defs>
<clipPath id="clip0_533_2916">
<rect width="28" height="28" fill="white" transform="translate(21 21)"/>
</clipPath>
</defs>
</svg>
