<svg width="3816" height="1237" xmlns="http://www.w3.org/2000/svg" xmlns:xlink="http://www.w3.org/1999/xlink" xml:space="preserve" overflow="hidden"><g transform="translate(-1 978)"><path d="M655.649-513.323 690.374-513.323 704.259-510.343 704.259-507.372 693.348-500.42 680.447-489.511 669.534-475.614 661.597-458.746 658.622-449.815 655.649-430.952 655.649-413.091 658.622-391.257 664.57-370.416 680.447-338.658 694.342-311.857 703.265-292.994 710.208-279.106 721.12-251.312 729.057-224.52 733.026-202.686 735.015-183.823 736-179.858 736-167.948 734.021-144.136 728.073-117.336 721.12-96.4947 715.171-81.6046 705.255-62.7413 693.348-43.887 675.493-20.0659 673.503-20.0659 671.524-16.093 659.617-3.19827 650.685 5.7323 642.747 12.6853 629.856 23.6022 611.991 36.506 600.095 44.4348 586.199 53.374 575.287 59.3336 556.437 69.2573 537.588 78.1878 523.702 86.1253 504.852 96.049 485.008 104.98 470.128 111.933 459.216 116.89 442.356 122.841 424.491 129.785 388.781 140.711 368.937 145.677 361 145.677 363.983 142.689 382.833 132.765 415.569 114.904 431.444 104.98 452.273 92.0848 467.153 82.1524 484.023 70.2421 502.873 56.3538 515.764 45.4366 526.677 36.506 530.645 34.5107 530.645 32.5327 538.582 25.5801 553.463 10.69 554.458 8.71204 556.437 8.71204 558.427 4.7392 569.339-8.16431 578.261-21.0681 586.199-34.9647 593.142-50.8396 598.105-65.721 601.08-78.6249 603.069-91.5197 604.064-113.363 603.069-131.224 598.105-155.045 595.131-164.968 589.183-177.872 582.23-191.769 572.313-205.666 563.381-215.59 555.452-223.527 542.552-232.466 529.651-238.417 524.696-241.388 525.681-243.375 535.608-247.348 547.515-255.285 557.432-264.216 563.381-271.169 569.339-281.092 572.313-290.023 574.303-299.947 574.303-316.815 571.318-342.622 562.396-366.443 559.411-372.394 559.411-375.374 554.458-373.387 540.572-359.49 527.671-350.568 514.77-343.615 495.92-338.658 485.008-338.658 486.003-341.638 495.92-348.573 505.847-357.512 514.77-369.422 521.723-380.34 532.634-403.167 537.588-417.064 522.707-411.113 505.847-408.125 494.935-408.125 476.086-411.113 468.148-414.084 468.148-416.062 484.023-420.035 496.915-424.008 516.759-432.939 534.614-442.863 554.458-456.76 565.37-465.69 567.349-465.69 567.349-467.668 578.261-476.607 591.162-486.54 605.048-495.462 620.924-503.408 639.773-510.343Z" fill="#8A0F08" fill-rule="evenodd"/><path d="M535.308-915.323 561.078-915.323 578.921-912.342 604.681-904.424 622.524-897.489 628.472-897.489 652.253-906.401 664.148-910.364 683.97-914.329 689.909-915.323 715.679-915.323 732.526-912.342 755.323-905.417 781.083-897.489 797.932-892.541 837.576-884.613 859.377-881.642 902-877.688 902-608.315 900.007-607.323 877.223-607.323 853.43-609.307 834.602-612.284 814.78-616.244 784.057-623.172 759.282-629.107 738.475-632.084 722.621-633.076 705.772-633.076 682.976-631.1 664.148-627.131 643.331-620.195 627.477-612.284 622.524-612.284 616.577-616.244 605.675-621.196 578.921-629.107 560.083-632.084 545.224-633.076 528.375-633.076 504.585-631.1 488.731-628.123 436.206-616.244 402.51-610.299 385.661-608.315 373.775-607.323 350.979-607.323 349-609.307 349-876.694 349.984-877.688 390.624-881.642 413.41-884.613 443.148-890.564 462.971-895.512 485.757-902.446 510.533-910.364Z" fill="#083053" fill-rule="evenodd"/><path d="M915.733-965.323 922.674-964.326 934.559-959.361 943.476-955.383 964.287-945.444 984.114-933.52 1000.95-921.587 1010.86-913.641 1020.77-904.688 1028.7-897.74 1038.61-887.8 1045.55-879.844 1059.43-861.956 1070.33-845.063 1083.21-819.217 1091.13-799.343 1097.09-777.463 1100.05-763.56 1104.02-736.72 1105-702.925 1104.02-677.088 1101.04-653.229 1098.07-635.342 1093.11-612.478 1088.16-593.588 1080.24-569.739 1075.27-557.805 1069.33-543.902 1060.42-526.999 1053.48-513.087 1041.59-494.207 1029.69-477.304 1019.78-464.386 1007.89-450.465 1000.95-442.524 994.023-435.559 993.022-433.571 991.045-433.571 991.045-431.584 983.112-424.628 972.219-413.688 961.317-404.745 948.439-393.814 929.613-379.901 914.741-369.964 893.939-357.046 876.097-347.099 855.283-337.162 842.402-331.2 816.638-321.263 809.701-318.282 784.931-311.325 782.944-310.323 777-310.323 777-312.311 792.854-321.263 806.729-330.206 824.57-343.125 844.39-359.024 854.299-367.968 862.221-374.924 877.09-388.845 884.029-395.801 885.013-397.788 886.999-397.788 888.975-401.764 895.915-409.722 897.892-409.722 899.886-413.688 912.764-428.603 922.674-441.521 935.552-459.409 947.447-477.304 964.287-505.129 976.181-526.999 987.083-549.864 997.985-575.701 1005.91-595.584 1018.79-634.349 1025.73-665.163 1028.7-681.062 1031.68-711.868 1031.68-746.657 1028.7-774.49 1023.75-799.343 1017.8-819.217 1010.86-839.1 1002.93-856.987 996-868.904 990.053-879.844 983.112-890.781 973.203-904.688 965.288-914.628 954.378-927.548 948.439-933.52 948.439-935.504 946.462-935.504 943.476-938.485 943.476-940.479 940.506-941.466 940.506-943.46 936.553-945.444 929.613-951.406 929.613-953.399 925.643-955.383 915.733-963.339Z" fill="#8A0F08" fill-rule="evenodd"/><path d="M333.3-965.323 337.267-964.327 332.316-959.37 322.407-951.426 318.441-949.445 318.441-947.454 310.51-940.517 298.622-928.601 297.628-926.62 295.65-926.62 293.662-922.648 282.768-909.747 269.887-891.879 261.956-878.978 253.04-863.102 245.108-847.223 237.186-827.374 230.249-806.534 224.295-777.753 222.317-764.852 220.339-736.072 220.339-722.178 222.317-692.405 228.261-656.678 235.199-629.882 246.103-596.14 250.068-587.208 254.024-575.299 260.962-560.422 264.928-550.497 271.865-535.602 283.752-512.777 292.678-497.891 298.622-486.974 318.441-457.201 330.329-441.322 341.232-427.428 353.12-413.534 362.036-403.61 364.024-399.641 366.001-399.641 372.939-391.701 387.808-376.824 395.73-369.868 407.628-358.951 417.537-351.021 435.368-337.118 446.271-330.171 458.159-322.232 468.069-316.277 475.007-312.307 476-310.323 469.063-311.324 461.132-313.3 444.283-318.271 415.549-329.179 397.718-337.118 380.871-345.057 358.08-357.959 341.232-367.883 326.362-377.807 308.531-390.709 292.678-403.61 271.865-421.474 271.865-423.459 267.899-425.444 256.011-437.353 249.074-445.292 239.164-456.209 228.261-470.102 216.373-485.981 202.498-507.823 193.583-523.693 182.679-546.519 176.735-559.42 169.798-579.269 166.826-587.208 159.888-612.019 154.938-632.868 149.979-663.625 148-691.421 148-724.171 149.979-748.973 152.95-766.845 156.916-782.716 162.859-802.572 172.769-826.382 183.673-847.223 193.583-862.109 203.492-875.019 210.43-883.945 212.407-883.945 214.385-887.917 234.205-907.767 245.108-916.695 260.962-928.601 279.797-940.517 308.531-955.398 326.362-962.346Z" fill="#8A0F08" fill-rule="evenodd"/><path d="M1237.08-689.323 1239.07-688.33 1242.04-674.424 1245.02-651.57 1247-630.711 1248-594.952 1247-562.165 1244.03-534.354 1241.05-516.475 1236.09-493.62 1233.12-482.703 1226.18-459.858 1216.26-436.01 1207.33-417.129 1197.41-400.252 1183.54-380.378 1175.6-370.454 1166.68-359.519 1159.74-351.573 1157.75-351.573 1156.76-348.584 1154.78-348.584 1154.78-346.606 1146.84-339.645 1133.95-327.734 1118.08-315.815 1103.21-305.881 1092.3-298.92 1062.55-284.021 1046.69-277.068 1028.83-270.115 1010.98-264.155 989.161-258.204 959.418-251.242 921.734-245.274 907.847-243.296 870.162-240.308 839.422-239.323 802.726-239.323 772.982-240.308 771-242.303 786.864-245.274 816.618-250.249 846.363-257.202 867.19-263.162 889-270.115 913.801-279.054 925.7-284.021 945.54-292.969 966.357-302.902 986.197-313.819 1006.02-325.739 1020.9-335.671 1034.78-345.613 1047.68-355.546 1057.6-363.492 1071.48-375.411 1083.38-386.338 1106.18-409.192 1113.12-417.129 1124.03-430.05 1137.92-447.93 1148.82-463.822 1158.75-478.73 1169.66-496.609 1175.6-507.535 1183.54-523.427 1193.46-544.287 1201.38-563.168 1209.32-584.018 1213.28-596.93 1216.26-604.877 1225.18-635.686 1229.15-654.549 1233.12-670.451 1236.09-687.337Z" fill="#8A1008" fill-rule="evenodd"/><path d="M9.94278-689.323 11.9342-687.337 17.8894-658.532 25.8458-625.746 33.7925-599.92 41.7496-576.08 45.7228-567.134 51.678-551.238 59.6344-533.356 67.5811-517.468 80.4973-493.628 92.4273-474.761 100.374-462.837 113.3-444.955 123.228-432.037 135.159-418.136 144.101-408.197 159.009-392.309 174.912-377.406 177.89-375.42 177.89-373.434 181.863-371.448 196.771-358.531 208.701-349.585 223.598-338.662 238.506-328.733 249.441-321.782 270.313-309.857 293.167-297.933 312.048-288.996 338.876-278.065 365.713-268.144 382.603-263.17 403.475-257.212 439.246-249.26 476.022-243.302 479-241.316 474.03-240.323 386.576-240.323 345.837-243.302 302.11-249.26 264.348-257.212 245.467-262.177 212.674-273.1 199.749-278.065 184.85-285.024 165.969-293.961 149.07-303.9 135.159-312.845 116.277-326.738 104.347-337.669 96.4004-344.62 82.4888-358.531 76.5238-365.49 76.5238-367.468 74.5421-367.468 62.6118-383.364 50.692-401.246 42.7353-414.163 33.7925-433.039 26.8419-447.925 19.8809-467.802 13.9159-486.677 7.96107-513.496 4.97355-530.385 1.99576-557.205 1.00003-567.134 1.00003-627.732 3.97746-659.516 7.96107-685.351Z" fill="#8A0F08" fill-rule="evenodd"/><path d="M1161.04-256.322 1164-256.322 1163.02-251.364 1153.12-236.484 1142.24-222.6 1130.36-208.716 1117.49-195.82 1109.58-188.878 1094.74-176.97 1077.91-166.067 1060.1-156.144 1041.29-148.205 1022.49-142.26 1000.72-137.302 973.992-134.321 947.278-134.321 913.632-138.29 890.859-143.248 870.082-149.202 849.299-156.144 837.42-161.101 809.715-173.997 790.913-183.92 782-188.878 782-190.862 788.933-190.862 821.593-185.896 843.359-183.92 864.145-182.924 913.632-182.924 935.394-183.92 963.111-186.893 990.82-190.862 1019.52-196.808 1042.28-202.762 1066.04-209.704 1083.84-216.646 1098.7-222.6 1113.54-229.542 1129.38-237.48 1146.2-246.407 1160.05-255.334Z" fill="#8A1008" fill-rule="evenodd"/><path d="M83.9946-257.322 94.9081-251.376 105.821-244.426 119.719-237.484 136.58-228.557 153.453-221.615 165.361-216.658 184.213-209.716 210.009-201.777 239.774-194.835 260.615-190.866 295.344-185.908 320.145-183.924 351.9-182.936 365.797-182.936 397.543-183.924 422.353-185.908 464.026-191.862 467-190.866 465.021-187.893 449.144-179.955 434.261-172.024 423.347-167.067 397.543-156.156 376.711-149.205 355.869-143.26 332.053-138.302 307.252-135.321 267.559-135.321 244.737-138.302 226.881-142.263 203.065-150.202 183.218-159.128 166.356-169.043 147.494-181.939 132.612-194.835 125.668-200.789 122.693-203.762 122.693-205.747 119.719-206.734 119.719-208.719 117.729-208.719 110.785-216.658 97.8827-232.526 87.9643-247.407 82.9998-254.349Z" fill="#8A1008" fill-rule="evenodd"/><path d="M765-131.322 769.948-130.332 785.808-122.418 805.64-113.514 822.485-106.583 855.201-95.7067 879.978-88.7749 905.759-82.8415 934.5-77.8904 957.304-74.9282 992-71.9574 992-68.9862 982.083-61.0729 969.197-53.1592 952.341-45.2455 934.5-40.303 918.645-38.3223 904.766-38.3223 887.91-40.303 868.084-46.236 856.187-51.1785 842.318-58.1107 821.5-71.9574 821.5-73.9377 817.528-75.9184 806.626-84.8222 791.761-98.6689 780.86-110.544 768.962-124.39 765-129.342Z" fill="#8A1008" fill-rule="evenodd"/><path d="M481.01-133.323 483-133.323 482.004-129.321 473.044-119.317 464.083-108.322 439.192-83.3214 425.254-72.3172 409.324-61.3217 393.394-52.3185 377.463-45.3158 357.551-40.3227 350.581-39.3221 322.703-39.3221 306.772-42.3233 295.821-45.3158 280.887-52.3185 264.956-62.322 255-70.3167 255-72.3172 257.986-73.3175 286.86-75.3184 322.703-80.3202 343.612-84.3216 374.476-91.3243 403.35-100.319 424.258-107.322 451.14-118.317 465.079-125.32Z" fill="#8A1008" fill-rule="evenodd"/><path d="M496.02-85.3225 498-85.3225 498-73.4225 495.03-53.589 488.09-28.7973 482.14-13.9223 476.18-3.01383 469.241 6.90274 462.3 14.8362 452.38 22.7693 441.471 28.7193 425.6 32.6863 419.65 33.6778 406.75 33.6778 388.9 30.7028 377.99 26.7362 376 25.7443 376 23.7612 397.83 10.8693 414.69-0.038826 433.53-13.9223 446.43-24.8308 458.33-35.7389 471.22-48.6308 480.15-59.5393 489.08-72.4309 495.03-83.3394Z" fill="#8B1108" fill-rule="evenodd"/><path d="M749-84.3221 751.956-83.3317 755.883-75.3988 763.758-63.4954 776.542-47.6301 781.461-42.6774 781.461-40.688 784.417-39.6976 784.417-37.7164 786.381-37.7164 789.336-34.7449 789.336-32.7551 793.264-30.7743 805.076-19.8699 821.798-6.97613 837.537 3.92827 854.258 14.8409 870 23.7642 869.013 26.7357 859.177 30.7063 843.438 33.6778 823.761 33.6778 808.021 29.7159 794.255 22.7738 784.417 14.8409 775.56 4.91866 766.704-9.94765 759.82-25.8216 752.938-49.6199 749.982-66.4756Z" fill="#8B1008" fill-rule="evenodd"/><path d="M569.104 90.6776 574 90.6776 572.041 94.6261 568.125 96.6003 568.125 98.5828 561.279 104.514 560.301 106.488 558.343 106.488 556.383 110.445 548.56 119.341 537.788 134.178 526.047 152.962 518.223 168.781 512.348 182.618 505.504 200.419 499.628 219.204 493.762 245.902 490.824 263.695 488.866 265.678 486.907 259.738 483 236.005 483 195.479 486.907 175.704 492.782 157.902 498.648 146.04 509.42 130.221 525.068 114.402 540.726 103.523 556.383 95.6173Z" fill="#8B1008" fill-rule="evenodd"/><text fill="#FFFFFF" font-family="Aptos,Aptos_MSFontService,sans-serif" font-weight="700" font-size="202" transform="matrix(1 0 0 1 419.422 -690)">2022</text><text fill="#083053" font-family="Aptos,Aptos_MSFontService,sans-serif" font-weight="700" font-size="220" transform="matrix(1 0 0 1 1320.25 -708)">RENAISSANCE</text><text fill="#083053" font-family="Aptos,Aptos_MSFontService,sans-serif" font-weight="700" font-size="220" transform="matrix(1 0 0 1 1320.25 -91)">UNIVERSITY</text><text fill="#083053" font-family="Aptos,Aptos_MSFontService,sans-serif" font-weight="700" font-size="220" transform="matrix(1 0 0 1 1320.25 -399)">EDUCATION</text></g>
</svg>