<svg width="3816" height="1237" xmlns="http://www.w3.org/2000/svg" xmlns:xlink="http://www.w3.org/1999/xlink" xml:space="preserve" overflow="hidden"><g transform="translate(-1 -1237)"><path d="M595.148 1647.05 626.632 1647.05 639.221 1649.76 639.221 1652.46 629.329 1658.77 617.632 1668.69 607.738 1681.32 600.541 1696.67 597.844 1704.78 595.148 1721.93 595.148 1738.16 597.844 1758 603.237 1776.95 617.632 1805.81 630.23 1830.17 638.32 1847.32 644.615 1859.94 654.508 1885.2 661.705 1909.56 665.304 1929.41 667.107 1946.55 668 1950.15 668 1960.99 666.205 1982.63 660.812 2006.99 654.508 2025.94 649.115 2039.46 640.124 2056.61 629.329 2073.75 613.14 2095.39 611.336 2095.39 609.541 2099.01 598.746 2110.74 590.648 2118.85 583.451 2125.16 571.763 2135.09 555.565 2146.82 544.779 2154.03 532.18 2162.15 522.286 2167.56 505.197 2176.59 488.106 2184.7 475.516 2191.92 458.426 2200.95 440.434 2209.06 426.942 2215.38 417.049 2219.88 401.763 2225.29 385.565 2231.61 353.188 2241.54 335.196 2246.05 328 2246.05 330.705 2243.34 347.795 2234.32 377.476 2218.09 391.869 2209.06 410.754 2197.33 424.246 2188.32 439.541 2177.48 456.631 2164.86 468.32 2154.93 478.213 2146.82 481.812 2145.01 481.812 2143.21 489.008 2136.89 502.5 2123.35 503.401 2121.56 505.197 2121.56 507 2117.94 516.893 2106.22 524.983 2094.49 532.18 2081.86 538.475 2067.43 542.976 2053.9 545.672 2042.17 547.476 2030.45 548.378 2010.59 547.476 1994.36 542.976 1972.71 540.279 1963.69 534.886 1951.96 528.582 1939.33 519.59 1926.7 511.492 1917.68 504.304 1910.46 492.607 1902.34 480.91 1896.93 476.418 1894.23 477.311 1892.42 486.312 1888.82 497.107 1881.6 506.098 1873.47 511.492 1867.16 516.893 1858.14 519.59 1850.02 521.394 1841 521.394 1825.66 518.688 1802.21 510.599 1780.56 507.893 1775.15 507.893 1772.44 503.401 1774.25 490.812 1786.88 479.115 1794.99 467.418 1801.31 450.327 1805.81 440.434 1805.81 441.336 1803.11 450.327 1796.8 459.328 1788.67 467.418 1777.85 473.722 1767.93 483.615 1747.18 488.106 1734.55 474.614 1739.96 459.328 1742.67 449.435 1742.67 432.345 1739.96 425.148 1737.26 425.148 1735.45 439.541 1731.85 451.23 1728.23 469.222 1720.12 485.41 1711.09 503.401 1698.46 513.295 1690.35 515.09 1690.35 515.09 1688.54 524.983 1680.42 536.68 1671.4 549.27 1663.28 563.664 1656.06 580.754 1649.76Z" fill="#8A0F08" fill-rule="evenodd"/><path d="M486.126 1283.05 509.519 1283.05 525.717 1285.77 549.101 1292.96 565.299 1299.27 570.698 1299.27 592.286 1291.16 603.084 1287.56 621.078 1283.96 626.468 1283.05 649.862 1283.05 665.156 1285.77 685.85 1292.06 709.235 1299.27 724.529 1303.77 760.517 1310.97 780.308 1313.67 819 1317.26 819 1562.15 817.191 1563.05 796.508 1563.05 774.909 1561.25 757.818 1558.54 739.824 1554.94 711.934 1548.65 689.443 1543.25 670.556 1540.54 656.164 1539.64 640.869 1539.64 620.175 1541.44 603.084 1545.05 584.187 1551.35 569.795 1558.54 565.299 1558.54 559.9 1554.94 550.004 1550.44 525.717 1543.25 508.616 1540.54 495.127 1539.64 479.832 1539.64 458.236 1541.44 443.845 1544.14 396.164 1554.94 365.575 1560.35 350.28 1562.15 339.49 1563.05 318.797 1563.05 317 1561.25 317 1318.17 317.893 1317.26 354.785 1313.67 375.47 1310.97 402.465 1305.56 420.46 1301.06 441.145 1294.76 463.635 1287.56Z" fill="#083053" fill-rule="evenodd"/><path d="M831.044 1238.05 837.35 1238.96 848.148 1243.46 856.25 1247.07 875.157 1256.08 893.17 1266.89 908.471 1277.71 917.473 1284.92 926.476 1293.04 933.675 1299.34 942.678 1308.35 948.983 1315.57 961.594 1331.79 971.498 1347.11 983.199 1370.55 990.398 1388.58 995.809 1408.42 998.507 1421.03 1002.11 1445.37 1003 1476.01 1002.11 1499.45 999.401 1521.08 996.703 1537.3 992.202 1558.04 987.7 1575.17 980.501 1596.8 975.992 1607.62 970.596 1620.23 962.495 1635.56 956.19 1648.17 945.392 1665.3 934.577 1680.62 925.574 1692.34 914.776 1704.96 908.471 1712.16 902.173 1718.48 901.264 1720.28 899.468 1720.28 899.468 1722.09 892.261 1728.39 882.364 1738.31 872.459 1746.43 860.759 1756.34 843.655 1768.96 830.143 1777.97 811.243 1789.68 795.033 1798.7 776.123 1807.71 764.42 1813.12 741.013 1822.13 734.71 1824.84 712.206 1831.15 710.4 1832.05 705 1832.05 705 1830.25 719.404 1822.13 732.01 1814.02 748.219 1802.31 766.227 1787.89 775.229 1779.78 782.427 1773.47 795.935 1760.84 802.24 1754.54 803.134 1752.73 804.938 1752.73 806.734 1749.13 813.039 1741.91 814.835 1741.91 816.646 1738.31 828.347 1724.79 837.35 1713.07 849.05 1696.85 859.857 1680.62 875.157 1655.39 885.963 1635.56 895.868 1614.82 905.773 1591.39 912.972 1573.36 924.672 1538.2 930.978 1510.26 933.675 1495.84 936.389 1467.9 936.389 1436.35 933.675 1411.11 929.182 1388.58 923.778 1370.55 917.473 1352.52 910.266 1336.3 903.969 1325.49 898.566 1315.57 892.261 1305.65 883.258 1293.04 876.066 1284.02 866.154 1272.31 860.759 1266.89 860.759 1265.1 858.963 1265.1 856.25 1262.39 856.25 1260.58 853.552 1259.69 853.552 1257.88 849.96 1256.08 843.655 1250.67 843.655 1248.87 840.047 1247.07 831.044 1239.85Z" fill="#8A0F08" fill-rule="evenodd"/><path d="M302.352 1237.05 305.956 1237.96 301.458 1242.46 292.455 1249.67 288.852 1251.48 288.852 1253.28 281.646 1259.58 270.846 1270.41 269.942 1272.21 268.146 1272.21 266.34 1275.82 256.442 1287.54 244.738 1303.77 237.533 1315.49 229.432 1329.91 222.226 1344.33 215.029 1362.36 208.726 1381.3 203.316 1407.44 201.52 1419.16 199.722 1445.3 199.722 1457.92 201.52 1484.97 206.92 1517.42 213.223 1541.77 223.13 1572.42 226.732 1580.53 230.326 1591.35 236.63 1604.86 240.233 1613.88 246.536 1627.41 257.336 1648.14 265.446 1661.67 270.846 1671.58 288.852 1698.63 299.652 1713.05 309.558 1725.67 320.358 1738.3 328.459 1747.31 330.265 1750.92 332.062 1750.92 338.365 1758.13 351.874 1771.64 359.072 1777.96 369.881 1787.88 378.884 1795.08 395.084 1807.71 404.99 1814.02 415.791 1821.24 424.794 1826.64 431.098 1830.25 432 1832.05 425.697 1831.14 418.491 1829.35 403.184 1824.83 377.078 1814.93 360.878 1807.71 345.572 1800.5 324.865 1788.78 309.558 1779.77 296.049 1770.75 279.848 1759.03 265.446 1747.31 246.536 1731.08 246.536 1729.28 242.932 1727.48 232.132 1716.66 225.83 1709.45 216.826 1699.53 206.92 1686.91 196.12 1672.49 183.514 1652.64 175.413 1638.23 165.507 1617.49 160.106 1605.77 153.804 1587.74 151.104 1580.53 144.8 1557.99 140.303 1539.05 135.797 1511.11 134 1485.86 134 1456.11 135.797 1433.58 138.498 1417.35 142.1 1402.93 147.5 1384.89 156.504 1363.27 166.41 1344.33 175.413 1330.81 184.416 1319.08 190.72 1310.98 192.516 1310.98 194.314 1307.36 212.32 1289.33 222.226 1281.23 236.63 1270.41 253.742 1259.58 279.848 1246.07 296.049 1239.76Z" fill="#8A0F08" fill-rule="evenodd"/><path d="M1123.09 1487.05 1124.9 1487.96 1127.59 1500.6 1130.29 1521.36 1132.09 1540.32 1133 1572.83 1132.09 1602.62 1129.39 1627.9 1126.69 1644.16 1122.19 1664.92 1119.49 1674.85 1113.19 1695.61 1104.19 1717.29 1096.09 1734.44 1087.08 1749.79 1074.48 1767.85 1067.28 1776.87 1059.18 1786.81 1052.88 1794.03 1051.08 1794.03 1050.17 1796.74 1048.38 1796.74 1048.38 1798.54 1041.17 1804.87 1029.47 1815.7 1015.06 1826.53 1001.56 1835.56 991.664 1841.89 964.657 1855.42 950.255 1861.75 934.049 1868.07 917.843 1873.48 898.037 1878.9 871.037 1885.22 836.829 1890.64 824.224 1892.44 790.015 1895.15 762.11 1896.05 728.8 1896.05 701.799 1895.15 700 1893.34 714.4 1890.64 741.41 1886.13 768.411 1879.8 787.317 1874.39 807.115 1868.07 829.628 1859.94 840.429 1855.42 858.44 1847.3 877.336 1838.27 895.346 1828.34 913.341 1817.51 926.849 1808.48 939.446 1799.45 951.157 1790.42 960.163 1783.2 972.76 1772.37 983.561 1762.43 1004.26 1741.66 1010.56 1734.44 1020.47 1722.71 1033.07 1706.46 1042.97 1692 1051.98 1678.46 1061.89 1662.2 1067.28 1652.28 1074.48 1637.83 1083.49 1618.87 1090.68 1601.72 1097.89 1582.76 1101.48 1571.02 1104.19 1563.8 1112.28 1535.81 1115.89 1518.66 1119.49 1504.21 1122.19 1488.86Z" fill="#8A1008" fill-rule="evenodd"/><path d="M9.1196 1487.05 10.928 1488.86 16.3346 1515.03 23.5587 1544.82 30.7741 1568.29 37.9985 1589.96 41.6062 1598.08 47.0132 1612.53 54.2372 1628.78 61.4523 1643.21 73.1795 1664.88 84.0112 1682.02 91.2263 1692.86 102.963 1709.11 111.977 1720.84 122.81 1733.48 130.929 1742.51 144.464 1756.95 158.904 1770.49 161.607 1772.29 161.607 1774.1 165.214 1775.9 178.75 1787.64 189.582 1795.77 203.108 1805.69 216.644 1814.72 226.572 1821.03 245.523 1831.87 266.273 1842.7 283.416 1850.82 307.774 1860.76 332.141 1869.77 347.476 1874.29 366.427 1879.71 398.905 1886.92 432.296 1892.35 435 1894.15 430.488 1895.05 351.084 1895.05 314.094 1892.35 274.393 1886.92 240.107 1879.71 222.964 1875.19 193.189 1865.27 181.454 1860.76 167.927 1854.43 150.784 1846.31 135.44 1837.28 122.81 1829.15 105.666 1816.53 94.834 1806.6 87.6189 1800.28 74.9879 1787.64 69.5718 1781.32 69.5718 1779.52 67.7725 1779.52 56.9407 1765.07 46.118 1748.82 38.8936 1737.09 30.7741 1719.93 24.4628 1706.41 18.143 1688.35 12.7269 1671.19 7.32026 1646.82 4.60773 1631.48 1.90421 1607.11 1.00003 1598.08 1.00003 1543.02 3.70355 1514.14 7.32026 1490.66Z" fill="#8A0F08" fill-rule="evenodd"/><path d="M1054.31 1881.06 1057 1881.06 1056.11 1885.57 1047.12 1899.11 1037.23 1911.74 1026.45 1924.37 1014.76 1936.1 1007.56 1942.42 994.084 1953.25 978.799 1963.17 962.619 1972.2 945.535 1979.42 928.46 1984.83 908.676 1989.34 884.401 1992.06 860.135 1992.06 829.572 1988.45 808.885 1983.93 790.012 1978.52 771.132 1972.2 760.342 1967.69 735.176 1955.96 718.096 1946.93 710 1942.42 710 1940.61 716.298 1940.61 745.965 1945.13 765.737 1946.93 784.618 1947.84 829.572 1947.84 849.34 1946.93 874.517 1944.23 899.687 1940.61 925.759 1935.2 946.43 1929.79 968.012 1923.47 984.184 1917.16 997.68 1911.74 1011.16 1905.42 1025.55 1898.2 1040.83 1890.08 1053.41 1881.96Z" fill="#8A1008" fill-rule="evenodd"/><path d="M75.904 1880.06 85.8229 1885.47 95.741 1891.79 108.372 1898.11 123.697 1906.23 139.032 1912.54 149.855 1917.05 166.988 1923.37 190.433 1930.59 217.485 1936.91 236.426 1940.52 267.99 1945.03 290.531 1946.84 319.391 1947.74 332.022 1947.74 360.873 1946.84 383.423 1945.03 421.297 1939.61 424 1940.52 422.201 1943.23 407.771 1950.45 394.245 1957.66 384.326 1962.17 360.873 1972.1 341.941 1978.42 322.998 1983.83 301.353 1988.34 278.813 1991.06 242.737 1991.06 221.996 1988.34 205.767 1984.74 184.122 1977.52 166.084 1969.4 150.758 1960.38 133.616 1948.64 120.09 1936.91 113.779 1931.49 111.076 1928.79 111.076 1926.98 108.372 1926.08 108.372 1924.28 106.564 1924.28 100.253 1917.05 88.5262 1902.62 79.5118 1889.08 74.9999 1882.76Z" fill="#8A1008" fill-rule="evenodd"/><path d="M694 1994.06 698.512 1994.96 712.974 2002.2 731.06 2010.33 746.42 2016.67 776.254 2026.62 798.847 2032.94 822.357 2038.37 848.566 2042.89 869.36 2045.6 901 2048.32 901 2051.03 891.957 2058.26 880.206 2065.5 864.835 2072.73 848.566 2077.25 834.108 2079.06 821.452 2079.06 806.081 2077.25 788.002 2071.83 777.153 2067.31 764.506 2060.98 745.522 2048.32 745.522 2046.51 741.9 2044.7 731.958 2036.56 718.404 2023.9 708.462 2013.05 697.613 2000.39 694 1995.87Z" fill="#8A1008" fill-rule="evenodd"/><path d="M436.193 1993.05 438 1993.05 437.096 1996.67 428.961 2005.71 420.825 2015.66 398.227 2038.27 385.573 2048.21 371.109 2058.16 356.647 2066.3 342.183 2072.63 324.105 2077.15 317.778 2078.05 292.467 2078.05 278.004 2075.34 268.061 2072.63 254.503 2066.3 240.039 2057.26 231 2050.02 231 2048.21 233.711 2047.31 259.926 2045.5 292.467 2040.98 311.45 2037.36 339.472 2031.03 365.686 2022.89 384.669 2016.56 409.074 2006.62 421.729 2000.28Z" fill="#8A1008" fill-rule="evenodd"/><path d="M450.214 2036.05 452 2036.05 452 2046.95 449.322 2065.12 443.064 2087.83 437.7 2101.45 432.326 2111.45 426.069 2120.53 419.812 2127.8 410.867 2135.06 401.031 2140.51 386.722 2144.15 381.356 2145.05 369.725 2145.05 353.631 2142.33 343.794 2138.7 342 2137.79 342 2135.97 361.683 2124.16 376.885 2114.17 393.871 2101.45 405.503 2091.46 416.232 2081.47 427.854 2069.66 435.906 2059.67 443.957 2047.86 449.322 2037.87Z" fill="#8B1108" fill-rule="evenodd"/><path d="M680 2038.06 682.687 2038.96 686.257 2046.15 693.417 2056.94 705.038 2071.33 709.51 2075.82 709.51 2077.62 712.197 2078.52 712.197 2080.32 713.982 2080.32 716.669 2083.01 716.669 2084.82 720.24 2086.61 730.978 2096.5 746.18 2108.19 760.488 2118.08 775.69 2127.98 790 2136.07 789.103 2138.76 780.161 2142.36 765.853 2145.06 747.964 2145.06 733.656 2141.46 721.141 2135.17 712.197 2127.98 704.146 2118.98 696.094 2105.5 689.837 2091.1 683.58 2069.52 680.892 2054.24Z" fill="#8B1008" fill-rule="evenodd"/><path d="M516.534 2195.05 521 2195.05 519.214 2198.64 515.641 2200.44 515.641 2202.24 509.398 2207.63 508.505 2209.42 506.719 2209.42 504.932 2213.01 497.797 2221.1 487.971 2234.58 477.263 2251.64 470.126 2266.02 464.767 2278.59 458.525 2294.76 453.166 2311.83 447.816 2336.09 445.137 2352.25 443.35 2354.05 441.563 2348.66 438 2327.1 438 2290.27 441.563 2272.31 446.922 2256.13 452.273 2245.35 462.097 2230.98 476.369 2216.61 490.651 2206.73 504.932 2199.54Z" fill="#8B1008" fill-rule="evenodd"/><text fill="#FFFFFF" font-family="Aptos,Aptos_MSFontService,sans-serif" font-weight="700" font-size="183" transform="matrix(1 0 0 1 380.79 1489)">2022</text><text fill="#083053" font-family="Aptos,Aptos_MSFontService,sans-serif" font-weight="700" font-size="220" transform="matrix(1 0 0 1 1306.78 1574)">УНИВЕРСИТЕТ</text><text fill="#083053" font-family="Aptos,Aptos_MSFontService,sans-serif" font-weight="700" font-size="220" transform="matrix(1 0 0 1 1306.78 2131)">РЕНЕССАНС</text><text fill="#083053" font-family="Aptos,Aptos_MSFontService,sans-serif" font-weight="700" font-size="220" transform="matrix(1 0 0 1 1306.78 1853)">ОБРАЗОВАНИЯ</text></g></svg>