<svg width="3816" height="1237" xmlns="http://www.w3.org/2000/svg" xmlns:xlink="http://www.w3.org/1999/xlink" xml:space="preserve" overflow="hidden"><g transform="translate(2619 -2996)"><path d="M-1961.47 3450.28-1926.56 3450.28-1912.6 3453.27-1912.6 3456.26-1923.57 3463.24-1936.54 3474.2-1947.51 3488.16-1955.49 3505.11-1958.48 3514.08-1961.47 3533.03-1961.47 3550.97-1958.48 3572.9-1952.5 3593.84-1936.54 3625.74-1922.57 3652.66-1913.6 3671.61-1906.62 3685.56-1895.65 3713.48-1887.67 3740.4-1883.68 3762.33-1881.68 3781.28-1880.69 3785.26-1880.69 3797.23-1882.68 3821.15-1888.66 3848.07-1895.65 3869.01-1901.63 3883.96-1911.6 3902.91-1923.57 3921.85-1941.52 3945.78-1943.52 3945.78-1945.51 3949.77-1957.48 3962.73-1966.46 3971.7-1974.44 3978.68-1987.4 3989.65-2005.36 4002.61-2017.32 4010.58-2031.29 4019.56-2042.26 4025.54-2061.21 4035.51-2080.16 4044.48-2094.12 4052.46-2113.07 4062.43-2133.02 4071.4-2147.98 4078.38-2158.95 4083.36-2175.9 4089.34-2193.86 4096.32-2229.76 4107.29-2249.71 4112.28-2257.69 4112.28-2254.69 4109.28-2235.74 4099.31-2202.83 4081.37-2186.87 4071.4-2165.93 4058.44-2150.97 4048.47-2134.01 4036.5-2115.06 4022.55-2102.1 4011.58-2091.13 4002.61-2087.14 4000.61-2087.14 3998.62-2079.16 3991.64-2064.2 3976.68-2063.2 3974.69-2061.21 3974.69-2059.21 3970.7-2048.24 3957.74-2039.27 3944.78-2031.29 3930.82-2024.31 3914.87-2019.32 3899.92-2016.33 3886.96-2014.33 3874-2013.33 3852.06-2014.33 3834.12-2019.32 3810.19-2022.31 3800.22-2028.29 3787.26-2035.28 3773.3-2045.25 3759.34-2054.23 3749.37-2062.2 3741.4-2075.17 3732.42-2088.14 3726.44-2093.12 3723.45-2092.13 3721.46-2082.15 3717.47-2070.18 3709.49-2060.21 3700.52-2054.23 3693.54-2048.24 3683.57-2045.25 3674.6-2043.25 3664.63-2043.25 3647.68-2046.25 3621.76-2055.22 3597.83-2058.22 3591.85-2058.22 3588.86-2063.2 3590.85-2077.16 3604.81-2090.13 3613.78-2103.1 3620.76-2122.05 3625.74-2133.02 3625.74-2132.02 3622.75-2122.05 3615.78-2112.07 3606.8-2103.1 3594.84-2096.11 3583.87-2085.14 3560.94-2080.16 3546.98-2095.12 3552.96-2112.07 3555.96-2123.04 3555.96-2141.99 3552.96-2149.97 3549.97-2149.97 3547.98-2134.01 3543.99-2121.05 3540-2101.1 3531.03-2083.15 3521.06-2063.2 3507.1-2052.23 3498.13-2050.24 3498.13-2050.24 3496.14-2039.27 3487.16-2026.3 3477.19-2012.34 3468.22-1996.38 3460.24-1977.43 3453.27Z" fill="#8A0F08" fill-rule="evenodd"/><path d="M-2082.4 3046.15-2056.49 3046.15-2038.55 3049.15-2012.65 3057.12-1994.71 3064.1-1988.73 3064.1-1964.82 3055.13-1952.86 3051.14-1932.93 3047.15-1926.96 3046.15-1901.05 3046.15-1884.11 3049.15-1861.19 3056.12-1835.29 3064.1-1818.35 3069.08-1778.49 3077.06-1756.57 3080.05-1713.72 3084.03-1713.72 3355.16-1715.72 3356.16-1738.63 3356.16-1762.55 3354.16-1781.48 3351.17-1801.41 3347.18-1832.3 3340.21-1857.21 3334.23-1878.13 3331.24-1894.07 3330.24-1911.01 3330.24-1933.93 3332.23-1952.86 3336.22-1973.79 3343.2-1989.73 3351.17-1994.71 3351.17-2000.69 3347.18-2011.65 3342.2-2038.55 3334.23-2057.49 3331.24-2072.43 3330.24-2089.37 3330.24-2113.29 3332.23-2129.23 3335.22-2182.04 3347.18-2215.92 3353.16-2232.86 3355.16-2244.81 3356.16-2267.73 3356.16-2269.72 3354.16-2269.72 3085.03-2268.73 3084.03-2227.87 3080.05-2204.96 3077.06-2175.06 3071.07-2155.13 3066.09-2132.22 3059.11-2107.31 3051.14Z" fill="#083053" fill-rule="evenodd"/><path d="M-1700.03 2997.14-1693.05 2998.14-1681.09 3003.12-1672.12 3007.11-1651.18 3017.08-1631.24 3029.04-1614.29 3041.01-1604.32 3048.98-1594.35 3057.96-1586.38 3064.93-1576.41 3074.9-1569.43 3082.88-1555.47 3100.82-1544.5 3117.77-1531.54 3143.69-1523.57 3163.63-1517.58 3185.57-1514.59 3199.52-1510.6 3226.44-1509.61 3260.34-1510.6 3286.26-1513.6 3310.19-1516.59 3328.13-1521.57 3351.06-1526.56 3370.01-1534.53 3393.93-1539.52 3405.9-1545.5 3419.85-1554.47 3436.8-1561.45 3450.76-1573.41 3469.7-1585.38 3486.65-1595.35 3499.61-1607.31 3513.57-1614.29 3521.54-1621.27 3528.52-1622.27 3530.52-1624.26 3530.52-1624.26 3532.51-1632.24 3539.49-1643.2 3550.46-1654.17 3559.43-1667.13 3570.4-1686.07 3584.35-1701.03 3594.32-1721.96 3607.28-1739.91 3617.25-1760.85 3627.22-1773.81 3633.2-1799.73 3643.17-1806.71 3646.16-1831.63 3653.14-1833.63 3654.14-1839.61 3654.14-1839.61 3652.15-1823.66 3643.17-1809.7 3634.2-1791.75 3621.24-1771.81 3605.29-1761.84 3596.32-1753.87 3589.34-1738.91 3575.38-1731.93 3568.4-1730.94 3566.41-1728.94 3566.41-1726.95 3562.42-1719.97 3554.44-1717.98 3554.44-1715.98 3550.46-1703.02 3535.5-1693.05 3522.54-1680.09 3504.6-1668.13 3486.65-1651.18 3458.74-1639.22 3436.8-1628.25 3413.87-1617.28 3387.95-1609.31 3368.01-1596.35 3329.13-1589.37 3298.22-1586.38 3282.27-1583.38 3251.37-1583.38 3216.47-1586.38 3188.56-1591.36 3163.63-1597.34 3143.69-1604.32 3123.75-1612.3 3105.81-1619.28 3093.85-1625.26 3082.88-1632.24 3071.91-1642.21 3057.96-1650.18 3047.99-1661.15 3035.03-1667.13 3029.04-1667.13 3027.05-1669.12 3027.05-1672.12 3024.06-1672.12 3022.06-1675.11 3021.07-1675.11 3019.07-1679.09 3017.08-1686.07 3011.1-1686.07 3009.1-1690.06 3007.11-1700.03 2999.13Z" fill="#8A0F08" fill-rule="evenodd"/><path d="M-2285.35 2996.14-2281.36 2997.14-2286.34 3002.12-2296.31 3010.1-2300.3 3012.09-2300.3 3014.09-2308.28 3021.06-2320.24 3033.03-2321.24 3035.02-2323.23 3035.02-2325.23 3039.01-2336.19 3051.97-2349.15 3069.92-2357.13 3082.88-2366.1 3098.83-2374.08 3114.78-2382.05 3134.72-2389.03 3155.66-2395.02 3184.57-2397.01 3197.53-2399 3226.44-2399 3240.4-2397.01 3270.31-2391.03 3306.2-2384.05 3333.12-2373.08 3367.01-2369.09 3375.99-2365.11 3387.95-2358.13 3402.9-2354.14 3412.87-2347.16 3427.83-2335.2 3450.76-2326.22 3465.71-2320.24 3476.68-2300.3 3506.59-2288.34 3522.54-2277.37 3536.5-2265.41 3550.46-2256.44 3560.43-2254.44 3564.41-2252.45 3564.41-2245.47 3572.39-2230.51 3587.34-2222.54 3594.32-2210.57 3605.29-2200.6 3613.26-2182.66 3627.22-2171.69 3634.2-2159.73 3642.18-2149.76 3648.16-2142.78 3652.15-2141.78 3654.14-2148.76 3653.14-2156.74 3651.15-2173.69 3646.16-2202.6 3635.2-2220.54 3627.22-2237.49 3619.25-2260.42 3606.29-2277.37 3596.32-2292.33 3586.35-2310.27 3573.39-2326.22 3560.43-2347.16 3542.48-2347.16 3540.49-2351.15 3538.49-2363.11 3526.53-2370.09 3518.55-2380.06 3507.59-2391.03 3493.63-2402.99 3477.68-2416.95 3455.74-2425.92 3439.79-2436.89 3416.86-2442.87 3403.9-2449.85 3383.96-2452.84 3375.99-2459.82 3351.06-2464.8 3330.12-2469.79 3299.22-2471.78 3271.3-2471.78 3238.4-2469.79 3213.48-2466.8 3195.53-2462.81 3179.58-2456.83 3159.64-2446.86 3135.72-2435.89 3114.78-2425.92 3099.83-2415.95 3086.86-2408.97 3077.89-2406.98 3077.89-2404.99 3073.9-2385.05 3053.96-2374.08 3044.99-2358.13 3033.03-2339.18 3021.06-2310.27 3006.11-2292.33 2999.13Z" fill="#8A0F08" fill-rule="evenodd"/><path d="M-1377.47 3273.22-1375.47 3274.22-1372.49 3288.19-1369.5 3311.14-1367.51 3332.09-1366.51 3368.01-1367.51 3400.94-1370.5 3428.88-1373.48 3446.84-1378.46 3469.79-1381.45 3480.76-1388.42 3503.71-1398.38 3527.66-1407.34 3546.62-1417.3 3563.58-1431.24 3583.54-1439.21 3593.51-1448.17 3604.49-1455.14 3612.47-1457.13 3612.47-1458.13 3615.47-1460.12 3615.47-1460.12 3617.46-1468.09 3624.45-1481.03 3636.42-1496.97 3648.39-1511.91 3658.37-1522.86 3665.36-1552.73 3680.32-1568.67 3687.31-1586.59 3694.29-1604.52 3700.28-1626.43 3706.26-1656.3 3713.25-1694.14 3719.24-1708.09 3721.23-1745.93 3724.23-1776.8 3725.22-1813.65 3725.22-1843.52 3724.23-1845.51 3722.23-1829.58 3719.24-1799.7 3714.25-1769.83 3707.26-1748.92 3701.28-1727.01 3694.29-1702.11 3685.31-1690.16 3680.32-1670.24 3671.34-1649.33 3661.36-1629.41 3650.39-1609.5 3638.42-1594.56 3628.44-1580.62 3618.46-1567.67 3608.48-1557.71 3600.5-1543.77 3588.53-1531.82 3577.55-1508.92 3554.6-1501.95 3546.62-1490.99 3533.65-1477.05 3515.69-1466.1 3499.72-1456.14 3484.75-1445.18 3466.79-1439.21 3455.82-1431.24 3439.85-1421.28 3418.9-1413.32 3399.94-1405.35 3378.99-1401.37 3366.02-1398.38 3358.04-1389.42 3327.1-1385.43 3308.15-1381.45 3292.18-1378.46 3275.22Z" fill="#8A1008" fill-rule="evenodd"/><path d="M-2609.9 3273.22-2607.9 3275.22-2601.92 3304.15-2593.93 3337.08-2585.95 3363.02-2577.96 3386.97-2573.97 3395.95-2567.99 3411.92-2560 3429.88-2552.02 3445.84-2539.05 3469.79-2527.07 3488.74-2519.09 3500.72-2506.11 3518.68-2496.14 3531.65-2484.16 3545.62-2475.18 3555.6-2460.21 3571.56-2444.24 3586.53-2441.25 3588.52-2441.25 3590.52-2437.26 3592.51-2422.29 3605.49-2410.31 3614.47-2395.35 3625.44-2380.38 3635.42-2369.4 3642.4-2348.44 3654.38-2325.49 3666.35-2306.53 3675.33-2279.59 3686.31-2252.64 3696.28-2235.68 3701.27-2214.72 3707.26-2178.8 3715.24-2141.87 3721.23-2138.88 3723.22-2143.87 3724.22-2231.69 3724.22-2272.6 3721.23-2316.51 3715.24-2354.43 3707.26-2373.39 3702.27-2406.32 3691.3-2419.3 3686.31-2434.26 3679.32-2453.22 3670.34-2470.19 3660.36-2484.16 3651.38-2503.12 3637.42-2515.1 3626.44-2523.08 3619.46-2537.05 3605.49-2543.04 3598.5-2543.04 3596.51-2545.03 3596.51-2557.01 3580.54-2568.98 3562.58-2576.97 3549.61-2585.95 3530.65-2592.93 3515.69-2599.92 3495.73-2605.91 3476.77-2611.89 3449.83-2614.89 3432.87-2617.88 3405.93-2618.88 3395.95-2618.88 3335.09-2615.89 3303.16-2611.89 3277.21Z" fill="#8A0F08" fill-rule="evenodd"/><path d="M-1453.52 3708.35-1450.54 3708.35-1451.53 3713.35-1461.48 3728.35-1472.42 3742.35-1484.36 3756.35-1497.29 3769.35-1505.25 3776.35-1520.17 3788.35-1537.08 3799.35-1554.99 3809.35-1573.89 3817.35-1592.79 3823.35-1614.68 3828.35-1641.54 3831.35-1668.4 3831.35-1702.22 3827.35-1725.11 3822.35-1746 3816.35-1766.89 3809.35-1778.83 3804.35-1806.68 3791.35-1825.58 3781.35-1834.54 3776.35-1834.54 3774.35-1827.57 3774.35-1794.74 3779.35-1772.86 3781.35-1751.97 3782.35-1702.22 3782.35-1680.34 3781.35-1652.48 3778.35-1624.63 3774.35-1595.78 3768.35-1572.9 3762.35-1549.02 3755.35-1531.12 3748.35-1516.19 3742.35-1501.27 3735.35-1485.35 3727.35-1468.44 3718.35-1454.51 3709.35Z" fill="#8A1008" fill-rule="evenodd"/><path d="M-2535.86 3707.35-2524.89 3713.35-2513.92 3720.35-2499.95 3727.35-2483 3736.35-2466.04 3743.35-2454.07 3748.35-2435.12 3755.35-2409.19 3763.35-2379.27 3770.35-2358.32 3774.35-2323.41 3779.35-2298.48 3781.35-2266.56 3782.35-2252.59 3782.35-2220.68 3781.35-2195.74 3779.35-2153.85 3773.35-2150.86 3774.35-2152.85 3777.35-2168.81 3785.35-2183.77 3793.35-2194.74 3798.35-2220.68 3809.35-2241.62 3816.35-2262.57 3822.35-2286.51 3827.35-2311.44 3830.35-2351.34 3830.35-2374.28 3827.35-2392.23 3823.35-2416.17 3815.35-2436.12 3806.35-2453.07 3796.35-2472.03 3783.35-2486.99 3770.35-2493.97 3764.35-2496.96 3761.35-2496.96 3759.35-2499.95 3758.35-2499.95 3756.35-2501.95 3756.35-2508.93 3748.35-2521.9 3732.35-2531.87 3717.35-2536.86 3710.35Z" fill="#8A1008" fill-rule="evenodd"/><path d="M-1851.65 3833.39-1846.68 3834.39-1830.75 3842.39-1810.83 3851.39-1793.91 3858.39-1761.05 3869.39-1736.16 3876.39-1710.27 3882.39-1681.4 3887.39-1658.5 3890.39-1623.65 3893.39-1623.65 3896.39-1633.61 3904.39-1646.55 3912.39-1663.48 3920.39-1681.4 3925.39-1697.33 3927.39-1711.27 3927.39-1728.2 3925.39-1748.11 3919.39-1760.06 3914.39-1773.99 3907.39-1794.9 3893.39-1794.9 3891.39-1798.89 3889.39-1809.84 3880.39-1824.77 3866.39-1835.72 3854.39-1847.67 3840.39-1851.65 3835.39Z" fill="#8A1008" fill-rule="evenodd"/><path d="M-2136.74 3832.39-2134.74 3832.39-2135.74 3836.39-2144.74 3846.39-2153.74 3857.39-2178.74 3882.39-2192.74 3893.39-2208.74 3904.39-2224.74 3913.39-2240.74 3920.39-2260.74 3925.39-2267.74 3926.39-2295.74 3926.39-2311.74 3923.39-2322.74 3920.39-2337.74 3913.39-2353.74 3903.39-2363.74 3895.39-2363.74 3893.39-2360.74 3892.39-2331.74 3890.39-2295.74 3885.39-2274.74 3881.39-2243.74 3874.39-2214.74 3865.39-2193.74 3858.39-2166.74 3847.39-2152.74 3840.39Z" fill="#8A1008" fill-rule="evenodd"/><path d="M-2121.72 3880.41-2119.74 3880.41-2119.74 3892.41-2122.71 3912.41-2129.65 3937.41-2135.6 3952.41-2141.56 3963.41-2148.5 3973.41-2155.44 3981.41-2165.36 3989.41-2176.27 3995.41-2192.14 3999.41-2198.09 4000.41-2210.99 4000.41-2228.84 3997.41-2239.75 3993.41-2241.74 3992.41-2241.74 3990.41-2219.91 3977.41-2203.05 3966.41-2184.21 3952.41-2171.31 3941.41-2159.41 3930.41-2146.52 3917.41-2137.59 3906.41-2128.66 3893.41-2122.71 3882.41Z" fill="#8B1108" fill-rule="evenodd"/><path d="M-1867.66 3881.41-1864.68 3882.41-1860.72 3890.41-1852.78 3902.41-1839.89 3918.41-1834.93 3923.41-1834.93 3925.41-1831.95 3926.41-1831.95 3928.41-1829.97 3928.41-1826.99 3931.41-1826.99 3933.41-1823.03 3935.41-1811.12 3946.41-1794.26 3959.41-1778.39 3970.41-1761.53 3981.41-1745.66 3990.41-1746.65 3993.41-1756.57 3997.41-1772.44 4000.41-1792.28 4000.41-1808.15 3996.41-1822.03 3989.41-1831.95 3981.41-1840.88 3971.41-1849.81 3956.41-1856.75 3940.41-1863.69 3916.41-1866.67 3899.41Z" fill="#8B1008" fill-rule="evenodd"/><path d="M-2047.66 4056.46-2042.71 4056.46-2044.69 4060.43-2048.65 4062.42-2048.65 4064.41-2055.57 4070.38-2056.56 4072.36-2058.54 4072.36-2060.52 4076.34-2068.43 4085.29-2079.32 4100.21-2091.19 4119.1-2099.1 4135.01-2105.04 4148.93-2111.96 4166.83-2117.9 4185.72-2123.83 4212.57-2126.8 4230.47-2128.78 4232.46-2130.76 4226.49-2134.71 4202.62-2134.71 4161.86-2130.76 4141.97-2124.82 4124.07-2118.89 4112.14-2108 4096.23-2092.18 4080.32-2076.35 4069.38-2060.52 4061.43Z" fill="#8B1008" fill-rule="evenodd"/><text fill="#FFFFFF" font-family="Aptos,Aptos_MSFontService,sans-serif" font-weight="700" font-size="165" transform="matrix(1 0 0 1 -2170.43 3253)">2022</text><text fill="#083053" font-family="Aptos,Aptos_MSFontService,sans-serif" font-weight="700" font-size="248" transform="matrix(1 0 0 1 -1277.51 3542)">RENESSANS TA’LIM   </text><text fill="#083053" font-family="Aptos,Aptos_MSFontService,sans-serif" font-weight="700" font-size="248" transform="matrix(1 0 0 1 -1277.51 3839)">UNIVERSITETI</text></g></svg>