<svg width="6132" height="8029" xmlns="http://www.w3.org/2000/svg" xmlns:xlink="http://www.w3.org/1999/xlink" overflow="hidden"><defs><clipPath id="clip0"><rect x="-1156" y="-4014" width="6132" height="8029"/></clipPath></defs><g clip-path="url(#clip0)" transform="translate(1156 4014)"><path d="M-179.5-3944.43C-179.5-3981.47-149.47-4011.5-112.426-4011.5L1000.43-4011.5C1037.47-4011.5 1067.5-3981.47 1067.5-3944.43L1067.5-3722.57C1067.5-3685.53 1037.47-3655.5 1000.43-3655.5L-112.426-3655.5C-149.47-3655.5-179.5-3685.53-179.5-3722.57Z" stroke="#145FCB" stroke-width="4.58333" stroke-miterlimit="8" stroke-dasharray="18.3333 13.75" fill="none" fill-rule="evenodd"/><path d="M-113.003-4012 1000-4012C1023.13-4012 1043.51-4000.36 1055.55-3982.65L1057-3980-170-3980-168.551-3982.65C-156.512-4000.36-136.126-4012-113.003-4012Z" fill="#145FCB" fill-rule="evenodd"/><text font-family="Cambria,Cambria_MSFontService,sans-serif" font-weight="700" font-size="73" transform="matrix(1 0 0 1 87.8647 -3803)">Ta’sischilar<tspan font-size="73" x="406.771" y="0">kengashi</tspan></text><path d="M1291.5-3944.43C1291.5-3981.47 1321.53-4011.5 1358.57-4011.5L2471.43-4011.5C2508.47-4011.5 2538.5-3981.47 2538.5-3944.43L2538.5-3722.57C2538.5-3685.53 2508.47-3655.5 2471.43-3655.5L1358.57-3655.5C1321.53-3655.5 1291.5-3685.53 1291.5-3722.57Z" stroke="#002060" stroke-width="4.58333" stroke-miterlimit="8" stroke-dasharray="18.3333 13.75" fill="none" fill-rule="evenodd"/><path d="M1358-4012 2471-4012C2494.13-4012 2514.51-4000.36 2526.55-3982.65L2528-3980 1301-3980 1302.45-3982.65C1314.49-4000.36 1334.87-4012 1358-4012Z" fill="#002060" fill-rule="evenodd"/><text font-family="Cambria,Cambria_MSFontService,sans-serif" font-weight="700" font-size="73" transform="matrix(1 0 0 1 1542.1 -3803)">Universitet<tspan font-size="73" x="394.167" y="0">prezidenti</tspan></text><path d="M1291.5-3429.9C1291.5-3476.63 1329.37-3514.5 1376.1-3514.5L2453.9-3514.5C2500.63-3514.5 2538.5-3476.63 2538.5-3429.9L2538.5-3150.1C2538.5-3103.37 2500.63-3065.5 2453.9-3065.5L1376.1-3065.5C1329.37-3065.5 1291.5-3103.37 1291.5-3150.1Z" stroke="#FFFFFF" stroke-width="4.58333" stroke-miterlimit="8" stroke-dasharray="18.3333 13.75" fill="#FFFFFF" fill-rule="evenodd"/><path d="M1358-3515 2471-3515C2494.13-3515 2514.51-3500.08 2526.55-3477.4L2528-3474 1301-3474 1302.45-3477.4C1314.49-3500.08 1334.87-3515 1358-3515Z" fill="#002060" fill-rule="evenodd"/><text font-family="Cambria,Cambria_MSFontService,sans-serif" font-weight="700" font-size="83" transform="matrix(1 0 0 1 1783.58 -3307)">Rektor<tspan font-weight="400" font-size="64" x="-324.234" y="109">Barakayev</tspan><tspan font-weight="400" font-size="64" x="-20.5879" y="109">Nusratilla</tspan><tspan font-weight="400" font-size="64" x="263.579" y="109">Rajabovich</tspan></text><path d="M-179.5-3400.61C-179.5-3437.55-149.554-3467.5-112.614-3467.5L1000.61-3467.5C1037.55-3467.5 1067.5-3437.55 1067.5-3400.61L1067.5-3179.39C1067.5-3142.45 1037.55-3112.5 1000.61-3112.5L-112.614-3112.5C-149.554-3112.5-179.5-3142.45-179.5-3179.39Z" stroke="#FFFFFF" stroke-width="4.58333" stroke-miterlimit="8" stroke-dasharray="18.3333 13.75" fill="#FFFFFF" fill-rule="evenodd"/><path d="M-113.003-3468 1000-3468C1023.13-3468 1043.51-3456.36 1055.55-3438.65L1057-3436-170-3436-168.551-3438.65C-156.512-3456.36-136.126-3468-113.003-3468Z" fill="#145FCB" fill-rule="evenodd"/><text font-family="Cambria,Cambria_MSFontService,sans-serif" font-weight="700" font-size="73" transform="matrix(1 0 0 1 94.1666 -3259)">Universitet<tspan font-size="73" x="394.167" y="0">kengashi</tspan></text><path d="M2772.5-3400.61C2772.5-3437.55 2802.45-3467.5 2839.39-3467.5L3952.61-3467.5C3989.55-3467.5 4019.5-3437.55 4019.5-3400.61L4019.5-3179.39C4019.5-3142.45 3989.55-3112.5 3952.61-3112.5L2839.39-3112.5C2802.45-3112.5 2772.5-3142.45 2772.5-3179.39Z" stroke="#FFFFFF" stroke-width="4.58333" stroke-miterlimit="8" stroke-dasharray="18.3333 13.75" fill="#FFFFFF" fill-rule="evenodd"/><path d="M2839-3468 3952-3468C3975.13-3468 3995.51-3456.36 4007.55-3438.65L4009-3436 2782-3436 2783.45-3438.65C2795.49-3456.36 2815.87-3468 2839-3468Z" fill="#697FD7" fill-rule="evenodd"/><text font-family="Cambria,Cambria_MSFontService,sans-serif" font-weight="700" font-size="73" transform="matrix(1 0 0 1 3036.4 -3259)">Rektor<tspan font-size="73" x="249.792" y="0">maslahatchisi</tspan></text><path d="M-882.5-2623.98C-882.5-2676.73-839.732-2719.5-786.976-2719.5L268.976-2719.5C321.732-2719.5 364.5-2676.73 364.5-2623.98L364.5-2308.02C364.5-2255.27 321.732-2212.5 268.976-2212.5L-786.976-2212.5C-839.732-2212.5-882.5-2255.27-882.5-2308.02Z" stroke="#FFFFFF" stroke-width="4.58333" stroke-miterlimit="8" stroke-dasharray="18.3333 13.75" fill="#FFFFFF" fill-rule="evenodd"/><path d="M-816.003-2720 297.003-2720C320.126-2720 340.512-2703.27 352.55-2677.81L354-2674-873-2674-871.551-2677.81C-859.512-2703.27-839.126-2720-816.003-2720Z" fill="#329CC6" fill-rule="evenodd"/><text font-family="Cambria,Cambria_MSFontService,sans-serif" font-weight="400" font-size="73" transform="matrix(1 0 0 1 -596.161 -2515)">Yoshlar<tspan font-size="73" x="255.521" y="0">masalalari</tspan><tspan font-size="73" x="599.844" y="0">va</tspan><tspan font-size="73" x="-38.3854" y="88">ma’naviy</tspan>-ma’rifiy<tspan font-size="73" x="532.24" y="88">ishlar</tspan><tspan font-size="73" x="-87.3812" y="176">bo‘yicha</tspan><tspan font-size="73" x="190.483" y="176">birinchi</tspan><tspan font-size="73" x="452.306" y="176">prorektor</tspan></text><path d="M552.5-2623.98C552.5-2676.73 595.267-2719.5 648.024-2719.5L1702.98-2719.5C1755.73-2719.5 1798.5-2676.73 1798.5-2623.98L1798.5-2308.02C1798.5-2255.27 1755.73-2212.5 1702.98-2212.5L648.024-2212.5C595.267-2212.5 552.5-2255.27 552.5-2308.02Z" stroke="#FFFFFF" stroke-width="4.58333" stroke-miterlimit="8" stroke-dasharray="18.3333 13.75" fill="#FFFFFF" fill-rule="evenodd"/><path d="M618.951-2720 1731.05-2720C1754.15-2720 1774.52-2703.27 1786.55-2677.81L1788-2674 562-2674 563.448-2677.81C575.477-2703.27 595.847-2720 618.951-2720Z" fill="#7030A0" fill-rule="evenodd"/><text font-family="Cambria,Cambria_MSFontService,sans-serif" font-weight="400" font-size="73" transform="matrix(1 0 0 1 847.285 -2460)">O‘quv<tspan font-size="73" x="198.229" y="0">ishlar</tspan><tspan font-size="73" x="393.594" y="0">bo‘yicha</tspan><tspan font-size="73" x="173.594" y="88">prorektor</tspan></text><path d="M2002.5-2623.98C2002.5-2676.73 2045.27-2719.5 2098.02-2719.5L3153.98-2719.5C3206.73-2719.5 3249.5-2676.73 3249.5-2623.98L3249.5-2308.02C3249.5-2255.27 3206.73-2212.5 3153.98-2212.5L2098.02-2212.5C2045.27-2212.5 2002.5-2255.27 2002.5-2308.02Z" stroke="#FFFFFF" stroke-width="4.58333" stroke-miterlimit="8" stroke-dasharray="18.3333 13.75" fill="#FFFFFF" fill-rule="evenodd"/><path d="M2069-2720 3182-2720C3205.13-2720 3225.51-2703.27 3237.55-2677.81L3239-2674 2012-2674 2013.45-2677.81C2025.49-2703.27 2045.87-2720 2069-2720Z" fill="#145FCB" fill-rule="evenodd"/><text font-family="Cambria,Cambria_MSFontService,sans-serif" font-weight="400" font-size="73" transform="matrix(1 0 0 1 2136.03 -2473)">Ilmiy<tspan font-size="73" x="179.323" y="0">ishlar</tspan><tspan font-size="73" x="374.688" y="0">va</tspan><tspan font-size="73" x="464.063" y="0">innovatsiyalar</tspan><tspan font-size="73" x="164.427" y="88">bo‘yicha</tspan><tspan font-size="73" x="442.292" y="88">prorektor</tspan></text><path d="M3452.5-2623.98C3452.5-2676.73 3495.27-2719.5 3548.02-2719.5L4603.98-2719.5C4656.73-2719.5 4699.5-2676.73 4699.5-2623.98L4699.5-2308.02C4699.5-2255.27 4656.73-2212.5 4603.98-2212.5L3548.02-2212.5C3495.27-2212.5 3452.5-2255.27 3452.5-2308.02Z" stroke="#FFFFFF" stroke-width="4.58333" stroke-miterlimit="8" stroke-dasharray="18.3333 13.75" fill="#FFFFFF" fill-rule="evenodd"/><path d="M3519-2720 4632-2720C4655.13-2720 4675.51-2703.27 4687.55-2677.81L4689-2674 3462-2674 3463.45-2677.81C3475.49-2703.27 3495.87-2720 3519-2720Z" fill="#697FD7" fill-rule="evenodd"/><text font-family="Cambria,Cambria_MSFontService,sans-serif" font-weight="400" font-size="73" transform="matrix(1 0 0 1 3740.19 -2473)">Moliya<tspan font-size="73" x="212.552" y="0">-</tspan><tspan font-size="73" x="237.188" y="0">iqtisod</tspan><tspan font-size="73" x="470.364" y="0">ishlari</tspan><tspan font-size="73" x="42.0979" y="88">bo‘yicha</tspan><tspan font-size="73" x="319.962" y="88">prorektor</tspan></text><path d="M-882.5-2017.09C-882.5-2085.25-827.248-2140.5-759.091-2140.5L241.091-2140.5C309.248-2140.5 364.5-2085.25 364.5-2017.09L364.5-1608.91C364.5-1540.75 309.248-1485.5 241.091-1485.5L-759.091-1485.5C-827.248-1485.5-882.5-1540.75-882.5-1608.91Z" stroke="#FFFFFF" stroke-width="4.58333" stroke-miterlimit="8" stroke-dasharray="18.3333 13.75" fill="#FFFFFF" fill-rule="evenodd"/><path d="M-816.003-2141 297.003-2141C320.126-2141 340.512-2124.27 352.55-2098.81L354-2095-873-2095-871.551-2098.81C-859.512-2124.27-839.126-2141-816.003-2141Z" fill="#329CC6" fill-rule="evenodd"/><text font-family="Cambria,Cambria_MSFontService,sans-serif" font-weight="400" font-size="73" transform="matrix(1 0 0 1 -592.162 -1796)">Yoshlar<tspan font-size="73" x="255.521" y="0">bilan</tspan><tspan font-size="73" x="429.115" y="0">ishlash</tspan>,<tspan font-size="73" x="46.4063" y="88">ma’naviy</tspan>-ma’rifat<tspan font-size="73" x="603.854" y="88">,</tspan><tspan font-size="73" x="-159.844" y="176">Axborot</tspan><tspan font-size="73" x="94.5313" y="176">-</tspan>resurs<tspan font-size="73" x="335.156" y="176">markazi</tspan><tspan font-size="73" x="607.292" y="176">bo‘limi</tspan></text><path d="M-341-2040.5C-341-2056.24-328.24-2069-312.499-2069L-198.501-2069C-182.76-2069-170-2056.24-170-2040.5L-170-1916.5C-170-1900.76-182.76-1888-198.501-1888L-312.499-1888C-328.24-1888-341-1900.76-341-1916.5Z" fill="#F2F4F9" fill-rule="evenodd"/><text fill="#767171" font-family="Bahnschrift,Bahnschrift_MSFontService,sans-serif" font-weight="400" font-size="146" transform="matrix(1 0 0 1 -293.521 -1922)">6</text><path d="M-882.5-1318.87C-882.5-1368.93-841.925-1409.5-791.874-1409.5L273.874-1409.5C323.925-1409.5 364.5-1368.93 364.5-1318.87L364.5-1019.13C364.5-969.075 323.925-928.5 273.874-928.5L-791.874-928.5C-841.925-928.5-882.5-969.075-882.5-1019.13Z" stroke="#FFFFFF" stroke-width="4.58333" stroke-miterlimit="8" stroke-dasharray="18.3333 13.75" fill="#FFFFFF" fill-rule="evenodd"/><path d="M-816.003-1410 297.003-1410C320.126-1410 340.512-1393.27 352.55-1367.81L354-1364-873-1364-871.551-1367.81C-859.512-1393.27-839.126-1410-816.003-1410Z" fill="#329CC6" fill-rule="evenodd"/><text font-family="Cambria,Cambria_MSFontService,sans-serif" font-weight="400" font-size="73" transform="matrix(1 0 0 1 -391.355 -1065)">Psixolog</text><path d="M-341-1309.5C-341-1325.24-328.24-1338-312.499-1338L-198.501-1338C-182.76-1338-170-1325.24-170-1309.5L-170-1185.5C-170-1169.76-182.76-1157-198.501-1157L-312.499-1157C-328.24-1157-341-1169.76-341-1185.5Z" fill="#F2F4F9" fill-rule="evenodd"/><text fill="#767171" font-family="Bahnschrift,Bahnschrift_MSFontService,sans-serif" font-weight="400" font-size="146" transform="matrix(1 0 0 1 -280.215 -1191)">1</text><path d="M552.5-2035.93C552.5-2093.68 599.316-2140.5 657.068-2140.5L1693.93-2140.5C1751.68-2140.5 1798.5-2093.68 1798.5-2035.93L1798.5-1690.07C1798.5-1632.32 1751.68-1585.5 1693.93-1585.5L657.068-1585.5C599.316-1585.5 552.5-1632.32 552.5-1690.07Z" stroke="#FFFFFF" stroke-width="4.58333" stroke-miterlimit="8" stroke-dasharray="18.3333 13.75" fill="#FFFFFF" fill-rule="evenodd"/><path d="M618.951-2141 1731.05-2141C1754.15-2141 1774.52-2124.27 1786.55-2098.81L1788-2095 562-2095 563.448-2098.81C575.477-2124.27 595.847-2141 618.951-2141Z" fill="#7030A0" fill-rule="evenodd"/><text font-family="Cambria,Cambria_MSFontService,sans-serif" font-weight="400" font-size="73" transform="matrix(1 0 0 1 774.811 -1796)">O‘quv<tspan font-size="73" x="198.229" y="0">uslubiy</tspan><tspan font-size="73" x="445.156" y="0">boshqarma</tspan></text><path d="M1094-2040.5C1094-2056.24 1106.76-2069 1122.5-2069L1236.5-2069C1252.24-2069 1265-2056.24 1265-2040.5L1265-1916.5C1265-1900.76 1252.24-1888 1236.5-1888L1122.5-1888C1106.76-1888 1094-1900.76 1094-1916.5Z" fill="#F2F4F9" fill-rule="evenodd"/><text fill="#767171" font-family="Bahnschrift,Bahnschrift_MSFontService,sans-serif" font-weight="400" font-size="146" transform="matrix(1 0 0 1 1141.06 -1922)">8</text><path d="M552.5-1408.15C552.5-1469.65 602.353-1519.5 663.85-1519.5L1687.15-1519.5C1748.65-1519.5 1798.5-1469.65 1798.5-1408.15L1798.5-1039.85C1798.5-978.353 1748.65-928.5 1687.15-928.5L663.85-928.5C602.353-928.5 552.5-978.353 552.5-1039.85Z" stroke="#FFFFFF" stroke-width="4.58333" stroke-miterlimit="8" stroke-dasharray="18.3333 13.75" fill="#FFFFFF" fill-rule="evenodd"/><path d="M618.951-1520 1731.05-1520C1754.15-1520 1774.52-1503.27 1786.55-1477.81L1788-1474 562-1474 563.448-1477.81C575.477-1503.27 595.847-1520 618.951-1520Z" fill="#7030A0" fill-rule="evenodd"/><text font-family="Cambria,Cambria_MSFontService,sans-serif" font-weight="400" font-size="73" transform="matrix(1 0 0 1 821.504 -1175)">Marketing <tspan font-size="73" x="338.021" y="0">va</tspan><tspan font-size="73" x="427.396" y="0">talabalar</tspan><tspan font-size="73" x="88.8021" y="88">amaliyoti</tspan><tspan font-size="73" x="400.469" y="88">bo‘limi</tspan></text><path d="M1094-1419.5C1094-1435.24 1106.76-1448 1122.5-1448L1236.5-1448C1252.24-1448 1265-1435.24 1265-1419.5L1265-1295.5C1265-1279.76 1252.24-1267 1236.5-1267L1122.5-1267C1106.76-1267 1094-1279.76 1094-1295.5Z" fill="#F2F4F9" fill-rule="evenodd"/><text fill="#767171" font-family="Bahnschrift,Bahnschrift_MSFontService,sans-serif" font-weight="400" font-size="146" transform="matrix(1 0 0 1 1141.06 -1301)">4</text><path d="M2002.5-2017.09C2002.5-2085.25 2057.75-2140.5 2125.91-2140.5L3126.09-2140.5C3194.25-2140.5 3249.5-2085.25 3249.5-2017.09L3249.5-1608.91C3249.5-1540.75 3194.25-1485.5 3126.09-1485.5L2125.91-1485.5C2057.75-1485.5 2002.5-1540.75 2002.5-1608.91Z" stroke="#FFFFFF" stroke-width="4.58333" stroke-miterlimit="8" stroke-dasharray="18.3333 13.75" fill="#FFFFFF" fill-rule="evenodd"/><path d="M2069-2141 3182-2141C3205.13-2141 3225.51-2124.27 3237.55-2098.81L3239-2095 2012-2095 2013.45-2098.81C2025.49-2124.27 2045.87-2141 2069-2141Z" fill="#145FCB" fill-rule="evenodd"/><text font-family="Cambria,Cambria_MSFontService,sans-serif" font-weight="400" font-size="73" transform="matrix(1 0 0 1 2118.43 -1796)">Ilmiy<tspan font-size="73" x="179.323" y="0">tadqiqotlar</tspan><tspan font-size="73" x="531.667" y="0">, </tspan>innovatsiyalar<tspan font-size="73" x="-76.198" y="88">ilmiy</tspan><tspan font-size="73" x="83.6458" y="88">-</tspan><tspan font-size="73" x="108.281" y="88">pedagogik</tspan><tspan font-size="73" x="447.448" y="88">kadrlarni</tspan><tspan font-size="73" x="756.823" y="88">tayyorlash</tspan><tspan font-size="73" x="69.0479" y="176">va</tspan><tspan font-size="73" x="158.423" y="176">iqtidorli</tspan><tspan font-size="73" x="431.131" y="176">talabalar</tspan><tspan font-size="73" x="726.756" y="176">bo‘limi</tspan></text><path d="M2544-2040.5C2544-2056.24 2556.76-2069 2572.5-2069L2686.5-2069C2702.24-2069 2715-2056.24 2715-2040.5L2715-1916.5C2715-1900.76 2702.24-1888 2686.5-1888L2572.5-1888C2556.76-1888 2544-1900.76 2544-1916.5Z" fill="#F2F4F9" fill-rule="evenodd"/><text fill="#767171" font-family="Bahnschrift,Bahnschrift_MSFontService,sans-serif" font-weight="400" font-size="146" transform="matrix(1 0 0 1 2591.23 -1922)">4</text><path d="M2002.5-1318.09C2002.5-1386.25 2057.75-1441.5 2125.91-1441.5L3126.09-1441.5C3194.25-1441.5 3249.5-1386.25 3249.5-1318.09L3249.5-909.909C3249.5-841.752 3194.25-786.5 3126.09-786.5L2125.91-786.5C2057.75-786.5 2002.5-841.752 2002.5-909.909Z" stroke="#FFFFFF" stroke-width="4.58333" stroke-miterlimit="8" stroke-dasharray="18.3333 13.75" fill="#FFFFFF" fill-rule="evenodd"/><path d="M2069-1442 3182-1442C3205.13-1442 3225.51-1425.27 3237.55-1399.81L3239-1396 2012-1396 2013.45-1399.81C2025.49-1425.27 2045.87-1442 2069-1442Z" fill="#145FCB" fill-rule="evenodd"/><text font-family="Cambria,Cambria_MSFontService,sans-serif" font-weight="400" font-size="73" transform="matrix(1 0 0 1 2146.5 -1097)">Raqamli<tspan font-size="73" x="276.146" y="0">ta’lim</tspan><tspan font-size="73" x="470.938" y="0">texnologiyalari</tspan><tspan font-size="73" x="942.448" y="0">, </tspan><tspan font-size="73" x="-36.0938" y="88">mahalliy</tspan><tspan font-size="73" x="252.084" y="88">va</tspan><tspan font-size="73" x="341.459" y="88">xalqaro</tspan><tspan font-size="73" x="594.688" y="88">reyting</tspan><tspan font-size="73" x="835.886" y="88">bilan</tspan><tspan font-size="73" x="156.406" y="176">ishlash</tspan><tspan font-size="73" x="393.594" y="176">boshqarmasi</tspan></text><path d="M2544-1341.5C2544-1357.24 2556.76-1370 2572.5-1370L2686.5-1370C2702.24-1370 2715-1357.24 2715-1341.5L2715-1217.5C2715-1201.76 2702.24-1189 2686.5-1189L2572.5-1189C2556.76-1189 2544-1201.76 2544-1217.5Z" fill="#F2F4F9" fill-rule="evenodd"/><text fill="#767171" font-family="Bahnschrift,Bahnschrift_MSFontService,sans-serif" font-weight="400" font-size="146" transform="matrix(1 0 0 1 2591.23 -1223)">6</text><path d="M3465.5-1408.15C3465.5-1469.65 3515.35-1519.5 3576.85-1519.5L4601.15-1519.5C4662.65-1519.5 4712.5-1469.65 4712.5-1408.15L4712.5-1039.85C4712.5-978.353 4662.65-928.5 4601.15-928.5L3576.85-928.5C3515.35-928.5 3465.5-978.353 3465.5-1039.85Z" stroke="#FFFFFF" stroke-width="4.58333" stroke-miterlimit="8" stroke-dasharray="18.3333 13.75" fill="#FFFFFF" fill-rule="evenodd"/><path d="M3532-1520 4645-1520C4668.13-1520 4688.51-1503.27 4700.55-1477.81L4702-1474 3475-1474 3476.45-1477.81C3488.49-1503.27 3508.87-1520 3532-1520Z" fill="#697FD7" fill-rule="evenodd"/><text font-family="Cambria,Cambria_MSFontService,sans-serif" font-weight="400" font-size="73" transform="matrix(1 0 0 1 3846.3 -1175)">Bosh <tspan font-size="73" x="171.875" y="0">muhandis</tspan></text><path d="M4007-1419.5C4007-1435.24 4019.76-1448 4035.5-1448L4149.5-1448C4165.24-1448 4178-1435.24 4178-1419.5L4178-1295.5C4178-1279.76 4165.24-1267 4149.5-1267L4035.5-1267C4019.76-1267 4007-1279.76 4007-1295.5Z" fill="#F2F4F9" fill-rule="evenodd"/><text fill="#767171" font-family="Bahnschrift,Bahnschrift_MSFontService,sans-serif" font-weight="400" font-size="146" transform="matrix(1 0 0 1 4063.44 -1301)">1</text><path d="M3465.5-2057.15C3465.5-2118.65 3515.35-2168.5 3576.85-2168.5L4601.15-2168.5C4662.65-2168.5 4712.5-2118.65 4712.5-2057.15L4712.5-1688.85C4712.5-1627.35 4662.65-1577.5 4601.15-1577.5L3576.85-1577.5C3515.35-1577.5 3465.5-1627.35 3465.5-1688.85Z" stroke="#FFFFFF" stroke-width="4.58333" stroke-miterlimit="8" stroke-dasharray="18.3333 13.75" fill="#FFFFFF" fill-rule="evenodd"/><path d="M3532-2169 4645-2169C4668.13-2169 4688.51-2152.27 4700.55-2126.81L4702-2123 3475-2123 3476.45-2126.81C3488.49-2152.27 3508.87-2169 3532-2169Z" fill="#697FD7" fill-rule="evenodd"/><text font-family="Cambria,Cambria_MSFontService,sans-serif" font-weight="400" font-size="73" transform="matrix(1 0 0 1 3882.1 -1802)">Buxgalteriya<tspan font-size="73" x="397.604" y="0">,</tspan><tspan font-size="73" x="-98.5415" y="88">Reja</tspan><tspan font-size="73" x="38.3855" y="88">-</tspan><tspan font-size="73" x="63.021" y="88">moliya</tspan><tspan font-size="73" x="293.333" y="88">bo‘limi</tspan></text><path d="M4007-2068.5C4007-2084.24 4019.76-2097 4035.5-2097L4149.5-2097C4165.24-2097 4178-2084.24 4178-2068.5L4178-1944.5C4178-1928.76 4165.24-1916 4149.5-1916L4035.5-1916C4019.76-1916 4007-1928.76 4007-1944.5Z" fill="#F2F4F9" fill-rule="evenodd"/><text fill="#767171" font-family="Bahnschrift,Bahnschrift_MSFontService,sans-serif" font-weight="400" font-size="146" transform="matrix(1 0 0 1 4054.42 -1950)">4</text><path d="M3465.5-772.961C3465.5-834.562 3515.44-884.5 3577.04-884.5L4600.96-884.5C4662.56-884.5 4712.5-834.562 4712.5-772.961L4712.5-404.039C4712.5-342.438 4662.56-292.5 4600.96-292.5L3577.04-292.5C3515.44-292.5 3465.5-342.438 3465.5-404.039Z" stroke="#FFFFFF" stroke-width="4.58333" stroke-miterlimit="8" stroke-dasharray="18.3333 13.75" fill="#FFFFFF" fill-rule="evenodd"/><path d="M3532-885 4645-885C4668.13-885 4688.51-868.266 4700.55-842.815L4702-839 3475-839 3476.45-842.815C3488.49-868.266 3508.87-885 3532-885Z" fill="#697FD7" fill-rule="evenodd"/><text font-family="Cambria,Cambria_MSFontService,sans-serif" font-weight="400" font-size="73" transform="matrix(1 0 0 1 3741.74 -540)">Texnik<tspan font-size="73" x="214.271" y="0">-</tspan><tspan font-size="73" x="238.906" y="0">foydalanish</tspan><tspan font-size="73" x="619.896" y="0">va</tspan><tspan font-size="73" x="117.173" y="88">xo‘jalik</tspan><tspan font-size="73" x="358.371" y="88">bo‘limi</tspan></text><path d="M4007-784.499C4007-800.24 4019.76-813 4035.5-813L4149.5-813C4165.24-813 4178-800.24 4178-784.499L4178-660.501C4178-644.76 4165.24-632 4149.5-632L4035.5-632C4019.76-632 4007-644.76 4007-660.501Z" fill="#F2F4F9" fill-rule="evenodd"/><text fill="#767171" font-family="Bahnschrift,Bahnschrift_MSFontService,sans-serif" font-weight="400" font-size="146" transform="matrix(1 0 0 1 4015.95 -666)">22</text><path d="M3465.5-146.15C3465.5-207.647 3515.35-257.5 3576.85-257.5L4601.15-257.5C4662.65-257.5 4712.5-207.647 4712.5-146.15L4712.5 222.149C4712.5 283.647 4662.65 333.5 4601.15 333.5L3576.85 333.5C3515.35 333.5 3465.5 283.647 3465.5 222.149Z" stroke="#FFFFFF" stroke-width="4.58333" stroke-miterlimit="8" stroke-dasharray="18.3333 13.75" fill="#FFFFFF" fill-rule="evenodd"/><path d="M3532-258 4645-258C4668.13-258 4688.51-241.266 4700.55-215.815L4702-212 3475-212 3476.45-215.815C3488.49-241.266 3508.87-258 3532-258Z" fill="#697FD7" fill-rule="evenodd"/><text font-family="Cambria,Cambria_MSFontService,sans-serif" font-weight="400" font-size="73" transform="matrix(1 0 0 1 3690.74 87)">Matbuot<tspan font-size="73" x="280.729" y="0">xizmati</tspan><tspan font-size="73" x="528.802" y="0">va</tspan><tspan font-size="73" x="618.177" y="0">qabul</tspan><tspan font-size="73" x="-93.0874" y="88">jarayonlarini</tspan><tspan font-size="73" x="330.298" y="88">muvofiqlashtirish</tspan><tspan font-size="73" x="288.75" y="176">b</tspan><tspan font-size="73" x="328.854" y="176">o‘limi</tspan></text><path d="M4007-158.499C4007-174.24 4019.76-187 4035.5-187L4149.5-187C4165.24-187 4178-174.24 4178-158.499L4178-34.5004C4178-18.76 4165.24-5.99983 4149.5-5.99983L4035.5-5.99983C4019.76-5.99983 4007-18.76 4007-34.5004Z" fill="#F2F4F9" fill-rule="evenodd"/><text fill="#767171" font-family="Bahnschrift,Bahnschrift_MSFontService,sans-serif" font-weight="400" font-size="146" transform="matrix(1 0 0 1 4054.42 -40)">9</text><path d="M-882.5-500.874C-882.5-550.926-841.925-591.5-791.874-591.5L273.874-591.5C323.925-591.5 364.5-550.926 364.5-500.874L364.5-201.126C364.5-151.074 323.925-110.5 273.874-110.5L-791.874-110.5C-841.925-110.5-882.5-151.074-882.5-201.126Z" stroke="#FFFFFF" stroke-width="4.58333" stroke-miterlimit="8" stroke-dasharray="18.3333 13.75" fill="#FFFFFF" fill-rule="evenodd"/><path d="M-816.003-592 297.003-592C320.126-592 340.512-575.266 352.55-549.815L354-546-873-546-871.551-549.815C-859.512-575.266-839.126-592-816.003-592Z" fill="#A9D18E" fill-rule="evenodd"/><text font-family="Cambria,Cambria_MSFontService,sans-serif" font-weight="400" font-size="73" transform="matrix(1 0 0 1 -579.272 -247)">Pedagogika<tspan font-size="73" x="376.406" y="0">fakulteti</tspan></text><path d="M-341-491.5C-341-507.24-328.24-520-312.499-520L-198.501-520C-182.76-520-170-507.24-170-491.5L-170-367.501C-170-351.76-182.76-339-198.501-339L-312.499-339C-328.24-339-341-351.76-341-367.501Z" fill="#F2F4F9" fill-rule="evenodd"/><text fill="#767171" font-family="Bahnschrift,Bahnschrift_MSFontService,sans-serif" font-weight="400" font-size="146" transform="matrix(1 0 0 1 -293.521 -373)">6</text><path d="M562.5-500.875C562.5-550.926 603.074-591.5 653.125-591.5L1717.87-591.5C1767.93-591.5 1808.5-550.926 1808.5-500.875L1808.5-201.125C1808.5-151.074 1767.93-110.5 1717.87-110.5L653.125-110.5C603.074-110.5 562.5-151.074 562.5-201.125Z" stroke="#FFFFFF" stroke-width="4.58333" stroke-miterlimit="8" stroke-dasharray="18.3333 13.75" fill="#FFFFFF" fill-rule="evenodd"/><path d="M628.951-592 1741.05-592C1764.15-592 1784.52-575.266 1796.55-549.815L1798-546 572-546 573.448-549.815C585.477-575.266 605.847-592 628.951-592Z" fill="#9DC3E6" fill-rule="evenodd"/><text font-family="Cambria,Cambria_MSFontService,sans-serif" font-weight="400" font-size="73" transform="matrix(1 0 0 1 765.034 -247)">Filologiya<tspan font-size="73" x="324.271" y="0">va</tspan><tspan font-size="73" x="413.646" y="0">tarix</tspan><tspan font-size="73" x="576.927" y="0">fakulteti</tspan></text><path d="M1104-491.5C1104-507.24 1116.76-520 1132.5-520L1246.5-520C1262.24-520 1275-507.24 1275-491.5L1275-367.501C1275-351.76 1262.24-339 1246.5-339L1132.5-339C1116.76-339 1104-351.76 1104-367.501Z" fill="#F2F4F9" fill-rule="evenodd"/><text fill="#767171" font-family="Bahnschrift,Bahnschrift_MSFontService,sans-serif" font-weight="400" font-size="146" transform="matrix(1 0 0 1 1150.57 -373)">6</text><path d="M2002.5-500.874C2002.5-550.926 2043.07-591.5 2093.13-591.5L3158.87-591.5C3208.93-591.5 3249.5-550.926 3249.5-500.874L3249.5-201.126C3249.5-151.074 3208.93-110.5 3158.87-110.5L2093.13-110.5C2043.07-110.5 2002.5-151.074 2002.5-201.126Z" stroke="#FFFFFF" stroke-width="4.58333" stroke-miterlimit="8" stroke-dasharray="18.3333 13.75" fill="#FFFFFF" fill-rule="evenodd"/><path d="M2069-592 3182-592C3205.13-592 3225.51-575.266 3237.55-549.815L3239-546 2012-546 2013.45-549.815C2025.49-575.266 2045.87-592 2069-592Z" fill="#FFD966" fill-rule="evenodd"/><text font-family="Cambria,Cambria_MSFontService,sans-serif" font-weight="400" font-size="73" transform="matrix(1 0 0 1 2137.91 -247)">Matematika<tspan font-size="73" x="389.011" y="0">va</tspan><tspan font-size="73" x="478.386" y="0">iqtisod</tspan><tspan font-size="73" x="711.563" y="0">fakulteti</tspan></text><path d="M2544-491.5C2544-507.24 2556.76-520 2572.5-520L2686.5-520C2702.24-520 2715-507.24 2715-491.5L2715-367.501C2715-351.76 2702.24-339 2686.5-339L2572.5-339C2556.76-339 2544-351.76 2544-367.501Z" fill="#F2F4F9" fill-rule="evenodd"/><text fill="#767171" font-family="Bahnschrift,Bahnschrift_MSFontService,sans-serif" font-weight="400" font-size="146" transform="matrix(1 0 0 1 2591.24 -373)">6</text><path d="M-882.5 26.9288C-882.5-12.5202-850.52-44.4998-811.072-44.4998L293.072-44.4998C332.52-44.4998 364.5-12.5202 364.5 26.9288L364.5 212.071C364.5 251.52 332.52 283.5 293.072 283.5L-811.072 283.5C-850.52 283.5-882.5 251.52-882.5 212.071Z" stroke="#FFFFFF" stroke-width="4.58333" stroke-miterlimit="8" stroke-dasharray="18.3333 13.75" fill="#FFFFFF" fill-rule="evenodd"/><path d="M-816.003-45 297.003-45C320.126-45 340.512-28.2662 352.55-2.81471L354 1.00003-873 1.00003-871.551-2.81471C-859.512-28.2662-839.126-45-816.003-45Z" fill="#A9D18E" fill-rule="evenodd"/><text font-family="Cambria,Cambria_MSFontService,sans-serif" font-weight="400" font-size="73" transform="matrix(1 0 0 1 -563.814 122)">Pedagogik<tspan font-size="73" x="340.313" y="0">ta’lim</tspan><tspan font-size="73" x="535.104" y="0">va</tspan><tspan font-size="73" x="-27.775" y="88">psixologiya</tspan><tspan font-size="73" x="344.621" y="88">kafedrasi</tspan></text><path d="M-882.5 404.929C-882.5 365.48-850.52 333.5-811.072 333.5L293.072 333.5C332.52 333.5 364.5 365.48 364.5 404.929L364.5 590.071C364.5 629.52 332.52 661.5 293.072 661.5L-811.072 661.5C-850.52 661.5-882.5 629.52-882.5 590.071Z" stroke="#FFFFFF" stroke-width="4.58333" stroke-miterlimit="8" stroke-dasharray="18.3333 13.75" fill="#FFFFFF" fill-rule="evenodd"/><path d="M-816.003 333 297.003 333C320.126 333 340.512 349.734 352.55 375.185L354 379-873 379-871.551 375.185C-859.512 349.734-839.126 333-816.003 333Z" fill="#A9D18E" fill-rule="evenodd"/><text font-family="Cambria,Cambria_MSFontService,sans-serif" font-weight="400" font-size="73" transform="matrix(1 0 0 1 -635.417 538)">Sport <tspan font-size="73" x="187.344" y="0">faoliyati</tspan><tspan font-size="73" x="460.052" y="0">kafedrasi</tspan></text><path d="M562.5 26.9287C562.5-12.5202 594.479-44.4998 633.928-44.4998L1737.07-44.4998C1776.52-44.4998 1808.5-12.5202 1808.5 26.9287L1808.5 212.072C1808.5 251.52 1776.52 283.5 1737.07 283.5L633.928 283.5C594.479 283.5 562.5 251.52 562.5 212.072Z" stroke="#FFFFFF" stroke-width="4.58333" stroke-miterlimit="8" stroke-dasharray="18.3333 13.75" fill="#FFFFFF" fill-rule="evenodd"/><path d="M628.951-45 1741.05-45C1764.15-45 1784.52-28.2662 1796.55-2.81471L1798 1.00003 572 1.00003 573.448-2.81471C585.477-28.2662 605.847-45 628.951-45Z" fill="#9DC3E6" fill-rule="evenodd"/><text font-family="Cambria,Cambria_MSFontService,sans-serif" font-weight="400" font-size="73" transform="matrix(1 0 0 1 877.039 161)">Filologiya<tspan font-size="73" x="324.271" y="0">kafedrasi</tspan></text><path d="M562.5 404.929C562.5 365.48 594.479 333.5 633.928 333.5L1737.07 333.5C1776.52 333.5 1808.5 365.48 1808.5 404.929L1808.5 590.071C1808.5 629.52 1776.52 661.5 1737.07 661.5L633.928 661.5C594.479 661.5 562.5 629.52 562.5 590.071Z" stroke="#FFFFFF" stroke-width="4.58333" stroke-miterlimit="8" stroke-dasharray="18.3333 13.75" fill="#FFFFFF" fill-rule="evenodd"/><path d="M628.951 333 1741.05 333C1764.15 333 1784.52 349.734 1796.55 375.185L1798 379 572 379 573.448 375.185C585.477 349.734 605.847 333 628.951 333Z" fill="#9DC3E6" fill-rule="evenodd"/><text font-family="Cambria,Cambria_MSFontService,sans-serif" font-weight="400" font-size="73" transform="matrix(1 0 0 1 865.867 538)">Chet <tspan font-size="73" x="158.125" y="0">tillari</tspan><tspan font-size="73" x="346.615" y="0">kafedrasi</tspan></text><path d="M2002.5 26.9288C2002.5-12.5202 2034.48-44.4998 2073.93-44.4998L3178.07-44.4998C3217.52-44.4998 3249.5-12.5202 3249.5 26.9288L3249.5 212.071C3249.5 251.52 3217.52 283.5 3178.07 283.5L2073.93 283.5C2034.48 283.5 2002.5 251.52 2002.5 212.071Z" stroke="#FFFFFF" stroke-width="4.58333" stroke-miterlimit="8" stroke-dasharray="18.3333 13.75" fill="#FFFFFF" fill-rule="evenodd"/><path d="M2069-45 3182-45C3205.13-45 3225.51-28.2662 3237.55-2.81471L3239 1.00003 2012 1.00003 2013.45-2.81471C2025.49-28.2662 2045.87-45 2069-45Z" fill="#FFD966" fill-rule="evenodd"/><text font-family="Cambria,Cambria_MSFontService,sans-serif" font-weight="400" font-size="73" transform="matrix(1 0 0 1 2195.48 125)">Matematika<tspan font-size="73" x="389.01" y="0">va</tspan><tspan font-size="73" x="478.385" y="0">tabiiy</tspan><tspan font-size="73" x="673.75" y="0">fanlar</tspan><tspan font-size="73" x="283.892" y="88">kafedrasi</tspan></text><path d="M2002.5 404.929C2002.5 365.48 2034.48 333.5 2073.93 333.5L3178.07 333.5C3217.52 333.5 3249.5 365.48 3249.5 404.929L3249.5 590.071C3249.5 629.52 3217.52 661.5 3178.07 661.5L2073.93 661.5C2034.48 661.5 2002.5 629.52 2002.5 590.071Z" stroke="#FFFFFF" stroke-width="4.58333" stroke-miterlimit="8" stroke-dasharray="18.3333 13.75" fill="#FFFFFF" fill-rule="evenodd"/><path d="M2069 333 3182 333C3205.13 333 3225.51 349.734 3237.55 375.185L3239 379 2012 379 2013.45 375.185C2025.49 349.734 2045.87 333 2069 333Z" fill="#FFD966" fill-rule="evenodd"/><text font-family="Cambria,Cambria_MSFontService,sans-serif" font-weight="400" font-size="73" transform="matrix(1 0 0 1 2254.21 505)">Axborot<tspan font-size="73" x="270.417" y="0">texnologiyalari</tspan><tspan font-size="73" x="225.156" y="88">kafedrasi</tspan></text><path d="M562.5 781.929C562.5 742.48 594.479 710.5 633.928 710.5L1737.07 710.5C1776.52 710.5 1808.5 742.48 1808.5 781.929L1808.5 967.071C1808.5 1006.52 1776.52 1038.5 1737.07 1038.5L633.928 1038.5C594.479 1038.5 562.5 1006.52 562.5 967.071Z" stroke="#FFFFFF" stroke-width="4.58333" stroke-miterlimit="8" stroke-dasharray="18.3333 13.75" fill="#FFFFFF" fill-rule="evenodd"/><path d="M628.951 710 1741.05 710C1764.15 710 1784.52 726.734 1796.55 752.185L1798 756 572 756 573.448 752.185C585.477 726.734 605.847 710 628.951 710Z" fill="#9DC3E6" fill-rule="evenodd"/><text font-family="Cambria,Cambria_MSFontService,sans-serif" font-weight="400" font-size="73" transform="matrix(1 0 0 1 773.055 916)">Xorijiy<tspan font-size="73" x="225.156" y="0">filologiya</tspan><tspan font-size="73" x="532.24" y="0">kafedrasi</tspan></text><path d="M562.5 1159.71C562.5 1120.38 594.382 1088.5 633.71 1088.5L1737.29 1088.5C1776.62 1088.5 1808.5 1120.38 1808.5 1159.71L1808.5 1344.29C1808.5 1383.62 1776.62 1415.5 1737.29 1415.5L633.71 1415.5C594.382 1415.5 562.5 1383.62 562.5 1344.29Z" stroke="#FFFFFF" stroke-width="4.58333" stroke-miterlimit="8" stroke-dasharray="18.3333 13.75" fill="#FFFFFF" fill-rule="evenodd"/><path d="M628.951 1088 1741.05 1088C1764.15 1088 1784.52 1104.73 1796.55 1130.19L1798 1134 572 1134 573.448 1130.19C585.477 1104.73 605.847 1088 628.951 1088Z" fill="#9DC3E6" fill-rule="evenodd"/><text font-family="Cambria,Cambria_MSFontService,sans-serif" font-weight="400" font-size="73" transform="matrix(1 0 0 1 839.513 1293)">Ijtimoiy<tspan font-size="73" x="246.927" y="0">-</tspan><tspan font-size="73" x="271.562" y="0">siyosiy</tspan><tspan font-size="73" x="505.312" y="0">fanlar</tspan><tspan font-size="73" x="199.673" y="88">kafedrasi</tspan></text><path d="M2002.5 781.929C2002.5 742.48 2034.48 710.5 2073.93 710.5L3178.07 710.5C3217.52 710.5 3249.5 742.48 3249.5 781.929L3249.5 967.071C3249.5 1006.52 3217.52 1038.5 3178.07 1038.5L2073.93 1038.5C2034.48 1038.5 2002.5 1006.52 2002.5 967.071Z" stroke="#FFFFFF" stroke-width="4.58333" stroke-miterlimit="8" stroke-dasharray="18.3333 13.75" fill="#FFFFFF" fill-rule="evenodd"/><path d="M2069 710 3182 710C3205.13 710 3225.51 726.734 3237.55 752.185L3239 756 2012 756 2013.45 752.185C2025.49 726.734 2045.87 710 2069 710Z" fill="#FFD966" fill-rule="evenodd"/><text font-family="Cambria,Cambria_MSFontService,sans-serif" font-weight="400" font-size="73" transform="matrix(1 0 0 1 2300.33 916)">Iqtisodiyot<tspan font-size="73" x="358.073" y="0">kafedrasi</tspan></text><path d="M2002.5 1159.71C2002.5 1120.38 2034.38 1088.5 2073.71 1088.5L3178.29 1088.5C3217.62 1088.5 3249.5 1120.38 3249.5 1159.71L3249.5 1344.29C3249.5 1383.62 3217.62 1415.5 3178.29 1415.5L2073.71 1415.5C2034.38 1415.5 2002.5 1383.62 2002.5 1344.29Z" stroke="#FFFFFF" stroke-width="4.58333" stroke-miterlimit="8" stroke-dasharray="18.3333 13.75" fill="#FFFFFF" fill-rule="evenodd"/><path d="M2069 1088 3182 1088C3205.13 1088 3225.51 1104.73 3237.55 1130.19L3239 1134 2012 1134 2013.45 1130.19C2025.49 1104.73 2045.87 1088 2069 1088Z" fill="#FFD966" fill-rule="evenodd"/><text font-family="Cambria,Cambria_MSFontService,sans-serif" font-weight="400" font-size="73" transform="matrix(1 0 0 1 2257.64 1293)">Moliya<tspan font-size="73" x="212.552" y="0">-</tspan><tspan font-size="73" x="237.188" y="0">kredit</tspan><tspan font-size="73" x="443.438" y="0">kafedrasi</tspan></text><path d="M3475.5 1268.85C3475.5 1207.35 3525.35 1157.5 3586.85 1157.5L4611.15 1157.5C4672.65 1157.5 4722.5 1207.35 4722.5 1268.85L4722.5 1637.15C4722.5 1698.65 4672.65 1748.5 4611.15 1748.5L3586.85 1748.5C3525.35 1748.5 3475.5 1698.65 3475.5 1637.15Z" stroke="#FFFFFF" stroke-width="4.58333" stroke-miterlimit="8" stroke-dasharray="18.3333 13.75" fill="#FFFFFF" fill-rule="evenodd"/><path d="M3542 1157 4655 1157C4678.13 1157 4698.51 1173.73 4710.55 1199.19L4712 1203 3485 1203 3486.45 1199.19C3498.49 1173.73 3518.87 1157 3542 1157Z" fill="#00B0F0" fill-rule="evenodd"/><text font-family="Cambria,Cambria_MSFontService,sans-serif" font-weight="400" font-size="73" transform="matrix(1 0 0 1 3660.06 1525)">Ta’lim<tspan font-size="73" x="213.698" y="0">sifatini</tspan><tspan font-size="73" x="446.875" y="0">nazorat</tspan><tspan font-size="73" x="702.969" y="0">qilish</tspan><tspan font-size="73" x="329.427" y="88">bo‘limi</tspan></text><path d="M4017 1257.5C4017 1241.76 4029.76 1229 4045.5 1229L4159.5 1229C4175.24 1229 4188 1241.76 4188 1257.5L4188 1381.5C4188 1397.24 4175.24 1410 4159.5 1410L4045.5 1410C4029.76 1410 4017 1397.24 4017 1381.5Z" fill="#F2F4F9" fill-rule="evenodd"/><text fill="#767171" font-family="Bahnschrift,Bahnschrift_MSFontService,sans-serif" font-weight="400" font-size="146" transform="matrix(1 0 0 1 4064.41 1376)">3</text><path d="M3475.5 627.039C3475.5 565.438 3525.44 515.5 3587.04 515.5L4610.96 515.5C4672.56 515.5 4722.5 565.438 4722.5 627.039L4722.5 995.961C4722.5 1057.56 4672.56 1107.5 4610.96 1107.5L3587.04 1107.5C3525.44 1107.5 3475.5 1057.56 3475.5 995.961Z" stroke="#FFFFFF" stroke-width="4.58333" stroke-miterlimit="8" stroke-dasharray="18.3333 13.75" fill="#FFFFFF" fill-rule="evenodd"/><path d="M3542 515 4655 515C4678.13 515 4698.51 531.734 4710.55 557.185L4712 561 3485 561 3486.45 557.185C3498.49 531.734 3518.87 515 3542 515Z" fill="#00B0F0" fill-rule="evenodd"/><text font-family="Cambria,Cambria_MSFontService,sans-serif" font-weight="400" font-size="73" transform="matrix(1 0 0 1 3689.28 883)">Xalqaro<tspan font-size="73" x="259.531" y="0">hamkorlik</tspan><tspan font-size="73" x="600.417" y="0">bo‘limi</tspan></text><path d="M4017 615.501C4017 599.76 4029.76 587 4045.5 587L4159.5 587C4175.24 587 4188 599.76 4188 615.501L4188 739.499C4188 755.24 4175.24 768 4159.5 768L4045.5 768C4029.76 768 4017 755.24 4017 739.499Z" fill="#F2F4F9" fill-rule="evenodd"/><text fill="#767171" font-family="Bahnschrift,Bahnschrift_MSFontService,sans-serif" font-weight="400" font-size="146" transform="matrix(1 0 0 1 4064.41 734)">3</text><path d="M3475.5 1916.52C3475.5 1850.23 3529.23 1796.5 3595.52 1796.5L4602.48 1796.5C4668.77 1796.5 4722.5 1850.23 4722.5 1916.52L4722.5 2313.48C4722.5 2379.77 4668.77 2433.5 4602.48 2433.5L3595.52 2433.5C3529.23 2433.5 3475.5 2379.77 3475.5 2313.48Z" stroke="#FFFFFF" stroke-width="4.58333" stroke-miterlimit="8" stroke-dasharray="18.3333 13.75" fill="#FFFFFF" fill-rule="evenodd"/><path d="M3542 1796 4655 1796C4678.13 1796 4698.51 1812.73 4710.55 1838.19L4712 1842 3485 1842 3486.45 1838.19C3498.49 1812.73 3518.87 1796 3542 1796Z" fill="#00B0F0" fill-rule="evenodd"/><text font-family="Cambria,Cambria_MSFontService,sans-serif" font-weight="400" font-size="73" transform="matrix(1 0 0 1 3579.28 2163)">Jismoniy<tspan font-size="73" x="289.323" y="0">va</tspan><tspan font-size="73" x="378.698" y="0">yuridek</tspan><tspan font-size="73" x="638.229" y="0">shaxslarning</tspan><tspan font-size="73" x="13.4522" y="88">murojaatlari</tspan><tspan font-size="73" x="424.233" y="88">bilan</tspan><tspan font-size="73" x="597.827" y="88">ishlash</tspan><tspan font-size="73" x="818.973" y="88">, </tspan>arxiv, <tspan font-size="73" x="52.9834" y="176">nazorat</tspan><tspan font-size="73" x="309.077" y="176">va</tspan><tspan font-size="73" x="398.452" y="176">monitoring </tspan><tspan font-size="73" x="767.41" y="176">bo‘limi</tspan></text><path d="M4017 1895.5C4017 1879.76 4029.76 1867 4045.5 1867L4159.5 1867C4175.24 1867 4188 1879.76 4188 1895.5L4188 2019.5C4188 2035.24 4175.24 2048 4159.5 2048L4045.5 2048C4029.76 2048 4017 2035.24 4017 2019.5Z" fill="#F2F4F9" fill-rule="evenodd"/><text fill="#767171" font-family="Bahnschrift,Bahnschrift_MSFontService,sans-serif" font-weight="400" font-size="146" transform="matrix(1 0 0 1 4064.41 2014)">3</text><path d="M3475.5 2591.85C3475.5 2530.35 3525.35 2480.5 3586.85 2480.5L4611.15 2480.5C4672.65 2480.5 4722.5 2530.35 4722.5 2591.85L4722.5 2960.15C4722.5 3021.65 4672.65 3071.5 4611.15 3071.5L3586.85 3071.5C3525.35 3071.5 3475.5 3021.65 3475.5 2960.15Z" stroke="#FFFFFF" stroke-width="4.58333" stroke-miterlimit="8" stroke-dasharray="18.3333 13.75" fill="#FFFFFF" fill-rule="evenodd"/><path d="M3542 2480 4655 2480C4678.13 2480 4698.51 2496.73 4710.55 2522.19L4712 2526 3485 2526 3486.45 2522.19C3498.49 2496.73 3518.87 2480 3542 2480Z" fill="#00B0F0" fill-rule="evenodd"/><text font-family="Cambria,Cambria_MSFontService,sans-serif" font-weight="400" font-size="73" transform="matrix(1 0 0 1 3836.52 2848)">Xodimlar<tspan font-size="73" x="305.938" y="0">bo‘limi</tspan></text><path d="M4017 2580.5C4017 2564.76 4029.76 2552 4045.5 2552L4159.5 2552C4175.24 2552 4188 2564.76 4188 2580.5L4188 2704.5C4188 2720.24 4175.24 2733 4159.5 2733L4045.5 2733C4029.76 2733 4017 2720.24 4017 2704.5Z" fill="#F2F4F9" fill-rule="evenodd"/><text fill="#767171" font-family="Bahnschrift,Bahnschrift_MSFontService,sans-serif" font-weight="400" font-size="146" transform="matrix(1 0 0 1 4064.41 2699)">2</text><path d="M3475.5 3207.3C3475.5 3164.33 3510.33 3129.5 3553.3 3129.5L4644.7 3129.5C4687.67 3129.5 4722.5 3164.33 4722.5 3207.3L4722.5 3535.7C4722.5 3578.67 4687.67 3613.5 4644.7 3613.5L3553.3 3613.5C3510.33 3613.5 3475.5 3578.67 3475.5 3535.7Z" stroke="#FFFFFF" stroke-width="4.58333" stroke-miterlimit="8" stroke-dasharray="18.3333 13.75" fill="#FFFFFF" fill-rule="evenodd"/><path d="M3542 3129 4655 3129C4678.13 3129 4698.51 3145.73 4710.55 3171.19L4712 3175 3485 3175 3486.45 3171.19C3498.49 3145.73 3518.87 3129 3542 3129Z" fill="#00B0F0" fill-rule="evenodd"/><text font-family="Cambria,Cambria_MSFontService,sans-serif" font-weight="400" font-size="73" transform="matrix(1 0 0 1 3658.07 3330)">Yuristkonsult<tspan font-size="73" x="424.531" y="0">. </tspan><tspan font-size="73" x="455.469" y="0">Korrupsiyaga</tspan><tspan font-size="73" x="-38.6834" y="88">qarshi</tspan><tspan font-size="73" x="176.733" y="88">kurashish</tspan><tspan font-size="73" x="503.296" y="88">“</tspan>Komplayens<tspan font-size="73" x="-6.0271" y="176">nazorat</tspan><tspan font-size="73" x="234.025" y="176">” </tspan><tspan font-size="73" x="277.567" y="176">tizimini</tspan><tspan font-size="73" x="535.952" y="176">boshqarish</tspan></text><path d="M3475.5 3755.91C3475.5 3709.29 3513.29 3671.5 3559.91 3671.5L4638.09 3671.5C4684.71 3671.5 4722.5 3709.29 4722.5 3755.91L4722.5 3928.09C4722.5 3974.71 4684.71 4012.5 4638.09 4012.5L3559.91 4012.5C3513.29 4012.5 3475.5 3974.71 3475.5 3928.09Z" stroke="#FFFFFF" stroke-width="4.58333" stroke-miterlimit="8" stroke-dasharray="18.3333 13.75" fill="#FFFFFF" fill-rule="evenodd"/><path d="M3542 3671 4655 3671C4678.13 3671 4698.51 3687.73 4710.55 3713.19L4712 3717 3485 3717 3486.45 3713.19C3498.49 3687.73 3518.87 3671 3542 3671Z" fill="#00B0F0" fill-rule="evenodd"/><text font-family="Cambria,Cambria_MSFontService,sans-serif" font-weight="400" font-size="73" transform="matrix(1 0 0 1 3690.43 3855)">Oliy<tspan font-size="73" x="142.083" y="0">ta’lim</tspan><tspan font-size="73" x="336.875" y="0">kengashi</tspan><tspan font-size="73" x="632.5" y="0">kotibi</tspan></text><path d="M1067-3835.15 1291.14-3835.15 1291.14-3832.85 1067-3832.85ZM1067-3820.25 1053.25-3834 1067-3847.75 1080.75-3834ZM1291.14-3847.75 1304.89-3834 1291.14-3820.25 1277.39-3834Z" fill="#00B0F0"/><path d="M1.14583-2.91552e-06 1.14619 141.835-1.14547 141.835-1.14583 2.91552e-06ZM-13.75 3.49863e-05-3.49863e-05-13.75 13.75-3.49863e-05 3.49863e-05 13.75ZM13.7504 141.835 0.000395879 155.585-13.7496 141.835 0.000325906 128.085Z" fill="#00B0F0" transform="matrix(1 0 0 -1 1914 -3514.17)"/><path d="M1067-3291.15 1291.14-3291.15 1291.14-3288.85 1067-3288.85ZM1067-3276.25 1053.25-3290 1067-3303.75 1080.75-3290ZM1291.14-3303.75 1304.89-3290 1291.14-3276.25 1277.39-3290Z" fill="#00B0F0"/><path d="M1.76621e-06-1.14583 234.13-1.14547 234.13 1.14619-1.76621e-06 1.14583ZM-2.11945e-05 13.75-13.75-2.11945e-05 2.11945e-05-13.75 13.75 2.11945e-05ZM234.13-13.7496 247.88 0.000382087 234.13 13.7504 220.38 0.000339698Z" fill="#00B0F0" transform="matrix(1 0 0 -1 2538 -3290)"/><path d="M1.14583-3.35808e-06 1.14619 123.143-1.14547 123.143-1.14583 3.35808e-06ZM-13.75 4.02969e-05-4.02969e-05-13.75 13.75-4.02969e-05 4.02969e-05 13.75ZM13.7504 123.143 0.000401189 136.893-13.7496 123.143 0.000320595 109.393Z" fill="#00B0F0" transform="matrix(1 0 0 -1 1914 -2942.86)"/><path d="M1.14583-1.84574e-06 1.14619 224.041-1.14547 224.041-1.14583 1.84574e-06ZM-13.75 2.21489e-05-2.21489e-05-13.75 13.75-2.21489e-05 2.21489e-05 13.75ZM13.7504 224.041 0.000383041 237.791-13.7496 224.041 0.000338743 210.291Z" fill="#00B0F0" transform="matrix(1 0 0 -1 1175 -2719.96)"/><path d="M-1142-2946.15 4961.28-2941.27 4961.28-2938.98-1142-2943.85ZM-1142.01-2931.25-1155.75-2945.01-1141.99-2958.75-1128.25-2944.99ZM4961.29-2953.88 4975.03-2940.12 4961.27-2926.38 4947.53-2940.14Z" fill="#00B0F0"/><path d="M-266.146-2720.35-266.146-2943-263.855-2943-263.854-2720.35ZM-251.25-2720.35-265-2706.6-278.75-2720.35-265-2734.1ZM-278.75-2943-265-2956.75-251.25-2943-265-2929.25Z" fill="#00B0F0"/><path d="M2616.85-2720.56 2616.85-2940 2619.15-2940 2619.15-2720.56ZM2631.75-2720.56 2618-2706.81 2604.25-2720.56 2618-2734.31ZM2604.25-2940 2618-2953.75 2631.75-2940 2618-2926.25Z" fill="#00B0F0"/><path d="M4086.85-2720.72 4086.85-2940 4089.15-2940 4089.15-2720.72ZM4101.75-2720.72 4088-2706.97 4074.25-2720.72 4088-2734.47ZM4074.25-2940 4088-2953.75 4101.75-2940 4088-2926.25Z" fill="#00B0F0"/><path d="M1.14583-6.09831e-08 1.14619 6780.94-1.14547 6780.94-1.14583 6.09831e-08ZM-13.75 7.3179e-07-7.3179e-07-13.75 13.75-7.3179e-07 7.3179e-07 13.75ZM13.7504 6780.94 0.000361624 6794.69-13.7496 6780.94 0.000360161 6767.19Z" fill="#00B0F0" transform="matrix(1 0 0 -1 4961 3840.94)"/><path d="M3380-2467.15 3451.91-2467.15 3451.91-2464.85 3380-2464.85ZM3380-2452.25 3366.25-2466 3380-2479.75 3393.75-2466ZM3451.91-2479.75 3465.66-2466 3451.91-2452.25 3438.16-2466Z" fill="#00B0F0"/><path d="M3381.15-2467 3381.15 36.7839 3378.85 36.7839 3378.85-2467ZM3366.25-2467 3380-2480.75 3393.75-2467 3380-2453.25ZM3393.75 36.7839 3380 50.5339 3366.25 36.7839 3380 23.0339Z" fill="#00B0F0"/><path d="M3382-1874.15 3465.17-1874.15 3465.17-1871.85 3382-1871.85ZM3382-1859.25 3368.25-1873 3382-1886.75 3395.75-1873ZM3465.17-1886.75 3478.92-1873 3465.17-1859.25 3451.42-1873Z" fill="#00B0F0"/><path d="M3381-1226.15 3465.05-1226.15 3465.05-1223.85 3381-1223.85ZM3381-1211.25 3367.25-1225 3381-1238.75 3394.75-1225ZM3465.05-1238.75 3478.8-1225 3465.05-1211.25 3451.3-1225Z" fill="#00B0F0"/><path d="M3381-590.146 3465.05-590.145 3465.05-587.854 3381-587.854ZM3381-575.25 3367.25-589 3381-602.75 3394.75-589ZM3465.05-602.749 3478.8-588.999 3465.05-575.249 3451.3-589Z" fill="#00B0F0"/><path d="M3381 35.8543 3465.05 35.8547 3465.05 38.1463 3381 38.146ZM3381 50.7501 3367.25 37.0001 3381 23.2501 3394.75 37.0002ZM3465.05 23.2505 3478.8 37.0005 3465.05 50.7505 3451.3 37.0004Z" fill="#00B0F0"/><path d="M1914-2468.15 2001.33-2467.99 2001.32-2465.69 1914-2465.85ZM1913.97-2453.25 1900.25-2467.03 1914.03-2480.75 1927.75-2466.97ZM2001.35-2480.59 2015.07-2466.82 2001.3-2453.09 1987.57-2466.87Z" fill="#00B0F0"/><path d="M1915.15-2467 1915.15-1114.48 1912.85-1114.48 1912.85-2467ZM1900.25-2467 1914-2480.75 1927.75-2467 1914-2453.25ZM1927.75-1114.48 1914-1100.73 1900.25-1114.48 1914-1128.23Z" fill="#00B0F0"/><path d="M1916-1734.15 2002.12-1734.15 2002.12-1731.85 1916-1731.85ZM1916-1719.25 1902.25-1733 1916-1746.75 1929.75-1733ZM2002.12-1746.75 2015.87-1733 2002.12-1719.25 1988.37-1733Z" fill="#00B0F0"/><path d="M1915-1115.15 2001.72-1115.15 2001.72-1112.85 1915-1112.85ZM1915-1100.25 1901.25-1114 1915-1127.75 1928.75-1114ZM2001.72-1127.75 2015.47-1114 2001.72-1100.25 1987.97-1114Z" fill="#00B0F0"/><path d="M467-2468.15 551.717-2468.14 551.717-2465.85 467-2465.85ZM467-2453.25 453.25-2467 467-2480.75 480.75-2467ZM551.717-2480.75 565.467-2467 551.716-2453.25 537.967-2467Z" fill="#00B0F0"/><path d="M1.14583-3.32849e-07 1.14619 1242.37-1.14547 1242.37-1.14583 3.32849e-07ZM-13.75 3.99421e-06-3.99421e-06-13.75 13.75-3.99421e-06 3.99421e-06 13.75ZM13.7504 1242.37 0.000364887 1256.12-13.7496 1242.37 0.000356898 1228.62Z" fill="#00B0F0" transform="matrix(-1 0 0 1 467.001 -2467)"/><path d="M472-1864.15 551.622-1864.15 551.621-1861.85 472-1861.85ZM472-1849.25 458.25-1863 472-1876.75 485.75-1863ZM551.622-1876.75 565.371-1863 551.621-1849.25 537.871-1863Z" fill="#00B0F0"/><path d="M467-1226.15 551.717-1226.15 551.717-1223.85 467-1223.85ZM467-1211.25 453.25-1225 467-1238.75 480.75-1225ZM551.717-1238.75 565.467-1225 551.717-1211.25 537.967-1225Z" fill="#00B0F0"/><path d="M-966-2468.15-882.875-2468.15-882.875-2465.85-966-2465.85ZM-966-2453.25-979.75-2467-966-2480.75-952.25-2467ZM-882.875-2480.75-869.125-2467-882.875-2453.25-896.625-2467Z" fill="#00B0F0"/><path d="M1.14583-1.24907e-06 1.14728 1324.26-1.14439 1324.26-1.14583 1.24907e-06ZM-13.75 1.49888e-05-1.49888e-05-13.75 13.75-1.49888e-05 1.49888e-05 13.75ZM13.7514 1324.26 0.00145856 1338.01-13.7486 1324.26 0.00142858 1310.51Z" fill="#00B0F0" transform="matrix(-1 0 0 1 -965.998 -2467)"/><path d="M-966-1792.15-882.875-1792.15-882.875-1789.85-966-1789.85ZM-966-1777.25-979.75-1791-966-1804.75-952.25-1791ZM-882.875-1804.75-869.125-1791-882.875-1777.25-896.625-1791Z" fill="#00B0F0"/><path d="M-966-1150.15-882.875-1150.15-882.875-1147.85-966-1147.85ZM-966-1135.25-979.75-1149-966-1162.75-952.25-1149ZM-882.875-1162.75-869.125-1149-882.875-1135.25-896.625-1149Z" fill="#00B0F0"/><path d="M-1137.85-2945-1137.85-695.284-1140.15-695.284-1140.15-2945ZM-1152.75-2945-1139-2958.75-1125.25-2945-1139-2931.25ZM-1125.25-695.284-1139-681.534-1152.75-695.284-1139-709.034Z" fill="#00B0F0"/><path d="M-1139-696.146 2633.18-696.146 2633.18-693.854-1139-693.854ZM-1139-681.25-1152.75-695-1139-708.75-1125.25-695ZM2633.18-708.75 2646.93-695 2633.18-681.25 2619.43-695Z" fill="#00B0F0"/><path d="M-966-340.146-882.875-340.145-882.875-337.854-966-337.854ZM-966-325.25-979.75-339-966-352.75-952.25-339ZM-882.875-352.75-869.125-339-882.875-325.25-896.625-339Z" fill="#00B0F0"/><path d="M-962.854-339-962.854 515.948-965.145 515.948-965.146-339ZM-977.75-339-964-352.75-950.25-339-964-325.25ZM-950.25 515.948-964 529.698-977.75 515.948-964 502.198Z" fill="#00B0F0"/><path d="M-966 134.854-882.875 134.855-882.875 137.146-966 137.146ZM-966 149.75-979.75 136-966 122.25-952.25 136ZM-882.875 122.25-869.125 136.001-882.875 149.751-896.625 136Z" fill="#00B0F0"/><path d="M-966 513.854-882.875 513.854-882.875 516.146-966 516.146ZM-966 528.75-979.75 515-966 501.25-952.25 515ZM-882.875 501.25-869.125 515-882.875 528.75-896.625 515Z" fill="#00B0F0"/><path d="M-260.854-695-260.854-589.204-263.145-589.204-263.146-695ZM-275.75-695-262-708.75-248.25-695-262-681.25ZM-248.25-589.205-262-575.454-275.75-589.204-262-602.954Z" fill="#00B0F0"/><path d="M1178.15-695 1178.15-589.204 1175.85-589.204 1175.85-695ZM1163.25-695 1177-708.75 1190.75-695 1177-681.25ZM1190.75-589.205 1177-575.454 1163.25-589.204 1177-602.954Z" fill="#00B0F0"/><path d="M2634.15-695 2634.15-589.204 2631.85-589.204 2631.85-695ZM2619.25-695 2633-708.75 2646.75-695 2633-681.25ZM2646.75-589.205 2633-575.454 2619.25-589.204 2633-602.954Z" fill="#00B0F0"/><path d="M477-340.146 560.125-340.145 560.125-337.854 477-337.854ZM477-325.25 463.25-339 477-352.75 490.75-339ZM560.125-352.75 573.875-339 560.125-325.25 546.375-339Z" fill="#00B0F0"/><path d="M1.14583-0.00115968 2.75433 1589.29 0.462665 1589.29-1.14583 0.00115968ZM-13.75 0.0139161-0.0139161-13.75 13.75-0.0139161 0.0139161 13.75ZM15.3585 1589.28 1.62241 1603.04-12.1415 1589.3 1.59458 1575.54Z" fill="#00B0F0" transform="matrix(-1 0 0 1 478.609 -339)"/><path d="M477 134.854 560.125 134.855 560.125 137.146 477 137.146ZM477 149.75 463.25 136 477 122.25 490.75 136ZM560.125 122.25 573.875 136.001 560.125 149.751 546.375 136Z" fill="#00B0F0"/><path d="M477 510.854 560.125 510.854 560.125 513.146 477 513.146ZM477 525.75 463.25 512 477 498.25 490.75 512ZM560.125 498.25 573.875 512 560.125 525.75 546.375 512Z" fill="#00B0F0"/><path d="M477 1248.85 560.125 1248.85 560.125 1251.15 477 1251.15ZM477 1263.75 463.25 1250 477 1236.25 490.75 1250ZM560.125 1236.25 573.875 1250 560.125 1263.75 546.375 1250Z" fill="#00B0F0"/><path d="M477 890.854 560.125 890.855 560.125 893.146 477 893.146ZM477 905.75 463.25 892 477 878.25 490.75 892ZM560.125 878.25 573.875 892 560.125 905.75 546.375 892Z" fill="#00B0F0"/><path d="M1917-340.146 2000.12-340.145 2000.12-337.854 1917-337.854ZM1917-325.25 1903.25-339 1917-352.75 1930.75-339ZM2000.12-352.75 2013.87-339 2000.12-325.25 1986.37-339Z" fill="#00B0F0"/><path d="M1.14583-0.00115968 2.75433 1589.29 0.462665 1589.29-1.14583 0.00115968ZM-13.75 0.0139161-0.0139161-13.75 13.75-0.0139161 0.0139161 13.75ZM15.3585 1589.28 1.62241 1603.04-12.1415 1589.3 1.59458 1575.54Z" fill="#00B0F0" transform="matrix(-1 0 0 1 1918.61 -339)"/><path d="M1917 134.854 2000.12 134.855 2000.12 137.146 1917 137.146ZM1917 149.75 1903.25 136 1917 122.25 1930.75 136ZM2000.12 122.25 2013.87 136.001 2000.12 149.751 1986.37 136Z" fill="#00B0F0"/><path d="M1917 510.854 2000.12 510.854 2000.12 513.146 1917 513.146ZM1917 525.75 1903.25 512 1917 498.25 1930.75 512ZM2000.12 498.25 2013.87 512 2000.12 525.75 1986.37 512Z" fill="#00B0F0"/><path d="M1917 1248.85 2000.12 1248.85 2000.12 1251.15 1917 1251.15ZM1917 1263.75 1903.25 1250 1917 1236.25 1930.75 1250ZM2000.12 1236.25 2013.87 1250 2000.12 1263.75 1986.37 1250Z" fill="#00B0F0"/><path d="M1917 890.854 2000.12 890.855 2000.12 893.146 1917 893.146ZM1917 905.75 1903.25 892 1917 878.25 1930.75 892ZM2000.12 878.25 2013.87 892 2000.12 905.75 1986.37 892Z" fill="#00B0F0"/><path d="M4722 809.854 4961.28 809.854 4961.28 812.146 4722 812.146ZM4722 824.75 4708.25 811 4722 797.25 4735.75 811ZM4961.28 797.25 4975.03 811 4961.28 824.75 4947.53 811Z" fill="#00B0F0"/><path d="M4722 1462.85 4961.28 1462.85 4961.28 1465.15 4722 1465.15ZM4722 1477.75 4708.25 1464 4722 1450.25 4735.75 1464ZM4961.28 1450.25 4975.03 1464 4961.28 1477.75 4947.53 1464Z" fill="#00B0F0"/><path d="M4722 2135.85 4961.28 2135.85 4961.28 2138.15 4722 2138.15ZM4722 2150.75 4708.25 2137 4722 2123.25 4735.75 2137ZM4961.28 2123.25 4975.03 2137 4961.28 2150.75 4947.53 2137Z" fill="#00B0F0"/><path d="M4722 2774.85 4961.28 2774.85 4961.28 2777.15 4722 2777.15ZM4722 2789.75 4708.25 2776 4722 2762.25 4735.75 2776ZM4961.28 2762.25 4975.03 2776 4961.28 2789.75 4947.53 2776Z" fill="#00B0F0"/><path d="M4722 3363.85 4961.28 3363.85 4961.28 3366.15 4722 3366.15ZM4722 3378.75 4708.25 3365 4722 3351.25 4735.75 3365ZM4961.28 3351.25 4975.03 3365 4961.28 3378.75 4947.53 3365Z" fill="#00B0F0"/><path d="M4722 3839.85 4961.28 3839.85 4961.28 3842.15 4722 3842.15ZM4722 3854.75 4708.25 3841 4722 3827.25 4735.75 3841ZM4961.28 3827.25 4975.03 3841 4961.28 3854.75 4947.53 3841Z" fill="#00B0F0"/></g></svg>