<svg width="3405" height="1501" xmlns="http://www.w3.org/2000/svg" xmlns:xlink="http://www.w3.org/1999/xlink" xml:space="preserve" overflow="hidden"><g transform="translate(-209 -722)"><g><g><g><path d="M-1750.21 3078.67-1719.06 3078.67-1706.6 3081.34-1706.6 3084.01-1716.39 3090.23-1727.97 3100.01-1737.75 3112.47-1744.88 3127.59-1747.54 3135.6-1750.21 3152.51-1750.21 3168.51-1747.54 3188.08-1742.21 3206.77-1727.97 3235.23-1715.5 3259.25-1707.5 3276.16-1701.27 3288.61-1691.48 3313.52-1684.36 3337.54-1680.8 3357.11-1679.01 3374.02-1678.13 3377.57-1678.13 3388.25-1679.91 3409.59-1685.24 3433.62-1691.48 3452.3-1696.82 3465.64-1705.71 3482.55-1716.39 3499.45-1732.41 3520.8-1734.19 3520.8-1735.97 3524.36-1746.65 3535.93-1754.66 3543.93-1761.78 3550.16-1773.35 3559.95-1789.37 3571.51-1800.05 3578.62-1812.51 3586.64-1822.3 3591.97-1839.21 3600.87-1856.12 3608.87-1868.57 3615.99-1885.48 3624.89-1903.28 3632.89-1916.63 3639.12-1926.42 3643.56-1941.55 3648.9-1957.57 3655.13-1989.6 3664.92-2007.41 3669.37-2014.53 3669.37-2011.85 3666.69-1994.94 3657.8-1965.58 3641.79-1951.33 3632.89-1932.65 3621.33-1919.3 3612.43-1904.17 3601.75-1887.26 3589.3-1875.69 3579.51-1865.91 3571.51-1862.35 3569.73-1862.35 3567.95-1855.23 3561.72-1841.88 3548.37-1840.98 3546.6-1839.21 3546.6-1837.42 3543.04-1827.64 3531.47-1819.63 3519.91-1812.51 3507.45-1806.28 3493.22-1801.83 3479.88-1799.16 3468.32-1797.38 3456.75-1796.49 3437.18-1797.38 3421.17-1801.83 3399.82-1804.5 3390.92-1809.83 3379.36-1816.07 3366.9-1824.97 3354.44-1832.98 3345.55-1840.09 3338.43-1851.66 3330.42-1863.24 3325.09-1867.68 3322.42-1866.8 3320.64-1857.89 3317.08-1847.21 3309.96-1838.32 3301.96-1832.98 3295.73-1827.64 3286.83-1824.97 3278.83-1823.18 3269.93-1823.18 3254.81-1825.86 3231.68-1833.86 3210.33-1836.54 3204.99-1836.54 3202.32-1840.98 3204.1-1853.44 3216.56-1865.01 3224.56-1876.59 3230.79-1893.5 3235.23-1903.28 3235.23-1902.39 3232.56-1893.5 3226.34-1884.59 3218.33-1876.59 3207.66-1870.35 3197.87-1860.56 3177.41-1856.12 3164.95-1869.47 3170.29-1884.59 3172.97-1894.38 3172.97-1911.29 3170.29-1918.41 3167.62-1918.41 3165.85-1904.17 3162.29-1892.6 3158.73-1874.8 3150.72-1858.79 3141.83-1840.98 3129.37-1831.2 3121.37-1829.42 3121.37-1829.42 3119.59-1819.63 3111.58-1808.06 3102.68-1795.6 3094.68-1781.36 3087.56-1764.45 3081.34Z" fill="#8A0F08" fill-rule="evenodd" transform="matrix(1 0 0 1.00021 2545.92 -1951.88)"/><path d="M-1858.12 2718.07-1835 2718.07-1818.99 2720.74-1795.88 2727.85-1779.87 2734.08-1774.53 2734.08-1753.2 2726.08-1742.53 2722.52-1724.74 2718.96-1719.42 2718.07-1696.3 2718.07-1681.18 2720.74-1660.73 2726.96-1637.62 2734.08-1622.51 2738.53-1586.94 2745.65-1567.38 2748.31-1529.14 2751.87-1529.14 2993.79-1530.93 2994.69-1551.37 2994.69-1572.72 2992.9-1589.61 2990.23-1607.39 2986.67-1634.95 2980.45-1657.18 2975.12-1675.85 2972.45-1690.07 2971.56-1705.19 2971.56-1725.64 2973.33-1742.53 2976.89-1761.2 2983.12-1775.43 2990.23-1779.87 2990.23-1785.21 2986.67-1794.99 2982.23-1818.99 2975.12-1835.89 2972.45-1849.22 2971.56-1864.34 2971.56-1885.68 2973.33-1899.9 2976-1947.02 2986.67-1977.26 2992.01-1992.37 2993.79-2003.03 2994.69-2023.49 2994.69-2025.26 2992.9-2025.26 2752.76-2024.38 2751.87-1987.92 2748.31-1967.48 2745.65-1940.8 2740.3-1923.01 2735.86-1902.57 2729.63-1880.34 2722.52Z" fill="#083053" fill-rule="evenodd" transform="matrix(1 0 0 1.00021 2545.92 -1951.88)"/><path d="M-1516.93 2674.33-1510.7 2675.23-1500.03 2679.67-1492.03 2683.23-1473.34 2692.13-1455.55 2702.8-1440.42 2713.48-1431.53 2720.59-1422.63 2728.6-1415.52 2734.82-1406.62 2743.72-1400.4 2750.84-1387.94 2766.85-1378.15 2781.97-1366.59 2805.1-1359.47 2822.89-1354.13 2842.47-1351.46 2854.92-1347.9 2878.94-1347.02 2909.19-1347.9 2932.32-1350.58 2953.67-1353.25 2969.68-1357.69 2990.14-1362.14 3007.04-1369.25 3028.39-1373.71 3039.07-1379.04 3051.52-1387.05 3066.64-1393.27 3079.1-1403.95 3096-1414.63 3111.12-1423.52 3122.69-1434.2 3135.14-1440.42 3142.25-1446.65 3148.48-1447.54 3150.27-1449.32 3150.27-1449.32 3152.04-1456.44 3158.27-1466.22 3168.06-1476.01 3176.06-1487.57 3185.85-1504.47 3198.3-1517.82 3207.2-1536.5 3218.76-1552.51 3227.66-1571.2 3236.55-1582.76 3241.89-1605.89 3250.78-1612.12 3253.45-1634.36 3259.68-1636.14 3260.57-1641.48 3260.57-1641.48 3258.8-1627.24 3250.78-1614.79 3242.78-1598.77 3231.22-1580.98 3216.98-1572.08 3208.98-1564.97 3202.75-1551.62 3190.3-1545.39 3184.07-1544.51 3182.29-1542.73 3182.29-1540.95 3178.73-1534.72 3171.61-1532.95 3171.61-1531.16 3168.06-1519.6 3154.71-1510.7 3143.15-1499.14 3127.14-1488.46 3111.12-1473.34 3086.22-1462.67 3066.64-1452.88 3046.18-1443.09 3023.05-1435.98 3005.26-1424.42 2970.57-1418.19 2942.99-1415.52 2928.75-1412.84 2901.18-1412.84 2870.04-1415.52 2845.14-1419.96 2822.89-1425.3 2805.1-1431.53 2787.31-1438.65 2771.3-1444.88 2760.63-1450.21 2750.84-1456.44 2741.05-1465.34 2728.6-1472.45 2719.71-1482.24 2708.14-1487.57 2702.8-1487.57 2701.02-1489.35 2701.02-1492.03 2698.36-1492.03 2696.57-1494.69 2695.69-1494.69 2693.9-1498.24 2692.13-1504.47 2686.79-1504.47 2685.01-1508.03 2683.23-1516.93 2676.11Z" fill="#8A0F08" fill-rule="evenodd" transform="matrix(1 0 0 1.00021 2545.92 -1951.88)"/><path d="M-2039.21 2673.44-2035.65 2674.33-2040.09 2678.78-2048.99 2685.9-2052.55 2687.67-2052.55 2689.46-2059.67 2695.68-2070.34 2706.36-2071.23 2708.13-2073.01 2708.13-2074.79 2711.7-2084.57 2723.26-2096.14 2739.28-2103.26 2750.84-2111.26 2765.07-2118.38 2779.3-2125.49 2797.1-2131.72 2815.78-2137.07 2841.58-2138.84 2853.14-2140.62 2878.94-2140.62 2891.39-2138.84 2918.08-2133.51 2950.11-2127.28 2974.13-2117.49 3004.37-2113.93 3012.38-2110.38 3023.05-2104.15 3036.39-2100.59 3045.29-2094.36 3058.64-2083.69 3079.1-2075.68 3092.44-2070.34 3102.23-2052.55 3128.91-2041.88 3143.15-2032.09 3155.6-2021.42 3168.06-2013.41 3176.96-2011.63 3180.51-2009.85 3180.51-2003.62 3187.63-1990.27 3200.97-1983.16 3207.2-1972.48 3216.98-1963.59 3224.1-1947.58 3236.55-1937.79 3242.78-1927.12 3249.9-1918.22 3255.24-1911.99 3258.8-1911.1 3260.57-1917.33 3259.68-1924.45 3257.9-1939.57 3253.45-1965.37 3243.67-1981.38 3236.55-1996.5 3229.44-2016.96 3217.88-2032.09 3208.98-2045.44 3200.08-2061.44 3188.52-2075.68 3176.96-2094.36 3160.94-2094.36 3159.16-2097.92 3157.38-2108.59 3146.71-2114.82 3139.59-2123.72 3129.81-2133.51 3117.35-2144.18 3103.12-2156.63 3083.54-2164.64 3069.31-2174.43 3048.85-2179.76 3037.28-2185.99 3019.49-2188.66 3012.38-2194.89 2990.14-2199.33 2971.45-2203.78 2943.88-2205.56 2918.97-2205.56 2889.61-2203.78 2867.37-2201.11 2851.36-2197.55 2837.12-2192.22 2819.33-2183.32 2797.99-2173.53 2779.3-2164.64 2765.96-2155.74 2754.39-2149.51 2746.39-2147.74 2746.39-2145.96 2742.83-2128.17 2725.03-2118.38 2717.03-2104.15 2706.36-2087.24 2695.68-2061.44 2682.34-2045.44 2676.11Z" fill="#8A0F08" fill-rule="evenodd" transform="matrix(1 0 0 1.00021 2545.92 -1951.88)"/><path d="M-1229.11 2920.68-1227.33 2921.57-1224.67 2934.04-1222 2954.52-1220.22 2973.21-1219.33 3005.26-1220.22 3034.64-1222.89 3059.57-1225.55 3075.6-1229.99 3096.08-1232.66 3105.87-1238.88 3126.34-1247.77 3147.72-1255.76 3164.63-1264.65 3179.77-1277.09 3197.58-1284.2 3206.47-1292.2 3216.27-1298.41 3223.39-1300.19 3223.39-1301.08 3226.07-1302.86 3226.07-1302.86 3227.84-1309.97 3234.08-1321.52 3244.76-1335.74 3255.44-1349.07 3264.35-1358.84 3270.58-1385.49 3283.93-1399.72 3290.17-1415.71 3296.4-1431.71 3301.74-1451.26 3307.08-1477.91 3313.32-1511.67 3318.66-1524.12 3320.44-1557.89 3323.11-1585.43 3324-1618.31 3324-1644.96 3323.11-1646.74 3321.33-1632.53 3318.66-1605.86 3314.21-1579.21 3307.97-1560.55 3302.64-1541 3296.4-1518.79 3288.39-1508.12 3283.93-1490.35 3275.92-1471.69 3267.02-1453.92 3257.23-1436.15 3246.55-1422.82 3237.64-1410.38 3228.74-1398.82 3219.83-1389.94 3212.71-1377.5 3202.03-1366.84 3192.23-1346.4 3171.75-1340.18 3164.63-1330.4 3153.06-1317.97 3137.03-1308.19 3122.78-1299.31 3109.43-1289.53 3093.4-1284.2 3083.61-1277.09 3069.36-1268.2 3050.67-1261.1 3033.75-1253.99 3015.06-1250.44 3003.48-1247.77 2996.36-1239.77 2968.76-1236.21 2951.85-1232.66 2937.6-1229.99 2922.46Z" fill="#8A1008" fill-rule="evenodd" transform="matrix(1 0 0 1.00021 2545.92 -1951.88)"/><path d="M-2328.8 2920.68-2327.02 2922.46-2321.68 2948.28-2314.55 2977.66-2307.43 3000.81-2300.3 3022.18-2296.74 3030.19-2291.41 3044.44-2284.28 3060.47-2277.16 3074.71-2265.58 3096.08-2254.89 3112.99-2247.77 3123.68-2236.19 3139.7-2227.29 3151.28-2216.6 3163.74-2208.59 3172.65-2195.23 3186.89-2180.98 3200.24-2178.32 3202.02-2178.32 3203.8-2174.76 3205.58-2161.4 3217.16-2150.71 3225.18-2137.36 3234.96-2124 3243.87-2114.21 3250.1-2095.5 3260.79-2075.02 3271.47-2058.11 3279.48-2034.07 3289.28-2010.02 3298.17-1994.89 3302.63-1976.18 3307.97-1944.13 3315.09-1911.18 3320.44-1908.51 3322.21-1912.97 3323.1-1991.33 3323.1-2027.83 3320.44-2067.01 3315.09-2100.85 3307.97-2117.77 3303.52-2147.15 3293.73-2158.73 3289.28-2172.08 3283.04-2189 3275.03-2204.14 3266.12-2216.6 3258.11-2233.52 3245.65-2244.21 3235.86-2251.33 3229.63-2263.8 3217.16-2269.14 3210.93-2269.14 3209.15-2270.92 3209.15-2281.61 3194.9-2292.29 3178.87-2299.42 3167.3-2307.43 3150.38-2313.66 3137.03-2319.9 3119.22-2325.24 3102.31-2330.58 3078.27-2333.25 3063.13-2335.92 3039.1-2336.81 3030.19-2336.81 2975.89-2334.15 2947.39-2330.58 2924.24Z" fill="#8A0F08" fill-rule="evenodd" transform="matrix(1 0 0 1.00021 2545.92 -1951.88)"/><path d="M-1296.97 3308.94-1294.31 3308.94-1295.19 3313.41-1304.07 3326.79-1313.83 3339.28-1324.49 3351.77-1336.03 3363.37-1343.13 3369.62-1356.44 3380.33-1371.53 3390.14-1387.51 3399.07-1404.38 3406.2-1421.24 3411.56-1440.77 3416.02-1464.74 3418.7-1488.71 3418.7-1518.88 3415.13-1539.31 3410.67-1557.95 3405.31-1576.59 3399.07-1587.24 3394.6-1612.09 3383-1628.96 3374.08-1636.95 3369.62-1636.95 3367.84-1630.73 3367.84-1601.44 3372.3-1581.92 3374.08-1563.28 3374.97-1518.88 3374.97-1499.36 3374.08-1474.5 3371.41-1449.65 3367.84-1423.91 3362.48-1403.49 3357.13-1382.18 3350.88-1366.21 3344.64-1352.89 3339.28-1339.58 3333.04-1325.37 3325.9-1310.28 3317.87-1297.85 3309.84Z" fill="#8A1008" fill-rule="evenodd" transform="matrix(1 0 0 1.00021 2545.92 -1951.88)"/><path d="M-2262.74 3308.05-2252.95 3313.41-2243.16 3319.65-2230.69 3325.9-2215.57 3333.93-2200.44 3340.17-2189.76 3344.64-2172.85 3350.88-2149.71 3358.02-2123.01 3364.27-2104.32 3367.84-2073.17 3372.3-2050.92 3374.08-2022.44 3374.97-2009.98 3374.97-1981.5 3374.08-1959.25 3372.3-1921.87 3366.94-1919.2 3367.84-1920.98 3370.51-1935.22 3377.65-1948.57 3384.79-1958.36 3389.25-1981.5 3399.07-2000.19 3405.31-2018.88 3410.67-2040.24 3415.13-2062.49 3417.8-2098.09 3417.8-2118.56 3415.13-2134.58 3411.56-2155.94 3404.42-2173.74 3396.39-2188.86 3387.47-2205.78 3375.87-2219.13 3364.27-2225.36 3358.91-2228.03 3356.24-2228.03 3354.45-2230.69 3353.56-2230.69 3351.77-2232.48 3351.77-2238.71 3344.64-2250.28 3330.36-2259.18 3316.97-2263.63 3310.73Z" fill="#8A1008" fill-rule="evenodd" transform="matrix(1 0 0 1.00021 2545.92 -1951.88)"/><path d="M-1652.22 3420.52-1647.78 3421.41-1633.57 3428.55-1615.8 3436.58-1600.7 3442.82-1571.38 3452.64-1549.17 3458.89-1526.07 3464.24-1500.31 3468.7-1479.87 3471.38-1448.78 3474.05-1448.78 3476.73-1457.66 3483.87-1469.21 3491.01-1484.32 3498.15-1500.31 3502.61-1514.52 3504.39-1526.96 3504.39-1542.07 3502.61-1559.83 3497.25-1570.49 3492.79-1582.92 3486.55-1601.58 3474.05-1601.58 3472.27-1605.14 3470.49-1614.91 3462.45-1628.23 3449.96-1638 3439.25-1648.67 3426.76-1652.22 3422.3Z" fill="#8A1008" fill-rule="evenodd" transform="matrix(1 0 0 1.00021 2545.92 -1951.88)"/><path d="M-1906.6 3419.62-1904.82 3419.62-1905.71 3423.19-1913.74 3432.12-1921.77 3441.93-1944.08 3464.24-1956.57 3474.05-1970.85 3483.87-1985.13 3491.9-1999.4 3498.15-2017.25 3502.61-2023.49 3503.5-2048.48 3503.5-2062.76 3500.82-2072.57 3498.15-2085.96 3491.9-2100.23 3482.98-2109.15 3475.84-2109.15 3474.05-2106.48 3473.16-2080.6 3471.38-2048.48 3466.92-2029.74 3463.35-2002.08 3457.1-1976.2 3449.07-1957.46 3442.82-1933.37 3433.01-1920.88 3426.76Z" fill="#8A1008" fill-rule="evenodd" transform="matrix(1 0 0 1.00021 2545.92 -1951.88)"/><path d="M-1893.2 3462.47-1891.43 3462.47-1891.43 3473.18-1894.08 3491.03-1900.28 3513.33-1905.59 3526.72-1910.9 3536.53-1917.1 3545.46-1923.29 3552.59-1932.14 3559.73-1941.88 3565.09-1956.04 3568.66-1961.35 3569.55-1972.86 3569.55-1988.78 3566.87-1998.52 3563.3-2000.29 3562.41-2000.29 3560.62-1980.82 3549.03-1965.77 3539.21-1948.96 3526.72-1937.45 3516.9-1926.83 3507.09-1915.33 3495.49-1907.36 3485.67-1899.39 3474.07-1894.08 3464.26Z" fill="#8B1108" fill-rule="evenodd" transform="matrix(1 0 0 1.00021 2545.92 -1951.88)"/><path d="M-1666.5 3463.36-1663.85 3464.26-1660.31 3471.4-1653.23 3482.1-1641.73 3496.38-1637.3 3500.84-1637.3 3502.63-1634.64 3503.52-1634.64 3505.3-1632.87 3505.3-1630.21 3507.98-1630.21 3509.76-1626.68 3511.55-1616.05 3521.36-1601.01 3532.96-1586.85 3542.78-1571.81 3552.59-1557.64 3560.62-1558.53 3563.3-1567.38 3566.87-1581.54 3569.55-1599.24 3569.55-1613.4 3565.98-1625.79 3559.73-1634.64 3552.59-1642.61 3543.67-1650.58 3530.29-1656.77 3516.01-1662.96 3494.6-1665.62 3479.43Z" fill="#8B1008" fill-rule="evenodd" transform="matrix(1 0 0 1.00021 2545.92 -1951.88)"/><path d="M-1827.12 3619.56-1822.7 3619.56-1824.47 3623.1-1828 3624.88-1828 3626.65-1834.18 3631.98-1835.06 3633.75-1836.83 3633.75-1838.59 3637.3-1845.65 3645.29-1855.37 3658.6-1865.96 3675.45-1873.02 3689.65-1878.32 3702.07-1884.49 3718.04-1889.79 3734.9-1895.08 3758.86-1897.73 3774.83-1899.5 3776.61-1901.27 3771.28-1904.79 3749.98-1904.79 3713.61-1901.27 3695.86-1895.97 3679.89-1890.68 3669.24-1880.96 3655.05-1866.84 3640.85-1852.72 3631.09-1838.59 3624Z" fill="#8B1008" fill-rule="evenodd" transform="matrix(1 0 0 1.00021 2545.92 -1951.88)"/><text fill="#FFFFFF" font-family="Aptos,Aptos_MSFontService,sans-serif" font-weight="700" font-size="165" transform="matrix(0.892296 0 0 0.892482 609.257 951)">2022</text><text fill="#083053" font-family="Aptos,Aptos_MSFontService,sans-serif" font-weight="700" font-size="248" transform="matrix(0.892296 0 0 0.892482 1406.01 1209)">RENESSANS TA</text><text fill="#083053" font-family="Aptos,Aptos_MSFontService,sans-serif" font-weight="700" font-size="248" transform="matrix(0.892296 0 0 0.892482 2933.62 1209)">’</text><text fill="#083053" font-family="Aptos,Aptos_MSFontService,sans-serif" font-weight="700" font-size="248" transform="matrix(0.892296 0 0 0.892482 2999.65 1209)">LIM   </text><text fill="#083053" font-family="Aptos,Aptos_MSFontService,sans-serif" font-weight="700" font-size="248" transform="matrix(0.892296 0 0 0.892482 1406.01 1474)">UNIVERSITETI</text></g></g></g><text fill="#0E2841" font-family="Aptos,Aptos_MSFontService,sans-serif" font-weight="700" font-size="183" transform="matrix(1 0 0 1 412.946 2061)">INNOVATSIYA        SIFAT         ISTIQBOL</text><path d="M262 2002C262 1961.68 294.683 1929 335 1929 375.317 1929 408 1961.68 408 2002 408 2042.32 375.317 2075 335 2075 294.683 2075 262 2042.32 262 2002Z" fill="#083053" fill-rule="evenodd"/><path d="M1673 2002C1673 1961.68 1705.68 1929 1746 1929 1786.32 1929 1819 1961.68 1819 2002 1819 2042.32 1786.32 2075 1746 2075 1705.68 2075 1673 2042.32 1673 2002Z" fill="#083053" fill-rule="evenodd"/><path d="M2466 2002C2466 1961.68 2498.68 1929 2539 1929 2579.32 1929 2612 1961.68 2612 2002 2612 2042.32 2579.32 2075 2539 2075 2498.68 2075 2466 2042.32 2466 2002Z" fill="#083053" fill-rule="evenodd"/><g><g><g><path d="M71.4678 50.5945 72.5657 47.3395 70.0857 44.8595 66.8307 45.9574C65.9845 45.4806 65.0819 45.1117 64.144 44.8595L62.6199 41.8241 59.1582 41.8241 57.6211 44.8724C56.6799 45.127 55.7733 45.4956 54.9216 45.9703L51.6666 44.8724 49.1866 47.3524 50.2199 50.6074C49.7243 51.4489 49.3421 52.3523 49.0832 53.294L46.0349 54.8182 46.0349 58.2282 49.0832 59.7653C49.3345 60.7036 49.7034 61.6063 50.1811 62.4519L49.0832 65.7069 51.6666 68.1869 54.9216 67.0761C55.7671 67.5574 56.6697 67.9305 57.6082 68.1869L59.1324 71.2223 62.594 71.2223 64.1311 68.2386C65.0532 67.9879 65.9422 67.6279 66.779 67.1665L70.0211 68.2774 72.5011 65.7844 71.4032 62.5424C71.8966 61.6903 72.2909 60.7845 72.5786 59.8428L75.614 58.3186 75.614 54.8182 72.5657 53.2811C72.3191 52.3413 71.9499 51.4381 71.4678 50.5945ZM60.8761 61.7415C58.0227 61.7415 55.7095 59.4283 55.7095 56.5749 55.7095 53.7215 58.0227 51.4082 60.8761 51.4082 63.7122 51.4498 66.0012 53.7388 66.0428 56.5749 66.0428 59.4283 63.7295 61.7415 60.8761 61.7415Z" fill="#FFFFFF" transform="matrix(1 0 0 1 273 1940)"/><path d="M71.9715 96.6035 49.742 96.6035C47.684 96.7248 46.1138 98.4914 46.235 100.549 46.3463 102.438 47.8532 103.945 49.742 104.056L71.9715 104.056C74.0295 103.935 75.5997 102.169 75.4785 100.111 75.3672 98.2216 73.8603 96.7148 71.9715 96.6035Z" fill="#FFFFFF" transform="matrix(1 0 0 1 273 1940)"/><path d="M60.8632 116.676C65.0806 116.669 68.5868 113.427 68.9232 109.223L52.7903 109.223C53.133 113.429 56.6433 116.67 60.8632 116.676Z" fill="#FFFFFF" transform="matrix(1 0 0 1 273 1940)"/><path d="M93.116 57.4403 93.116 56.3295C92.7869 38.6988 78.4579 24.5473 60.8245 24.4383L60.8245 24.4383C43.191 24.5473 28.862 38.6988 28.5329 56.3295L28.5329 57.4403C28.6509 61.2641 29.4107 65.0411 30.7803 68.6132 32.0876 71.9835 33.986 75.0936 36.3862 77.7969 39.3441 81.0132 42.5732 87.2777 43.9424 90.0677 44.3612 90.9105 45.223 91.4415 46.1641 91.4369L75.4848 91.4369C76.4259 91.4415 77.2877 90.9105 77.7065 90.0677 79.0757 87.2777 82.3048 81.0261 85.2627 77.7969 87.6629 75.0936 89.5613 71.9835 90.8686 68.6132 92.2382 65.0411 92.998 61.2641 93.116 57.4403ZM85.6761 57.324C85.5842 60.2922 85.0039 63.2248 83.9582 66.004 82.9774 68.5069 81.5604 70.816 79.7732 72.824 76.9061 76.2371 74.448 79.9739 72.4494 83.9582L49.1995 83.9582C47.2237 79.9635 44.7874 76.2137 41.9403 72.7853 40.153 70.7772 38.7361 68.4681 37.7553 65.9653 36.6876 63.1897 36.0853 60.257 35.9728 57.2853L35.9728 56.3553C36.2042 42.7928 47.2214 31.896 60.7857 31.8137L60.7857 31.8137C74.35 31.896 85.3672 42.7928 85.5986 56.3553Z" fill="#FFFFFF" transform="matrix(1 0 0 1 273 1940)"/><path d="M61.1086 19.375C62.5354 19.375 63.6919 18.2184 63.6919 16.7916L63.6919 7.74998C63.6919 6.32325 62.5354 5.16666 61.1086 5.16666 59.6818 5.16666 58.5253 6.32325 58.5253 7.74998L58.5253 16.7916C58.5253 18.2184 59.6818 19.375 61.1086 19.375Z" fill="#FFFFFF" transform="matrix(1 0 0 1 273 1940)"/><path d="M30.4574 30.7287C31.4651 31.7302 33.0923 31.7302 34.0999 30.7287 35.1015 29.7211 35.1015 28.0938 34.0999 27.0862L27.7062 20.6666C26.6473 19.7105 25.0137 19.7938 24.0575 20.8528 23.1673 21.8388 23.17 23.3392 24.0637 24.322Z" fill="#FFFFFF" transform="matrix(1 0 0 1 273 1940)"/><path d="M89.9773 31.9816C90.6658 31.9821 91.3261 31.7078 91.8115 31.2195L98.1923 24.7612C99.0245 23.6023 98.7598 21.9883 97.601 21.156 96.6866 20.4994 95.4523 20.5103 94.5498 21.1833L88.0915 27.6416C87.0899 28.6492 87.0899 30.2765 88.0915 31.2841 88.6001 31.7618 89.2803 32.0134 89.9773 31.9816Z" fill="#FFFFFF" transform="matrix(1 0 0 1 273 1940)"/><path d="M20.9895 53.604 11.9479 53.604C10.5212 53.604 9.36456 54.7606 9.36456 56.1874 9.36456 57.6142 10.5212 58.7707 11.9479 58.7707L20.9895 58.7707C22.4163 58.7707 23.5729 57.6142 23.5729 56.1874 23.5729 54.7606 22.4163 53.604 20.9895 53.604Z" fill="#FFFFFF" transform="matrix(1 0 0 1 273 1940)"/><path d="M30.4574 81.5557 24.0637 88.014C22.98 88.942 22.8538 90.5728 23.7819 91.6565 24.7099 92.7402 26.3408 92.8662 27.4243 91.9383 27.5255 91.8518 27.6196 91.7575 27.7062 91.6565L34.0999 85.1982C35.028 84.1144 34.9018 82.4837 33.8181 81.5557 32.851 80.7274 31.4246 80.7274 30.4574 81.5557Z" fill="#FFFFFF" transform="matrix(1 0 0 1 273 1940)"/><path d="M91.8115 81.0648C90.8554 80.0059 89.2218 79.9226 88.1628 80.8787 87.1039 81.8348 87.0206 83.4683 87.9766 84.5274 88.0335 84.5902 88.0934 84.6504 88.1561 84.7073L94.6144 91.1656C95.5276 92.2619 97.1565 92.4103 98.2527 91.4971 99.349 90.584 99.4973 88.9551 98.5842 87.8588 98.4603 87.7102 98.3203 87.576 98.1665 87.4586Z" fill="#FFFFFF" transform="matrix(1 0 0 1 273 1940)"/><path d="M109.791 53.5136 100.75 53.5136C99.323 53.5136 98.1665 54.6702 98.1665 56.097 98.1665 57.5237 99.323 58.6803 100.75 58.6803L109.791 58.6803C111.218 58.6803 112.375 57.5237 112.375 56.097 112.375 54.6702 111.218 53.5136 109.791 53.5136Z" fill="#FFFFFF" transform="matrix(1 0 0 1 273 1940)"/></g></g></g><g><g><g><path d="M83.5706 104.754C80.0832 101.525 75.4332 99.4581 70.3957 99.4581 69.7498 99.4581 69.104 99.4581 68.4582 99.5873 68.8457 93.129 67.8124 86.5415 66.5207 79.6957 66.9082 78.9207 67.8124 78.0165 68.9749 77.2415 71.1707 81.8915 75.8207 85.2498 81.3748 85.2498 83.829 85.2498 86.154 84.604 88.0915 83.4415L88.0915 83.4415C98.554 77.7582 99.8456 67.0374 99.8456 55.154 99.8456 55.154 88.6081 58.254 81.504 57.9957 74.0123 57.9957 67.9415 64.0665 67.9415 71.5582 67.9415 71.6873 67.9415 71.6873 67.9415 71.8165 67.1665 72.204 66.3915 72.7207 65.6165 73.3665 64.0665 63.8082 63.1624 53.9916 66.2624 43.2707 67.554 42.7541 69.104 42.3666 70.5248 42.2374 70.654 44.0457 71.5582 45.7249 73.1082 46.8874 74.1415 47.6624 75.1748 48.0499 76.3373 48.1791L76.3373 48.1791C82.1498 49.0832 85.8956 45.2082 89.5123 40.4291 89.5123 40.4291 84.0873 38.2332 81.2457 36.0374 78.404 33.8416 74.529 34.3583 72.204 36.8124 70.9123 36.8124 69.4915 36.9416 68.1999 37.1999 69.7498 33.5833 71.8165 29.8374 74.3998 25.9624 74.9165 26.0916 75.304 26.0916 75.8207 26.0916 79.5665 26.0916 82.5373 22.9916 82.5373 19.375 82.5373 16.0166 84.0873 10.3333 84.0873 10.3333 78.1457 10.3333 72.8498 10.9791 70.0082 16.1458L70.0082 16.1458C69.4915 17.1791 69.104 18.3416 69.104 19.5041 69.104 20.925 69.4915 22.0875 70.2665 23.25 68.7165 25.5749 67.2957 27.8999 66.004 30.2249 65.4874 29.5791 64.9707 29.0624 64.3249 28.4166 64.3249 28.1583 64.454 27.8999 64.454 27.6416 64.454 23.8958 61.354 20.925 57.7374 20.925 54.1207 21.0541 48.5666 19.5041 48.5666 19.5041 48.5666 25.4458 49.2124 30.7416 54.379 33.5833L54.379 33.5833C55.4124 34.0999 56.5749 34.4874 57.7374 34.4874 59.2874 34.4874 60.579 33.9708 61.7415 33.1958 62.5165 33.9708 63.0332 34.7458 63.5499 35.6499 59.4165 45.2082 58.5124 54.2499 59.029 62.7749 58.8999 62.6457 58.7707 62.6457 58.5124 62.5165 57.6082 62.129 56.8332 61.6124 55.929 61.2249 56.0582 60.4499 56.0582 59.804 56.0582 59.029 56.0582 51.5374 49.9874 45.4666 42.4957 45.4666 35.5208 45.7249 24.2833 42.6249 24.2833 42.6249 24.2833 54.5082 25.5749 65.0999 36.0374 70.9123L36.0374 70.9123C37.9749 72.0748 40.2999 72.7207 42.7541 72.7207 47.6624 72.7207 51.9249 70.1373 54.379 66.2624 55.0249 66.6499 55.7999 66.9082 56.4457 67.2957 57.479 67.8124 58.6415 68.329 59.804 68.8457 60.3207 72.5915 60.9665 76.3373 61.4832 79.8248 62.7749 87.1873 64.0665 94.2915 63.2915 100.879 60.8374 101.912 58.6415 103.333 56.704 105.141 54.2499 103.979 51.4082 103.333 48.4374 103.333 40.9457 103.333 34.6166 107.466 31.2583 113.666L98.2956 113.666C95.1956 108.629 89.8998 105.271 83.5706 104.754Z" fill="#FFFFFF" transform="matrix(1 0 0 1 2477 1940)"/></g></g></g><g><g><g><path d="M103.333 25.8333C103.337 20.8397 99.2925 16.7883 94.299 16.7841 89.3054 16.78 85.2539 20.8247 85.2498 25.8183 85.2472 28.8785 86.7928 31.7324 89.3573 33.4024L82.6665 52.9582 82.6665 52.9582C80.8198 52.9562 79.0168 53.5196 77.4998 54.5728L64.0149 44.4591C65.7441 39.7745 63.3484 34.575 58.6638 32.8457 53.9792 31.1166 48.7797 33.5122 47.0505 38.1968 45.6074 42.1062 47.023 46.4954 50.4782 48.8249L41.8628 76.2082 41.3332 76.2082C36.3397 76.1963 32.282 80.2347 32.2702 85.2282 32.2583 90.2218 36.2967 94.2796 41.2902 94.2915 46.2838 94.3033 50.3414 90.2648 50.3533 85.2713 50.3602 82.4102 49.0124 79.7148 46.7195 78.0036L55.4124 50.3749 55.5415 50.3749C57.4772 50.3713 59.3607 49.7465 60.9149 48.5924L74.2836 58.6028C73.8535 59.6839 73.63 60.8362 73.6248 61.9999 73.6229 66.9934 77.6694 71.0431 82.663 71.045 87.6566 71.0469 91.7062 67.0004 91.7081 62.007 91.7093 58.959 90.1748 56.1156 87.6265 54.4436L94.2915 34.8749C99.285 34.8749 103.333 30.8268 103.333 25.8333Z" fill="#FFFFFF" transform="matrix(1 0 0 1 1684 1940)"/><path d="M25.8333 16.7916 18.0833 16.7916 18.0833 107.208 107.208 107.208 107.208 99.4581 25.8333 99.4581 25.8333 16.7916Z" fill="#FFFFFF" transform="matrix(1 0 0 1 1684 1940)"/></g></g></g></g></svg>