<?xml version="1.0" encoding="UTF-8"?>
<svg version="1.1" viewBox="0 0 2048 1157" width="920" height="520" xmlns="http://www.w3.org/2000/svg">
<path transform="translate(0)" d="m0 0h2048v1157h-2048z" fill="#F9F8F8"/>
<path transform="translate(1014,64)" d="m0 0 30 1 31 4 20 4 27 7 30 11 31 15 28 17 21 16 9 7 13 12 8 7 8 8 7 8 9 10 12 16 10 14 16 27 12 24 9 24 7 21 6 24 5 32 1 10v60l-4 31-7 30-5 17-10 28-15 31-12 20-8 12-16 21-13 15-26 26-11 9-17 13-16 11-24 14-29 14-31 11-36 9-25 4-23 2h-39l-30-3-24-4-27-7-21-7-20-8-19-9-21-12-17-11-16-12-9-7-14-13-8-7-10-10-9-11-9-10-14-19-11-17-11-19-13-27-12-34-8-32-5-32-1-13v-48l2-20 5-29 8-32 11-30 16-33 12-20 11-16 10-13 9-11 15-16 14-14 8-7 16-13 18-13 20-12 23-12 17-8 34-12 34-8 27-4 11-1z" fill="#F8F7F7"/>
<path transform="translate(1014,64)" d="m0 0 30 1 31 4 20 4 27 7 30 11 31 15 28 17 21 16 9 7 13 12 8 7 8 8 7 8 9 10 12 16 10 14 16 27 12 24 9 24 7 21 6 24 5 32 1 10v60l-4 31-7 30-5 17-10 28-15 31-12 20-8 12-16 21-13 15-26 26-11 9-17 13-16 11-24 14-29 14-31 11-36 9-25 4-23 2h-39l-30-3-24-4-27-7-21-7-20-8-19-9-21-12-17-11-16-12-9-7-14-13-8-7-10-10-9-11-9-10-14-19-11-17-11-19-13-27-12-34-8-32-5-32-1-13v-48l2-20 5-29 8-32 11-30 16-33 12-20 11-16 10-13 9-11 15-16 14-14 8-7 16-13 18-13 20-12 23-12 17-8 34-12 34-8 27-4 11-1zm-1 18-31 2-34 5-27 7-29 10-34 16-23 14-15 11-12 9-14 12-25 25-9 11-14 18-10 15-13 22-13 28-9 25-8 30-5 30-2 22v37l2 23 4 25 8 31 8 23 11 25 9 17 13 21 13 18 9 11 9 10 14 15 12 11 14 12 18 13 16 10 15 9 30 14 28 10 33 8 27 4 25 2h24l26-2 32-5 30-8 27-10 30-14 28-17 16-12 10-8 10-9 8-7 15-15 7-8 10-12 14-19 19-32 12-26 11-31 7-28 5-33 1-13v-42l-3-29-4-22-7-26-9-26-14-30-9-16-11-17-9-12-10-13-24-26-8-7-11-10-13-10-17-12-20-12-19-10-21-9-33-11-26-6-28-4-30-2z" fill="#221D1F"/>
<path transform="translate(994,401)" d="m0 0h7l10 12 5 10 1 8-4 11-8 9-14 9-9 6-26 9-6 4-2 5 1 8 7 11 9 12 7 16 3 12v17l-3 7-3-1-8-23-2-5h-2l3 14 7 20 6 11 3 27 4 15 4 8 1 6-2 2-4 1-22 1-19 5h-12l-13-1-6-3-1-3 2-1h16l11-4 11-8 7-8 3-9-1-11-7-34-7-23-6-17v-14l1-3v-11l-2-7v-9l2-9-7-6-5-5 3-6 28-28 10-8 9-8 16-9z" fill="#221D1F"/>
<path transform="translate(1092,370)" d="m0 0h2l8 18 3 13v18l-2 4-3-1-2-11h-3l-1 2-2 25-5 16-8 18-10 18-5 13-1 11 3 13 7 8 11 8 6 5 9 11 9 14 7 15-1 3-9-12-10-12-6-1 1 5 7 10 9 13 8 12 13 17 14 17 4 7v5h-7l-9-3-3-5-5-16-9-17-14-22-13-18-5-3 3 9 9 14 11 16 7 11 1 4h-2l-16-23-8-12-10-14-9-10-6-7 1-3 2-1-1-18h-5l-5 4-4-1v-2l6-4 7-7-1-5-8-10-9-6-5-5 2-28 4-18 10-33 7-31 3-6 6-5 18-5z" fill="#221D1F"/>
<path transform="translate(1026,657)" d="m0 0h58l8 1 2 3v23l-2 6-1 1h-23l-54-1-27-1-89-2-3-5v-20l3-4h94l17 1 3-1z" fill="#221D1F"/>
<path transform="translate(438,861)" d="m0 0h21l7 10 12 20 12 19 7 11v2h2v-62h19v93l-1 1h-19l-4-4-12-20-15-24-9-14v18l-1 44h-19z" fill="#221D1F"/>
<path transform="translate(1242,997)" d="m0 0h22l11 30 18 48 5 14v2h-21l-3-8-4-12h-35l-3 7-4 12-1 1h-20l1-5 13-35 20-53z" fill="#221D1F"/>
<path transform="translate(888,195)" d="m0 0 3 3 8 15v-3l-4-12v-3l5 1 3 6 4 17 3-3 4-7h3v10l-5 21-1 12 3 7 7 8 14 12 11 16 5 4 8 2 11-2 7-13 9-10 7-1 15 3h11l18-2 4 3-1 3-15 5-14 8-15 9-25 9-10 7-5 4h-2l-3-9-14-9-11-8-2-1 6 10 12 12 2 3v3l-6-1-15-14-8-11-14-33-7-9-5-7-1-3-1-14-4-10-6-9v-3l5 2 5 7 2 1-5-9-5-5 1-5 5 2 4 7 2 1-3-10z" fill="#231E20"/>
<path transform="translate(898,702)" d="m0 0 70 2h87l87 1v3l-16 6-26 7-33 6-21 2h-36l-42-3-22-3-23-6-19-6-7-4-1-3z" fill="#221D1F"/>
<path transform="translate(390,997)" d="m0 0h20l1 62 3 9 5 5 8 2h7l9-3 3-3 2-5 1-12 1-55h20v66l-4 13-7 9-12 6-8 2h-18l-12-3-10-7-6-8-3-10z" fill="#221D1F"/>
<path transform="translate(1079,1021)" d="m0 0h14l11 4 8 6 6 9 2 5 1 6v12l-4 13-7 9-8 5-6 2-14 1-10-2-9-5-7-7-5-12v-19l4-11 6-8 10-6z" fill="#221D1F"/>
<path transform="translate(717,885)" d="m0 0h14l10 3 9 6 6 9 3 8v19l-4 11-9 10-12 5-6 1h-9l-10-3-10-6-6-8-4-12v-14l3-10 6-9 7-6 7-3z" fill="#221D1F"/>
<path transform="translate(1521,885)" d="m0 0h17l13 4 5 5 2 3 1 7 1 51h-18l-1-6-8 5-7 2-9 1-11-2-8-6-3-7v-12l4-7 5-4 9-3 22-4 4-3-1-8-7-3-10 1-4 4-1 5h-17l-2-1 1-7 4-7 8-5z" fill="#221D1F"/>
<path transform="translate(873,885)" d="m0 0h17l12 3 6 4 3 6 1 6 1 51h-17l-1-1v-5l-12 6-10 2-11-1-10-6-4-8v-12l4-7 7-5 13-3 16-3 4-2v-7l-3-4-3-1h-9l-5 3-3 5-1 2h-17l-1-1 1-7 4-7 10-6z" fill="#221D1F"/>
<path transform="translate(557,885)" d="m0 0h17l12 3 7 6 2 4 1 38 1 19h-18l-1-6-8 5-13 3-11-1-9-5-5-8v-14l4-6 7-5 13-3 16-3 4-1-1-10-6-3h-8l-5 2-4 8h-17l-1-1 1-8 5-7 12-6z" fill="#221D1F"/>
<path transform="translate(1351,997)" d="m0 0h19l1 34 8-7 8-3h10l9 3 5 5 4 9 1 9v43l-1 1h-18l-1-44-3-8-4-2h-9l-6 4-2 5-1 8-1 37h-19z" fill="#221D1F"/>
<path transform="translate(1103,885)" d="m0 0h13l9 3 8 5 7 11 3 11v10l-6 1h-39l-4-1 3 11 4 4 8 2 10-2 6-6h17l-6 12-7 6-10 4-14 1-13-4-9-7-5-8-3-11v-12l3-11 7-10 9-6z" fill="#221D1F"/>
<path transform="translate(1230,861)" d="m0 0h19v34h2l2-4 8-5 3-1h13l8 3 6 7 2 5 1 6v48l-1 1h-17l-1-42-2-8-2-3-3-1h-10l-5 3-3 8-1 42-1 1h-17l-1-1z" fill="#221D1F"/>
<path transform="translate(1456,1021)" d="m0 0h11l10 3 8 6 6 8 3 9 1 6v8l-49 1 3 10 4 4 6 2 10-1 6-4 2-3h16l-3 9-7 8-12 5-11 1-11-2-10-5-7-8-4-10-1-3v-15l4-12 7-9 10-6z" fill="#221D1F"/>
<path transform="translate(692,1021)" d="m0 0h13l11 4 8 6 5 9 3 9v12l-48 1 1 7 4 6 7 3h7l9-4 3-4h16l-3 8-8 9-7 4-11 2-13-1-9-4-8-7-5-8-2-6-1-11 2-12 5-10 7-7 11-5z" fill="#221D1F"/>
<path transform="translate(1013,860)" d="m0 0h16l40 1v17h-28v76l-1 1h-20v-77h-28v-17z" fill="#221D1F"/>
<path transform="translate(939,1023)" d="m0 0h20l6 16 9 28 1 1 13-41 1-4h19l-1 7-20 54-8 20-4 6-8 4-3 1h-17l-1-1v-15l14-1 3-5-1-8-16-43z" fill="#221D1F"/>
<path transform="translate(1540,1021)" d="m0 0h12l8 3 5 4 4 8 1 6v49h-18l-1-41-2-9-1-3-4-1h-10l-6 5-2 5-1 44h-19v-68h18v8l8-7z" fill="#221D1F"/>
<path transform="translate(805,885)" d="m0 0h13l9 3 6 7 2 6 1 7v46l-1 1h-18l-1-47-4-6-5-2-10 2-4 6-2 11-1 36h-18v-68h18l1 7 7-6z" fill="#221D1F"/>
<path transform="translate(521,1021)" d="m0 0h11l10 4 6 8 2 8v50h-18l-1-41-2-9-5-4h-9l-6 2-2 5-1 3-1 44h-19v-68h18l1 8 5-5 4-3z" fill="#221D1F"/>
<path transform="translate(1342,885)" d="m0 0h13l10 4 4 5 3 8 1 8v45h-19l-1-46-3-6-7-3-9 2-4 5-2 11-1 37h-18v-68h17l1 1 1 7 5-6z" fill="#221D1F"/>
<path transform="translate(1604,1021)" d="m0 0h16l10 3 8 6 4 7 1 5-1 1h-17l-3-6-4-2-9-1-5 2-1 1 1 7 8 3 19 5 8 4 4 6 2 9-3 10-4 5-10 5-4 1h-22l-10-4-7-6-3-7-1-6h18l4 8 4 2h11l6-3 1-5-5-5-24-7-10-6-3-6v-9l4-9 9-6z" fill="#221D1F"/>
<path transform="translate(815,1021)" d="m0 0h16l11 4 8 7 3 7-1 4h-16l-4-7-8-2-8 1-2 1-1 5 4 4 14 4 13 4 6 4 4 6 1 3v9l-4 8-6 5-9 4h-24l-11-5-5-5-3-5-1-8h18l3 7 5 3h12l5-4v-6l-4-3-25-7-9-6-3-5v-11l3-7 6-5 7-3z" fill="#221D1F"/>
<path transform="translate(1447,885)" d="m0 0h14l10 3 9 6 5 9 1 7h-18l-5-8-4-2h-9l-6 4-4 7-1 4v12l4 10 5 4 8 1 7-3 4-6 2-4h17l-1 8-4 8-7 6-8 4-10 2-12-1-12-6-7-7-5-12-1-11 2-12 5-10 4-5 7-5z" fill="#221D1F"/>
<path transform="translate(1180,885)" d="m0 0h13l8 2 9 5 6 7 3 8v3h-18l-5-8-4-2h-10l-7 6-3 8v14l3 8 1 3 5 2 8 1 7-3 3-4 3-6h17l-2 10-5 8-5 4-8 4-11 2-11-1-12-6-7-7-4-8-2-8v-11l3-11 6-10 7-6 7-3z" fill="#221D1F"/>
<path transform="translate(1187,552)" d="m0 0h33l24 2-2 4-4 5-2 5v8l3 6 9 6 3 4 3 17 2-9 4-15 1-3v-8l-4-5-5-1 5 7-1 5-4 3h-7l-5-4-1-2v-7l3-6 4-4 3-1h11l7 4 4 5 2 6v7l-4 11-5 10-2 16-2 2h-7l-5-4-4-11-1-8-1-3-11-3-5-5-3-7-1-7h-12l-3 5-3 8-5 5-5-2 3-11v-8l-3-6-7-8z" fill="#221D1F"/>
<path transform="translate(1169,626)" d="m0 0h41l27 1 13 2v4l-9 7-12 4-6 1h-30l-7 1-2 9-1 5-1 25-3 6-6 4-7 1-3-5v-18l1-42z" fill="#221D1F"/>
<path transform="translate(593,1023)" d="m0 0h19l8 24 6 20 2 1 1-7 11-36 1-2h18l-2 9-13 38-7 21h-21l-4-9-19-56z" fill="#221D1F"/>
<path transform="translate(615,866)" d="m0 0h19l1 20 13 1v11l-1 1h-13l1 38 3 3 10 1v12l-1 2-3 1h-11l-9-2-5-3-3-6-1-5v-41h-11v-12l10-1z" fill="#221D1F"/>
<path transform="translate(1310 1e3)" d="m0 0h19v21h13v12h-13l1 41 12 1v14l-2 1h-12l-10-2-6-5-2-7v-43h-11l-1-2v-10l11-1z" fill="#221D1F"/>
<path transform="translate(905 1e3)" d="m0 0h19v21h13l1 4v7l-1 1h-13l1 38 3 3 10 1v13l-3 2h-11l-10-2-7-6-2-10v-38l-11-1v-12l11-1z" fill="#221D1F"/>
<path transform="translate(1155,997)" d="m0 0h15v14l-12 1-1 10 12 1v12h-13v56h-18l-1-55-11-1v-9l1-3 10-1 2-13 4-6 5-4z" fill="#221D1F"/>
<path transform="translate(1180,197)" d="m0 0h2l-1 5-2 4v6l2 2 4-1 6-5h1l2 17 6 16v3l5-3 9-9 3-5v-6l-5 3-3-1v-6l3-3h6l5 6 4 10 6 5 5-1 4-6v-13l6 2 6 4 1 5-5 10-5 6-20 16-4 6-2 7h-3l-1-9 4-11 6-10 1-7-4 5-7 8-6 15-3 3 1 12-3-1-5-10-2-5v-3l-4 2-3 9h-1l-1-14 3-9-1-8-3-4h-5l-7-6-4-9v-11l3-7 3-3z" fill="#221D1F"/>
<path transform="translate(1188,316)" d="m0 0h53l2 4v23l-2 5-2 1-28 2h-21l-4-3-1-3 1-25z" fill="#221D1F"/>
<path transform="translate(1205,507)" d="m0 0h37l2 2v4l-5 2-12 3-2 3v5l5 1 2-4 3-2h9l3 3v7l-4 4-34 1-1 1h23l16 1 6 2 1 4-4 3h-71l-2-5 4-4 12-3-4-4 1-2 12-3 2-7 4 1 5 6 3 1-2-9-2-1h-10l-6 4h-6l-2-3 1-8 3-2z" fill="#221D1F"/>
<path transform="translate(1043,236)" d="m0 0h9l4 5 10 23 5 16-1 6-4 3h-5l-10-10-1-3v-8l-2 1-20 2-17-1-6-2 1-6 10-15 5-4 15-4z" fill="#221D1F"/>
<path transform="translate(927,861)" d="m0 0h19v93l-1 1h-18z" fill="#221D1F"/>
<path transform="translate(1574,861)" d="m0 0h18l1 6v87l-1 1h-18z" fill="#221D1F"/>
<path transform="translate(780,1021)" d="m0 0h7l1 1v17h-8l-8 2-5 4-3 6-1 8-1 32h-18v-68h17l1 11 6-8 8-4z" fill="#221D1F"/>
<path transform="translate(982,199)" d="m0 0 5 1 1 2v14l-3 9v22l2-2v-19l2-6 1-1h14l3 3 2 6 2 1 1-5 9-1 9 2 4 3-1 4-8 3-10 3-5 2-4-5-4-9h-7l-3 4-1 4v12l2 5 8 4v5l-5 4-14 9-14 13-4-1 2-6 4-4-6-3v-4l16-1v-2h-12l-1-5 4-8 5-8 2-6-1-9-4-11 3-2-1-9 2-1 7 3-3-5z" fill="#221D1F"/>
<path transform="translate(966,325)" d="m0 0h11l4 5 2 16-1 7v11l1 6-2 3-11 3-8 5-21 6-21 7h-5l-4-4-1-5 6-5 9-5 10-9 10-6 10-3 8-1 3 3-2 4-8 4-13 5-11 6-4 5 16-6 21-6 4-5 2-7 2-18-1-5-3 1-4 10-5-2-3-4 1-9 5-5z" fill="#221D1F"/>
<path transform="translate(989,158)" d="m0 0 11 1 16 8 3 4 1 12-1 7-3 3-14 1-1 1-1 15-2 4h-5v-14l-2-4-2-1-9 1-6 3h-5l-5-5v-3h11l6-4 16-1h15l1-7-3-5-4-3-9-4-4-3-1 3-18 7-8 7-10 19-2 3-6-1v-17l6-3 1-8 4-3h3l2-6 13-1 1-4 10-1z" fill="#221D1F"/>
<path transform="translate(1132,120)" d="m0 0 10 1 8 4 5 6v13l-4 8-5 5-6 4-3 1h-8l-8-4-7-8-1-2v-8l4-9 7-8z" fill="#221D1F"/>
<path transform="translate(1038,289)" d="m0 0h7l9 3 14 9 2 5-2 5-12-7-6-6h-2l-1 6 10 10 5 8-1 6-4 3-6-2-12-10-18-1-10-4-3-5 3-5 9-8 10-5z" fill="#221D1F"/>
<path transform="translate(718,354)" d="m0 0h12l8 5 6 8 1 3v9l-4 8-5 4-8 3-10-1-7-4-6-8-1-3v-12l5-7 6-4z" fill="#221D1F"/>
<path transform="translate(1405,886)" d="m0 0 2 1v67l-1 1h-18v-68z" fill="#221D1F"/>
<path transform="translate(657,887)" d="m0 0h19v68h-19z" fill="#221D1F"/>
<path transform="translate(867,1023)" d="m0 0h19v67l-1 1h-18z" fill="#221D1F"/>
<path transform="translate(566,1023)" d="m0 0h18v68h-18l-1-1v-65z" fill="#221D1F"/>
<path transform="translate(824,620)" d="m0 0 11 1 6 4 4 5 1 3v11l-3 7-6 7-8 3-8-1-8-4-6-7-2-6 1-9 6-8 8-5z" fill="#221D1F"/>
<path transform="translate(840,314)" d="m0 0 6 1 5 3-1 5-4 6 10 1 1 1-1 7-1 3 4-2h4l2 9 9 11 1 2v8l5 2 4 3v6l-3 3-8 3h-3l-4-8-9-8v-5l5-7-9 1-4-1-2-8-4-5-1-7-10-9-2-5 6-4z" fill="#241F21"/>
<path transform="translate(719,899)" d="m0 0h9l6 3 5 6 2 7v11l-3 9-4 5-4 2h-12l-6-4-4-9v-16l4-9 5-4z" fill="#F9F8F8"/>
<path transform="translate(1082,1035)" d="m0 0 10 1 6 4 4 9v16l-4 9-6 4-8 1-8-3-4-5-3-9v-11l4-10 6-5z" fill="#F9F8F8"/>
<path transform="translate(789,203)" d="m0 0 10 2 6 4 6 8 1 3v10l-4 6-6 5-3 1h-11l-8-4-6-8-1-10 3-8 7-7z" fill="#221D1F"/>
<path transform="translate(1125,216)" d="m0 0 7 3 5 5 5 13 3 1v-12l6-5h4l1 12 4 4 4 2-3-13v-7h4l6 13 8 14 3 13v23l-7-1-5-12-3-4v-2l10 1-3-8-8-4-19-4-8-5-6-8-9-15z" fill="#221D1F"/>
<path transform="translate(1258,236)" d="m0 0h2v6l-4 10 3 4h3l7-17 4-3h5l4 5-1 3-5 1-1 9-3 12-6 8-10 4-15 1-8 1 3-5 7-6 8-5-2-4-3-3-5 1-6 3-5 4-5 8-1 5-4-2 1-6 6-9 6-7 16-8h2l2-4z" fill="#221D1F"/>
<path transform="translate(723,318)" d="m0 0 5 2 5 4 5-1 8-3 6 2 10 15 1 6-2 2-5-1-7-8v-2l-7-1-7 5 3 2 10 3 4 5-2 3h-8l-31-7-5-3-1-3 3-6 13-13z" fill="#221D1F"/>
<path transform="translate(749,507)" d="m0 0 4 1 1 5-4 5-7 6-3 4 12 2 3 3-3 9-1 4h7l13-4 9-1 3 3v5l-7 3-33 7h-5l-2-2 1-8 4-11-13-2-4-2 1-7 4-5 17-13z" fill="#221D1F"/>
<path transform="translate(1178,486)" d="m0 0h73v6l-6 2h-3l2 3-1 4-7 2-26 1h-17l-4-2-2-8-7-2z" fill="#221D1F"/>
<path transform="translate(1e3 612)" d="m0 0h22l3 5 1 4v15l-3 8-2 1h-23l-3-3v-7l-6-13v-6l4-3z" fill="#221D1F"/>
<path transform="translate(754,234)" d="m0 0 6 1 11 7 9 7 1 1v5l-2 2-6-1-8-5-2-1h-6l-6 7-1 6 4 4 19 10 3 4v6l-2 2-7-1-15-10-13-7-4-4 2-5 9-16z" fill="#221D1F"/>
<path transform="translate(1068,97)" d="m0 0 13 2 6 4 2 3-3 3h-11l-3 3 1 3 12 6 1 4-2 3h-16l-1 3 13 8 2 2v5l-3 2h-9l-10-4-6-4-1-1 1-8 8-21 4-11z" fill="#221D1F"/>
<path transform="translate(1237,360)" d="m0 0 4 2 3 4 1 3v23l-1 25v60l-4-1-2-2-1-4-2-30v-77z" fill="#221D1F"/>
<path transform="translate(1014,91)" d="m0 0 7 4 9 12 6 2h2l2-5 3-10 5-1 2 2v9l-7 21-2 3-7-1-11-12-2-1v11l-2 9-4 2-4-2-1-3 1-36z" fill="#221D1F"/>
<path transform="translate(1170,563)" d="m0 0h12l6 4 3 4v10l-5 5h-6l-4-3v-6l2-2 6 1 3 2-4-6-1-1h-7l-3 3v8l7 15 1 3v9h2l3-11 2-4 4 2 1 7-3 8-7 7-13 3-5-1 1-5 8-2 1-7-4-11-8-10-2-4v-7l4-6z" fill="#221D1F"/>
<path transform="translate(789,587)" d="m0 0 5 1 2 3-1 8-3 9-1 7 10-5 11-10 6-1 1 1-1 7-15 13-11 9-8 5-4-5 3-16 1-4v-7l-6-1-11 4-5-1-1-5 5-4 19-7z" fill="#221D1F"/>
<path transform="translate(1173,134)" d="m0 0 4 3 1 3 1 22 3 2 11-8 4-3 3 1 1 6-7 8-10 8-8 5h-3l-2-4-1-19-5 3-8 11-4 4h-4l-2-3 1-4 10-14 11-16z" fill="#221D1F"/>
<path transform="translate(986,94)" d="m0 0h5l2 2-1 7-2 5v6l4 6 5 6 1 6-4 3-4-1-7-6-4 1-6 9-3 2-4-1-2-4 5-12 2-5-1-6-8-10 1-5 1-1h5l6 4 5-1z" fill="#221D1F"/>
<path transform="translate(746,468)" d="m0 0 5 1 4 8 2 8v11l-10 4-25 7-9 2-4-6-4-13v-5l2-2 4 1 6 12 5 1 4-2-1-15 1-2 4 2 6 11 5 1 5-3v-7l-3-9z" fill="#221D1F"/>
<path transform="translate(1188,360)" d="m0 0 4 2 2 6 1 7 1 65 1 33-2 5-5-1-1-2-1-18-1-39v-43z" fill="#221D1F"/>
<path transform="translate(939,100)" d="m0 0 4 4-2 4-9 6 1 4h15l2 4-9 7-3 2 1 5 1 1 9-1h10l-1 4-7 6-9 3h-10l-6-16-6-17v-6l5-4 11-5z" fill="#221D1F"/>
<path transform="translate(1214,360)" d="m0 0 4 2 3 9v104l-1 2-5-1-2-8v-103z" fill="#221D1F"/>
<path transform="translate(1202,360)" d="m0 0h2l2 9 1 14 2 92-2 3-5-1-2-10-1-43v-40l2-22z" fill="#221D1F"/>
<path transform="translate(861,133)" d="m0 0 3 1 3 6 3 12 3 18v8l-3 4-7-1-13-7-16-10-6-5v-5l2-2 6 1 18 11 7 4-2-15-3-14 1-4z" fill="#221D1F"/>
<path transform="translate(860,640)" d="m0 0 7 1 13 10 3 4-1 6-6 10-8 16-5 5-5 1-10-5-7-5-1-6 3-1 11 5h6l2-6-9-8v-6l6 1 6 3 5-1 3-3-1-4-7-6-6-5v-5z" fill="#221D1F"/>
<path transform="translate(1225,358)" d="m0 0 4 4 2 11 2 24v35l-1 16v12l1 12-2 4h-4l-1-2-1-21v-32l-1-19v-43z" fill="#221D1F"/>
<path transform="translate(823,483)" d="m0 0 5 2 1 5-3 5-2 1-13 1-4 5v7l4 3 8-1 8-7 2-2 6 1 4 8-3 3-7 1-7 6-5 2h-8l-8-5-4-7v-11l5-8 6-4z" fill="#221D1F"/>
<path transform="translate(806,169)" d="m0 0 8 1 19 9 8 4 4 4-1 4-7 1-13-3 1 8 5 15-1 5-5 1-4-5-11-27-4-11z" fill="#221D1F"/>
<path transform="translate(1277,405)" d="m0 0 6 1 10 7 11 3 1 1v5l-11 6-9 9-5 1-6-4-9-11v-6l10-11z" fill="#231E20"/>
<path transform="translate(902,111)" d="m0 0 5 1 2 3-1 4-8 6 2 9 8 17 1 6-4 4h-6l-3-5-3-11-6-12-7-1h-9l-1-5 8-5 17-9z" fill="#221D1F"/>
<path transform="translate(850,530)" d="m0 0 4 1 2 6 2 12 6 7-1 5-4 2-6 1h-17l-5-3-2-3 1-5 8-11 10-11z" fill="#221D1F"/>
<path transform="translate(1080,405)" d="m0 0 4 2 2 2v21l-4 21-6 17-10 19-5 7-4-2 1-6 9-19 7-26 3-16 2-17z" fill="#F9F8F8"/>
<path transform="translate(697,432)" d="m0 0h6l5 11 1 1h8l25-4 3 4-1 5-9 3-22 3-4 1-1 13-6 1-2-3-3-17-1-17z" fill="#221D1F"/>
<path transform="translate(722,402)" d="m0 0 8 1 16 10 4 4v9l-3 1-6-3-11-8-7-1-7 8-5 2-10-6-7-6-1-4 3-3 6 1 5 3h6z" fill="#221D1F"/>
<path transform="translate(940,513)" d="m0 0 5 5 6 14 6 19 6 31 1 7v16l-4 1-3-12-7-36-5-16-6-17v-11z" fill="#F9F8F8"/>
<path transform="translate(1178,300)" d="m0 0 15 1h51l6 1-1 6-3 2-19 1h-37l-10-3-2-1-1-6z" fill="#221D1F"/>
<path transform="translate(1e3 428)" d="m0 0 6 2 1 4-5 6-14 7-20 8-10 6-5 5-4 5-5 1-2-2v-6l5-5 14-10 29-15z" fill="#F9F8F8"/>
<path transform="translate(1130,658)" d="m0 0 9 1 4 3 1 5-1 4-1 16-3 3-9 3h-3l1-3 6-5 1-2-12-1-5-3-1-5 5-10 5-5z" fill="#221D1F"/>
<path transform="translate(913,611)" d="m0 0h11l15 1 3 4-1 5-7 7-8 4-4 1h-11l-2-6v-12z" fill="#221D1F"/>
<path transform="translate(833,232)" d="m0 0 4 1 2 4-1 8-2 4v15l-3 6-7 8-2 11-5-1-1-1 1-10 3-13-7-1-2-3 1-5 3-2h6l5 6h2l1-4-2-10 1-9z" fill="#221D1F"/>
<path transform="translate(1276,366)" d="m0 0h7l5 3 4 5v9l-4 6-3 3-8 1-6-3-3-3-1-3v-9l4-6z" fill="#221D1F"/>
<path transform="translate(1225,187)" d="m0 0h8l8 4 7 9 3 1v-5h4l1 8-2 3-5 1-3-1h-7l-3 2-7-1 1 7 4 5 3 3-1 2-6-4-6-9-1-6 3-5 8-2-1-5-10 4h-3v-6z" fill="#221D1F"/>
<path transform="translate(1141,381)" d="m0 0h12l6 5 1 2v8l-4 6-6 3h-7l-6-4-3-5v-8l5-6z" fill="#221D1F"/>
<path transform="translate(786,297)" d="m0 0h7l4 4 2 7 5-1 7-4 6 1 10 9 1 5-4 1-10-6-5 1-10 7h-6l-3-3-1-9-8-7 1-3z" fill="#221D1F"/>
<path transform="translate(1147,452)" d="m0 0h7v4l-4 5-3 16 5 4 8 5 1 4-2 2-8-1-14-7-3-3 1-5 4-7-2-11 4-4z" fill="#221D1F"/>
<path transform="translate(823,627)" d="m0 0 9 2 6 5 1 2v10l-4 5-2 1h-10l-6-3-3-7 1-8 5-6z" fill="#F9F8F8"/>
<path transform="translate(1131,128)" d="m0 0h7l7 4 2 4v7l-3 6-3 3-9 1-6-3-4-6v-7l4-6z" fill="#F9F8F8"/>
<path transform="translate(809,436)" d="m0 0h5l2 4-4 5-5 3-1 3 5 3 10 5 2 4-3 3-9-1-18-5-5-4 1-5 16-12z" fill="#221D1F"/>
<path transform="translate(869,248)" d="m0 0h1v6l-7 8-4 11-4 6-8 7-8 6-5 9h-1l-1-11 3-8 11-8 5-5 5-12 8-7z" fill="#221D1F"/>
<path transform="translate(1272,447)" d="m0 0 5 1 11 9 12 4-1 5-6 2h-21l-6-2-2-2 1-7 5-8z" fill="#221D1F"/>
<path transform="translate(789,389)" d="m0 0 4 1 2 5 1 6h3l3-5 5 1 2 5 7 1 3 3-1 5-3 2h-15l-11-2-4-5v-11l3-5z" fill="#221D1F"/>
<path transform="translate(1105,107)" d="m0 0 5 1 2 4-1 9-8 26-3 4h-7l-2-2 1-7 6-16 4-15z" fill="#221D1F"/>
<path transform="translate(1277,306)" d="m0 0h7l6 3 3 4v9l-4 5-6 2-8-1-4-2-2-4v-7l4-7z" fill="#221D1F"/>
<path transform="translate(1538,922)" d="m0 0h2v11l-4 8-6 3h-11l-5-4-1-6 2-5 5-3z" fill="#F9F8F8"/>
<path transform="translate(575,922)" d="m0 0h2v9l-2 7-5 5-3 1h-11l-4-2-2-4 1-7 4-4 16-4z" fill="#F9F8F8"/>
<path transform="translate(1251,1021)" d="m0 0 3 1 10 29v3l-5 1h-18l-1-3 6-16z" fill="#F9F8F8"/>
<path transform="translate(891,922)" d="m0 0h2v12l-4 6-3 3-3 1h-10l-5-3-2-4 1-6 4-4 13-3z" fill="#F9F8F8"/>
<path transform="translate(865,218)" d="m0 0 2 2-1 7-5 8-5 5-3 4-3 15-4 8-4 1 1-6 1-23 4-8 8-7z" fill="#221D1F"/>
<path transform="translate(1111,189)" d="m0 0 5 2 5 4 20 6 5 4 1 3v9l-2 5-3-1-3-6-8-6-12-5-8-6-2-4z" fill="#221D1F"/>
<path transform="translate(1281,528)" d="m0 0h14v6l-3 2-12 2-1 9 1 2 8 1 1 5-4 3h-9l-4-5-1-5v-17l3-2z" fill="#221D1F"/>
<path transform="translate(720,363)" d="m0 0 9 2 5 4 1 2-1 9-6 5h-8l-6-4-2-5v-6l3-5z" fill="#F9F8F8"/>
<path transform="translate(1135,561)" d="m0 0h14l6 3-2 3-9 4-1 1v8l8 4 1 4-3 2h-10l-5-3-1-2v-15z" fill="#221D1F"/>
<path transform="translate(1187,291)" d="m0 0h63l3 2-1 3-6 1-70-1-4-2v-2z" fill="#221D1F"/>
<path transform="translate(1140,416)" d="m0 0h16l-2 7-1 2v7l9 4-1 4-1 1h-21l-4-2 1-4 6-3 2-2-1-5-5-6z" fill="#221D1F"/>
<path transform="translate(1271,483)" d="m0 0 8 1 13 5 4 4-1 7-8 7-10 5-5-1 1-5 7-6h2l1-5-11-6-1-1z" fill="#221D1F"/>
<path transform="translate(1144,502)" d="m0 0h7l6 4 2 8-3 6-4 2h-8l-5-2-3-4v-6l4-6z" fill="#221D1F"/>
<path transform="translate(696,1035)" d="m0 0h7l6 3 4 7v5h-30l1-6 6-7z" fill="#F9F8F8"/>
<path transform="translate(1458,1035)" d="m0 0h7l6 3 4 6 1 6h-30l-1-2 4-8 3-3z" fill="#F9F8F8"/>
<path transform="translate(1106,899)" d="m0 0h8l5 3 4 5 1 6-1 1h-28l-1-5 4-6 4-3z" fill="#F9F8F8"/>
<path transform="translate(1141,530)" d="m0 0h5l8 10v2l5 2 1 3-7 3h-16l-4-2 1-9z" fill="#2B2628"/>
<path transform="translate(1041,332)" d="m0 0 5 2 13 12 3 7-1 14-3 10-4 8h-3l1-7 2-7v-10l-5-14-8-12z" fill="#221D1F"/>
<path transform="translate(1076,337)" d="m0 0 6 2 4 5 3 6 1 8-5 5-7-1-6-9-1-4v-7z" fill="#221D1F"/>
<path transform="translate(791,213)" d="m0 0 7 1 5 5 1 7-4 6-4 2-8-1-5-6v-6l4-6z" fill="#F9F8F8"/>
<path transform="translate(1040,368)" d="m0 0h5l3 3-1 7-5 13-4 3-6-1-2-6 1-12 5-6z" fill="#221D1F"/>
<path transform="translate(1036,400)" d="m0 0h14l1 1-1 8-4 4-4-1-2-4h-3l-3 7-5 5-8 1 2-6 4-6-3-3v-2l7-3z" fill="#221D1F"/>
<path transform="translate(1273,339)" d="m0 0 7 1 8 6 9 4v3l-6 3h-18l-5-3v-6z" fill="#231E20"/>
<path transform="translate(1129,180)" d="m0 0 9 1 12 4 4 4 3 10-1 4-3 1-7-8-16-8-1-2z" fill="#221D1F"/>
<path transform="translate(867,997)" d="m0 0h19v15h-19z" fill="#221D1F"/>
<path transform="translate(565,997)" d="m0 0h19v15h-19z" fill="#221D1F"/>
<path transform="translate(657,861)" d="m0 0h19v15h-18l-1-1z" fill="#221D1F"/>
<path transform="translate(1211,655)" d="m0 0 13 1-2 4-9 8-9 6-4-1-1-9 2-7 1-1z" fill="#221D1F"/>
<path transform="translate(994,311)" d="m0 0h8l2 4v5l-5 4-8 5h-5l-5-6 1-4 8-6z" fill="#221D1F"/>
<path transform="translate(1161,358)" d="m0 0 3 2v9l-5 2h-16l-7-2-1-1v-8l2-1 4 2h11l5 1z" fill="#221D1F"/>
<path transform="translate(1192,321)" d="m0 0 10 1 2 1-1 5-1 16h-13l1-14 1-8z" fill="#F9F8F8"/>
<path transform="translate(1388,861)" d="m0 0h18l1 14-1 1h-18z" fill="#221D1F"/>
<path transform="translate(903,414)" d="m0 0 5 1 5 5 1 7-2 5-2 2h-6l-6-5-1-2v-8l4-4z" fill="#221D1F"/>
<path transform="translate(1133,296)" d="m0 0 3 1h7l2-1h8l6 4 3 3-1 4h-5l-4-2-6 1-8 1-6-4-1-3z" fill="#221D1F"/>
<path transform="translate(1280,281)" d="m0 0h6l8 5 2 5-5 1-8-2-7 4-6-2-5-5-1-4 11 1z" fill="#221D1F"/>
<path transform="translate(796,265)" d="m0 0 6 1 5 3 1 2v6l-1 7 4 8-3 2-6-1-3-5v-15l-4-5z" fill="#221D1F"/>
<path transform="translate(887,387)" d="m0 0h9l1 5-3 3h-17l-11 3h-8l-1-4 22-5z" fill="#221D1F"/>
<path transform="translate(1032,344)" d="m0 0 6 1 7 6 1 4-3 3-8 1-7-2-3-3v-5l5-4z" fill="#221D1F"/>
<path transform="translate(1217,322)" d="m0 0 3 1 2 4v7l-2 8h-8l-3-2 1-13 3-4z" fill="#F9F8F8"/>
<path transform="translate(1142,385)" d="m0 0h8l4 4v7l-5 4-7-1-4-5 1-6z" fill="#F9F8F8"/>
<path transform="translate(1037,512)" d="m0 0h7l3 4v9l-3 4h-6l-3-3-1-3v-7z" fill="#221D1F"/>
<path transform="translate(1017,370)" d="m0 0 4 1 2 7v13h-7l-4-8v-7z" fill="#221D1F"/>
<path transform="translate(1138,323)" d="m0 0 8 1 6 4 4 5-3 5-6 4-7 1 1-4 4-4-1-4-6-5z" fill="#221D1F"/>
<path transform="translate(917,469)" d="m0 0 7 1 3 4 1 5v9l-2 3-4-2-4-8-1-3z" fill="#221D1F"/>
<path transform="translate(967,603)" d="m0 0 5 5 2 4v9l-3 5-4-1-2-3-1-8 2-10z" fill="#F9F8F8"/>
<path transform="translate(951,274)" d="m0 0 5 2 3 4v8l-3 3h-5l-3-3-1-7 3-6z" fill="#3C3739"/>
<path transform="translate(1196,185)" d="m0 0 4 2 3 6 8 3 2 4v6l-4 3-5-1-2-3 6-2-2-4-9-4-2-2v-6z" fill="#221D1F"/>
<path transform="translate(1073,315)" d="m0 0 4 2 2 3v7l-4 5-7 4h-3l1-6 6-11z" fill="#221D1F"/>
<path transform="translate(1e3 329)" d="m0 0 5 2 2 2 2 9-10 3-4-3v-6z" fill="#221D1F"/>
<path transform="translate(959,201)" d="m0 0h3l6 14v8l-7-6-6-6 1-7z" fill="#221D1F"/>
<path transform="translate(1227,324)" d="m0 0h8l1 1v14l-4 3-3-1-2-5z" fill="#F9F8F8"/>
<path transform="translate(1007,386)" d="m0 0 5 5 4 8 1 7-5 1-4-3-2-5v-11z" fill="#221D1F"/>
<path transform="translate(851,286)" d="m0 0 3 2 1 5-4 7-9 7-3-1 4-10z" fill="#221D1F"/>
<path transform="translate(1010,350)" d="m0 0h6l3 4-1 5-5 3-6-1-2-2 1-7z" fill="#221D1F"/>
<path transform="translate(1022,325)" d="m0 0h6l3 6-1 6-5 1-6-3-1-7z" fill="#221D1F"/>
<path transform="translate(1110,684)" d="m0 0 4 1 7 3 1 6-4 2-3-2-10-1-2-2 4-5z" fill="#221D1F"/>
<path transform="translate(1277,373)" d="m0 0h5l3 3-1 8-4 3-5-3-1-7z" fill="#F9F8F8"/>
<path transform="translate(744,290)" d="m0 0 6 2 1 7-2 2h-6l-4-4 2-5z" fill="#221D1F"/>
<path transform="translate(875,399)" d="m0 0h9l4 3-8 4h-9l-3-3z" fill="#221D1F"/>
<path transform="translate(1041,424)" d="m0 0h3v7l-3 7-5-2-1-1v-5z" fill="#221D1F"/>
<path transform="translate(720,329)" d="m0 0 5 1 5 4v4h-7l-6-2 1-5z" fill="#F9F8F8"/>
<path transform="translate(1278,312)" d="m0 0 6 1 2 3-1 5-3 2-5-1-1-7z" fill="#F9F8F8"/>
<path transform="translate(899,233)" d="m0 0 3 1 2 5v11h-3l-3-5v-9z" fill="#F9F8F8"/>
<path transform="translate(1e3 199)" d="m0 0h6l1 1v8l-2 5h-2l-4-10z" fill="#221D1F"/>
<path transform="translate(884,408)" d="m0 0h10l1 3-4 5-5-2-4-3v-2z" fill="#221D1F"/>
<path transform="translate(823,636)" d="m0 0 5 1 3 3v6l-6-1-3-3v-5z" fill="#221D1F"/>
<path transform="translate(868,532)" d="m0 0 5 1 1 3-3 5h-6l-2-1 2-5 3-1z" fill="#221D1F"/>
<path transform="translate(769,570)" d="m0 0 5 2 1 5-1 2-5 1-2-2 1-7z" fill="#221D1F"/>
<path transform="translate(1021,303)" d="m0 0 6 1 1 5-4 2-4-1-1-3z" fill="#F9F8F8"/>
<path transform="translate(986,319)" d="m0 0 6 1 1 4-2 2h-5l-2-2v-4z" fill="#F9F8F8"/>
<path transform="translate(844,546)" d="m0 0 4 2 1 5-6 2-2-4z" fill="#F9F8F8"/>
<path transform="translate(906,398)" d="m0 0 5 3-1 3-6 2-3-3 1-3z" fill="#221D1F"/>
<path transform="translate(1145,508)" d="m0 0 5 2-1 5-5-1-1-3z" fill="#F9F8F8"/>
<path transform="translate(1027,429)" d="m0 0 3 1-1 5-4 1-1-4z" fill="#221D1F"/>
<path transform="translate(1145,389)" d="m0 0 4 1-1 5h-4v-5z" fill="#221D1F"/>
<path transform="translate(928,499)" d="m0 0h2l1 6h-4l-1-4z" fill="#221D1F"/>
</svg>
