<svg width="7612" height="5444" xmlns="http://www.w3.org/2000/svg" xmlns:xlink="http://www.w3.org/1999/xlink" xml:space="preserve" overflow="hidden"><g transform="translate(1156 2717)"><path d="M-179.5-2646.43C-179.5-2683.47-149.47-2713.5-112.426-2713.5L1000.43-2713.5C1037.47-2713.5 1067.5-2683.47 1067.5-2646.43L1067.5-2424.57C1067.5-2387.53 1037.47-2357.5 1000.43-2357.5L-112.426-2357.5C-149.47-2357.5-179.5-2387.53-179.5-2424.57Z" stroke="#145FCB" stroke-width="6.875" stroke-miterlimit="8" stroke-dasharray="27.5 20.625" fill="none" fill-rule="evenodd"/><path d="M-113.003-2714 1000-2714C1023.13-2714 1043.51-2702 1055.55-2683.74L1057-2681-170-2681-168.551-2683.74C-156.512-2702-136.126-2714-113.003-2714Z" fill="#145FCB" fill-rule="evenodd"/><text font-family="Cambria,Cambria_MSFontService,sans-serif" font-weight="700" font-size="73" transform="matrix(1 0 0 1 104.284 -2505)">Совет учредителей</text><path d="M1291.5-2646.43C1291.5-2683.47 1321.53-2713.5 1358.57-2713.5L2471.43-2713.5C2508.47-2713.5 2538.5-2683.47 2538.5-2646.43L2538.5-2424.57C2538.5-2387.53 2508.47-2357.5 2471.43-2357.5L1358.57-2357.5C1321.53-2357.5 1291.5-2387.53 1291.5-2424.57Z" stroke="#002060" stroke-width="6.875" stroke-miterlimit="8" stroke-dasharray="27.5 20.625" fill="none" fill-rule="evenodd"/><path d="M1358-2714 2471-2714C2494.13-2714 2514.51-2702 2526.55-2683.74L2528-2681 1301-2681 1302.45-2683.74C1314.49-2702 1334.87-2714 1358-2714Z" fill="#002060" fill-rule="evenodd"/><text font-family="Cambria,Cambria_MSFontService,sans-serif" font-weight="700" font-size="73" transform="matrix(1 0 0 1 1470.9 -2505)">Президент университета</text><path d="M1291.5-2131.09C1291.5-2177.71 1329.29-2215.5 1375.91-2215.5L2454.09-2215.5C2500.71-2215.5 2538.5-2177.71 2538.5-2131.09L2538.5-1851.91C2538.5-1805.29 2500.71-1767.5 2454.09-1767.5L1375.91-1767.5C1329.29-1767.5 1291.5-1805.29 1291.5-1851.91Z" stroke="#FFFFFF" stroke-width="6.875" stroke-miterlimit="8" stroke-dasharray="27.5 20.625" fill="#FFFFFF" fill-rule="evenodd"/><path d="M1358-2216 2471-2216C2494.13-2216 2514.51-2201.45 2526.55-2179.32L2528-2176 1301-2176 1302.45-2179.32C1314.49-2201.45 1334.87-2216 1358-2216Z" fill="#002060" fill-rule="evenodd"/><text font-family="Cambria,Cambria_MSFontService,sans-serif" font-weight="700" font-size="83" transform="matrix(1 0 0 1 1775.38 -2009)">Ректор</text><text font-family="Cambria,Cambria_MSFontService,sans-serif" font-weight="400" font-size="64" transform="matrix(1 0 0 1 1406.71 -1900)">Баракаев</text><text font-family="Cambria,Cambria_MSFontService,sans-serif" font-weight="400" font-size="64" transform="matrix(1 0 0 1 1689.23 -1900)">Нусратилла</text><text font-family="Cambria,Cambria_MSFontService,sans-serif" font-weight="400" font-size="64" transform="matrix(1 0 0 1 2047.8 -1900)">Раджабович</text><path d="M-179.5-2102.43C-179.5-2139.47-149.47-2169.5-112.426-2169.5L1000.43-2169.5C1037.47-2169.5 1067.5-2139.47 1067.5-2102.43L1067.5-1880.57C1067.5-1843.53 1037.47-1813.5 1000.43-1813.5L-112.426-1813.5C-149.47-1813.5-179.5-1843.53-179.5-1880.57Z" stroke="#FFFFFF" stroke-width="6.875" stroke-miterlimit="8" stroke-dasharray="27.5 20.625" fill="#FFFFFF" fill-rule="evenodd"/><path d="M-113.003-2170 1000-2170C1023.13-2170 1043.51-2158.36 1055.55-2140.65L1057-2138-170-2138-168.551-2140.65C-156.512-2158.36-136.126-2170-113.003-2170Z" fill="#145FCB" fill-rule="evenodd"/><text font-family="Cambria,Cambria_MSFontService,sans-serif" font-weight="700" font-size="73" transform="matrix(1 0 0 1 30.0916 -1961)">Университетский совет</text><path d="M2772.5-2102.43C2772.5-2139.47 2802.53-2169.5 2839.57-2169.5L3952.43-2169.5C3989.47-2169.5 4019.5-2139.47 4019.5-2102.43L4019.5-1880.57C4019.5-1843.53 3989.47-1813.5 3952.43-1813.5L2839.57-1813.5C2802.53-1813.5 2772.5-1843.53 2772.5-1880.57Z" stroke="#FFFFFF" stroke-width="6.875" stroke-miterlimit="8" stroke-dasharray="27.5 20.625" fill="#FFFFFF" fill-rule="evenodd"/><path d="M2839-2170 3952-2170C3975.13-2170 3995.51-2158.36 4007.55-2140.65L4009-2138 2782-2138 2783.45-2140.65C2795.49-2158.36 2815.87-2170 2839-2170Z" fill="#697FD7" fill-rule="evenodd"/><text font-family="Cambria,Cambria_MSFontService,sans-serif" font-weight="700" font-size="73" transform="matrix(1 0 0 1 3075.16 -1961)">Советник ректора</text><path d="M-882.5-1325.98C-882.5-1378.73-839.732-1421.5-786.976-1421.5L268.976-1421.5C321.732-1421.5 364.5-1378.73 364.5-1325.98L364.5-1010.02C364.5-957.267 321.732-914.5 268.976-914.5L-786.976-914.5C-839.732-914.5-882.5-957.267-882.5-1010.02Z" stroke="#FFFFFF" stroke-width="6.875" stroke-miterlimit="8" stroke-dasharray="27.5 20.625" fill="#FFFFFF" fill-rule="evenodd"/><path d="M-816.003-1422 297.003-1422C320.126-1422 340.512-1405.27 352.55-1379.81L354-1376-873-1376-871.551-1379.81C-859.512-1405.27-839.126-1422-816.003-1422Z" fill="#329CC6" fill-rule="evenodd"/><text font-family="Cambria,Cambria_MSFontService,sans-serif" font-weight="400" font-size="73" transform="matrix(1 0 0 1 -733.707 -1216)">Первый проректор по делам </text><text font-family="Cambria,Cambria_MSFontService,sans-serif" font-weight="400" font-size="73" transform="matrix(1 0 0 1 -614.54 -1128)">молодежи и духовно</text><text font-family="Cambria,Cambria_MSFontService,sans-serif" font-weight="400" font-size="73" transform="matrix(1 0 0 1 70.7369 -1128)">-</text><text font-family="Cambria,Cambria_MSFontService,sans-serif" font-weight="400" font-size="73" transform="matrix(1 0 0 1 -687.988 -1040)">просветительской работе</text><path d="M552.5-1325.98C552.5-1378.73 595.267-1421.5 648.024-1421.5L1702.98-1421.5C1755.73-1421.5 1798.5-1378.73 1798.5-1325.98L1798.5-1010.02C1798.5-957.267 1755.73-914.5 1702.98-914.5L648.024-914.5C595.267-914.5 552.5-957.267 552.5-1010.02Z" stroke="#FFFFFF" stroke-width="6.875" stroke-miterlimit="8" stroke-dasharray="27.5 20.625" fill="#FFFFFF" fill-rule="evenodd"/><path d="M618.951-1422 1731.05-1422C1754.15-1422 1774.52-1405.27 1786.55-1379.81L1788-1376 562-1376 563.448-1379.81C575.477-1405.27 595.847-1422 618.951-1422Z" fill="#7030A0" fill-rule="evenodd"/><text font-family="Cambria,Cambria_MSFontService,sans-serif" font-weight="400" font-size="73" transform="matrix(1 0 0 1 799.413 -1162)">Проректор по учебной </text><text font-family="Cambria,Cambria_MSFontService,sans-serif" font-weight="400" font-size="73" transform="matrix(1 0 0 1 1061.42 -1074)">работе</text><path d="M2002.5-1325.98C2002.5-1378.73 2045.27-1421.5 2098.02-1421.5L3153.98-1421.5C3206.73-1421.5 3249.5-1378.73 3249.5-1325.98L3249.5-1010.02C3249.5-957.266 3206.73-914.498 3153.98-914.498L2098.02-914.498C2045.27-914.498 2002.5-957.266 2002.5-1010.02Z" stroke="#FFFFFF" stroke-width="6.875" stroke-miterlimit="8" stroke-dasharray="27.5 20.625" fill="#FFFFFF" fill-rule="evenodd"/><path d="M2069-1422 3182-1422C3205.13-1422 3225.51-1405.27 3237.55-1379.81L3239-1376 2012-1376 2013.45-1379.81C2025.49-1405.27 2045.87-1422 2069-1422Z" fill="#145FCB" fill-rule="evenodd"/><text font-family="Cambria,Cambria_MSFontService,sans-serif" font-weight="400" font-size="73" transform="matrix(1 0 0 1 2216.65 -1174)">Проректор по научной </text><text font-family="Cambria,Cambria_MSFontService,sans-serif" font-weight="400" font-size="73" transform="matrix(1 0 0 1 2233.88 -1086)">работе и инновациям</text><path d="M3452.5-1325.79C3452.5-1378.65 3495.35-1421.5 3548.21-1421.5L4603.79-1421.5C4656.65-1421.5 4699.5-1378.65 4699.5-1325.79L4699.5-1009.21C4699.5-956.352 4656.65-913.5 4603.79-913.5L3548.21-913.5C3495.35-913.5 3452.5-956.352 3452.5-1009.21Z" stroke="#FFFFFF" stroke-width="6.875" stroke-miterlimit="8" stroke-dasharray="27.5 20.625" fill="#FFFFFF" fill-rule="evenodd"/><path d="M3519-1422 4632-1422C4655.13-1422 4675.51-1405.27 4687.55-1379.81L4689-1376 3462-1376 3463.45-1379.81C3475.49-1405.27 3495.87-1422 3519-1422Z" fill="#697FD7" fill-rule="evenodd"/><text font-family="Cambria,Cambria_MSFontService,sans-serif" font-weight="400" font-size="73" transform="matrix(1 0 0 1 3643.62 -1175)">Проректор по финансово</text><text font-family="Cambria,Cambria_MSFontService,sans-serif" font-weight="400" font-size="73" transform="matrix(1 0 0 1 4482.44 -1175)">-</text><text font-family="Cambria,Cambria_MSFontService,sans-serif" font-weight="400" font-size="73" transform="matrix(1 0 0 1 3578.95 -1087)">экономической деятельности</text><path d="M-882.5-718.28C-882.5-786.332-827.332-841.5-759.28-841.5L241.28-841.5C309.332-841.5 364.5-786.332 364.5-718.28L364.5-310.72C364.5-242.667 309.332-187.5 241.28-187.5L-759.28-187.5C-827.332-187.5-882.5-242.667-882.5-310.72Z" stroke="#FFFFFF" stroke-width="6.875" stroke-miterlimit="8" stroke-dasharray="27.5 20.625" fill="#FFFFFF" fill-rule="evenodd"/><path d="M-816.003-842 297.003-842C320.126-842 340.512-825.63 352.55-800.732L354-797-873-797-871.551-800.732C-859.512-825.63-839.126-842-816.003-842Z" fill="#329CC6" fill-rule="evenodd"/><text font-family="Cambria,Cambria_MSFontService,sans-serif" font-weight="400" font-size="73" transform="matrix(1 0 0 1 -724.678 -498)">Отдел работы с молодежью, </text><text font-family="Cambria,Cambria_MSFontService,sans-serif" font-weight="400" font-size="73" transform="matrix(1 0 0 1 -714.297 -410)">духовно</text><text font-family="Cambria,Cambria_MSFontService,sans-serif" font-weight="400" font-size="73" transform="matrix(1 0 0 1 -443.193 -410)">-</text><text font-family="Cambria,Cambria_MSFontService,sans-serif" font-weight="400" font-size="73" transform="matrix(1 0 0 1 -418.557 -410)">просветительской </text><text font-family="Cambria,Cambria_MSFontService,sans-serif" font-weight="400" font-size="73" transform="matrix(1 0 0 1 -816.207 -322)">деятельности и информационно</text><text font-family="Cambria,Cambria_MSFontService,sans-serif" font-weight="400" font-size="73" transform="matrix(1 0 0 1 272.403 -322)">-</text><text font-family="Cambria,Cambria_MSFontService,sans-serif" font-weight="400" font-size="73" transform="matrix(1 0 0 1 -570.747 -234)">ресурсного центра</text><path d="M-341-742.499C-341-758.24-328.24-771-312.499-771L-198.501-771C-182.76-771-170-758.24-170-742.499L-170-618.5C-170-602.76-182.76-590-198.501-590L-312.499-590C-328.24-590-341-602.76-341-618.5Z" fill="#F2F4F9" fill-rule="evenodd"/><text fill="#747474" font-family="Bahnschrift,Bahnschrift_MSFontService,sans-serif" font-weight="400" font-size="146" transform="matrix(1 0 0 1 -293.521 -630)">6</text><text fill="#747474" font-family="Bahnschrift,Bahnschrift_MSFontService,sans-serif" font-weight="400" font-size="146" transform="matrix(1 0 0 1 -218.469 -630)"> </text><path d="M-882.5-20.874C-882.5-70.9253-841.925-111.5-791.874-111.5L273.874-111.5C323.925-111.5 364.5-70.9253 364.5-20.874L364.5 278.874C364.5 328.925 323.925 369.5 273.874 369.5L-791.874 369.5C-841.925 369.5-882.5 328.925-882.5 278.874Z" stroke="#FFFFFF" stroke-width="6.875" stroke-miterlimit="8" stroke-dasharray="27.5 20.625" fill="#FFFFFF" fill-rule="evenodd"/><path d="M-816.003-112 297.003-112C320.126-112 340.512-95.2662 352.55-69.8147L354-66-873-66-871.551-69.8147C-859.512-95.2662-839.126-112-816.003-112Z" fill="#329CC6" fill-rule="evenodd"/><text font-family="Cambria,Cambria_MSFontService,sans-serif" font-weight="400" font-size="73" transform="matrix(1 0 0 1 -414.902 233)">Психолог</text><path d="M-341-11.4993C-341-27.2397-328.24-39.9999-312.499-39.9999L-198.501-39.9999C-182.76-39.9999-170-27.2397-170-11.4993L-170 112.499C-170 128.24-182.76 141-198.501 141L-312.499 141C-328.24 141-341 128.24-341 112.499Z" fill="#F2F4F9" fill-rule="evenodd"/><text fill="#747474" font-family="Bahnschrift,Bahnschrift_MSFontService,sans-serif" font-weight="400" font-size="146" transform="matrix(1 0 0 1 -280.215 101)">1</text><text fill="#747474" font-family="Bahnschrift,Bahnschrift_MSFontService,sans-serif" font-weight="400" font-size="146" transform="matrix(1 0 0 1 -231.517 101)"> </text><path d="M552.5-736.932C552.5-794.683 599.316-841.5 657.068-841.5L1693.93-841.5C1751.68-841.5 1798.5-794.683 1798.5-736.932L1798.5-391.068C1798.5-333.316 1751.68-286.5 1693.93-286.5L657.068-286.5C599.316-286.5 552.5-333.316 552.5-391.068Z" stroke="#FFFFFF" stroke-width="6.875" stroke-miterlimit="8" stroke-dasharray="27.5 20.625" fill="#FFFFFF" fill-rule="evenodd"/><path d="M618.951-842 1731.05-842C1754.15-842 1774.52-825.63 1786.55-800.732L1788-797 562-797 563.448-800.732C575.477-825.63 595.847-842 618.951-842Z" fill="#7030A0" fill-rule="evenodd"/><text font-family="Cambria,Cambria_MSFontService,sans-serif" font-weight="400" font-size="73" transform="matrix(1 0 0 1 810.928 -498)">Учебно</text><text font-family="Cambria,Cambria_MSFontService,sans-serif" font-weight="400" font-size="73" transform="matrix(1 0 0 1 1050.98 -498)">-</text><text font-family="Cambria,Cambria_MSFontService,sans-serif" font-weight="400" font-size="73" transform="matrix(1 0 0 1 1075.62 -498)">методическое </text><text font-family="Cambria,Cambria_MSFontService,sans-serif" font-weight="400" font-size="73" transform="matrix(1 0 0 1 978.448 -410)">управление</text><path d="M1094-742.499C1094-758.24 1106.76-771 1122.5-771L1236.5-771C1252.24-771 1265-758.24 1265-742.499L1265-618.5C1265-602.76 1252.24-590 1236.5-590L1122.5-590C1106.76-590 1094-602.76 1094-618.5Z" fill="#F2F4F9" fill-rule="evenodd"/><text fill="#747474" font-family="Bahnschrift,Bahnschrift_MSFontService,sans-serif" font-weight="400" font-size="146" transform="matrix(1 0 0 1 1141.06 -630)">8</text><text fill="#747474" font-family="Bahnschrift,Bahnschrift_MSFontService,sans-serif" font-weight="400" font-size="146" transform="matrix(1 0 0 1 1222.98 -630)"> </text><path d="M552.5-110.15C552.5-171.647 602.353-221.5 663.85-221.5L1687.15-221.5C1748.65-221.5 1798.5-171.647 1798.5-110.15L1798.5 258.15C1798.5 319.647 1748.65 369.5 1687.15 369.5L663.85 369.5C602.353 369.5 552.5 319.647 552.5 258.15Z" stroke="#FFFFFF" stroke-width="6.875" stroke-miterlimit="8" stroke-dasharray="27.5 20.625" fill="#FFFFFF" fill-rule="evenodd"/><path d="M618.951-222 1731.05-222C1754.15-222 1774.52-205.266 1786.55-179.815L1788-176 562-176 563.448-179.815C575.477-205.266 595.847-222 618.951-222Z" fill="#7030A0" fill-rule="evenodd"/><text font-family="Cambria,Cambria_MSFontService,sans-serif" font-weight="400" font-size="73" transform="matrix(1 0 0 1 840.88 123)">Отдел маркетинга и </text><text font-family="Cambria,Cambria_MSFontService,sans-serif" font-weight="400" font-size="73" transform="matrix(1 0 0 1 780.678 211)">студенческой практики</text><path d="M1094-121.499C1094-137.24 1106.76-150 1122.5-150L1236.5-150C1252.24-150 1265-137.24 1265-121.499L1265 2.4994C1265 18.2398 1252.24 30.9999 1236.5 30.9999L1122.5 30.9999C1106.76 30.9999 1094 18.2398 1094 2.4994Z" fill="#F2F4F9" fill-rule="evenodd"/><text fill="#747474" font-family="Bahnschrift,Bahnschrift_MSFontService,sans-serif" font-weight="400" font-size="146" transform="matrix(1 0 0 1 1141.06 -9)">4</text><text fill="#747474" font-family="Bahnschrift,Bahnschrift_MSFontService,sans-serif" font-weight="400" font-size="146" transform="matrix(1 0 0 1 1224.13 -9)"> </text><path d="M2002.5-718.28C2002.5-786.332 2057.67-841.5 2125.72-841.5L3126.28-841.5C3194.33-841.5 3249.5-786.332 3249.5-718.28L3249.5-310.72C3249.5-242.667 3194.33-187.5 3126.28-187.5L2125.72-187.5C2057.67-187.5 2002.5-242.667 2002.5-310.72Z" stroke="#FFFFFF" stroke-width="6.875" stroke-miterlimit="8" stroke-dasharray="27.5 20.625" fill="#FFFFFF" fill-rule="evenodd"/><path d="M2069-842 3182-842C3205.13-842 3225.51-825.63 3237.55-800.732L3239-797 2012-797 2013.45-800.732C2025.49-825.63 2045.87-842 2069-842Z" fill="#145FCB" fill-rule="evenodd"/><text font-family="Cambria,Cambria_MSFontService,sans-serif" font-weight="400" font-size="73" transform="matrix(1 0 0 1 2123.91 -498)">Отдел научных исследований, </text><text font-family="Cambria,Cambria_MSFontService,sans-serif" font-weight="400" font-size="73" transform="matrix(1 0 0 1 2091.56 -410)">инноваций, подготовки научно</text><text font-family="Cambria,Cambria_MSFontService,sans-serif" font-weight="400" font-size="73" transform="matrix(1 0 0 1 3134.15 -410)">-</text><text font-family="Cambria,Cambria_MSFontService,sans-serif" font-weight="400" font-size="73" transform="matrix(1 0 0 1 2051.27 -322)">педагогических кадров и работы с </text><text font-family="Cambria,Cambria_MSFontService,sans-serif" font-weight="400" font-size="73" transform="matrix(1 0 0 1 2173.62 -234)">талантливыми студентами</text><path d="M2544-742.499C2544-758.24 2556.76-771 2572.5-771L2686.5-771C2702.24-771 2715-758.24 2715-742.499L2715-618.5C2715-602.76 2702.24-590 2686.5-590L2572.5-590C2556.76-590 2544-602.76 2544-618.5Z" fill="#F2F4F9" fill-rule="evenodd"/><text fill="#747474" font-family="Bahnschrift,Bahnschrift_MSFontService,sans-serif" font-weight="400" font-size="146" transform="matrix(1 0 0 1 2591.23 -630)">4</text><text fill="#747474" font-family="Bahnschrift,Bahnschrift_MSFontService,sans-serif" font-weight="400" font-size="146" transform="matrix(1 0 0 1 2674.31 -630)"> </text><path d="M2002.5-20.0912C2002.5-88.2479 2057.75-143.5 2125.91-143.5L3126.09-143.5C3194.25-143.5 3249.5-88.2479 3249.5-20.0912L3249.5 388.091C3249.5 456.248 3194.25 511.5 3126.09 511.5L2125.91 511.5C2057.75 511.5 2002.5 456.248 2002.5 388.091Z" stroke="#FFFFFF" stroke-width="6.875" stroke-miterlimit="8" stroke-dasharray="27.5 20.625" fill="#FFFFFF" fill-rule="evenodd"/><path d="M2069-144 3182-144C3205.13-144 3225.51-127.266 3237.55-101.815L3239-98 2012-98 2013.45-101.815C2025.49-127.266 2045.87-144 2069-144Z" fill="#145FCB" fill-rule="evenodd"/><text font-family="Cambria,Cambria_MSFontService,sans-serif" font-weight="400" font-size="73" transform="matrix(1 0 0 1 2247.17 173)">Управление цифровых </text><text font-family="Cambria,Cambria_MSFontService,sans-serif" font-weight="400" font-size="73" transform="matrix(1 0 0 1 2098.72 261)">образовательных технологий и </text><text font-family="Cambria,Cambria_MSFontService,sans-serif" font-weight="400" font-size="73" transform="matrix(1 0 0 1 2267.59 349)">работы с местными и </text><text font-family="Cambria,Cambria_MSFontService,sans-serif" font-weight="400" font-size="73" transform="matrix(1 0 0 1 2112.38 437)">международными рейтингами</text><path d="M2544-43.4993C2544-59.2397 2556.76-71.9998 2572.5-71.9998L2686.5-71.9998C2702.24-71.9998 2715-59.2397 2715-43.4993L2715 80.4994C2715 96.2399 2702.24 109 2686.5 109L2572.5 109C2556.76 109 2544 96.2399 2544 80.4994Z" fill="#F2F4F9" fill-rule="evenodd"/><text fill="#747474" font-family="Bahnschrift,Bahnschrift_MSFontService,sans-serif" font-weight="400" font-size="146" transform="matrix(1 0 0 1 2591.23 69)">6</text><text fill="#747474" font-family="Bahnschrift,Bahnschrift_MSFontService,sans-serif" font-weight="400" font-size="146" transform="matrix(1 0 0 1 2666.29 69)"> </text><path d="M3465.5-110.149C3465.5-171.647 3515.35-221.5 3576.85-221.5L4601.15-221.5C4662.65-221.5 4712.5-171.647 4712.5-110.149L4712.5 258.15C4712.5 319.647 4662.65 369.5 4601.15 369.5L3576.85 369.5C3515.35 369.5 3465.5 319.647 3465.5 258.15Z" stroke="#FFFFFF" stroke-width="6.875" stroke-miterlimit="8" stroke-dasharray="27.5 20.625" fill="#FFFFFF" fill-rule="evenodd"/><path d="M3532-222 4645-222C4668.13-222 4688.51-205.266 4700.55-179.815L4702-176 3475-176 3476.45-179.815C3488.49-205.266 3508.87-222 3532-222Z" fill="#697FD7" fill-rule="evenodd"/><text font-family="Cambria,Cambria_MSFontService,sans-serif" font-weight="400" font-size="73" transform="matrix(1 0 0 1 3789.7 123)">Главный инженер</text><path d="M4007-121.499C4007-137.24 4019.76-150 4035.5-150L4149.5-150C4165.24-150 4178-137.24 4178-121.499L4178 2.4994C4178 18.2398 4165.24 30.9999 4149.5 30.9999L4035.5 30.9999C4019.76 30.9999 4007 18.2398 4007 2.4994Z" fill="#F2F4F9" fill-rule="evenodd"/><text fill="#747474" font-family="Bahnschrift,Bahnschrift_MSFontService,sans-serif" font-weight="400" font-size="146" transform="matrix(1 0 0 1 4063.44 -9)">1</text><text fill="#747474" font-family="Bahnschrift,Bahnschrift_MSFontService,sans-serif" font-weight="400" font-size="146" transform="matrix(1 0 0 1 4112.14 -9)"> </text><path d="M3465.5-759.149C3465.5-820.647 3515.35-870.5 3576.85-870.5L4601.15-870.5C4662.65-870.5 4712.5-820.647 4712.5-759.149L4712.5-390.85C4712.5-329.353 4662.65-279.5 4601.15-279.5L3576.85-279.5C3515.35-279.5 3465.5-329.353 3465.5-390.85Z" stroke="#FFFFFF" stroke-width="6.875" stroke-miterlimit="8" stroke-dasharray="27.5 20.625" fill="#FFFFFF" fill-rule="evenodd"/><path d="M3532-871 4645-871C4668.13-871 4688.51-854.266 4700.55-828.815L4702-825 3475-825 3476.45-828.815C3488.49-854.266 3508.87-871 3532-871Z" fill="#697FD7" fill-rule="evenodd"/><text font-family="Cambria,Cambria_MSFontService,sans-serif" font-weight="400" font-size="73" transform="matrix(1 0 0 1 3687.53 -503)">Бухгалтерия и планово</text><text font-family="Cambria,Cambria_MSFontService,sans-serif" font-weight="400" font-size="73" transform="matrix(1 0 0 1 4464.54 -503)">-</text><text font-family="Cambria,Cambria_MSFontService,sans-serif" font-weight="400" font-size="73" transform="matrix(1 0 0 1 3773.65 -415)">финансовый отдел</text><path d="M4007-770.499C4007-786.24 4019.76-799 4035.5-799L4149.5-799C4165.24-799 4178-786.24 4178-770.499L4178-646.501C4178-630.76 4165.24-618 4149.5-618L4035.5-618C4019.76-618 4007-630.76 4007-646.501Z" fill="#F2F4F9" fill-rule="evenodd"/><text fill="#747474" font-family="Bahnschrift,Bahnschrift_MSFontService,sans-serif" font-weight="400" font-size="146" transform="matrix(1 0 0 1 4054.42 -658)">4</text><text fill="#747474" font-family="Bahnschrift,Bahnschrift_MSFontService,sans-serif" font-weight="400" font-size="146" transform="matrix(1 0 0 1 4137.49 -658)"> </text><path d="M3465.5 525.851C3465.5 464.353 3515.35 414.5 3576.85 414.5L4601.15 414.5C4662.65 414.5 4712.5 464.353 4712.5 525.851L4712.5 894.149C4712.5 955.647 4662.65 1005.5 4601.15 1005.5L3576.85 1005.5C3515.35 1005.5 3465.5 955.647 3465.5 894.149Z" stroke="#FFFFFF" stroke-width="6.875" stroke-miterlimit="8" stroke-dasharray="27.5 20.625" fill="#FFFFFF" fill-rule="evenodd"/><path d="M3532 414 4645 414C4668.13 414 4688.51 430.734 4700.55 456.185L4702 460 3475 460 3476.45 456.185C3488.49 430.734 3508.87 414 3532 414Z" fill="#697FD7" fill-rule="evenodd"/><text font-family="Cambria,Cambria_MSFontService,sans-serif" font-weight="400" font-size="73" transform="matrix(1 0 0 1 3755.51 759)">Отдел технического </text><text font-family="Cambria,Cambria_MSFontService,sans-serif" font-weight="400" font-size="73" transform="matrix(1 0 0 1 3816.22 847)">обслуживания и </text><text font-family="Cambria,Cambria_MSFontService,sans-serif" font-weight="400" font-size="73" transform="matrix(1 0 0 1 3598.99 935)">хозяйственной деятельности</text><path d="M4007 513.501C4007 497.76 4019.76 485 4035.5 485L4149.5 485C4165.24 485 4178 497.76 4178 513.501L4178 637.499C4178 653.24 4165.24 666 4149.5 666L4035.5 666C4019.76 666 4007 653.24 4007 637.499Z" fill="#F2F4F9" fill-rule="evenodd"/><text fill="#747474" font-family="Bahnschrift,Bahnschrift_MSFontService,sans-serif" font-weight="400" font-size="146" transform="matrix(1 0 0 1 4015.95 626)">22</text><text fill="#747474" font-family="Bahnschrift,Bahnschrift_MSFontService,sans-serif" font-weight="400" font-size="146" transform="matrix(1 0 0 1 4166.62 626)"> </text><path d="M3465.5 1151.85C3465.5 1090.35 3515.35 1040.5 3576.85 1040.5L4601.15 1040.5C4662.65 1040.5 4712.5 1090.35 4712.5 1151.85L4712.5 1520.15C4712.5 1581.65 4662.65 1631.5 4601.15 1631.5L3576.85 1631.5C3515.35 1631.5 3465.5 1581.65 3465.5 1520.15Z" stroke="#FFFFFF" stroke-width="6.875" stroke-miterlimit="8" stroke-dasharray="27.5 20.625" fill="#FFFFFF" fill-rule="evenodd"/><path d="M3532 1040 4645 1040C4668.13 1040 4688.51 1056.73 4700.55 1082.19L4702 1086 3475 1086 3476.45 1082.19C3488.49 1056.73 3508.87 1040 3532 1040Z" fill="#697FD7" fill-rule="evenodd"/><text font-family="Cambria,Cambria_MSFontService,sans-serif" font-weight="400" font-size="73" transform="matrix(1 0 0 1 3729.55 1385)">Пресс</text><text font-family="Cambria,Cambria_MSFontService,sans-serif" font-weight="400" font-size="73" transform="matrix(1 0 0 1 3919.18 1385)">-</text><text font-family="Cambria,Cambria_MSFontService,sans-serif" font-weight="400" font-size="73" transform="matrix(1 0 0 1 3943.82 1385)">служба и отдел </text><text font-family="Cambria,Cambria_MSFontService,sans-serif" font-weight="400" font-size="73" transform="matrix(1 0 0 1 3674.16 1473)">координации приемного </text><text font-family="Cambria,Cambria_MSFontService,sans-serif" font-weight="400" font-size="73" transform="matrix(1 0 0 1 3938.82 1561)">процесса</text><path d="M4007 1140.5C4007 1124.76 4019.76 1112 4035.5 1112L4149.5 1112C4165.24 1112 4178 1124.76 4178 1140.5L4178 1263.5C4178 1279.24 4165.24 1292 4149.5 1292L4035.5 1292C4019.76 1292 4007 1279.24 4007 1263.5Z" fill="#F2F4F9" fill-rule="evenodd"/><text fill="#747474" font-family="Bahnschrift,Bahnschrift_MSFontService,sans-serif" font-weight="400" font-size="146" transform="matrix(1 0 0 1 4054.42 1252)">9</text><text fill="#747474" font-family="Bahnschrift,Bahnschrift_MSFontService,sans-serif" font-weight="400" font-size="146" transform="matrix(1 0 0 1 4129.47 1252)"> </text><path d="M-882.5 797.126C-882.5 747.074-841.925 706.5-791.874 706.5L273.874 706.5C323.925 706.5 364.5 747.074 364.5 797.126L364.5 1096.87C364.5 1146.93 323.925 1187.5 273.874 1187.5L-791.874 1187.5C-841.925 1187.5-882.5 1146.93-882.5 1096.87Z" stroke="#FFFFFF" stroke-width="6.875" stroke-miterlimit="8" stroke-dasharray="27.5 20.625" fill="#FFFFFF" fill-rule="evenodd"/><path d="M-816.003 706 297.003 706C320.126 706 340.512 722.734 352.55 748.185L354 752-873 752-871.551 748.185C-859.512 722.734-839.126 706-816.003 706Z" fill="#8ED973" fill-rule="evenodd"/><text font-family="Cambria,Cambria_MSFontService,sans-serif" font-weight="400" font-size="73" transform="matrix(1 0 0 1 -712.291 1051)">Педагогический факультет</text><path d="M-341 806.5C-341 790.76-328.24 778-312.499 778L-198.501 778C-182.76 778-170 790.76-170 806.5L-170 930.499C-170 946.24-182.76 959-198.501 959L-312.499 959C-328.24 959-341 946.24-341 930.499Z" fill="#F2F4F9" fill-rule="evenodd"/><text fill="#747474" font-family="Bahnschrift,Bahnschrift_MSFontService,sans-serif" font-weight="400" font-size="146" transform="matrix(1 0 0 1 -293.521 919)">6</text><text fill="#747474" font-family="Bahnschrift,Bahnschrift_MSFontService,sans-serif" font-weight="400" font-size="146" transform="matrix(1 0 0 1 -218.469 919)"> </text><path d="M562.5 797.125C562.5 747.074 603.074 706.5 653.125 706.5L1717.87 706.5C1767.93 706.5 1808.5 747.074 1808.5 797.125L1808.5 1096.87C1808.5 1146.93 1767.93 1187.5 1717.87 1187.5L653.125 1187.5C603.074 1187.5 562.5 1146.93 562.5 1096.87Z" stroke="#FFFFFF" stroke-width="6.875" stroke-miterlimit="8" stroke-dasharray="27.5 20.625" fill="#FFFFFF" fill-rule="evenodd"/><path d="M628.951 706 1741.05 706C1764.15 706 1784.52 722.734 1796.55 748.185L1798 752 572 752 573.448 748.185C585.477 722.734 605.847 706 628.951 706Z" fill="#D86ECC" fill-rule="evenodd"/><text font-family="Cambria,Cambria_MSFontService,sans-serif" font-weight="400" font-size="73" transform="matrix(1 0 0 1 783.654 1051)">Факультет филологии и </text><text font-family="Cambria,Cambria_MSFontService,sans-serif" font-weight="400" font-size="73" transform="matrix(1 0 0 1 1045.16 1139)">истории</text><path d="M1104 806.5C1104 790.76 1116.76 778 1132.5 778L1246.5 778C1262.24 778 1275 790.76 1275 806.5L1275 930.499C1275 946.24 1262.24 959 1246.5 959L1132.5 959C1116.76 959 1104 946.24 1104 930.499Z" fill="#F2F4F9" fill-rule="evenodd"/><text fill="#747474" font-family="Bahnschrift,Bahnschrift_MSFontService,sans-serif" font-weight="400" font-size="146" transform="matrix(1 0 0 1 1150.57 919)">6</text><text fill="#747474" font-family="Bahnschrift,Bahnschrift_MSFontService,sans-serif" font-weight="400" font-size="146" transform="matrix(1 0 0 1 1225.62 919)"> </text><path d="M2002.5 797.126C2002.5 747.074 2043.07 706.5 2093.13 706.5L3158.87 706.5C3208.93 706.5 3249.5 747.074 3249.5 797.126L3249.5 1096.87C3249.5 1146.93 3208.93 1187.5 3158.87 1187.5L2093.13 1187.5C2043.07 1187.5 2002.5 1146.93 2002.5 1096.87Z" stroke="#FFFFFF" stroke-width="6.875" stroke-miterlimit="8" stroke-dasharray="27.5 20.625" fill="#FFFFFF" fill-rule="evenodd"/><path d="M2069 706 3182 706C3205.13 706 3225.51 722.734 3237.55 748.185L3239 752 2012 752 2013.45 748.185C2025.49 722.734 2045.87 706 2069 706Z" fill="#61CBF4" fill-rule="evenodd"/><text font-family="Cambria,Cambria_MSFontService,sans-serif" font-weight="400" font-size="73" transform="matrix(1 0 0 1 2207.19 1051)">Факультет математики и </text><text font-family="Cambria,Cambria_MSFontService,sans-serif" font-weight="400" font-size="73" transform="matrix(1 0 0 1 2440.16 1139)">экономики</text><path d="M2544 806.5C2544 790.76 2556.76 778 2572.5 778L2686.5 778C2702.24 778 2715 790.76 2715 806.5L2715 930.499C2715 946.24 2702.24 959 2686.5 959L2572.5 959C2556.76 959 2544 946.24 2544 930.499Z" fill="#F2F4F9" fill-rule="evenodd"/><text fill="#747474" font-family="Bahnschrift,Bahnschrift_MSFontService,sans-serif" font-weight="400" font-size="146" transform="matrix(1 0 0 1 2591.24 919)">6</text><text fill="#747474" font-family="Bahnschrift,Bahnschrift_MSFontService,sans-serif" font-weight="400" font-size="146" transform="matrix(1 0 0 1 2666.29 919)"> </text><path d="M-882.5 1324.93C-882.5 1285.48-850.52 1253.5-811.072 1253.5L293.072 1253.5C332.52 1253.5 364.5 1285.48 364.5 1324.93L364.5 1510.07C364.5 1549.52 332.52 1581.5 293.072 1581.5L-811.072 1581.5C-850.52 1581.5-882.5 1549.52-882.5 1510.07Z" stroke="#FFFFFF" stroke-width="6.875" stroke-miterlimit="8" stroke-dasharray="27.5 20.625" fill="#FFFFFF" fill-rule="evenodd"/><path d="M-816.003 1253 297.003 1253C320.126 1253 340.512 1269.73 352.55 1295.19L354 1299-873 1299-871.551 1295.19C-859.512 1269.73-839.126 1253-816.003 1253Z" fill="#8ED973" fill-rule="evenodd"/><text font-family="Cambria,Cambria_MSFontService,sans-serif" font-weight="400" font-size="73" transform="matrix(1 0 0 1 -690.188 1420)">Кафедра педагогического </text><text font-family="Cambria,Cambria_MSFontService,sans-serif" font-weight="400" font-size="73" transform="matrix(1 0 0 1 -706.551 1508)">образования и психологии</text><path d="M-882.5 1702.93C-882.5 1663.48-850.52 1631.5-811.072 1631.5L293.072 1631.5C332.52 1631.5 364.5 1663.48 364.5 1702.93L364.5 1888.07C364.5 1927.52 332.52 1959.5 293.072 1959.5L-811.072 1959.5C-850.52 1959.5-882.5 1927.52-882.5 1888.07Z" stroke="#FFFFFF" stroke-width="6.875" stroke-miterlimit="8" stroke-dasharray="27.5 20.625" fill="#FFFFFF" fill-rule="evenodd"/><path d="M-816.003 1631 297.003 1631C320.126 1631 340.512 1647.73 352.55 1673.19L354 1677-873 1677-871.551 1673.19C-859.512 1647.73-839.126 1631-816.003 1631Z" fill="#8ED973" fill-rule="evenodd"/><text font-family="Cambria,Cambria_MSFontService,sans-serif" font-weight="400" font-size="73" transform="matrix(1 0 0 1 -609.728 1802)">Кафедра спортивной </text><text font-family="Cambria,Cambria_MSFontService,sans-serif" font-weight="400" font-size="73" transform="matrix(1 0 0 1 -490.493 1890)">деятельности</text><path d="M562.5 1324.93C562.5 1285.48 594.479 1253.5 633.928 1253.5L1737.07 1253.5C1776.52 1253.5 1808.5 1285.48 1808.5 1324.93L1808.5 1510.07C1808.5 1549.52 1776.52 1581.5 1737.07 1581.5L633.928 1581.5C594.479 1581.5 562.5 1549.52 562.5 1510.07Z" stroke="#FFFFFF" stroke-width="6.875" stroke-miterlimit="8" stroke-dasharray="27.5 20.625" fill="#FFFFFF" fill-rule="evenodd"/><path d="M628.951 1253 1741.05 1253C1764.15 1253 1784.52 1269.73 1796.55 1295.19L1798 1299 572 1299 573.448 1295.19C585.477 1269.73 605.847 1253 628.951 1253Z" fill="#D86ECC" fill-rule="evenodd"/><text font-family="Cambria,Cambria_MSFontService,sans-serif" font-weight="400" font-size="73" transform="matrix(1 0 0 1 846.354 1459)">Кафедра филологии</text><path d="M562.5 1702.93C562.5 1663.48 594.479 1631.5 633.928 1631.5L1737.07 1631.5C1776.52 1631.5 1808.5 1663.48 1808.5 1702.93L1808.5 1888.07C1808.5 1927.52 1776.52 1959.5 1737.07 1959.5L633.928 1959.5C594.479 1959.5 562.5 1927.52 562.5 1888.07Z" stroke="#FFFFFF" stroke-width="6.875" stroke-miterlimit="8" stroke-dasharray="27.5 20.625" fill="#FFFFFF" fill-rule="evenodd"/><path d="M628.951 1631 1741.05 1631C1764.15 1631 1784.52 1647.73 1796.55 1673.19L1798 1677 572 1677 573.448 1673.19C585.477 1647.73 605.847 1631 628.951 1631Z" fill="#D86ECC" fill-rule="evenodd"/><text font-family="Cambria,Cambria_MSFontService,sans-serif" font-weight="400" font-size="73" transform="matrix(1 0 0 1 809.366 1802)">Кафедра иностранных </text><text font-family="Cambria,Cambria_MSFontService,sans-serif" font-weight="400" font-size="73" transform="matrix(1 0 0 1 1062.99 1890)">языков</text><path d="M2002.5 1324.93C2002.5 1285.48 2034.48 1253.5 2073.93 1253.5L3178.07 1253.5C3217.52 1253.5 3249.5 1285.48 3249.5 1324.93L3249.5 1510.07C3249.5 1549.52 3217.52 1581.5 3178.07 1581.5L2073.93 1581.5C2034.48 1581.5 2002.5 1549.52 2002.5 1510.07Z" stroke="#FFFFFF" stroke-width="6.875" stroke-miterlimit="8" stroke-dasharray="27.5 20.625" fill="#FFFFFF" fill-rule="evenodd"/><path d="M2069 1253 3182 1253C3205.13 1253 3225.51 1269.73 3237.55 1295.19L3239 1299 2012 1299 2013.45 1295.19C2025.49 1269.73 2045.87 1253 2069 1253Z" fill="#61CBF4" fill-rule="evenodd"/><text font-family="Cambria,Cambria_MSFontService,sans-serif" font-weight="400" font-size="73" transform="matrix(1 0 0 1 2240.1 1423)">Кафедра математики и </text><text font-family="Cambria,Cambria_MSFontService,sans-serif" font-weight="400" font-size="73" transform="matrix(1 0 0 1 2309.91 1511)">естественных наук</text><path d="M2002.5 1702.93C2002.5 1663.48 2034.48 1631.5 2073.93 1631.5L3178.07 1631.5C3217.52 1631.5 3249.5 1663.48 3249.5 1702.93L3249.5 1888.07C3249.5 1927.52 3217.52 1959.5 3178.07 1959.5L2073.93 1959.5C2034.48 1959.5 2002.5 1927.52 2002.5 1888.07Z" stroke="#FFFFFF" stroke-width="6.875" stroke-miterlimit="8" stroke-dasharray="27.5 20.625" fill="#FFFFFF" fill-rule="evenodd"/><path d="M2069 1631 3182 1631C3205.13 1631 3225.51 1647.73 3237.55 1673.19L3239 1677 2012 1677 2013.45 1673.19C2025.49 1647.73 2045.87 1631 2069 1631Z" fill="#61CBF4" fill-rule="evenodd"/><text font-family="Cambria,Cambria_MSFontService,sans-serif" font-weight="400" font-size="73" transform="matrix(1 0 0 1 2172.25 1803)">Кафедра информационных </text><text font-family="Cambria,Cambria_MSFontService,sans-serif" font-weight="400" font-size="73" transform="matrix(1 0 0 1 2430.52 1891)">технологий</text><path d="M562.5 2079.93C562.5 2040.48 594.479 2008.5 633.928 2008.5L1737.07 2008.5C1776.52 2008.5 1808.5 2040.48 1808.5 2079.93L1808.5 2265.07C1808.5 2304.52 1776.52 2336.5 1737.07 2336.5L633.928 2336.5C594.479 2336.5 562.5 2304.52 562.5 2265.07Z" stroke="#FFFFFF" stroke-width="6.875" stroke-miterlimit="8" stroke-dasharray="27.5 20.625" fill="#FFFFFF" fill-rule="evenodd"/><path d="M628.951 2008 1741.05 2008C1764.15 2008 1784.52 2024.73 1796.55 2050.19L1798 2054 572 2054 573.448 2050.19C585.477 2024.73 605.847 2008 628.951 2008Z" fill="#D86ECC" fill-rule="evenodd"/><text font-family="Cambria,Cambria_MSFontService,sans-serif" font-weight="400" font-size="73" transform="matrix(1 0 0 1 833.727 2194)">Кафедра зарубежной </text><text font-family="Cambria,Cambria_MSFontService,sans-serif" font-weight="400" font-size="73" transform="matrix(1 0 0 1 997.925 2282)">филологии</text><path d="M562.5 2457.93C562.5 2418.48 594.479 2386.5 633.928 2386.5L1737.07 2386.5C1776.52 2386.5 1808.5 2418.48 1808.5 2457.93L1808.5 2643.07C1808.5 2682.52 1776.52 2714.5 1737.07 2714.5L633.928 2714.5C594.479 2714.5 562.5 2682.52 562.5 2643.07Z" stroke="#FFFFFF" stroke-width="6.875" stroke-miterlimit="8" stroke-dasharray="27.5 20.625" fill="#FFFFFF" fill-rule="evenodd"/><path d="M628.951 2386 1741.05 2386C1764.15 2386 1784.52 2402.73 1796.55 2428.19L1798 2432 572 2432 573.448 2428.19C585.477 2402.73 605.847 2386 628.951 2386Z" fill="#D86ECC" fill-rule="evenodd"/><text font-family="Cambria,Cambria_MSFontService,sans-serif" font-weight="400" font-size="73" transform="matrix(1 0 0 1 844.349 2578)">Кафедра социально</text><text font-family="Cambria,Cambria_MSFontService,sans-serif" font-weight="400" font-size="73" transform="matrix(1 0 0 1 1500.98 2578)">-</text><text font-family="Cambria,Cambria_MSFontService,sans-serif" font-weight="400" font-size="73" transform="matrix(1 0 0 1 864.034 2666)">политических наук</text><path d="M2002.5 2079.93C2002.5 2040.48 2034.48 2008.5 2073.93 2008.5L3178.07 2008.5C3217.52 2008.5 3249.5 2040.48 3249.5 2079.93L3249.5 2265.07C3249.5 2304.52 3217.52 2336.5 3178.07 2336.5L2073.93 2336.5C2034.48 2336.5 2002.5 2304.52 2002.5 2265.07Z" stroke="#FFFFFF" stroke-width="6.875" stroke-miterlimit="8" stroke-dasharray="27.5 20.625" fill="#FFFFFF" fill-rule="evenodd"/><path d="M2069 2008 3182 2008C3205.13 2008 3225.51 2024.73 3237.55 2050.19L3239 2054 2012 2054 2013.45 2050.19C2025.49 2024.73 2045.87 2008 2069 2008Z" fill="#61CBF4" fill-rule="evenodd"/><text font-family="Cambria,Cambria_MSFontService,sans-serif" font-weight="400" font-size="73" transform="matrix(1 0 0 1 2288.58 2214)">Кафедра экономики</text><path d="M2002.5 2457.93C2002.5 2418.48 2034.48 2386.5 2073.93 2386.5L3178.07 2386.5C3217.52 2386.5 3249.5 2418.48 3249.5 2457.93L3249.5 2643.07C3249.5 2682.52 3217.52 2714.5 3178.07 2714.5L2073.93 2714.5C2034.48 2714.5 2002.5 2682.52 2002.5 2643.07Z" stroke="#FFFFFF" stroke-width="6.875" stroke-miterlimit="8" stroke-dasharray="27.5 20.625" fill="#FFFFFF" fill-rule="evenodd"/><path d="M2069 2386 3182 2386C3205.13 2386 3225.51 2402.73 3237.55 2428.19L3239 2432 2012 2432 2013.45 2428.19C2025.49 2402.73 2045.87 2386 2069 2386Z" fill="#61CBF4" fill-rule="evenodd"/><text font-family="Cambria,Cambria_MSFontService,sans-serif" font-weight="400" font-size="73" transform="matrix(1 0 0 1 2136.44 2592)">Кафедра финансов и кредита</text><path d="M4955.5-647.15C4955.5-708.647 5005.35-758.5 5066.85-758.5L6091.15-758.5C6152.65-758.5 6202.5-708.647 6202.5-647.15L6202.5-278.85C6202.5-217.353 6152.65-167.5 6091.15-167.5L5066.85-167.5C5005.35-167.5 4955.5-217.353 4955.5-278.85Z" stroke="#FFFFFF" stroke-width="6.875" stroke-miterlimit="8" stroke-dasharray="27.5 20.625" fill="#FFFFFF" fill-rule="evenodd"/><path d="M5022-759 6135-759C6158.13-759 6178.51-742.266 6190.55-716.815L6192-713 4965-713 4966.45-716.815C4978.49-742.266 4998.87-759 5022-759Z" fill="#00B0F0" fill-rule="evenodd"/><text font-family="Cambria,Cambria_MSFontService,sans-serif" font-weight="400" font-size="73" transform="matrix(1 0 0 1 5157.32 -391)">Отдел контроля качества </text><text font-family="Cambria,Cambria_MSFontService,sans-serif" font-weight="400" font-size="73" transform="matrix(1 0 0 1 5364.33 -303)">образования</text><path d="M5497-658.5C5497-674.24 5509.76-687 5525.5-687L5639.5-687C5655.24-687 5668-674.24 5668-658.5L5668-534.501C5668-518.76 5655.24-506 5639.5-506L5525.5-506C5509.76-506 5497-518.76 5497-534.501Z" fill="#F2F4F9" fill-rule="evenodd"/><text fill="#747474" font-family="Bahnschrift,Bahnschrift_MSFontService,sans-serif" font-weight="400" font-size="146" transform="matrix(1 0 0 1 5544.42 -546)">3</text><text fill="#747474" font-family="Bahnschrift,Bahnschrift_MSFontService,sans-serif" font-weight="400" font-size="146" transform="matrix(1 0 0 1 5621.77 -546)"> </text><path d="M4955.5-1289.15C4955.5-1350.65 5005.35-1400.5 5066.85-1400.5L6091.15-1400.5C6152.65-1400.5 6202.5-1350.65 6202.5-1289.15L6202.5-920.85C6202.5-859.353 6152.65-809.5 6091.15-809.5L5066.85-809.5C5005.35-809.5 4955.5-859.353 4955.5-920.85Z" stroke="#FFFFFF" stroke-width="6.875" stroke-miterlimit="8" stroke-dasharray="27.5 20.625" fill="#FFFFFF" fill-rule="evenodd"/><path d="M5022-1401 6135-1401C6158.13-1401 6178.51-1384.27 6190.55-1358.81L6192-1355 4965-1355 4966.45-1358.81C4978.49-1384.27 4998.87-1401 5022-1401Z" fill="#00B0F0" fill-rule="evenodd"/><text font-family="Cambria,Cambria_MSFontService,sans-serif" font-weight="400" font-size="73" transform="matrix(1 0 0 1 5186.92 -1033)">Отдел международного </text><text font-family="Cambria,Cambria_MSFontService,sans-serif" font-weight="400" font-size="73" transform="matrix(1 0 0 1 5315.57 -945)">сотрудничества</text><path d="M5497-1300.5C5497-1316.24 5509.76-1329 5525.5-1329L5639.5-1329C5655.24-1329 5668-1316.24 5668-1300.5L5668-1176.5C5668-1160.76 5655.24-1148 5639.5-1148L5525.5-1148C5509.76-1148 5497-1160.76 5497-1176.5Z" fill="#F2F4F9" fill-rule="evenodd"/><text fill="#747474" font-family="Bahnschrift,Bahnschrift_MSFontService,sans-serif" font-weight="400" font-size="146" transform="matrix(1 0 0 1 5544.42 -1188)">3</text><text fill="#747474" font-family="Bahnschrift,Bahnschrift_MSFontService,sans-serif" font-weight="400" font-size="146" transform="matrix(1 0 0 1 5621.77 -1188)"> </text><path d="M4955.5-0.294899C4955.5-66.6824 5009.32-120.5 5075.71-120.5L6082.29-120.5C6148.68-120.5 6202.5-66.6824 6202.5-0.294899L6202.5 397.295C6202.5 463.682 6148.68 517.5 6082.29 517.5L5075.71 517.5C5009.32 517.5 4955.5 463.682 4955.5 397.295Z" stroke="#FFFFFF" stroke-width="6.875" stroke-miterlimit="8" stroke-dasharray="27.5 20.625" fill="#FFFFFF" fill-rule="evenodd"/><path d="M5022-121 6135-121C6158.13-121 6178.51-104.266 6190.55-78.8147L6192-74.9999 4965-74.9999 4966.45-78.8147C4978.49-104.266 4998.87-121 5022-121Z" fill="#00B0F0" fill-rule="evenodd"/><text font-family="Cambria,Cambria_MSFontService,sans-serif" font-weight="400" font-size="73" transform="matrix(1 0 0 1 5081.11 247)">Отдел работы с обращениями </text><text font-family="Cambria,Cambria_MSFontService,sans-serif" font-weight="400" font-size="73" transform="matrix(1 0 0 1 5038.67 335)">физических и юридических лиц, </text><text font-family="Cambria,Cambria_MSFontService,sans-serif" font-weight="400" font-size="73" transform="matrix(1 0 0 1 5064.7 423)">архив, контроль и мониторинг</text><path d="M5497-20.4996C5497-36.24 5509.76-49.0002 5525.5-49.0002L5639.5-49.0002C5655.24-49.0002 5668-36.24 5668-20.4996L5668 103.499C5668 119.24 5655.24 132 5639.5 132L5525.5 132C5509.76 132 5497 119.24 5497 103.499Z" fill="#F2F4F9" fill-rule="evenodd"/><text fill="#747474" font-family="Bahnschrift,Bahnschrift_MSFontService,sans-serif" font-weight="400" font-size="146" transform="matrix(1 0 0 1 5544.42 92)">3</text><text fill="#747474" font-family="Bahnschrift,Bahnschrift_MSFontService,sans-serif" font-weight="400" font-size="146" transform="matrix(1 0 0 1 5621.77 92)"> </text><path d="M4955.5 675.85C4955.5 614.353 5005.35 564.5 5066.85 564.5L6091.15 564.5C6152.65 564.5 6202.5 614.353 6202.5 675.85L6202.5 1044.15C6202.5 1105.65 6152.65 1155.5 6091.15 1155.5L5066.85 1155.5C5005.35 1155.5 4955.5 1105.65 4955.5 1044.15Z" stroke="#FFFFFF" stroke-width="6.875" stroke-miterlimit="8" stroke-dasharray="27.5 20.625" fill="#FFFFFF" fill-rule="evenodd"/><path d="M5022 564 6135 564C6158.13 564 6178.51 580.734 6190.55 606.185L6192 610 4965 610 4966.45 606.185C4978.49 580.734 4998.87 564 5022 564Z" fill="#00B0F0" fill-rule="evenodd"/><text font-family="Cambria,Cambria_MSFontService,sans-serif" font-weight="400" font-size="73" transform="matrix(1 0 0 1 5353.38 931)">Отдел кадров</text><path d="M5497 664.501C5497 648.76 5509.76 636 5525.5 636L5639.5 636C5655.24 636 5668 648.76 5668 664.501L5668 788.5C5668 804.24 5655.24 817 5639.5 817L5525.5 817C5509.76 817 5497 804.24 5497 788.5Z" fill="#F2F4F9" fill-rule="evenodd"/><text fill="#747474" font-family="Bahnschrift,Bahnschrift_MSFontService,sans-serif" font-weight="400" font-size="146" transform="matrix(1 0 0 1 5544.42 777)">2</text><text fill="#747474" font-family="Bahnschrift,Bahnschrift_MSFontService,sans-serif" font-weight="400" font-size="146" transform="matrix(1 0 0 1 5620.05 777)"> </text><path d="M4955.5 1291.3C4955.5 1248.33 4990.33 1213.5 5033.3 1213.5L6124.7 1213.5C6167.67 1213.5 6202.5 1248.33 6202.5 1291.3L6202.5 1619.7C6202.5 1662.67 6167.67 1697.5 6124.7 1697.5L5033.3 1697.5C4990.33 1697.5 4955.5 1662.67 4955.5 1619.7Z" stroke="#FFFFFF" stroke-width="6.875" stroke-miterlimit="8" stroke-dasharray="27.5 20.625" fill="#FFFFFF" fill-rule="evenodd"/><path d="M5022 1213 6135 1213C6158.13 1213 6178.51 1229.73 6190.55 1255.19L6192 1259 4965 1259 4966.45 1255.19C4978.49 1229.73 4998.87 1213 5022 1213Z" fill="#00B0F0" fill-rule="evenodd"/><text font-family="Cambria,Cambria_MSFontService,sans-serif" font-weight="400" font-size="73" transform="matrix(1 0 0 1 5101.69 1414)">Юрисконсульт и управление </text><text font-family="Cambria,Cambria_MSFontService,sans-serif" font-weight="400" font-size="73" transform="matrix(1 0 0 1 5016.07 1502)">системой комплаенс</text><text font-family="Cambria,Cambria_MSFontService,sans-serif" font-weight="400" font-size="73" transform="matrix(1 0 0 1 5701.28 1502)">-</text><text font-family="Cambria,Cambria_MSFontService,sans-serif" font-weight="400" font-size="73" transform="matrix(1 0 0 1 5725.92 1502)">контроля по </text><text font-family="Cambria,Cambria_MSFontService,sans-serif" font-weight="400" font-size="73" transform="matrix(1 0 0 1 5229.45 1590)">борьбе с коррупцией</text><path d="M4955.5 1839.91C4955.5 1793.29 4993.29 1755.5 5039.91 1755.5L6118.09 1755.5C6164.71 1755.5 6202.5 1793.29 6202.5 1839.91L6202.5 2012.09C6202.5 2058.71 6164.71 2096.5 6118.09 2096.5L5039.91 2096.5C4993.29 2096.5 4955.5 2058.71 4955.5 2012.09Z" stroke="#FFFFFF" stroke-width="6.875" stroke-miterlimit="8" stroke-dasharray="27.5 20.625" fill="#FFFFFF" fill-rule="evenodd"/><path d="M5022 1755 6135 1755C6158.13 1755 6178.51 1771.73 6190.55 1797.19L6192 1801 4965 1801 4966.45 1797.19C4978.49 1771.73 4998.87 1755 5022 1755Z" fill="#00B0F0" fill-rule="evenodd"/><text font-family="Cambria,Cambria_MSFontService,sans-serif" font-weight="400" font-size="73" transform="matrix(1 0 0 1 5135.17 1926)">Секретарь совета высшего </text><text font-family="Cambria,Cambria_MSFontService,sans-serif" font-weight="400" font-size="73" transform="matrix(1 0 0 1 5364.34 2014)">образования</text><path d="M1067.5-2537.79 1291.64-2537.79 1291.64-2533.21 1067.5-2533.21ZM1067.5-2521.75 1053.75-2535.5 1067.5-2549.25 1081.25-2535.5ZM1291.64-2549.25 1305.39-2535.5 1291.64-2521.75 1277.89-2535.5Z" fill="#00B0F0"/><path d="M2.29167-5.83105e-06 2.29203 141.835-2.29131 141.835-2.29167 5.83105e-06ZM-13.75 3.49863e-05-3.49863e-05-13.75 13.75-3.49863e-05 3.49863e-05 13.75ZM13.7504 141.835 0.000395879 155.585-13.7496 141.835 0.000325906 128.085Z" fill="#00B0F0" transform="matrix(1 0 0 -1 1914.5 -2215.67)"/><path d="M1067.5-1993.79 1291.64-1993.79 1291.64-1989.21 1067.5-1989.21ZM1067.5-1977.75 1053.75-1991.5 1067.5-2005.25 1081.25-1991.5ZM1291.64-2005.25 1305.39-1991.5 1291.64-1977.75 1277.89-1991.5Z" fill="#00B0F0"/><path d="M3.53242e-06-2.29167 234.13-2.29131 234.13 2.29203-3.53242e-06 2.29167ZM-2.11945e-05 13.75-13.75-2.11945e-05 2.11945e-05-13.75 13.75 2.11945e-05ZM234.13-13.7496 247.88 0.000382087 234.13 13.7504 220.38 0.000339698Z" fill="#00B0F0" transform="matrix(1 0 0 -1 2538.5 -1991.5)"/><path d="M2.29167-6.71616e-06 2.29203 123.143-2.29131 123.143-2.29167 6.71616e-06ZM-13.75 4.02969e-05-4.02969e-05-13.75 13.75-4.02969e-05 4.02969e-05 13.75ZM13.7504 123.143 0.000401189 136.893-13.7496 123.143 0.000320595 109.393Z" fill="#00B0F0" transform="matrix(1 0 0 -1 1914.5 -1644.36)"/><path d="M2.29167-3.69149e-06 2.29203 224.041-2.29131 224.041-2.29167 3.69149e-06ZM-13.75 2.21489e-05-2.21489e-05-13.75 13.75-2.21489e-05 2.21489e-05 13.75ZM13.7504 224.041 0.000383041 237.791-13.7496 224.041 0.000338743 210.291Z" fill="#00B0F0" transform="matrix(1 0 0 -1 1175.5 -1421.46)"/><path d="M-1141.5-1647.79 6441.8-1641.74 6441.8-1637.16-1141.5-1643.21ZM-1141.51-1631.75-1155.25-1645.51-1141.49-1659.25-1127.75-1645.49ZM6441.81-1653.2 6455.55-1639.44 6441.79-1625.7 6428.05-1639.46Z" fill="#00B0F0"/><path d="M-266.792-1421.85-266.792-1644.5-262.209-1644.5-262.208-1421.85ZM-250.75-1421.85-264.5-1408.1-278.25-1421.85-264.5-1435.6ZM-278.25-1644.5-264.5-1658.25-250.75-1644.5-264.5-1630.75Z" fill="#00B0F0"/><path d="M2616.21-1421.06 2616.21-1640.5 2620.79-1640.5 2620.79-1421.06ZM2632.25-1421.06 2618.5-1407.31 2604.75-1421.06 2618.5-1434.81ZM2604.75-1640.5 2618.5-1654.25 2632.25-1640.5 2618.5-1626.75Z" fill="#00B0F0"/><path d="M4086.21-1421.22 4086.21-1640.5 4090.79-1640.5 4090.79-1421.22ZM4102.25-1421.22 4088.5-1407.47 4074.75-1421.22 4088.5-1434.97ZM4074.75-1640.5 4088.5-1654.25 4102.25-1640.5 4088.5-1626.75Z" fill="#00B0F0"/><path d="M2.29167-2.31885e-07 2.29203 3566.62-2.29131 3566.62-2.29167 2.31885e-07ZM-13.75 1.39129e-06-1.39129e-06-13.75 13.75-1.39129e-06 1.39129e-06 13.75ZM13.7504 3566.62 0.000362284 3580.37-13.7496 3566.62 0.000359501 3552.87Z" fill="#00B0F0" transform="matrix(1 0 0 -1 6441.5 1926.12)"/><path d="M3380.5-1169.79 3452.41-1169.79 3452.41-1165.21 3380.5-1165.21ZM3380.5-1153.75 3366.75-1167.5 3380.5-1181.25 3394.25-1167.5ZM3452.41-1181.25 3466.16-1167.5 3452.41-1153.75 3438.66-1167.5Z" fill="#00B0F0"/><path d="M3382.79-1167.5 3382.79 1336.28 3378.21 1336.28 3378.21-1167.5ZM3366.75-1167.5 3380.5-1181.25 3394.25-1167.5 3380.5-1153.75ZM3394.25 1336.28 3380.5 1350.03 3366.75 1336.28 3380.5 1322.53Z" fill="#00B0F0"/><path d="M3382.5-576.792 3465.67-576.791 3465.67-572.208 3382.5-572.208ZM3382.5-560.75 3368.75-574.5 3382.5-588.25 3396.25-574.5ZM3465.67-588.25 3479.42-574.499 3465.67-560.75 3451.92-574.5Z" fill="#00B0F0"/><path d="M3381.5 72.2084 3465.55 72.2088 3465.55 76.7921 3381.5 76.7918ZM3381.5 88.2501 3367.75 74.5 3381.5 60.7501 3395.25 74.5002ZM3465.55 60.7505 3479.3 74.5005 3465.55 88.2505 3451.8 74.5004Z" fill="#00B0F0"/><path d="M3381.5 707.208 3465.55 707.209 3465.55 711.792 3381.5 711.792ZM3381.5 723.25 3367.75 709.5 3381.5 695.75 3395.25 709.5ZM3465.55 695.75 3479.3 709.5 3465.55 723.25 3451.8 709.5Z" fill="#00B0F0"/><path d="M3381.5 1333.21 3465.55 1333.21 3465.55 1337.79 3381.5 1337.79ZM3381.5 1349.25 3367.75 1335.5 3381.5 1321.75 3395.25 1335.5ZM3465.55 1321.75 3479.3 1335.5 3465.55 1349.25 3451.8 1335.5Z" fill="#00B0F0"/><path d="M1914.5-1169.79 2001.83-1169.63 2001.82-1165.05 1914.5-1165.21ZM1914.47-1153.75 1900.75-1167.53 1914.53-1181.25 1928.25-1167.47ZM2001.85-1181.09 2015.57-1167.32 2001.8-1153.59 1988.07-1167.37Z" fill="#00B0F0"/><path d="M1916.79-1168.5 1916.79 184.015 1912.21 184.015 1912.21-1168.5ZM1900.75-1168.5 1914.5-1182.25 1928.25-1168.5 1914.5-1154.75ZM1928.25 184.015 1914.5 197.765 1900.75 184.015 1914.5 170.265Z" fill="#00B0F0"/><path d="M1917.55-436.537 2003.67-392.107 2001.57-388.034 1915.45-432.463ZM1910.2-422.28 1904.28-440.804 1922.8-446.72 1928.72-428.196ZM2008.92-402.29 2014.84-383.766 1996.31-377.851 1990.4-396.375Z" fill="#00B0F0"/><path d="M1915.5 182.208 2002.22 182.209 2002.22 186.792 1915.5 186.792ZM1915.5 198.25 1901.75 184.5 1915.5 170.75 1929.25 184.5ZM2002.22 170.75 2015.97 184.501 2002.22 198.25 1988.47 184.5Z" fill="#00B0F0"/><path d="M467.5-1169.79 552.217-1169.79 552.217-1165.21 467.5-1165.21ZM467.5-1153.75 453.75-1167.5 467.5-1181.25 481.25-1167.5ZM552.217-1181.25 565.967-1167.5 552.216-1153.75 538.467-1167.5Z" fill="#00B0F0"/><path d="M2.29167-6.65699e-07 2.29203 1242.37-2.29131 1242.37-2.29167 6.65699e-07ZM-13.75 3.99421e-06-3.99421e-06-13.75 13.75-3.99421e-06 3.99421e-06 13.75ZM13.7504 1242.37 0.000364887 1256.12-13.7496 1242.37 0.000356898 1228.62Z" fill="#00B0F0" transform="matrix(-1 0 0 1 467.5 -1168.5)"/><path d="M472.5-566.792 552.122-566.791 552.122-562.208 472.5-562.208ZM472.5-550.75 458.75-564.5 472.5-578.25 486.25-564.5ZM552.122-578.25 565.872-564.5 552.122-550.75 538.372-564.5Z" fill="#00B0F0"/><path d="M467.5 72.2084 552.217 72.2088 552.217 76.7921 467.5 76.7918ZM467.5 88.2501 453.75 74.5 467.5 60.7501 481.25 74.5002ZM552.217 60.7505 565.967 74.5005 552.217 88.2505 538.467 74.5004Z" fill="#00B0F0"/><path d="M-965.5-1169.79-882.375-1169.79-882.375-1165.21-965.5-1165.21ZM-965.5-1153.75-979.25-1167.5-965.5-1181.25-951.75-1167.5ZM-882.375-1181.25-868.625-1167.5-882.375-1153.75-896.125-1167.5Z" fill="#00B0F0"/><path d="M2.29167-2.49814e-06 2.29311 1324.26-2.29022 1324.26-2.29167 2.49814e-06ZM-13.75 1.49888e-05-1.49888e-05-13.75 13.75-1.49888e-05 1.49888e-05 13.75ZM13.7514 1324.26 0.00145856 1338.01-13.7486 1324.26 0.00142858 1310.51Z" fill="#00B0F0" transform="matrix(-1 0 0 1 -965.499 -1168.5)"/><path d="M-965.5-494.792-882.375-494.791-882.375-490.208-965.5-490.208ZM-965.5-478.75-979.25-492.5-965.5-506.25-951.75-492.5ZM-882.375-506.25-868.625-492.5-882.375-478.75-896.125-492.5Z" fill="#00B0F0"/><path d="M-965.5 147.208-882.375 147.209-882.375 151.792-965.5 151.792ZM-965.5 163.25-979.25 149.5-965.5 135.75-951.75 149.5ZM-882.375 135.75-868.625 149.5-882.375 163.25-896.125 149.5Z" fill="#00B0F0"/><path d="M-1136.21-1645.5-1136.21 604.216-1140.79 604.216-1140.79-1645.5ZM-1152.25-1645.5-1138.5-1659.25-1124.75-1645.5-1138.5-1631.75ZM-1124.75 604.216-1138.5 617.966-1152.25 604.216-1138.5 590.466Z" fill="#00B0F0"/><path d="M-1138.5 601.208 2633.68 601.209 2633.68 605.792-1138.5 605.792ZM-1138.5 617.25-1152.25 603.5-1138.5 589.75-1124.75 603.5ZM2633.68 589.75 2647.43 603.5 2633.68 617.25 2619.93 603.5Z" fill="#00B0F0"/><path d="M-965.5 957.208-882.375 957.209-882.375 961.792-965.5 961.792ZM-965.5 973.25-979.25 959.5-965.5 945.75-951.75 959.5ZM-882.375 945.75-868.625 959.5-882.375 973.25-896.125 959.5Z" fill="#00B0F0"/><path d="M-961.208 959.5-961.208 1814.45-965.791 1814.45-965.792 959.5ZM-977.25 959.5-963.5 945.75-949.75 959.5-963.5 973.25ZM-949.75 1814.45-963.5 1828.2-977.25 1814.45-963.5 1800.7Z" fill="#00B0F0"/><path d="M-965.5 1432.21-882.375 1432.21-882.375 1436.79-965.5 1436.79ZM-965.5 1448.25-979.25 1434.5-965.5 1420.75-951.75 1434.5ZM-882.375 1420.75-868.625 1434.5-882.375 1448.25-896.125 1434.5Z" fill="#00B0F0"/><path d="M-965.5 1812.21-882.375 1812.21-882.375 1816.79-965.5 1816.79ZM-965.5 1828.25-979.25 1814.5-965.5 1800.75-951.75 1814.5ZM-882.375 1800.75-868.625 1814.5-882.375 1828.25-896.125 1814.5Z" fill="#00B0F0"/><path d="M-259.208 603.5-259.208 709.296-263.791 709.296-263.792 603.5ZM-275.25 603.5-261.5 589.75-247.75 603.5-261.5 617.25ZM-247.75 709.296-261.5 723.046-275.25 709.296-261.5 695.546Z" fill="#00B0F0"/><path d="M1179.79 603.5 1179.79 709.296 1175.21 709.296 1175.21 603.5ZM1163.75 603.5 1177.5 589.75 1191.25 603.5 1177.5 617.25ZM1191.25 709.296 1177.5 723.046 1163.75 709.296 1177.5 695.546Z" fill="#00B0F0"/><path d="M2635.79 603.5 2635.79 709.296 2631.21 709.296 2631.21 603.5ZM2619.75 603.5 2633.5 589.75 2647.25 603.5 2633.5 617.25ZM2647.25 709.296 2633.5 723.046 2619.75 709.296 2633.5 695.546Z" fill="#00B0F0"/><path d="M477.5 957.208 560.625 957.209 560.625 961.792 477.5 961.792ZM477.5 973.25 463.75 959.5 477.5 945.75 491.25 959.5ZM560.625 945.75 574.375 959.5 560.625 973.25 546.875 959.5Z" fill="#00B0F0"/><path d="M2.29167-0.00231936 3.90016 1589.29-0.683168 1589.29-2.29167 0.00231936ZM-13.75 0.0139161-0.0139161-13.75 13.75-0.0139161 0.0139161 13.75ZM15.3585 1589.28 1.62241 1603.04-12.1415 1589.3 1.59458 1575.54Z" fill="#00B0F0" transform="matrix(-1 0 0 1 479.108 959.5)"/><path d="M477.5 1432.21 560.625 1432.21 560.625 1436.79 477.5 1436.79ZM477.5 1448.25 463.75 1434.5 477.5 1420.75 491.25 1434.5ZM560.625 1420.75 574.375 1434.5 560.625 1448.25 546.875 1434.5Z" fill="#00B0F0"/><path d="M477.5 1808.21 560.625 1808.21 560.625 1812.79 477.5 1812.79ZM477.5 1824.25 463.75 1810.5 477.5 1796.75 491.25 1810.5ZM560.625 1796.75 574.375 1810.5 560.625 1824.25 546.875 1810.5Z" fill="#00B0F0"/><path d="M477.5 2546.21 560.625 2546.21 560.625 2550.79 477.5 2550.79ZM477.5 2562.25 463.75 2548.5 477.5 2534.75 491.25 2548.5ZM560.625 2534.75 574.375 2548.5 560.625 2562.25 546.875 2548.5Z" fill="#00B0F0"/><path d="M477.5 2188.21 560.625 2188.21 560.625 2192.79 477.5 2192.79ZM477.5 2204.25 463.75 2190.5 477.5 2176.75 491.25 2190.5ZM560.625 2176.75 574.375 2190.5 560.625 2204.25 546.875 2190.5Z" fill="#00B0F0"/><path d="M1917.5 957.208 2000.62 957.209 2000.62 961.792 1917.5 961.792ZM1917.5 973.25 1903.75 959.5 1917.5 945.75 1931.25 959.5ZM2000.62 945.75 2014.37 959.5 2000.62 973.25 1986.87 959.5Z" fill="#00B0F0"/><path d="M2.29167-0.00231936 3.90016 1589.29-0.683168 1589.29-2.29167 0.00231936ZM-13.75 0.0139161-0.0139161-13.75 13.75-0.0139161 0.0139161 13.75ZM15.3585 1589.28 1.62241 1603.04-12.1415 1589.3 1.59458 1575.54Z" fill="#00B0F0" transform="matrix(-1 0 0 1 1919.11 959.5)"/><path d="M1917.5 1432.21 2000.62 1432.21 2000.62 1436.79 1917.5 1436.79ZM1917.5 1448.25 1903.75 1434.5 1917.5 1420.75 1931.25 1434.5ZM2000.62 1420.75 2014.37 1434.5 2000.62 1448.25 1986.87 1434.5Z" fill="#00B0F0"/><path d="M1917.5 1808.21 2000.62 1808.21 2000.62 1812.79 1917.5 1812.79ZM1917.5 1824.25 1903.75 1810.5 1917.5 1796.75 1931.25 1810.5ZM2000.62 1796.75 2014.37 1810.5 2000.62 1824.25 1986.87 1810.5Z" fill="#00B0F0"/><path d="M1917.5 2546.21 2000.62 2546.21 2000.62 2550.79 1917.5 2550.79ZM1917.5 2562.25 1903.75 2548.5 1917.5 2534.75 1931.25 2548.5ZM2000.62 2534.75 2014.37 2548.5 2000.62 2562.25 1986.87 2548.5Z" fill="#00B0F0"/><path d="M1917.5 2188.21 2000.62 2188.21 2000.62 2192.79 1917.5 2192.79ZM1917.5 2204.25 1903.75 2190.5 1917.5 2176.75 1931.25 2190.5ZM2000.62 2176.75 2014.37 2190.5 2000.62 2204.25 1986.87 2190.5Z" fill="#00B0F0"/><path d="M6202.5-1106.79 6441.78-1106.79 6441.78-1102.21 6202.5-1102.21ZM6202.5-1090.75 6188.75-1104.5 6202.5-1118.25 6216.25-1104.5ZM6441.78-1118.25 6455.53-1104.5 6441.78-1090.75 6428.03-1104.5Z" fill="#00B0F0"/><path d="M6202.5-453.792 6441.78-453.791 6441.78-449.208 6202.5-449.208ZM6202.5-437.75 6188.75-451.5 6202.5-465.25 6216.25-451.5ZM6441.78-465.249 6455.53-451.499 6441.78-437.749 6428.03-451.5Z" fill="#00B0F0"/><path d="M6202.5 219.208 6441.78 219.209 6441.78 223.792 6202.5 223.792ZM6202.5 235.25 6188.75 221.5 6202.5 207.75 6216.25 221.5ZM6441.78 207.75 6455.53 221.5 6441.78 235.25 6428.03 221.5Z" fill="#00B0F0"/><path d="M6202.5 858.208 6441.78 858.209 6441.78 862.792 6202.5 862.792ZM6202.5 874.25 6188.75 860.5 6202.5 846.75 6216.25 860.5ZM6441.78 846.75 6455.53 860.5 6441.78 874.25 6428.03 860.5Z" fill="#00B0F0"/><path d="M6202.5 1447.21 6441.78 1447.21 6441.78 1451.79 6202.5 1451.79ZM6202.5 1463.25 6188.75 1449.5 6202.5 1435.75 6216.25 1449.5ZM6441.78 1435.75 6455.53 1449.5 6441.78 1463.25 6428.03 1449.5Z" fill="#00B0F0"/><path d="M6202.5 1923.21 6441.78 1923.21 6441.78 1927.79 6202.5 1927.79ZM6202.5 1939.25 6188.75 1925.5 6202.5 1911.75 6216.25 1925.5ZM6441.78 1911.75 6455.53 1925.5 6441.78 1939.25 6428.03 1925.5Z" fill="#00B0F0"/></g></svg>