<svg width="5610" height="8473" xmlns="http://www.w3.org/2000/svg" xmlns:xlink="http://www.w3.org/1999/xlink" overflow="hidden"><defs><clipPath id="clip0"><rect x="-885" y="64" width="5610" height="8473"/></clipPath></defs><g clip-path="url(#clip0)" transform="translate(885 -64)"><text font-family="Cambria,Cambria_MSFontService,sans-serif" font-weight="700" font-size="146" transform="matrix(1 0 0 1 1382.68 251)">RENESSANS TA’LIM <tspan font-size="146" x="-229.465" y="175">UNIVERSITETI TUZILMASI</tspan></text><path d="M-179.5 578.386C-179.5 541.446-149.554 511.5-112.614 511.5L1000.61 511.5C1037.55 511.5 1067.5 541.446 1067.5 578.386L1067.5 799.614C1067.5 836.554 1037.55 866.5 1000.61 866.5L-112.614 866.5C-149.554 866.5-179.5 836.554-179.5 799.614Z" stroke="#00B0F0" stroke-width="4.58333" stroke-miterlimit="8" stroke-dasharray="18.3333 13.75" fill="none" fill-rule="evenodd"/><path d="M-113.003 511 1000 511C1023.13 511 1043.51 522.641 1055.55 540.346L1057 543-170 543-168.551 540.346C-156.512 522.641-136.126 511-113.003 511Z" fill="#00B0F0" fill-rule="evenodd"/><text font-family="Cambria,Cambria_MSFontService,sans-serif" font-weight="700" font-size="73" transform="matrix(1 0 0 1 87.8647 719)">Ta’sischilar<tspan font-size="73" x="406.771" y="0">kengashi</tspan></text><path d="M1291.5 578.386C1291.5 541.446 1321.45 511.5 1358.39 511.5L2471.61 511.5C2508.55 511.5 2538.5 541.446 2538.5 578.386L2538.5 799.614C2538.5 836.554 2508.55 866.5 2471.61 866.5L1358.39 866.5C1321.45 866.5 1291.5 836.554 1291.5 799.614Z" stroke="#00B0F0" stroke-width="4.58333" stroke-miterlimit="8" stroke-dasharray="18.3333 13.75" fill="none" fill-rule="evenodd"/><path d="M1358 511 2471 511C2494.13 511 2514.51 522.641 2526.55 540.346L2528 543 1301 543 1302.45 540.346C1314.49 522.641 1334.87 511 1358 511Z" fill="#00B0F0" fill-rule="evenodd"/><text font-family="Cambria,Cambria_MSFontService,sans-serif" font-weight="700" font-size="73" transform="matrix(1 0 0 1 1542.1 719)">Universitet<tspan font-size="73" x="394.167" y="0">prezidenti</tspan></text><path d="M1291.5 1092.91C1291.5 1046.29 1329.29 1008.5 1375.91 1008.5L2454.09 1008.5C2500.71 1008.5 2538.5 1046.29 2538.5 1092.91L2538.5 1372.09C2538.5 1418.71 2500.71 1456.5 2454.09 1456.5L1375.91 1456.5C1329.29 1456.5 1291.5 1418.71 1291.5 1372.09Z" stroke="#FFFFFF" stroke-width="4.58333" stroke-miterlimit="8" stroke-dasharray="18.3333 13.75" fill="#FFFFFF" fill-rule="evenodd"/><path d="M1358 1008 2471 1008C2494.13 1008 2514.51 1022.91 2526.55 1045.6L2528 1049 1301 1049 1302.45 1045.6C1314.49 1022.91 1334.87 1008 1358 1008Z" fill="#00B0F0" fill-rule="evenodd"/><text font-family="Cambria,Cambria_MSFontService,sans-serif" font-weight="700" font-size="146" transform="matrix(1 0 0 1 1682.75 1240)">Rektor<tspan font-weight="400" font-size="64" x="-223.4" y="85">Barakayev</tspan><tspan font-weight="400" font-size="64" x="80.2455" y="85">Nusratilla</tspan><tspan font-weight="400" font-size="64" x="364.412" y="85">Rajabovich</tspan></text><path d="M-179.5 1122.39C-179.5 1085.45-149.554 1055.5-112.614 1055.5L1000.61 1055.5C1037.55 1055.5 1067.5 1085.45 1067.5 1122.39L1067.5 1343.61C1067.5 1380.55 1037.55 1410.5 1000.61 1410.5L-112.614 1410.5C-149.554 1410.5-179.5 1380.55-179.5 1343.61Z" stroke="#FFFFFF" stroke-width="4.58333" stroke-miterlimit="8" stroke-dasharray="18.3333 13.75" fill="#FFFFFF" fill-rule="evenodd"/><path d="M-113.003 1055 1000 1055C1023.13 1055 1043.51 1066.64 1055.55 1084.35L1057 1087-170 1087-168.551 1084.35C-156.512 1066.64-136.126 1055-113.003 1055Z" fill="#00B0F0" fill-rule="evenodd"/><text font-family="Cambria,Cambria_MSFontService,sans-serif" font-weight="700" font-size="73" transform="matrix(1 0 0 1 94.1666 1263)">Universitet<tspan font-size="73" x="394.167" y="0">kengashi</tspan></text><path d="M2772.5 1122.39C2772.5 1085.45 2802.45 1055.5 2839.39 1055.5L3952.61 1055.5C3989.55 1055.5 4019.5 1085.45 4019.5 1122.39L4019.5 1343.61C4019.5 1380.55 3989.55 1410.5 3952.61 1410.5L2839.39 1410.5C2802.45 1410.5 2772.5 1380.55 2772.5 1343.61Z" stroke="#FFFFFF" stroke-width="4.58333" stroke-miterlimit="8" stroke-dasharray="18.3333 13.75" fill="#FFFFFF" fill-rule="evenodd"/><path d="M2839 1055 3952 1055C3975.13 1055 3995.51 1066.64 4007.55 1084.35L4009 1087 2782 1087 2783.45 1084.35C2795.49 1066.64 2815.87 1055 2839 1055Z" fill="#00B0F0" fill-rule="evenodd"/><text font-family="Cambria,Cambria_MSFontService,sans-serif" font-weight="700" font-size="73" transform="matrix(1 0 0 1 3036.4 1263)">Rektor<tspan font-size="73" x="249.792" y="0">maslahatchisi</tspan></text><path d="M-882.5 1898.21C-882.5 1845.35-839.648 1802.5-786.787 1802.5L268.787 1802.5C321.648 1802.5 364.5 1845.35 364.5 1898.21L364.5 2214.79C364.5 2267.65 321.648 2310.5 268.787 2310.5L-786.787 2310.5C-839.648 2310.5-882.5 2267.65-882.5 2214.79Z" stroke="#FFFFFF" stroke-width="4.58333" stroke-miterlimit="8" stroke-dasharray="18.3333 13.75" fill="#FFFFFF" fill-rule="evenodd"/><path d="M-816.003 1802 297.003 1802C320.126 1802 340.512 1818.73 352.55 1844.19L354 1848-873 1848-871.551 1844.19C-859.512 1818.73-839.126 1802-816.003 1802Z" fill="#00B0F0" fill-rule="evenodd"/><text font-family="Cambria,Cambria_MSFontService,sans-serif" font-weight="400" font-size="73" transform="matrix(1 0 0 1 -596.161 2008)">Yoshlar<tspan font-size="73" x="255.521" y="0">masalalari</tspan><tspan font-size="73" x="599.844" y="0">va</tspan><tspan font-size="73" x="-38.3854" y="88">ma’naviy</tspan>-ma’rifiy<tspan font-size="73" x="532.24" y="88">ishlar</tspan><tspan font-size="73" x="-87.3812" y="176">bo‘yicha</tspan><tspan font-size="73" x="190.483" y="176">birinchi</tspan><tspan font-size="73" x="452.306" y="176">prorektor</tspan></text><path d="M552.5 1898.21C552.5 1845.35 595.352 1802.5 648.212 1802.5L1702.79 1802.5C1755.65 1802.5 1798.5 1845.35 1798.5 1898.21L1798.5 2214.79C1798.5 2267.65 1755.65 2310.5 1702.79 2310.5L648.212 2310.5C595.352 2310.5 552.5 2267.65 552.5 2214.79Z" stroke="#FFFFFF" stroke-width="4.58333" stroke-miterlimit="8" stroke-dasharray="18.3333 13.75" fill="#FFFFFF" fill-rule="evenodd"/><path d="M618.951 1802 1731.05 1802C1754.15 1802 1774.52 1818.73 1786.55 1844.19L1788 1848 562 1848 563.448 1844.19C575.477 1818.73 595.847 1802 618.951 1802Z" fill="#00B0F0" fill-rule="evenodd"/><text font-family="Cambria,Cambria_MSFontService,sans-serif" font-weight="400" font-size="73" transform="matrix(1 0 0 1 847.285 2063)">O‘quv<tspan font-size="73" x="198.229" y="0">ishlar</tspan><tspan font-size="73" x="393.594" y="0">bo‘yicha</tspan><tspan font-size="73" x="173.594" y="88">prorektor</tspan></text><path d="M2002.5 1898.21C2002.5 1845.35 2045.35 1802.5 2098.21 1802.5L3153.79 1802.5C3206.65 1802.5 3249.5 1845.35 3249.5 1898.21L3249.5 2214.79C3249.5 2267.65 3206.65 2310.5 3153.79 2310.5L2098.21 2310.5C2045.35 2310.5 2002.5 2267.65 2002.5 2214.79Z" stroke="#FFFFFF" stroke-width="4.58333" stroke-miterlimit="8" stroke-dasharray="18.3333 13.75" fill="#FFFFFF" fill-rule="evenodd"/><path d="M2069 1802 3182 1802C3205.13 1802 3225.51 1818.73 3237.55 1844.19L3239 1848 2012 1848 2013.45 1844.19C2025.49 1818.73 2045.87 1802 2069 1802Z" fill="#00B0F0" fill-rule="evenodd"/><text font-family="Cambria,Cambria_MSFontService,sans-serif" font-weight="400" font-size="73" transform="matrix(1 0 0 1 2136.03 2050)">Ilmiy<tspan font-size="73" x="179.323" y="0">ishlar</tspan><tspan font-size="73" x="374.688" y="0">va</tspan><tspan font-size="73" x="464.063" y="0">innovatsiyalar</tspan><tspan font-size="73" x="164.427" y="88">bo‘yicha</tspan><tspan font-size="73" x="442.292" y="88">prorektor</tspan></text><path d="M3452.5 1899.02C3452.5 1846.27 3495.27 1803.5 3548.02 1803.5L4603.98 1803.5C4656.73 1803.5 4699.5 1846.27 4699.5 1899.02L4699.5 2214.98C4699.5 2267.73 4656.73 2310.5 4603.98 2310.5L3548.02 2310.5C3495.27 2310.5 3452.5 2267.73 3452.5 2214.98Z" stroke="#FFFFFF" stroke-width="4.58333" stroke-miterlimit="8" stroke-dasharray="18.3333 13.75" fill="#FFFFFF" fill-rule="evenodd"/><path d="M3519 1803 4632 1803C4655.13 1803 4675.51 1819.73 4687.55 1845.19L4689 1849 3462 1849 3463.45 1845.19C3475.49 1819.73 3495.87 1803 3519 1803Z" fill="#00B0F0" fill-rule="evenodd"/><text font-family="Cambria,Cambria_MSFontService,sans-serif" font-weight="400" font-size="73" transform="matrix(1 0 0 1 3740.19 2049)">Moliya<tspan font-size="73" x="212.552" y="0">-</tspan><tspan font-size="73" x="237.188" y="0">iqtisod</tspan><tspan font-size="73" x="470.364" y="0">ishlari</tspan><tspan font-size="73" x="42.0979" y="88">bo‘yicha</tspan><tspan font-size="73" x="319.962" y="88">prorektor</tspan></text><path d="M-882.5 2505.91C-882.5 2437.75-827.248 2382.5-759.091 2382.5L241.091 2382.5C309.248 2382.5 364.5 2437.75 364.5 2505.91L364.5 2914.09C364.5 2982.25 309.248 3037.5 241.091 3037.5L-759.091 3037.5C-827.248 3037.5-882.5 2982.25-882.5 2914.09Z" stroke="#FFFFFF" stroke-width="4.58333" stroke-miterlimit="8" stroke-dasharray="18.3333 13.75" fill="#FFFFFF" fill-rule="evenodd"/><path d="M-816.003 2382 297.003 2382C320.126 2382 340.512 2398.73 352.55 2424.19L354 2428-873 2428-871.551 2424.19C-859.512 2398.73-839.126 2382-816.003 2382Z" fill="#00B0F0" fill-rule="evenodd"/><text font-family="Cambria,Cambria_MSFontService,sans-serif" font-weight="400" font-size="73" transform="matrix(1 0 0 1 -592.162 2727)">Yoshlar<tspan font-size="73" x="255.521" y="0">bilan</tspan><tspan font-size="73" x="429.115" y="0">ishlash</tspan>,<tspan font-size="73" x="46.4063" y="88">ma’naviy</tspan>-ma’rifat<tspan font-size="73" x="603.854" y="88">,</tspan><tspan font-size="73" x="-159.844" y="176">Axborot</tspan><tspan font-size="73" x="94.5313" y="176">-</tspan>resurs<tspan font-size="73" x="335.156" y="176">markazi</tspan><tspan font-size="73" x="607.292" y="176">bo‘limi</tspan></text><path d="M-341 2482.5C-341 2466.76-328.24 2454-312.499 2454L-198.501 2454C-182.76 2454-170 2466.76-170 2482.5L-170 2606.5C-170 2622.24-182.76 2635-198.501 2635L-312.499 2635C-328.24 2635-341 2622.24-341 2606.5Z" fill="#F2F4F9" fill-rule="evenodd"/><text fill="#767171" font-family="Bahnschrift,Bahnschrift_MSFontService,sans-serif" font-weight="400" font-size="146" transform="matrix(1 0 0 1 -293.521 2601)">6</text><path d="M-882.5 3204.13C-882.5 3154.07-841.925 3113.5-791.874 3113.5L273.874 3113.5C323.925 3113.5 364.5 3154.07 364.5 3204.13L364.5 3503.87C364.5 3553.93 323.925 3594.5 273.874 3594.5L-791.874 3594.5C-841.925 3594.5-882.5 3553.93-882.5 3503.87Z" stroke="#FFFFFF" stroke-width="4.58333" stroke-miterlimit="8" stroke-dasharray="18.3333 13.75" fill="#FFFFFF" fill-rule="evenodd"/><path d="M-816.003 3113 297.003 3113C320.126 3113 340.512 3129.73 352.55 3155.19L354 3159-873 3159-871.551 3155.19C-859.512 3129.73-839.126 3113-816.003 3113Z" fill="#00B0F0" fill-rule="evenodd"/><text font-family="Cambria,Cambria_MSFontService,sans-serif" font-weight="400" font-size="73" transform="matrix(1 0 0 1 -391.355 3458)">Psixolog</text><path d="M-341 3212.5C-341 3196.76-328.24 3184-312.499 3184L-198.501 3184C-182.76 3184-170 3196.76-170 3212.5L-170 3336.5C-170 3352.24-182.76 3365-198.501 3365L-312.499 3365C-328.24 3365-341 3352.24-341 3336.5Z" fill="#F2F4F9" fill-rule="evenodd"/><text fill="#767171" font-family="Bahnschrift,Bahnschrift_MSFontService,sans-serif" font-weight="400" font-size="146" transform="matrix(1 0 0 1 -280.215 3331)">1</text><path d="M552.5 2487.07C552.5 2429.32 599.316 2382.5 657.068 2382.5L1693.93 2382.5C1751.68 2382.5 1798.5 2429.32 1798.5 2487.07L1798.5 2832.93C1798.5 2890.68 1751.68 2937.5 1693.93 2937.5L657.068 2937.5C599.316 2937.5 552.5 2890.68 552.5 2832.93Z" stroke="#FFFFFF" stroke-width="4.58333" stroke-miterlimit="8" stroke-dasharray="18.3333 13.75" fill="#FFFFFF" fill-rule="evenodd"/><path d="M618.951 2382 1731.05 2382C1754.15 2382 1774.52 2398.73 1786.55 2424.19L1788 2428 562 2428 563.448 2424.19C575.477 2398.73 595.847 2382 618.951 2382Z" fill="#00B0F0" fill-rule="evenodd"/><text font-family="Cambria,Cambria_MSFontService,sans-serif" font-weight="400" font-size="73" transform="matrix(1 0 0 1 774.811 2727)">O‘quv<tspan font-size="73" x="198.229" y="0">uslubiy</tspan><tspan font-size="73" x="445.156" y="0">boshqarma</tspan></text><path d="M1094 2482.5C1094 2466.76 1106.76 2454 1122.5 2454L1236.5 2454C1252.24 2454 1265 2466.76 1265 2482.5L1265 2606.5C1265 2622.24 1252.24 2635 1236.5 2635L1122.5 2635C1106.76 2635 1094 2622.24 1094 2606.5Z" fill="#F2F4F9" fill-rule="evenodd"/><text fill="#767171" font-family="Bahnschrift,Bahnschrift_MSFontService,sans-serif" font-weight="400" font-size="146" transform="matrix(1 0 0 1 1141.06 2601)">8</text><path d="M552.5 3114.04C552.5 3052.44 602.438 3002.5 664.039 3002.5L1686.96 3002.5C1748.56 3002.5 1798.5 3052.44 1798.5 3114.04L1798.5 3482.96C1798.5 3544.56 1748.56 3594.5 1686.96 3594.5L664.039 3594.5C602.438 3594.5 552.5 3544.56 552.5 3482.96Z" stroke="#FFFFFF" stroke-width="4.58333" stroke-miterlimit="8" stroke-dasharray="18.3333 13.75" fill="#FFFFFF" fill-rule="evenodd"/><path d="M618.951 3002 1731.05 3002C1754.15 3002 1774.52 3018.73 1786.55 3044.19L1788 3048 562 3048 563.448 3044.19C575.477 3018.73 595.847 3002 618.951 3002Z" fill="#00B0F0" fill-rule="evenodd"/><text font-family="Cambria,Cambria_MSFontService,sans-serif" font-weight="400" font-size="73" transform="matrix(1 0 0 1 821.504 3347)">Marketing <tspan font-size="73" x="338.021" y="0">va</tspan><tspan font-size="73" x="427.396" y="0">talabalar</tspan><tspan font-size="73" x="88.8021" y="88">amaliyoti</tspan><tspan font-size="73" x="400.469" y="88">bo‘limi</tspan></text><path d="M1094 3102.5C1094 3086.76 1106.76 3074 1122.5 3074L1236.5 3074C1252.24 3074 1265 3086.76 1265 3102.5L1265 3226.5C1265 3242.24 1252.24 3255 1236.5 3255L1122.5 3255C1106.76 3255 1094 3242.24 1094 3226.5Z" fill="#F2F4F9" fill-rule="evenodd"/><text fill="#767171" font-family="Bahnschrift,Bahnschrift_MSFontService,sans-serif" font-weight="400" font-size="146" transform="matrix(1 0 0 1 1141.06 3221)">4</text><path d="M2002.5 2505.91C2002.5 2437.75 2057.75 2382.5 2125.91 2382.5L3126.09 2382.5C3194.25 2382.5 3249.5 2437.75 3249.5 2505.91L3249.5 2914.09C3249.5 2982.25 3194.25 3037.5 3126.09 3037.5L2125.91 3037.5C2057.75 3037.5 2002.5 2982.25 2002.5 2914.09Z" stroke="#FFFFFF" stroke-width="4.58333" stroke-miterlimit="8" stroke-dasharray="18.3333 13.75" fill="#FFFFFF" fill-rule="evenodd"/><path d="M2069 2382 3182 2382C3205.13 2382 3225.51 2398.73 3237.55 2424.19L3239 2428 2012 2428 2013.45 2424.19C2025.49 2398.73 2045.87 2382 2069 2382Z" fill="#00B0F0" fill-rule="evenodd"/><text font-family="Cambria,Cambria_MSFontService,sans-serif" font-weight="400" font-size="73" transform="matrix(1 0 0 1 2118.43 2727)">Ilmiy<tspan font-size="73" x="179.323" y="0">tadqiqotlar</tspan><tspan font-size="73" x="531.667" y="0">, </tspan>innovatsiyalar<tspan font-size="73" x="-76.198" y="88">ilmiy</tspan><tspan font-size="73" x="83.6458" y="88">-</tspan><tspan font-size="73" x="108.281" y="88">pedagogik</tspan><tspan font-size="73" x="447.448" y="88">kadrlarni</tspan><tspan font-size="73" x="756.823" y="88">tayyorlash</tspan><tspan font-size="73" x="69.0479" y="176">va</tspan><tspan font-size="73" x="158.423" y="176">iqtidorli</tspan><tspan font-size="73" x="431.131" y="176">talabalar</tspan><tspan font-size="73" x="726.756" y="176">bo‘limi</tspan></text><path d="M2544 2482.5C2544 2466.76 2556.76 2454 2572.5 2454L2686.5 2454C2702.24 2454 2715 2466.76 2715 2482.5L2715 2606.5C2715 2622.24 2702.24 2635 2686.5 2635L2572.5 2635C2556.76 2635 2544 2622.24 2544 2606.5Z" fill="#F2F4F9" fill-rule="evenodd"/><text fill="#767171" font-family="Bahnschrift,Bahnschrift_MSFontService,sans-serif" font-weight="400" font-size="146" transform="matrix(1 0 0 1 2591.23 2601)">4</text><path d="M2002.5 3204.91C2002.5 3136.75 2057.75 3081.5 2125.91 3081.5L3126.09 3081.5C3194.25 3081.5 3249.5 3136.75 3249.5 3204.91L3249.5 3613.09C3249.5 3681.25 3194.25 3736.5 3126.09 3736.5L2125.91 3736.5C2057.75 3736.5 2002.5 3681.25 2002.5 3613.09Z" stroke="#FFFFFF" stroke-width="4.58333" stroke-miterlimit="8" stroke-dasharray="18.3333 13.75" fill="#FFFFFF" fill-rule="evenodd"/><path d="M2069 3081 3182 3081C3205.13 3081 3225.51 3097.73 3237.55 3123.19L3239 3127 2012 3127 2013.45 3123.19C2025.49 3097.73 2045.87 3081 2069 3081Z" fill="#00B0F0" fill-rule="evenodd"/><text font-family="Cambria,Cambria_MSFontService,sans-serif" font-weight="400" font-size="73" transform="matrix(1 0 0 1 2146.5 3426)">Raqamli<tspan font-size="73" x="276.146" y="0">ta’lim</tspan><tspan font-size="73" x="470.938" y="0">texnologiyalari</tspan><tspan font-size="73" x="942.448" y="0">, </tspan><tspan font-size="73" x="-36.0938" y="88">mahalliy</tspan><tspan font-size="73" x="252.084" y="88">va</tspan><tspan font-size="73" x="341.459" y="88">xalqaro</tspan><tspan font-size="73" x="594.688" y="88">reyting</tspan><tspan font-size="73" x="835.886" y="88">bilan</tspan><tspan font-size="73" x="156.406" y="176">ishlash</tspan><tspan font-size="73" x="393.594" y="176">boshqarmasi</tspan></text><path d="M2544 3180.5C2544 3164.76 2556.76 3152 2572.5 3152L2686.5 3152C2702.24 3152 2715 3164.76 2715 3180.5L2715 3304.5C2715 3320.24 2702.24 3333 2686.5 3333L2572.5 3333C2556.76 3333 2544 3320.24 2544 3304.5Z" fill="#F2F4F9" fill-rule="evenodd"/><text fill="#767171" font-family="Bahnschrift,Bahnschrift_MSFontService,sans-serif" font-weight="400" font-size="146" transform="matrix(1 0 0 1 2591.23 3299)">6</text><path d="M3465.5 3114.04C3465.5 3052.44 3515.44 3002.5 3577.04 3002.5L4600.96 3002.5C4662.56 3002.5 4712.5 3052.44 4712.5 3114.04L4712.5 3482.96C4712.5 3544.56 4662.56 3594.5 4600.96 3594.5L3577.04 3594.5C3515.44 3594.5 3465.5 3544.56 3465.5 3482.96Z" stroke="#FFFFFF" stroke-width="4.58333" stroke-miterlimit="8" stroke-dasharray="18.3333 13.75" fill="#FFFFFF" fill-rule="evenodd"/><path d="M3532 3002 4645 3002C4668.13 3002 4688.51 3018.73 4700.55 3044.19L4702 3048 3475 3048 3476.45 3044.19C3488.49 3018.73 3508.87 3002 3532 3002Z" fill="#00B0F0" fill-rule="evenodd"/><text font-family="Cambria,Cambria_MSFontService,sans-serif" font-weight="400" font-size="73" transform="matrix(1 0 0 1 3846.3 3347)">Bosh <tspan font-size="73" x="171.875" y="0">muhandis</tspan></text><path d="M4007 3102.5C4007 3086.76 4019.76 3074 4035.5 3074L4149.5 3074C4165.24 3074 4178 3086.76 4178 3102.5L4178 3226.5C4178 3242.24 4165.24 3255 4149.5 3255L4035.5 3255C4019.76 3255 4007 3242.24 4007 3226.5Z" fill="#F2F4F9" fill-rule="evenodd"/><text fill="#767171" font-family="Bahnschrift,Bahnschrift_MSFontService,sans-serif" font-weight="400" font-size="146" transform="matrix(1 0 0 1 4063.44 3221)">1</text><path d="M3465.5 2465.85C3465.5 2404.35 3515.35 2354.5 3576.85 2354.5L4601.15 2354.5C4662.65 2354.5 4712.5 2404.35 4712.5 2465.85L4712.5 2834.15C4712.5 2895.65 4662.65 2945.5 4601.15 2945.5L3576.85 2945.5C3515.35 2945.5 3465.5 2895.65 3465.5 2834.15Z" stroke="#FFFFFF" stroke-width="4.58333" stroke-miterlimit="8" stroke-dasharray="18.3333 13.75" fill="#FFFFFF" fill-rule="evenodd"/><path d="M3532 2354 4645 2354C4668.13 2354 4688.51 2370.73 4700.55 2396.19L4702 2400 3475 2400 3476.45 2396.19C3488.49 2370.73 3508.87 2354 3532 2354Z" fill="#00B0F0" fill-rule="evenodd"/><text font-family="Cambria,Cambria_MSFontService,sans-serif" font-weight="400" font-size="73" transform="matrix(1 0 0 1 3882.1 2721)">Buxgalteriya<tspan font-size="73" x="397.604" y="0">,</tspan><tspan font-size="73" x="-98.5415" y="88">Reja</tspan><tspan font-size="73" x="38.3855" y="88">-</tspan><tspan font-size="73" x="63.021" y="88">moliya</tspan><tspan font-size="73" x="293.333" y="88">bo‘limi</tspan></text><path d="M4007 2453.5C4007 2437.76 4019.76 2425 4035.5 2425L4149.5 2425C4165.24 2425 4178 2437.76 4178 2453.5L4178 2577.5C4178 2593.24 4165.24 2606 4149.5 2606L4035.5 2606C4019.76 2606 4007 2593.24 4007 2577.5Z" fill="#F2F4F9" fill-rule="evenodd"/><text fill="#767171" font-family="Bahnschrift,Bahnschrift_MSFontService,sans-serif" font-weight="400" font-size="146" transform="matrix(1 0 0 1 4054.42 2572)">4</text><path d="M3465.5 3749.85C3465.5 3688.35 3515.35 3638.5 3576.85 3638.5L4601.15 3638.5C4662.65 3638.5 4712.5 3688.35 4712.5 3749.85L4712.5 4118.15C4712.5 4179.65 4662.65 4229.5 4601.15 4229.5L3576.85 4229.5C3515.35 4229.5 3465.5 4179.65 3465.5 4118.15Z" stroke="#FFFFFF" stroke-width="4.58333" stroke-miterlimit="8" stroke-dasharray="18.3333 13.75" fill="#FFFFFF" fill-rule="evenodd"/><path d="M3532 3638 4645 3638C4668.13 3638 4688.51 3654.73 4700.55 3680.19L4702 3684 3475 3684 3476.45 3680.19C3488.49 3654.73 3508.87 3638 3532 3638Z" fill="#00B0F0" fill-rule="evenodd"/><text font-family="Cambria,Cambria_MSFontService,sans-serif" font-weight="400" font-size="73" transform="matrix(1 0 0 1 3741.74 3983)">Texnik<tspan font-size="73" x="214.271" y="0">-</tspan><tspan font-size="73" x="238.906" y="0">foydalanish</tspan><tspan font-size="73" x="619.896" y="0">va</tspan><tspan font-size="73" x="117.173" y="88">xo‘jalik</tspan><tspan font-size="73" x="358.371" y="88">bo‘limi</tspan></text><path d="M4007 3738.5C4007 3722.76 4019.76 3710 4035.5 3710L4149.5 3710C4165.24 3710 4178 3722.76 4178 3738.5L4178 3862.5C4178 3878.24 4165.24 3891 4149.5 3891L4035.5 3891C4019.76 3891 4007 3878.24 4007 3862.5Z" fill="#F2F4F9" fill-rule="evenodd"/><text fill="#767171" font-family="Bahnschrift,Bahnschrift_MSFontService,sans-serif" font-weight="400" font-size="146" transform="matrix(1 0 0 1 4015.95 3857)">22</text><path d="M3465.5 4375.85C3465.5 4314.35 3515.35 4264.5 3576.85 4264.5L4601.15 4264.5C4662.65 4264.5 4712.5 4314.35 4712.5 4375.85L4712.5 4744.15C4712.5 4805.65 4662.65 4855.5 4601.15 4855.5L3576.85 4855.5C3515.35 4855.5 3465.5 4805.65 3465.5 4744.15Z" stroke="#FFFFFF" stroke-width="4.58333" stroke-miterlimit="8" stroke-dasharray="18.3333 13.75" fill="#FFFFFF" fill-rule="evenodd"/><path d="M3532 4264 4645 4264C4668.13 4264 4688.51 4280.73 4700.55 4306.19L4702 4310 3475 4310 3476.45 4306.19C3488.49 4280.73 3508.87 4264 3532 4264Z" fill="#00B0F0" fill-rule="evenodd"/><text font-family="Cambria,Cambria_MSFontService,sans-serif" font-weight="400" font-size="73" transform="matrix(1 0 0 1 3690.74 4609)">Matbuot<tspan font-size="73" x="280.729" y="0">xizmati</tspan><tspan font-size="73" x="528.802" y="0">va</tspan><tspan font-size="73" x="618.177" y="0">qabul</tspan><tspan font-size="73" x="-93.0874" y="88">jarayonlarini</tspan><tspan font-size="73" x="330.298" y="88">muvofiqlashtirish</tspan><tspan font-size="73" x="288.75" y="176">b</tspan><tspan font-size="73" x="328.854" y="176">o‘limi</tspan></text><path d="M4007 4364.5C4007 4348.76 4019.76 4336 4035.5 4336L4149.5 4336C4165.24 4336 4178 4348.76 4178 4364.5L4178 4488.5C4178 4504.24 4165.24 4517 4149.5 4517L4035.5 4517C4019.76 4517 4007 4504.24 4007 4488.5Z" fill="#F2F4F9" fill-rule="evenodd"/><text fill="#767171" font-family="Bahnschrift,Bahnschrift_MSFontService,sans-serif" font-weight="400" font-size="146" transform="matrix(1 0 0 1 4054.42 4483)">9</text><path d="M-882.5 4021.13C-882.5 3971.07-841.925 3930.5-791.874 3930.5L273.874 3930.5C323.925 3930.5 364.5 3971.07 364.5 4021.13L364.5 4320.87C364.5 4370.93 323.925 4411.5 273.874 4411.5L-791.874 4411.5C-841.925 4411.5-882.5 4370.93-882.5 4320.87Z" stroke="#FFFFFF" stroke-width="4.58333" stroke-miterlimit="8" stroke-dasharray="18.3333 13.75" fill="#FFFFFF" fill-rule="evenodd"/><path d="M-816.003 3930 297.003 3930C320.126 3930 340.512 3946.73 352.55 3972.19L354 3976-873 3976-871.551 3972.19C-859.512 3946.73-839.126 3930-816.003 3930Z" fill="#00B0F0" fill-rule="evenodd"/><text font-family="Cambria,Cambria_MSFontService,sans-serif" font-weight="400" font-size="73" transform="matrix(1 0 0 1 -579.272 4275)">Pedagogika<tspan font-size="73" x="376.406" y="0">fakulteti</tspan></text><path d="M-341 4030.5C-341 4014.76-328.24 4002-312.499 4002L-198.501 4002C-182.76 4002-170 4014.76-170 4030.5L-170 4154.5C-170 4170.24-182.76 4183-198.501 4183L-312.499 4183C-328.24 4183-341 4170.24-341 4154.5Z" fill="#F2F4F9" fill-rule="evenodd"/><text fill="#767171" font-family="Bahnschrift,Bahnschrift_MSFontService,sans-serif" font-weight="400" font-size="146" transform="matrix(1 0 0 1 -293.521 4149)">6</text><path d="M562.5 4021.13C562.5 3971.07 603.074 3930.5 653.125 3930.5L1717.87 3930.5C1767.93 3930.5 1808.5 3971.07 1808.5 4021.13L1808.5 4320.87C1808.5 4370.93 1767.93 4411.5 1717.87 4411.5L653.125 4411.5C603.074 4411.5 562.5 4370.93 562.5 4320.87Z" stroke="#FFFFFF" stroke-width="4.58333" stroke-miterlimit="8" stroke-dasharray="18.3333 13.75" fill="#FFFFFF" fill-rule="evenodd"/><path d="M628.951 3930 1741.05 3930C1764.15 3930 1784.52 3946.73 1796.55 3972.19L1798 3976 572 3976 573.448 3972.19C585.477 3946.73 605.847 3930 628.951 3930Z" fill="#00B0F0" fill-rule="evenodd"/><text font-family="Cambria,Cambria_MSFontService,sans-serif" font-weight="400" font-size="73" transform="matrix(1 0 0 1 765.034 4275)">Filologiya<tspan font-size="73" x="324.271" y="0">va</tspan><tspan font-size="73" x="413.646" y="0">tarix</tspan><tspan font-size="73" x="576.927" y="0">fakulteti</tspan></text><path d="M1104 4030.5C1104 4014.76 1116.76 4002 1132.5 4002L1246.5 4002C1262.24 4002 1275 4014.76 1275 4030.5L1275 4154.5C1275 4170.24 1262.24 4183 1246.5 4183L1132.5 4183C1116.76 4183 1104 4170.24 1104 4154.5Z" fill="#F2F4F9" fill-rule="evenodd"/><text fill="#767171" font-family="Bahnschrift,Bahnschrift_MSFontService,sans-serif" font-weight="400" font-size="146" transform="matrix(1 0 0 1 1150.57 4149)">6</text><path d="M2002.5 4021.13C2002.5 3971.07 2043.07 3930.5 2093.13 3930.5L3158.87 3930.5C3208.93 3930.5 3249.5 3971.07 3249.5 4021.13L3249.5 4320.87C3249.5 4370.93 3208.93 4411.5 3158.87 4411.5L2093.13 4411.5C2043.07 4411.5 2002.5 4370.93 2002.5 4320.87Z" stroke="#FFFFFF" stroke-width="4.58333" stroke-miterlimit="8" stroke-dasharray="18.3333 13.75" fill="#FFFFFF" fill-rule="evenodd"/><path d="M2069 3930 3182 3930C3205.13 3930 3225.51 3946.73 3237.55 3972.19L3239 3976 2012 3976 2013.45 3972.19C2025.49 3946.73 2045.87 3930 2069 3930Z" fill="#00B0F0" fill-rule="evenodd"/><text font-family="Cambria,Cambria_MSFontService,sans-serif" font-weight="400" font-size="73" transform="matrix(1 0 0 1 2137.91 4275)">Matematika<tspan font-size="73" x="389.011" y="0">va</tspan><tspan font-size="73" x="478.386" y="0">iqtisod</tspan><tspan font-size="73" x="711.563" y="0">fakulteti</tspan></text><path d="M2544 4030.5C2544 4014.76 2556.76 4002 2572.5 4002L2686.5 4002C2702.24 4002 2715 4014.76 2715 4030.5L2715 4154.5C2715 4170.24 2702.24 4183 2686.5 4183L2572.5 4183C2556.76 4183 2544 4170.24 2544 4154.5Z" fill="#F2F4F9" fill-rule="evenodd"/><text fill="#767171" font-family="Bahnschrift,Bahnschrift_MSFontService,sans-serif" font-weight="400" font-size="146" transform="matrix(1 0 0 1 2591.24 4149)">6</text><path d="M-882.5 4549.93C-882.5 4510.48-850.52 4478.5-811.072 4478.5L293.072 4478.5C332.52 4478.5 364.5 4510.48 364.5 4549.93L364.5 4735.07C364.5 4774.52 332.52 4806.5 293.072 4806.5L-811.072 4806.5C-850.52 4806.5-882.5 4774.52-882.5 4735.07Z" stroke="#FFFFFF" stroke-width="4.58333" stroke-miterlimit="8" stroke-dasharray="18.3333 13.75" fill="#FFFFFF" fill-rule="evenodd"/><path d="M-816.003 4478 297.003 4478C320.126 4478 340.512 4494.73 352.55 4520.19L354 4524-873 4524-871.551 4520.19C-859.512 4494.73-839.126 4478-816.003 4478Z" fill="#00B0F0" fill-rule="evenodd"/><text font-family="Cambria,Cambria_MSFontService,sans-serif" font-weight="400" font-size="73" transform="matrix(1 0 0 1 -563.814 4644)">Pedagogik<tspan font-size="73" x="340.313" y="0">ta’lim</tspan><tspan font-size="73" x="535.104" y="0">va</tspan><tspan font-size="73" x="-27.775" y="88">psixologiya</tspan><tspan font-size="73" x="344.621" y="88">kafedrasi</tspan></text><path d="M-882.5 4926.93C-882.5 4887.48-850.52 4855.5-811.072 4855.5L293.072 4855.5C332.52 4855.5 364.5 4887.48 364.5 4926.93L364.5 5112.07C364.5 5151.52 332.52 5183.5 293.072 5183.5L-811.072 5183.5C-850.52 5183.5-882.5 5151.52-882.5 5112.07Z" stroke="#FFFFFF" stroke-width="4.58333" stroke-miterlimit="8" stroke-dasharray="18.3333 13.75" fill="#FFFFFF" fill-rule="evenodd"/><path d="M-816.003 4855 297.003 4855C320.126 4855 340.512 4871.73 352.55 4897.19L354 4901-873 4901-871.551 4897.19C-859.512 4871.73-839.126 4855-816.003 4855Z" fill="#00B0F0" fill-rule="evenodd"/><text font-family="Cambria,Cambria_MSFontService,sans-serif" font-weight="400" font-size="73" transform="matrix(1 0 0 1 -635.417 5061)">Sport <tspan font-size="73" x="187.344" y="0">faoliyati</tspan><tspan font-size="73" x="460.052" y="0">kafedrasi</tspan></text><path d="M562.5 4549.93C562.5 4510.48 594.479 4478.5 633.928 4478.5L1737.07 4478.5C1776.52 4478.5 1808.5 4510.48 1808.5 4549.93L1808.5 4735.07C1808.5 4774.52 1776.52 4806.5 1737.07 4806.5L633.928 4806.5C594.479 4806.5 562.5 4774.52 562.5 4735.07Z" stroke="#FFFFFF" stroke-width="4.58333" stroke-miterlimit="8" stroke-dasharray="18.3333 13.75" fill="#FFFFFF" fill-rule="evenodd"/><path d="M628.951 4478 1741.05 4478C1764.15 4478 1784.52 4494.73 1796.55 4520.19L1798 4524 572 4524 573.448 4520.19C585.477 4494.73 605.847 4478 628.951 4478Z" fill="#00B0F0" fill-rule="evenodd"/><text font-family="Cambria,Cambria_MSFontService,sans-serif" font-weight="400" font-size="73" transform="matrix(1 0 0 1 877.039 4684)">Filologiya<tspan font-size="73" x="324.271" y="0">kafedrasi</tspan></text><path d="M562.5 4926.93C562.5 4887.48 594.479 4855.5 633.928 4855.5L1737.07 4855.5C1776.52 4855.5 1808.5 4887.48 1808.5 4926.93L1808.5 5112.07C1808.5 5151.52 1776.52 5183.5 1737.07 5183.5L633.928 5183.5C594.479 5183.5 562.5 5151.52 562.5 5112.07Z" stroke="#FFFFFF" stroke-width="4.58333" stroke-miterlimit="8" stroke-dasharray="18.3333 13.75" fill="#FFFFFF" fill-rule="evenodd"/><path d="M628.951 4855 1741.05 4855C1764.15 4855 1784.52 4871.73 1796.55 4897.19L1798 4901 572 4901 573.448 4897.19C585.477 4871.73 605.847 4855 628.951 4855Z" fill="#00B0F0" fill-rule="evenodd"/><text font-family="Cambria,Cambria_MSFontService,sans-serif" font-weight="400" font-size="73" transform="matrix(1 0 0 1 865.867 5061)">Chet <tspan font-size="73" x="158.125" y="0">tillari</tspan><tspan font-size="73" x="346.615" y="0">kafedrasi</tspan></text><path d="M2002.5 4549.93C2002.5 4510.48 2034.48 4478.5 2073.93 4478.5L3178.07 4478.5C3217.52 4478.5 3249.5 4510.48 3249.5 4549.93L3249.5 4735.07C3249.5 4774.52 3217.52 4806.5 3178.07 4806.5L2073.93 4806.5C2034.48 4806.5 2002.5 4774.52 2002.5 4735.07Z" stroke="#FFFFFF" stroke-width="4.58333" stroke-miterlimit="8" stroke-dasharray="18.3333 13.75" fill="#FFFFFF" fill-rule="evenodd"/><path d="M2069 4478 3182 4478C3205.13 4478 3225.51 4494.73 3237.55 4520.19L3239 4524 2012 4524 2013.45 4520.19C2025.49 4494.73 2045.87 4478 2069 4478Z" fill="#00B0F0" fill-rule="evenodd"/><text font-family="Cambria,Cambria_MSFontService,sans-serif" font-weight="400" font-size="73" transform="matrix(1 0 0 1 2195.48 4647)">Matematika<tspan font-size="73" x="389.01" y="0">va</tspan><tspan font-size="73" x="478.385" y="0">tabiiy</tspan><tspan font-size="73" x="673.75" y="0">fanlar</tspan><tspan font-size="73" x="283.892" y="88">kafedrasi</tspan></text><path d="M2002.5 4926.93C2002.5 4887.48 2034.48 4855.5 2073.93 4855.5L3178.07 4855.5C3217.52 4855.5 3249.5 4887.48 3249.5 4926.93L3249.5 5112.07C3249.5 5151.52 3217.52 5183.5 3178.07 5183.5L2073.93 5183.5C2034.48 5183.5 2002.5 5151.52 2002.5 5112.07Z" stroke="#FFFFFF" stroke-width="4.58333" stroke-miterlimit="8" stroke-dasharray="18.3333 13.75" fill="#FFFFFF" fill-rule="evenodd"/><path d="M2069 4855 3182 4855C3205.13 4855 3225.51 4871.73 3237.55 4897.19L3239 4901 2012 4901 2013.45 4897.19C2025.49 4871.73 2045.87 4855 2069 4855Z" fill="#00B0F0" fill-rule="evenodd"/><text font-family="Cambria,Cambria_MSFontService,sans-serif" font-weight="400" font-size="73" transform="matrix(1 0 0 1 2254.21 5027)">Axborot<tspan font-size="73" x="270.417" y="0">texnologiyalari</tspan><tspan font-size="73" x="225.156" y="88">kafedrasi</tspan></text><path d="M562.5 5304.93C562.5 5265.48 594.479 5233.5 633.928 5233.5L1737.07 5233.5C1776.52 5233.5 1808.5 5265.48 1808.5 5304.93L1808.5 5490.07C1808.5 5529.52 1776.52 5561.5 1737.07 5561.5L633.928 5561.5C594.479 5561.5 562.5 5529.52 562.5 5490.07Z" stroke="#FFFFFF" stroke-width="4.58333" stroke-miterlimit="8" stroke-dasharray="18.3333 13.75" fill="#FFFFFF" fill-rule="evenodd"/><path d="M628.951 5233 1741.05 5233C1764.15 5233 1784.52 5249.73 1796.55 5275.19L1798 5279 572 5279 573.448 5275.19C585.477 5249.73 605.847 5233 628.951 5233Z" fill="#00B0F0" fill-rule="evenodd"/><text font-family="Cambria,Cambria_MSFontService,sans-serif" font-weight="400" font-size="73" transform="matrix(1 0 0 1 773.055 5439)">Xorijiy<tspan font-size="73" x="225.156" y="0">filologiya</tspan><tspan font-size="73" x="532.24" y="0">kafedrasi</tspan></text><path d="M562.5 5681.93C562.5 5642.48 594.479 5610.5 633.928 5610.5L1737.07 5610.5C1776.52 5610.5 1808.5 5642.48 1808.5 5681.93L1808.5 5867.07C1808.5 5906.52 1776.52 5938.5 1737.07 5938.5L633.928 5938.5C594.479 5938.5 562.5 5906.52 562.5 5867.07Z" stroke="#FFFFFF" stroke-width="4.58333" stroke-miterlimit="8" stroke-dasharray="18.3333 13.75" fill="#FFFFFF" fill-rule="evenodd"/><path d="M628.951 5610 1741.05 5610C1764.15 5610 1784.52 5626.73 1796.55 5652.19L1798 5656 572 5656 573.448 5652.19C585.477 5626.73 605.847 5610 628.951 5610Z" fill="#00B0F0" fill-rule="evenodd"/><text font-family="Cambria,Cambria_MSFontService,sans-serif" font-weight="400" font-size="73" transform="matrix(1 0 0 1 839.513 5816)">Ijtimoiy<tspan font-size="73" x="246.927" y="0">-</tspan><tspan font-size="73" x="271.562" y="0">siyosiy</tspan><tspan font-size="73" x="505.312" y="0">fanlar</tspan><tspan font-size="73" x="199.673" y="88">kafedrasi</tspan></text><path d="M2002.5 5304.93C2002.5 5265.48 2034.48 5233.5 2073.93 5233.5L3178.07 5233.5C3217.52 5233.5 3249.5 5265.48 3249.5 5304.93L3249.5 5490.07C3249.5 5529.52 3217.52 5561.5 3178.07 5561.5L2073.93 5561.5C2034.48 5561.5 2002.5 5529.52 2002.5 5490.07Z" stroke="#FFFFFF" stroke-width="4.58333" stroke-miterlimit="8" stroke-dasharray="18.3333 13.75" fill="#FFFFFF" fill-rule="evenodd"/><path d="M2069 5233 3182 5233C3205.13 5233 3225.51 5249.73 3237.55 5275.19L3239 5279 2012 5279 2013.45 5275.19C2025.49 5249.73 2045.87 5233 2069 5233Z" fill="#00B0F0" fill-rule="evenodd"/><text font-family="Cambria,Cambria_MSFontService,sans-serif" font-weight="400" font-size="73" transform="matrix(1 0 0 1 2300.33 5439)">Iqtisodiyot<tspan font-size="73" x="358.073" y="0">kafedrasi</tspan></text><path d="M2002.5 5681.93C2002.5 5642.48 2034.48 5610.5 2073.93 5610.5L3178.07 5610.5C3217.52 5610.5 3249.5 5642.48 3249.5 5681.93L3249.5 5867.07C3249.5 5906.52 3217.52 5938.5 3178.07 5938.5L2073.93 5938.5C2034.48 5938.5 2002.5 5906.52 2002.5 5867.07Z" stroke="#FFFFFF" stroke-width="4.58333" stroke-miterlimit="8" stroke-dasharray="18.3333 13.75" fill="#FFFFFF" fill-rule="evenodd"/><path d="M2069 5610 3182 5610C3205.13 5610 3225.51 5626.73 3237.55 5652.19L3239 5656 2012 5656 2013.45 5652.19C2025.49 5626.73 2045.87 5610 2069 5610Z" fill="#00B0F0" fill-rule="evenodd"/><text font-family="Cambria,Cambria_MSFontService,sans-serif" font-weight="400" font-size="73" transform="matrix(1 0 0 1 2257.64 5816)">Moliya<tspan font-size="73" x="212.552" y="0">-</tspan><tspan font-size="73" x="237.188" y="0">kredit</tspan><tspan font-size="73" x="443.438" y="0">kafedrasi</tspan></text><path d="M3475.5 5791.85C3475.5 5730.35 3525.35 5680.5 3586.85 5680.5L4611.15 5680.5C4672.65 5680.5 4722.5 5730.35 4722.5 5791.85L4722.5 6160.15C4722.5 6221.65 4672.65 6271.5 4611.15 6271.5L3586.85 6271.5C3525.35 6271.5 3475.5 6221.65 3475.5 6160.15Z" stroke="#FFFFFF" stroke-width="4.58333" stroke-miterlimit="8" stroke-dasharray="18.3333 13.75" fill="#FFFFFF" fill-rule="evenodd"/><path d="M3542 5680 4655 5680C4678.13 5680 4698.51 5696.73 4710.55 5722.19L4712 5726 3485 5726 3486.45 5722.19C3498.49 5696.73 3518.87 5680 3542 5680Z" fill="#00B0F0" fill-rule="evenodd"/><text font-family="Cambria,Cambria_MSFontService,sans-serif" font-weight="400" font-size="73" transform="matrix(1 0 0 1 3660.06 6047)">Ta’lim<tspan font-size="73" x="213.698" y="0">sifatini</tspan><tspan font-size="73" x="446.875" y="0">nazorat</tspan><tspan font-size="73" x="702.969" y="0">qilish</tspan><tspan font-size="73" x="329.427" y="88">bo‘limi</tspan></text><path d="M4017 5780.5C4017 5764.76 4029.76 5752 4045.5 5752L4159.5 5752C4175.24 5752 4188 5764.76 4188 5780.5L4188 5904.5C4188 5920.24 4175.24 5933 4159.5 5933L4045.5 5933C4029.76 5933 4017 5920.24 4017 5904.5Z" fill="#F2F4F9" fill-rule="evenodd"/><text fill="#767171" font-family="Bahnschrift,Bahnschrift_MSFontService,sans-serif" font-weight="400" font-size="146" transform="matrix(1 0 0 1 4064.41 5899)">3</text><path d="M3475.5 5149.85C3475.5 5088.35 3525.35 5038.5 3586.85 5038.5L4611.15 5038.5C4672.65 5038.5 4722.5 5088.35 4722.5 5149.85L4722.5 5518.15C4722.5 5579.65 4672.65 5629.5 4611.15 5629.5L3586.85 5629.5C3525.35 5629.5 3475.5 5579.65 3475.5 5518.15Z" stroke="#FFFFFF" stroke-width="4.58333" stroke-miterlimit="8" stroke-dasharray="18.3333 13.75" fill="#FFFFFF" fill-rule="evenodd"/><path d="M3542 5038 4655 5038C4678.13 5038 4698.51 5054.73 4710.55 5080.19L4712 5084 3485 5084 3486.45 5080.19C3498.49 5054.73 3518.87 5038 3542 5038Z" fill="#00B0F0" fill-rule="evenodd"/><text font-family="Cambria,Cambria_MSFontService,sans-serif" font-weight="400" font-size="73" transform="matrix(1 0 0 1 3689.28 5405)">Xalqaro<tspan font-size="73" x="259.531" y="0">hamkorlik</tspan><tspan font-size="73" x="600.417" y="0">bo‘limi</tspan></text><path d="M4017 5138.5C4017 5122.76 4029.76 5110 4045.5 5110L4159.5 5110C4175.24 5110 4188 5122.76 4188 5138.5L4188 5262.5C4188 5278.24 4175.24 5291 4159.5 5291L4045.5 5291C4029.76 5291 4017 5278.24 4017 5262.5Z" fill="#F2F4F9" fill-rule="evenodd"/><text fill="#767171" font-family="Bahnschrift,Bahnschrift_MSFontService,sans-serif" font-weight="400" font-size="146" transform="matrix(1 0 0 1 4064.41 5257)">3</text><path d="M3475.5 6438.71C3475.5 6372.32 3529.32 6318.5 3595.71 6318.5L4602.29 6318.5C4668.68 6318.5 4722.5 6372.32 4722.5 6438.71L4722.5 6836.29C4722.5 6902.68 4668.68 6956.5 4602.29 6956.5L3595.71 6956.5C3529.32 6956.5 3475.5 6902.68 3475.5 6836.29Z" stroke="#FFFFFF" stroke-width="4.58333" stroke-miterlimit="8" stroke-dasharray="18.3333 13.75" fill="#FFFFFF" fill-rule="evenodd"/><path d="M3542 6318 4655 6318C4678.13 6318 4698.51 6334.73 4710.55 6360.19L4712 6364 3485 6364 3486.45 6360.19C3498.49 6334.73 3518.87 6318 3542 6318Z" fill="#00B0F0" fill-rule="evenodd"/><text font-family="Cambria,Cambria_MSFontService,sans-serif" font-weight="400" font-size="73" transform="matrix(1 0 0 1 3579.28 6686)">Jismoniy<tspan font-size="73" x="289.323" y="0">va</tspan><tspan font-size="73" x="378.698" y="0">yuridek</tspan><tspan font-size="73" x="638.229" y="0">shaxslarning</tspan><tspan font-size="73" x="13.4522" y="88">murojaatlari</tspan><tspan font-size="73" x="424.233" y="88">bilan</tspan><tspan font-size="73" x="597.827" y="88">ishlash</tspan><tspan font-size="73" x="818.973" y="88">, </tspan>arxiv, <tspan font-size="73" x="52.9834" y="176">nazorat</tspan><tspan font-size="73" x="309.077" y="176">va</tspan><tspan font-size="73" x="398.452" y="176">monitoring </tspan><tspan font-size="73" x="767.41" y="176">bo‘limi</tspan></text><path d="M4017 6418.5C4017 6402.76 4029.76 6390 4045.5 6390L4159.5 6390C4175.24 6390 4188 6402.76 4188 6418.5L4188 6542.5C4188 6558.24 4175.24 6571 4159.5 6571L4045.5 6571C4029.76 6571 4017 6558.24 4017 6542.5Z" fill="#F2F4F9" fill-rule="evenodd"/><text fill="#767171" font-family="Bahnschrift,Bahnschrift_MSFontService,sans-serif" font-weight="400" font-size="146" transform="matrix(1 0 0 1 4064.41 6537)">3</text><path d="M3475.5 7114.85C3475.5 7053.35 3525.35 7003.5 3586.85 7003.5L4611.15 7003.5C4672.65 7003.5 4722.5 7053.35 4722.5 7114.85L4722.5 7483.15C4722.5 7544.65 4672.65 7594.5 4611.15 7594.5L3586.85 7594.5C3525.35 7594.5 3475.5 7544.65 3475.5 7483.15Z" stroke="#FFFFFF" stroke-width="4.58333" stroke-miterlimit="8" stroke-dasharray="18.3333 13.75" fill="#FFFFFF" fill-rule="evenodd"/><path d="M3542 7003 4655 7003C4678.13 7003 4698.51 7019.73 4710.55 7045.19L4712 7049 3485 7049 3486.45 7045.19C3498.49 7019.73 3518.87 7003 3542 7003Z" fill="#00B0F0" fill-rule="evenodd"/><text font-family="Cambria,Cambria_MSFontService,sans-serif" font-weight="400" font-size="73" transform="matrix(1 0 0 1 3836.52 7370)">Xodimlar<tspan font-size="73" x="305.938" y="0">bo‘limi</tspan></text><path d="M4017 7103.5C4017 7087.76 4029.76 7075 4045.5 7075L4159.5 7075C4175.24 7075 4188 7087.76 4188 7103.5L4188 7226.5C4188 7242.24 4175.24 7255 4159.5 7255L4045.5 7255C4029.76 7255 4017 7242.24 4017 7226.5Z" fill="#F2F4F9" fill-rule="evenodd"/><text fill="#767171" font-family="Bahnschrift,Bahnschrift_MSFontService,sans-serif" font-weight="400" font-size="146" transform="matrix(1 0 0 1 4064.41 7221)">2</text><path d="M3475.5 7730.14C3475.5 7687.26 3510.26 7652.5 3553.14 7652.5L4644.86 7652.5C4687.74 7652.5 4722.5 7687.26 4722.5 7730.14L4722.5 8057.86C4722.5 8100.74 4687.74 8135.5 4644.86 8135.5L3553.14 8135.5C3510.26 8135.5 3475.5 8100.74 3475.5 8057.86Z" stroke="#FFFFFF" stroke-width="4.58333" stroke-miterlimit="8" stroke-dasharray="18.3333 13.75" fill="#FFFFFF" fill-rule="evenodd"/><path d="M3542 7652 4655 7652C4678.13 7652 4698.51 7668.73 4710.55 7694.19L4712 7698 3485 7698 3486.45 7694.19C3498.49 7668.73 3518.87 7652 3542 7652Z" fill="#00B0F0" fill-rule="evenodd"/><text font-family="Cambria,Cambria_MSFontService,sans-serif" font-weight="400" font-size="73" transform="matrix(1 0 0 1 3658.07 7853)">Yuristkonsult<tspan font-size="73" x="424.531" y="0">. </tspan><tspan font-size="73" x="455.469" y="0">Korrupsiyaga</tspan><tspan font-size="73" x="-38.6834" y="88">qarshi</tspan><tspan font-size="73" x="176.733" y="88">kurashish</tspan><tspan font-size="73" x="503.296" y="88">“</tspan>Komplayens<tspan font-size="73" x="-6.0271" y="176">nazorat</tspan><tspan font-size="73" x="234.025" y="176">” </tspan><tspan font-size="73" x="277.567" y="176">tizimini</tspan><tspan font-size="73" x="535.952" y="176">boshqarish</tspan></text><path d="M3475.5 8277.91C3475.5 8231.29 3513.29 8193.5 3559.91 8193.5L4638.09 8193.5C4684.71 8193.5 4722.5 8231.29 4722.5 8277.91L4722.5 8450.09C4722.5 8496.71 4684.71 8534.5 4638.09 8534.5L3559.91 8534.5C3513.29 8534.5 3475.5 8496.71 3475.5 8450.09Z" stroke="#FFFFFF" stroke-width="4.58333" stroke-miterlimit="8" stroke-dasharray="18.3333 13.75" fill="#FFFFFF" fill-rule="evenodd"/><path d="M3542 8193 4655 8193C4678.13 8193 4698.51 8209.73 4710.55 8235.19L4712 8239 3485 8239 3486.45 8235.19C3498.49 8209.73 3518.87 8193 3542 8193Z" fill="#00B0F0" fill-rule="evenodd"/><text font-family="Cambria,Cambria_MSFontService,sans-serif" font-weight="400" font-size="73" transform="matrix(1 0 0 1 3690.43 8378)">Oliy<tspan font-size="73" x="142.083" y="0">ta’lim</tspan><tspan font-size="73" x="336.875" y="0">kengashi</tspan><tspan font-size="73" x="632.5" y="0">kotibi</tspan></text></g></svg>