<svg width="7612" height="5458" xmlns="http://www.w3.org/2000/svg" xmlns:xlink="http://www.w3.org/1999/xlink" xml:space="preserve" overflow="hidden"><g transform="translate(1156 4015)"><path d="M-179.5-3944.43C-179.5-3981.47-149.47-4011.5-112.426-4011.5L1000.43-4011.5C1037.47-4011.5 1067.5-3981.47 1067.5-3944.43L1067.5-3722.57C1067.5-3685.53 1037.47-3655.5 1000.43-3655.5L-112.426-3655.5C-149.47-3655.5-179.5-3685.53-179.5-3722.57Z" stroke="#145FCB" stroke-width="6.875" stroke-miterlimit="8" stroke-dasharray="27.5 20.625" fill="none" fill-rule="evenodd"/><path d="M-113.003-4012 1000-4012C1023.13-4012 1043.51-4000.36 1055.55-3982.65L1057-3980-170-3980-168.551-3982.65C-156.512-4000.36-136.126-4012-113.003-4012Z" fill="#145FCB" fill-rule="evenodd"/><text font-family="Cambria,Cambria_MSFontService,sans-serif" font-weight="700" font-size="73" transform="matrix(1 0 0 1 142.899 -3803)">Founders' Council</text><path d="M1291.5-3944.43C1291.5-3981.47 1321.53-4011.5 1358.57-4011.5L2471.43-4011.5C2508.47-4011.5 2538.5-3981.47 2538.5-3944.43L2538.5-3722.57C2538.5-3685.53 2508.47-3655.5 2471.43-3655.5L1358.57-3655.5C1321.53-3655.5 1291.5-3685.53 1291.5-3722.57Z" stroke="#002060" stroke-width="6.875" stroke-miterlimit="8" stroke-dasharray="27.5 20.625" fill="none" fill-rule="evenodd"/><path d="M1358-4012 2471-4012C2494.13-4012 2514.51-4000.36 2526.55-3982.65L2528-3980 1301-3980 1302.45-3982.65C1314.49-4000.36 1334.87-4012 1358-4012Z" fill="#002060" fill-rule="evenodd"/><text font-family="Cambria,Cambria_MSFontService,sans-serif" font-weight="700" font-size="73" transform="matrix(1 0 0 1 1647.19 -3850)">President of the </text><text font-family="Cambria,Cambria_MSFontService,sans-serif" font-weight="700" font-size="73" transform="matrix(1 0 0 1 1740.9 -3762)">University</text><path d="M1291.5-3429.9C1291.5-3476.63 1329.37-3514.5 1376.1-3514.5L2453.9-3514.5C2500.63-3514.5 2538.5-3476.63 2538.5-3429.9L2538.5-3150.1C2538.5-3103.37 2500.63-3065.5 2453.9-3065.5L1376.1-3065.5C1329.37-3065.5 1291.5-3103.37 1291.5-3150.1Z" stroke="#FFFFFF" stroke-width="6.875" stroke-miterlimit="8" stroke-dasharray="27.5 20.625" fill="#FFFFFF" fill-rule="evenodd"/><path d="M1358-3515 2471-3515C2494.13-3515 2514.51-3500.08 2526.55-3477.4L2528-3474 1301-3474 1302.45-3477.4C1314.49-3500.08 1334.87-3515 1358-3515Z" fill="#002060" fill-rule="evenodd"/><text font-family="Cambria,Cambria_MSFontService,sans-serif" font-weight="700" font-size="83" transform="matrix(1 0 0 1 1789.76 -3307)">Re</text><text font-family="Cambria,Cambria_MSFontService,sans-serif" font-weight="700" font-size="83" transform="matrix(1 0 0 1 1886.24 -3307)">c</text><text font-family="Cambria,Cambria_MSFontService,sans-serif" font-weight="700" font-size="83" transform="matrix(1 0 0 1 1925.2 -3307)">tor</text><text font-family="Cambria,Cambria_MSFontService,sans-serif" font-weight="400" font-size="64" transform="matrix(1 0 0 1 1460 -3198)">Nusratilla</text><text font-family="Cambria,Cambria_MSFontService,sans-serif" font-weight="400" font-size="64" transform="matrix(1 0 0 1 1743.07 -3198)">Radjabovich</text><text font-family="Cambria,Cambria_MSFontService,sans-serif" font-weight="400" font-size="64" transform="matrix(1 0 0 1 2093.97 -3198)">Barakaev</text><path d="M-179.5-3400.61C-179.5-3437.55-149.554-3467.5-112.614-3467.5L1000.61-3467.5C1037.55-3467.5 1067.5-3437.55 1067.5-3400.61L1067.5-3179.39C1067.5-3142.45 1037.55-3112.5 1000.61-3112.5L-112.614-3112.5C-149.554-3112.5-179.5-3142.45-179.5-3179.39Z" stroke="#FFFFFF" stroke-width="6.875" stroke-miterlimit="8" stroke-dasharray="27.5 20.625" fill="#FFFFFF" fill-rule="evenodd"/><path d="M-113.003-3468 1000-3468C1023.13-3468 1043.51-3456.36 1055.55-3438.65L1057-3436-170-3436-168.551-3438.65C-156.512-3456.36-136.126-3468-113.003-3468Z" fill="#145FCB" fill-rule="evenodd"/><text font-family="Cambria,Cambria_MSFontService,sans-serif" font-weight="700" font-size="73" transform="matrix(1 0 0 1 136.815 -3259)">University Council</text><path d="M2772.5-3400.61C2772.5-3437.55 2802.45-3467.5 2839.39-3467.5L3952.61-3467.5C3989.55-3467.5 4019.5-3437.55 4019.5-3400.61L4019.5-3179.39C4019.5-3142.45 3989.55-3112.5 3952.61-3112.5L2839.39-3112.5C2802.45-3112.5 2772.5-3142.45 2772.5-3179.39Z" stroke="#FFFFFF" stroke-width="6.875" stroke-miterlimit="8" stroke-dasharray="27.5 20.625" fill="#FFFFFF" fill-rule="evenodd"/><path d="M2839-3468 3952-3468C3975.13-3468 3995.51-3456.36 4007.55-3438.65L4009-3436 2782-3436 2783.45-3438.65C2795.49-3456.36 2815.87-3468 2839-3468Z" fill="#697FD7" fill-rule="evenodd"/><text font-family="Cambria,Cambria_MSFontService,sans-serif" font-weight="700" font-size="73" transform="matrix(1 0 0 1 3041.8 -3259)">Advisor to the Rector</text><path d="M-882.5-2623.98C-882.5-2676.73-839.732-2719.5-786.976-2719.5L268.976-2719.5C321.732-2719.5 364.5-2676.73 364.5-2623.98L364.5-2308.02C364.5-2255.27 321.732-2212.5 268.976-2212.5L-786.976-2212.5C-839.732-2212.5-882.5-2255.27-882.5-2308.02Z" stroke="#FFFFFF" stroke-width="6.875" stroke-miterlimit="8" stroke-dasharray="27.5 20.625" fill="#FFFFFF" fill-rule="evenodd"/><path d="M-816.003-2720 297.003-2720C320.126-2720 340.512-2703.27 352.55-2677.81L354-2674-873-2674-871.551-2677.81C-859.512-2703.27-839.126-2720-816.003-2720Z" fill="#329CC6" fill-rule="evenodd"/><text font-family="Cambria,Cambria_MSFontService,sans-serif" font-weight="400" font-size="73" transform="matrix(1 0 0 1 -673.734 -2515)">First Vice</text><text font-family="Cambria,Cambria_MSFontService,sans-serif" font-weight="400" font-size="73" transform="matrix(1 0 0 1 -378.682 -2515)">-</text><text font-family="Cambria,Cambria_MSFontService,sans-serif" font-weight="400" font-size="73" transform="matrix(1 0 0 1 -354.046 -2515)">Rector for Youth </text><text font-family="Cambria,Cambria_MSFontService,sans-serif" font-weight="400" font-size="73" transform="matrix(1 0 0 1 -585.986 -2427)">Affairs and Spiritual</text><text font-family="Cambria,Cambria_MSFontService,sans-serif" font-weight="400" font-size="73" transform="matrix(1 0 0 1 42.2058 -2427)">-</text><text font-family="Cambria,Cambria_MSFontService,sans-serif" font-weight="400" font-size="73" transform="matrix(1 0 0 1 -539.213 -2339)">Educational Work</text><path d="M552.5-2623.98C552.5-2676.73 595.267-2719.5 648.024-2719.5L1702.98-2719.5C1755.73-2719.5 1798.5-2676.73 1798.5-2623.98L1798.5-2308.02C1798.5-2255.27 1755.73-2212.5 1702.98-2212.5L648.024-2212.5C595.267-2212.5 552.5-2255.27 552.5-2308.02Z" stroke="#FFFFFF" stroke-width="6.875" stroke-miterlimit="8" stroke-dasharray="27.5 20.625" fill="#FFFFFF" fill-rule="evenodd"/><path d="M618.951-2720 1731.05-2720C1754.15-2720 1774.52-2703.27 1786.55-2677.81L1788-2674 562-2674 563.448-2677.81C575.477-2703.27 595.847-2720 618.951-2720Z" fill="#7030A0" fill-rule="evenodd"/><text font-family="Cambria,Cambria_MSFontService,sans-serif" font-weight="400" font-size="73" transform="matrix(1 0 0 1 780.541 -2460)">Vice</text><text font-family="Cambria,Cambria_MSFontService,sans-serif" font-weight="400" font-size="73" transform="matrix(1 0 0 1 912.884 -2460)">-</text><text font-family="Cambria,Cambria_MSFontService,sans-serif" font-weight="400" font-size="73" transform="matrix(1 0 0 1 937.52 -2460)">Rector for Academic </text><text font-family="Cambria,Cambria_MSFontService,sans-serif" font-weight="400" font-size="73" transform="matrix(1 0 0 1 1070.87 -2372)">Affairs</text><path d="M2002.5-2623.98C2002.5-2676.73 2045.27-2719.5 2098.02-2719.5L3153.98-2719.5C3206.73-2719.5 3249.5-2676.73 3249.5-2623.98L3249.5-2308.02C3249.5-2255.27 3206.73-2212.5 3153.98-2212.5L2098.02-2212.5C2045.27-2212.5 2002.5-2255.27 2002.5-2308.02Z" stroke="#FFFFFF" stroke-width="6.875" stroke-miterlimit="8" stroke-dasharray="27.5 20.625" fill="#FFFFFF" fill-rule="evenodd"/><path d="M2069-2720 3182-2720C3205.13-2720 3225.51-2703.27 3237.55-2677.81L3239-2674 2012-2674 2013.45-2677.81C2025.49-2703.27 2045.87-2720 2069-2720Z" fill="#145FCB" fill-rule="evenodd"/><text font-family="Cambria,Cambria_MSFontService,sans-serif" font-weight="400" font-size="73" transform="matrix(1 0 0 1 2141.53 -2473)">Vice</text><text font-family="Cambria,Cambria_MSFontService,sans-serif" font-weight="400" font-size="73" transform="matrix(1 0 0 1 2273.87 -2473)">-</text><text font-family="Cambria,Cambria_MSFontService,sans-serif" font-weight="400" font-size="73" transform="matrix(1 0 0 1 2298.51 -2473)">Rector for Research and </text><text font-family="Cambria,Cambria_MSFontService,sans-serif" font-weight="400" font-size="73" transform="matrix(1 0 0 1 2423.54 -2385)">Innovation</text><path d="M3452.5-2623.98C3452.5-2676.73 3495.27-2719.5 3548.02-2719.5L4603.98-2719.5C4656.73-2719.5 4699.5-2676.73 4699.5-2623.98L4699.5-2308.02C4699.5-2255.27 4656.73-2212.5 4603.98-2212.5L3548.02-2212.5C3495.27-2212.5 3452.5-2255.27 3452.5-2308.02Z" stroke="#FFFFFF" stroke-width="6.875" stroke-miterlimit="8" stroke-dasharray="27.5 20.625" fill="#FFFFFF" fill-rule="evenodd"/><path d="M3519-2720 4632-2720C4655.13-2720 4675.51-2703.27 4687.55-2677.81L4689-2674 3462-2674 3463.45-2677.81C3475.49-2703.27 3495.87-2720 3519-2720Z" fill="#697FD7" fill-rule="evenodd"/><text font-family="Cambria,Cambria_MSFontService,sans-serif" font-weight="400" font-size="73" transform="matrix(1 0 0 1 3689.49 -2473)">Vice</text><text font-family="Cambria,Cambria_MSFontService,sans-serif" font-weight="400" font-size="73" transform="matrix(1 0 0 1 3821.83 -2473)">-</text><text font-family="Cambria,Cambria_MSFontService,sans-serif" font-weight="400" font-size="73" transform="matrix(1 0 0 1 3846.47 -2473)">Rector for Financial </text><text font-family="Cambria,Cambria_MSFontService,sans-serif" font-weight="400" font-size="73" transform="matrix(1 0 0 1 3743.11 -2385)">and Economic Affairs</text><path d="M-882.5-2017.09C-882.5-2085.25-827.248-2140.5-759.091-2140.5L241.091-2140.5C309.248-2140.5 364.5-2085.25 364.5-2017.09L364.5-1608.91C364.5-1540.75 309.248-1485.5 241.091-1485.5L-759.091-1485.5C-827.248-1485.5-882.5-1540.75-882.5-1608.91Z" stroke="#FFFFFF" stroke-width="6.875" stroke-miterlimit="8" stroke-dasharray="27.5 20.625" fill="#FFFFFF" fill-rule="evenodd"/><path d="M-816.003-2141 297.003-2141C320.126-2141 340.512-2124.27 352.55-2098.81L354-2095-873-2095-871.551-2098.81C-859.512-2124.27-839.126-2141-816.003-2141Z" fill="#329CC6" fill-rule="evenodd"/><text font-family="Cambria,Cambria_MSFontService,sans-serif" font-weight="400" font-size="73" transform="matrix(1 0 0 1 -705.096 -1796)">Department of Youth Affairs, </text><text font-family="Cambria,Cambria_MSFontService,sans-serif" font-weight="400" font-size="73" transform="matrix(1 0 0 1 -694.21 -1708)">Spiritual</text><text font-family="Cambria,Cambria_MSFontService,sans-serif" font-weight="400" font-size="73" transform="matrix(1 0 0 1 -423.794 -1708)">-</text><text font-family="Cambria,Cambria_MSFontService,sans-serif" font-weight="400" font-size="73" transform="matrix(1 0 0 1 -399.158 -1708)">Educational Work, </text><text font-family="Cambria,Cambria_MSFontService,sans-serif" font-weight="400" font-size="73" transform="matrix(1 0 0 1 -667.283 -1620)">and Information Resource </text><text font-family="Cambria,Cambria_MSFontService,sans-serif" font-weight="400" font-size="73" transform="matrix(1 0 0 1 -363.248 -1532)">Center</text><path d="M-341-2040.5C-341-2056.24-328.24-2069-312.499-2069L-198.501-2069C-182.76-2069-170-2056.24-170-2040.5L-170-1916.5C-170-1900.76-182.76-1888-198.501-1888L-312.499-1888C-328.24-1888-341-1900.76-341-1916.5Z" fill="#F2F4F9" fill-rule="evenodd"/><text fill="#747474" font-family="Bahnschrift,Bahnschrift_MSFontService,sans-serif" font-weight="400" font-size="146" transform="matrix(1 0 0 1 -293.521 -1928)">6</text><text fill="#747474" font-family="Bahnschrift,Bahnschrift_MSFontService,sans-serif" font-weight="400" font-size="146" transform="matrix(1 0 0 1 -218.469 -1928)"> </text><path d="M-882.5-1318.87C-882.5-1368.93-841.925-1409.5-791.874-1409.5L273.874-1409.5C323.925-1409.5 364.5-1368.93 364.5-1318.87L364.5-1019.13C364.5-969.075 323.925-928.5 273.874-928.5L-791.874-928.5C-841.925-928.5-882.5-969.075-882.5-1019.13Z" stroke="#FFFFFF" stroke-width="6.875" stroke-miterlimit="8" stroke-dasharray="27.5 20.625" fill="#FFFFFF" fill-rule="evenodd"/><path d="M-816.003-1410 297.003-1410C320.126-1410 340.512-1393.27 352.55-1367.81L354-1364-873-1364-871.551-1367.81C-859.512-1393.27-839.126-1410-816.003-1410Z" fill="#329CC6" fill-rule="evenodd"/><text font-family="Cambria,Cambria_MSFontService,sans-serif" font-weight="400" font-size="73" transform="matrix(1 0 0 1 -455.419 -1065)">Psychologist</text><path d="M-341-1309.5C-341-1325.24-328.24-1338-312.499-1338L-198.501-1338C-182.76-1338-170-1325.24-170-1309.5L-170-1185.5C-170-1169.76-182.76-1157-198.501-1157L-312.499-1157C-328.24-1157-341-1169.76-341-1185.5Z" fill="#F2F4F9" fill-rule="evenodd"/><text fill="#747474" font-family="Bahnschrift,Bahnschrift_MSFontService,sans-serif" font-weight="400" font-size="146" transform="matrix(1 0 0 1 -280.215 -1197)">1</text><text fill="#747474" font-family="Bahnschrift,Bahnschrift_MSFontService,sans-serif" font-weight="400" font-size="146" transform="matrix(1 0 0 1 -231.517 -1197)"> </text><path d="M552.5-2035.93C552.5-2093.68 599.316-2140.5 657.068-2140.5L1693.93-2140.5C1751.68-2140.5 1798.5-2093.68 1798.5-2035.93L1798.5-1690.07C1798.5-1632.32 1751.68-1585.5 1693.93-1585.5L657.068-1585.5C599.316-1585.5 552.5-1632.32 552.5-1690.07Z" stroke="#FFFFFF" stroke-width="6.875" stroke-miterlimit="8" stroke-dasharray="27.5 20.625" fill="#FFFFFF" fill-rule="evenodd"/><path d="M618.951-2141 1731.05-2141C1754.15-2141 1774.52-2124.27 1786.55-2098.81L1788-2095 562-2095 563.448-2098.81C575.477-2124.27 595.847-2141 618.951-2141Z" fill="#7030A0" fill-rule="evenodd"/><text font-family="Cambria,Cambria_MSFontService,sans-serif" font-weight="400" font-size="73" transform="matrix(1 0 0 1 809.473 -1796)">Academic Methodology </text><text font-family="Cambria,Cambria_MSFontService,sans-serif" font-weight="400" font-size="73" transform="matrix(1 0 0 1 985.931 -1708)">Department</text><path d="M1094-2040.5C1094-2056.24 1106.76-2069 1122.5-2069L1236.5-2069C1252.24-2069 1265-2056.24 1265-2040.5L1265-1916.5C1265-1900.76 1252.24-1888 1236.5-1888L1122.5-1888C1106.76-1888 1094-1900.76 1094-1916.5Z" fill="#F2F4F9" fill-rule="evenodd"/><text fill="#747474" font-family="Bahnschrift,Bahnschrift_MSFontService,sans-serif" font-weight="400" font-size="146" transform="matrix(1 0 0 1 1141.06 -1928)">8</text><text fill="#747474" font-family="Bahnschrift,Bahnschrift_MSFontService,sans-serif" font-weight="400" font-size="146" transform="matrix(1 0 0 1 1222.98 -1928)"> </text><path d="M552.5-1408.15C552.5-1469.65 602.353-1519.5 663.85-1519.5L1687.15-1519.5C1748.65-1519.5 1798.5-1469.65 1798.5-1408.15L1798.5-1039.85C1798.5-978.353 1748.65-928.5 1687.15-928.5L663.85-928.5C602.353-928.5 552.5-978.353 552.5-1039.85Z" stroke="#FFFFFF" stroke-width="6.875" stroke-miterlimit="8" stroke-dasharray="27.5 20.625" fill="#FFFFFF" fill-rule="evenodd"/><path d="M618.951-1520 1731.05-1520C1754.15-1520 1774.52-1503.27 1786.55-1477.81L1788-1474 562-1474 563.448-1477.81C575.477-1503.27 595.847-1520 618.951-1520Z" fill="#7030A0" fill-rule="evenodd"/><text font-family="Cambria,Cambria_MSFontService,sans-serif" font-weight="400" font-size="73" transform="matrix(1 0 0 1 818.307 -1175)">Marketing and Student </text><text font-family="Cambria,Cambria_MSFontService,sans-serif" font-weight="400" font-size="73" transform="matrix(1 0 0 1 813.517 -1087)">Internship Department</text><path d="M1094-1419.5C1094-1435.24 1106.76-1448 1122.5-1448L1236.5-1448C1252.24-1448 1265-1435.24 1265-1419.5L1265-1295.5C1265-1279.76 1252.24-1267 1236.5-1267L1122.5-1267C1106.76-1267 1094-1279.76 1094-1295.5Z" fill="#F2F4F9" fill-rule="evenodd"/><text fill="#747474" font-family="Bahnschrift,Bahnschrift_MSFontService,sans-serif" font-weight="400" font-size="146" transform="matrix(1 0 0 1 1141.06 -1307)">4</text><text fill="#747474" font-family="Bahnschrift,Bahnschrift_MSFontService,sans-serif" font-weight="400" font-size="146" transform="matrix(1 0 0 1 1224.13 -1307)"> </text><path d="M2002.5-2017.09C2002.5-2085.25 2057.75-2140.5 2125.91-2140.5L3126.09-2140.5C3194.25-2140.5 3249.5-2085.25 3249.5-2017.09L3249.5-1608.91C3249.5-1540.75 3194.25-1485.5 3126.09-1485.5L2125.91-1485.5C2057.75-1485.5 2002.5-1540.75 2002.5-1608.91Z" stroke="#FFFFFF" stroke-width="6.875" stroke-miterlimit="8" stroke-dasharray="27.5 20.625" fill="#FFFFFF" fill-rule="evenodd"/><path d="M2069-2141 3182-2141C3205.13-2141 3225.51-2124.27 3237.55-2098.81L3239-2095 2012-2095 2013.45-2098.81C2025.49-2124.27 2045.87-2141 2069-2141Z" fill="#145FCB" fill-rule="evenodd"/><text font-family="Cambria,Cambria_MSFontService,sans-serif" font-weight="400" font-size="73" transform="matrix(1 0 0 1 2088.41 -1796)">Department of Scientific Research, </text><text font-family="Cambria,Cambria_MSFontService,sans-serif" font-weight="400" font-size="73" transform="matrix(1 0 0 1 2098.1 -1708)">Innovation, Scientific</text><text font-family="Cambria,Cambria_MSFontService,sans-serif" font-weight="400" font-size="73" transform="matrix(1 0 0 1 2754.87 -1708)">-</text><text font-family="Cambria,Cambria_MSFontService,sans-serif" font-weight="400" font-size="73" transform="matrix(1 0 0 1 2779.5 -1708)">Pedagogical </text><text font-family="Cambria,Cambria_MSFontService,sans-serif" font-weight="400" font-size="73" transform="matrix(1 0 0 1 2050.73 -1620)">Staff Training, and Talented Students</text><path d="M2544-2040.5C2544-2056.24 2556.76-2069 2572.5-2069L2686.5-2069C2702.24-2069 2715-2056.24 2715-2040.5L2715-1916.5C2715-1900.76 2702.24-1888 2686.5-1888L2572.5-1888C2556.76-1888 2544-1900.76 2544-1916.5Z" fill="#F2F4F9" fill-rule="evenodd"/><text fill="#747474" font-family="Bahnschrift,Bahnschrift_MSFontService,sans-serif" font-weight="400" font-size="146" transform="matrix(1 0 0 1 2591.23 -1928)">4</text><text fill="#747474" font-family="Bahnschrift,Bahnschrift_MSFontService,sans-serif" font-weight="400" font-size="146" transform="matrix(1 0 0 1 2674.31 -1928)"> </text><path d="M2002.5-1318.09C2002.5-1386.25 2057.75-1441.5 2125.91-1441.5L3126.09-1441.5C3194.25-1441.5 3249.5-1386.25 3249.5-1318.09L3249.5-909.909C3249.5-841.752 3194.25-786.5 3126.09-786.5L2125.91-786.5C2057.75-786.5 2002.5-841.752 2002.5-909.909Z" stroke="#FFFFFF" stroke-width="6.875" stroke-miterlimit="8" stroke-dasharray="27.5 20.625" fill="#FFFFFF" fill-rule="evenodd"/><path d="M2069-1442 3182-1442C3205.13-1442 3225.51-1425.27 3237.55-1399.81L3239-1396 2012-1396 2013.45-1399.81C2025.49-1425.27 2045.87-1442 2069-1442Z" fill="#145FCB" fill-rule="evenodd"/><text font-family="Cambria,Cambria_MSFontService,sans-serif" font-weight="400" font-size="73" transform="matrix(1 0 0 1 2119.76 -1097)">Department of Digital Education </text><text font-family="Cambria,Cambria_MSFontService,sans-serif" font-weight="400" font-size="73" transform="matrix(1 0 0 1 2196.16 -1009)">Technologies and Local and </text><text font-family="Cambria,Cambria_MSFontService,sans-serif" font-weight="400" font-size="73" transform="matrix(1 0 0 1 2266.28 -921)">International Rankings</text><path d="M2544-1341.5C2544-1357.24 2556.76-1370 2572.5-1370L2686.5-1370C2702.24-1370 2715-1357.24 2715-1341.5L2715-1217.5C2715-1201.76 2702.24-1189 2686.5-1189L2572.5-1189C2556.76-1189 2544-1201.76 2544-1217.5Z" fill="#F2F4F9" fill-rule="evenodd"/><text fill="#747474" font-family="Bahnschrift,Bahnschrift_MSFontService,sans-serif" font-weight="400" font-size="146" transform="matrix(1 0 0 1 2591.23 -1229)">6</text><text fill="#747474" font-family="Bahnschrift,Bahnschrift_MSFontService,sans-serif" font-weight="400" font-size="146" transform="matrix(1 0 0 1 2666.29 -1229)"> </text><path d="M3465.5-1408.15C3465.5-1469.65 3515.35-1519.5 3576.85-1519.5L4601.15-1519.5C4662.65-1519.5 4712.5-1469.65 4712.5-1408.15L4712.5-1039.85C4712.5-978.353 4662.65-928.5 4601.15-928.5L3576.85-928.5C3515.35-928.5 3465.5-978.353 3465.5-1039.85Z" stroke="#FFFFFF" stroke-width="6.875" stroke-miterlimit="8" stroke-dasharray="27.5 20.625" fill="#FFFFFF" fill-rule="evenodd"/><path d="M3532-1520 4645-1520C4668.13-1520 4688.51-1503.27 4700.55-1477.81L4702-1474 3475-1474 3476.45-1477.81C3488.49-1503.27 3508.87-1520 3532-1520Z" fill="#697FD7" fill-rule="evenodd"/><text font-family="Cambria,Cambria_MSFontService,sans-serif" font-weight="400" font-size="73" transform="matrix(1 0 0 1 3859.19 -1175)">Chief Engineer</text><path d="M4007-1419.5C4007-1435.24 4019.76-1448 4035.5-1448L4149.5-1448C4165.24-1448 4178-1435.24 4178-1419.5L4178-1295.5C4178-1279.76 4165.24-1267 4149.5-1267L4035.5-1267C4019.76-1267 4007-1279.76 4007-1295.5Z" fill="#F2F4F9" fill-rule="evenodd"/><text fill="#747474" font-family="Bahnschrift,Bahnschrift_MSFontService,sans-serif" font-weight="400" font-size="146" transform="matrix(1 0 0 1 4063.44 -1307)">1</text><text fill="#747474" font-family="Bahnschrift,Bahnschrift_MSFontService,sans-serif" font-weight="400" font-size="146" transform="matrix(1 0 0 1 4112.14 -1307)"> </text><path d="M3465.5-2057.15C3465.5-2118.65 3515.35-2168.5 3576.85-2168.5L4601.15-2168.5C4662.65-2168.5 4712.5-2118.65 4712.5-2057.15L4712.5-1688.85C4712.5-1627.35 4662.65-1577.5 4601.15-1577.5L3576.85-1577.5C3515.35-1577.5 3465.5-1627.35 3465.5-1688.85Z" stroke="#FFFFFF" stroke-width="6.875" stroke-miterlimit="8" stroke-dasharray="27.5 20.625" fill="#FFFFFF" fill-rule="evenodd"/><path d="M3532-2169 4645-2169C4668.13-2169 4688.51-2152.27 4700.55-2126.81L4702-2123 3475-2123 3476.45-2126.81C3488.49-2152.27 3508.87-2169 3532-2169Z" fill="#697FD7" fill-rule="evenodd"/><text font-family="Cambria,Cambria_MSFontService,sans-serif" font-weight="400" font-size="73" transform="matrix(1 0 0 1 3694.47 -1802)">Accounting and Financial </text><text font-family="Cambria,Cambria_MSFontService,sans-serif" font-weight="400" font-size="73" transform="matrix(1 0 0 1 3752.91 -1714)">Planning Department</text><path d="M4007-2068.5C4007-2084.24 4019.76-2097 4035.5-2097L4149.5-2097C4165.24-2097 4178-2084.24 4178-2068.5L4178-1944.5C4178-1928.76 4165.24-1916 4149.5-1916L4035.5-1916C4019.76-1916 4007-1928.76 4007-1944.5Z" fill="#F2F4F9" fill-rule="evenodd"/><text fill="#747474" font-family="Bahnschrift,Bahnschrift_MSFontService,sans-serif" font-weight="400" font-size="146" transform="matrix(1 0 0 1 4054.42 -1956)">4</text><text fill="#747474" font-family="Bahnschrift,Bahnschrift_MSFontService,sans-serif" font-weight="400" font-size="146" transform="matrix(1 0 0 1 4137.49 -1956)"> </text><path d="M3465.5-772.961C3465.5-834.562 3515.44-884.5 3577.04-884.5L4600.96-884.5C4662.56-884.5 4712.5-834.562 4712.5-772.961L4712.5-404.039C4712.5-342.438 4662.56-292.5 4600.96-292.5L3577.04-292.5C3515.44-292.5 3465.5-342.438 3465.5-404.039Z" stroke="#FFFFFF" stroke-width="6.875" stroke-miterlimit="8" stroke-dasharray="27.5 20.625" fill="#FFFFFF" fill-rule="evenodd"/><path d="M3532-885 4645-885C4668.13-885 4688.51-868.266 4700.55-842.815L4702-839 3475-839 3476.45-842.815C3488.49-868.266 3508.87-885 3532-885Z" fill="#697FD7" fill-rule="evenodd"/><text font-family="Cambria,Cambria_MSFontService,sans-serif" font-weight="400" font-size="73" transform="matrix(1 0 0 1 3665.11 -540)">Technical Maintenance and </text><text font-family="Cambria,Cambria_MSFontService,sans-serif" font-weight="400" font-size="73" transform="matrix(1 0 0 1 3743.41 -452)">Administrative Affairs </text><text font-family="Cambria,Cambria_MSFontService,sans-serif" font-weight="400" font-size="73" transform="matrix(1 0 0 1 3899.29 -364)">Department</text><path d="M4007-784.499C4007-800.24 4019.76-813 4035.5-813L4149.5-813C4165.24-813 4178-800.24 4178-784.499L4178-660.501C4178-644.76 4165.24-632 4149.5-632L4035.5-632C4019.76-632 4007-644.76 4007-660.501Z" fill="#F2F4F9" fill-rule="evenodd"/><text fill="#747474" font-family="Bahnschrift,Bahnschrift_MSFontService,sans-serif" font-weight="400" font-size="146" transform="matrix(1 0 0 1 4015.95 -672)">22</text><text fill="#747474" font-family="Bahnschrift,Bahnschrift_MSFontService,sans-serif" font-weight="400" font-size="146" transform="matrix(1 0 0 1 4166.62 -672)"> </text><path d="M3465.5-146.15C3465.5-207.647 3515.35-257.5 3576.85-257.5L4601.15-257.5C4662.65-257.5 4712.5-207.647 4712.5-146.15L4712.5 222.149C4712.5 283.647 4662.65 333.5 4601.15 333.5L3576.85 333.5C3515.35 333.5 3465.5 283.647 3465.5 222.149Z" stroke="#FFFFFF" stroke-width="6.875" stroke-miterlimit="8" stroke-dasharray="27.5 20.625" fill="#FFFFFF" fill-rule="evenodd"/><path d="M3532-258 4645-258C4668.13-258 4688.51-241.266 4700.55-215.815L4702-212 3475-212 3476.45-215.815C3488.49-241.266 3508.87-258 3532-258Z" fill="#697FD7" fill-rule="evenodd"/><text font-family="Cambria,Cambria_MSFontService,sans-serif" font-weight="400" font-size="73" transform="matrix(1 0 0 1 3641.16 87)">Press Service and Admission </text><text font-family="Cambria,Cambria_MSFontService,sans-serif" font-weight="400" font-size="73" transform="matrix(1 0 0 1 3754.27 175)">Process Coordination </text><text font-family="Cambria,Cambria_MSFontService,sans-serif" font-weight="400" font-size="73" transform="matrix(1 0 0 1 3899.29 263)">Department</text><path d="M4007-158.499C4007-174.24 4019.76-187 4035.5-187L4149.5-187C4165.24-187 4178-174.24 4178-158.499L4178-34.5004C4178-18.76 4165.24-5.99983 4149.5-5.99983L4035.5-5.99983C4019.76-5.99983 4007-18.76 4007-34.5004Z" fill="#F2F4F9" fill-rule="evenodd"/><text fill="#747474" font-family="Bahnschrift,Bahnschrift_MSFontService,sans-serif" font-weight="400" font-size="146" transform="matrix(1 0 0 1 4054.42 -46)">9</text><text fill="#747474" font-family="Bahnschrift,Bahnschrift_MSFontService,sans-serif" font-weight="400" font-size="146" transform="matrix(1 0 0 1 4129.47 -46)"> </text><path d="M-882.5-500.874C-882.5-550.926-841.925-591.5-791.874-591.5L273.874-591.5C323.925-591.5 364.5-550.926 364.5-500.874L364.5-201.126C364.5-151.074 323.925-110.5 273.874-110.5L-791.874-110.5C-841.925-110.5-882.5-151.074-882.5-201.126Z" stroke="#FFFFFF" stroke-width="6.875" stroke-miterlimit="8" stroke-dasharray="27.5 20.625" fill="#FFFFFF" fill-rule="evenodd"/><path d="M-816.003-592 297.003-592C320.126-592 340.512-575.266 352.55-549.815L354-546-873-546-871.551-549.815C-859.512-575.266-839.126-592-816.003-592Z" fill="#8ED973" fill-rule="evenodd"/><text font-family="Cambria,Cambria_MSFontService,sans-serif" font-weight="400" font-size="73" transform="matrix(1 0 0 1 -570.758 -247)">Faculty of Pedagogy</text><path d="M-341-491.5C-341-507.24-328.24-520-312.499-520L-198.501-520C-182.76-520-170-507.24-170-491.5L-170-367.501C-170-351.76-182.76-339-198.501-339L-312.499-339C-328.24-339-341-351.76-341-367.501Z" fill="#F2F4F9" fill-rule="evenodd"/><text fill="#747474" font-family="Bahnschrift,Bahnschrift_MSFontService,sans-serif" font-weight="400" font-size="146" transform="matrix(1 0 0 1 -293.521 -379)">6</text><text fill="#747474" font-family="Bahnschrift,Bahnschrift_MSFontService,sans-serif" font-weight="400" font-size="146" transform="matrix(1 0 0 1 -218.469 -379)"> </text><path d="M562.5-500.875C562.5-550.926 603.074-591.5 653.125-591.5L1717.87-591.5C1767.93-591.5 1808.5-550.926 1808.5-500.875L1808.5-201.125C1808.5-151.074 1767.93-110.5 1717.87-110.5L653.125-110.5C603.074-110.5 562.5-151.074 562.5-201.125Z" stroke="#FFFFFF" stroke-width="6.875" stroke-miterlimit="8" stroke-dasharray="27.5 20.625" fill="#FFFFFF" fill-rule="evenodd"/><path d="M628.951-592 1741.05-592C1764.15-592 1784.52-575.266 1796.55-549.815L1798-546 572-546 573.448-549.815C585.477-575.266 605.847-592 628.951-592Z" fill="#D86ECC" fill-rule="evenodd"/><text font-family="Cambria,Cambria_MSFontService,sans-serif" font-weight="400" font-size="73" transform="matrix(1 0 0 1 810.398 -247)">Faculty of Philology and </text><text font-family="Cambria,Cambria_MSFontService,sans-serif" font-weight="400" font-size="73" transform="matrix(1 0 0 1 1068.42 -159)">History</text><path d="M1104-491.5C1104-507.24 1116.76-520 1132.5-520L1246.5-520C1262.24-520 1275-507.24 1275-491.5L1275-367.501C1275-351.76 1262.24-339 1246.5-339L1132.5-339C1116.76-339 1104-351.76 1104-367.501Z" fill="#F2F4F9" fill-rule="evenodd"/><text fill="#747474" font-family="Bahnschrift,Bahnschrift_MSFontService,sans-serif" font-weight="400" font-size="146" transform="matrix(1 0 0 1 1150.57 -379)">6</text><text fill="#747474" font-family="Bahnschrift,Bahnschrift_MSFontService,sans-serif" font-weight="400" font-size="146" transform="matrix(1 0 0 1 1225.62 -379)"> </text><path d="M2002.5-500.874C2002.5-550.926 2043.07-591.5 2093.13-591.5L3158.87-591.5C3208.93-591.5 3249.5-550.926 3249.5-500.874L3249.5-201.126C3249.5-151.074 3208.93-110.5 3158.87-110.5L2093.13-110.5C2043.07-110.5 2002.5-151.074 2002.5-201.126Z" stroke="#FFFFFF" stroke-width="6.875" stroke-miterlimit="8" stroke-dasharray="27.5 20.625" fill="#FFFFFF" fill-rule="evenodd"/><path d="M2069-592 3182-592C3205.13-592 3225.51-575.266 3237.55-549.815L3239-546 2012-546 2013.45-549.815C2025.49-575.266 2045.87-592 2069-592Z" fill="#61CBF4" fill-rule="evenodd"/><text font-family="Cambria,Cambria_MSFontService,sans-serif" font-weight="400" font-size="73" transform="matrix(1 0 0 1 2196.45 -247)">Faculty of Mathematics and </text><text font-family="Cambria,Cambria_MSFontService,sans-serif" font-weight="400" font-size="73" transform="matrix(1 0 0 1 2456.07 -159)">Economics</text><path d="M2544-491.5C2544-507.24 2556.76-520 2572.5-520L2686.5-520C2702.24-520 2715-507.24 2715-491.5L2715-367.501C2715-351.76 2702.24-339 2686.5-339L2572.5-339C2556.76-339 2544-351.76 2544-367.501Z" fill="#F2F4F9" fill-rule="evenodd"/><text fill="#747474" font-family="Bahnschrift,Bahnschrift_MSFontService,sans-serif" font-weight="400" font-size="146" transform="matrix(1 0 0 1 2591.24 -379)">6</text><text fill="#747474" font-family="Bahnschrift,Bahnschrift_MSFontService,sans-serif" font-weight="400" font-size="146" transform="matrix(1 0 0 1 2666.29 -379)"> </text><path d="M-882.5 26.9288C-882.5-12.5202-850.52-44.4998-811.072-44.4998L293.072-44.4998C332.52-44.4998 364.5-12.5202 364.5 26.9288L364.5 212.071C364.5 251.52 332.52 283.5 293.072 283.5L-811.072 283.5C-850.52 283.5-882.5 251.52-882.5 212.071Z" stroke="#FFFFFF" stroke-width="6.875" stroke-miterlimit="8" stroke-dasharray="27.5 20.625" fill="#FFFFFF" fill-rule="evenodd"/><path d="M-816.003-45 297.003-45C320.126-45 340.512-28.2662 352.55-2.81471L354 1.00003-873 1.00003-871.551-2.81471C-859.512-28.2662-839.126-45-816.003-45Z" fill="#8ED973" fill-rule="evenodd"/><text font-family="Cambria,Cambria_MSFontService,sans-serif" font-weight="400" font-size="73" transform="matrix(1 0 0 1 -681.721 122)">Department of Pedagogical </text><text font-family="Cambria,Cambria_MSFontService,sans-serif" font-weight="400" font-size="73" transform="matrix(1 0 0 1 -668.658 210)">Education and Psychology</text><path d="M-882.5 404.929C-882.5 365.48-850.52 333.5-811.072 333.5L293.072 333.5C332.52 333.5 364.5 365.48 364.5 404.929L364.5 590.071C364.5 629.52 332.52 661.5 293.072 661.5L-811.072 661.5C-850.52 661.5-882.5 629.52-882.5 590.071Z" stroke="#FFFFFF" stroke-width="6.875" stroke-miterlimit="8" stroke-dasharray="27.5 20.625" fill="#FFFFFF" fill-rule="evenodd"/><path d="M-816.003 333 297.003 333C320.126 333 340.512 349.734 352.55 375.185L354 379-873 379-871.551 375.185C-859.512 349.734-839.126 333-816.003 333Z" fill="#8ED973" fill-rule="evenodd"/><text font-family="Cambria,Cambria_MSFontService,sans-serif" font-weight="400" font-size="73" transform="matrix(1 0 0 1 -750.413 538)">Department of Sports Activities</text><path d="M562.5 26.9287C562.5-12.5202 594.479-44.4998 633.928-44.4998L1737.07-44.4998C1776.52-44.4998 1808.5-12.5202 1808.5 26.9287L1808.5 212.072C1808.5 251.52 1776.52 283.5 1737.07 283.5L633.928 283.5C594.479 283.5 562.5 251.52 562.5 212.072Z" stroke="#FFFFFF" stroke-width="6.875" stroke-miterlimit="8" stroke-dasharray="27.5 20.625" fill="#FFFFFF" fill-rule="evenodd"/><path d="M628.951-45 1741.05-45C1764.15-45 1784.52-28.2662 1796.55-2.81471L1798 1.00003 572 1.00003 573.448-2.81471C585.477-28.2662 605.847-45 628.951-45Z" fill="#D86ECC" fill-rule="evenodd"/><text font-family="Cambria,Cambria_MSFontService,sans-serif" font-weight="400" font-size="73" transform="matrix(1 0 0 1 801.987 161)">Department of Philology</text><path d="M562.5 404.929C562.5 365.48 594.479 333.5 633.928 333.5L1737.07 333.5C1776.52 333.5 1808.5 365.48 1808.5 404.929L1808.5 590.071C1808.5 629.52 1776.52 661.5 1737.07 661.5L633.928 661.5C594.479 661.5 562.5 629.52 562.5 590.071Z" stroke="#FFFFFF" stroke-width="6.875" stroke-miterlimit="8" stroke-dasharray="27.5 20.625" fill="#FFFFFF" fill-rule="evenodd"/><path d="M628.951 333 1741.05 333C1764.15 333 1784.52 349.734 1796.55 375.185L1798 379 572 379 573.448 375.185C585.477 349.734 605.847 333 628.951 333Z" fill="#D86ECC" fill-rule="evenodd"/><text font-family="Cambria,Cambria_MSFontService,sans-serif" font-weight="400" font-size="73" transform="matrix(1 0 0 1 830.312 538)">Department of Foreign </text><text font-family="Cambria,Cambria_MSFontService,sans-serif" font-weight="400" font-size="73" transform="matrix(1 0 0 1 1018.82 626)">Languages</text><path d="M2002.5 26.9288C2002.5-12.5202 2034.48-44.4998 2073.93-44.4998L3178.07-44.4998C3217.52-44.4998 3249.5-12.5202 3249.5 26.9288L3249.5 212.071C3249.5 251.52 3217.52 283.5 3178.07 283.5L2073.93 283.5C2034.48 283.5 2002.5 251.52 2002.5 212.071Z" stroke="#FFFFFF" stroke-width="6.875" stroke-miterlimit="8" stroke-dasharray="27.5 20.625" fill="#FFFFFF" fill-rule="evenodd"/><path d="M2069-45 3182-45C3205.13-45 3225.51-28.2662 3237.55-2.81471L3239 1.00003 2012 1.00003 2013.45-2.81471C2025.49-28.2662 2045.87-45 2069-45Z" fill="#61CBF4" fill-rule="evenodd"/><text font-family="Cambria,Cambria_MSFontService,sans-serif" font-weight="400" font-size="73" transform="matrix(1 0 0 1 2188.03 125)">Department of Mathematics </text><text font-family="Cambria,Cambria_MSFontService,sans-serif" font-weight="400" font-size="73" transform="matrix(1 0 0 1 2299.82 213)">and Natural Sciences</text><path d="M2002.5 404.929C2002.5 365.48 2034.48 333.5 2073.93 333.5L3178.07 333.5C3217.52 333.5 3249.5 365.48 3249.5 404.929L3249.5 590.071C3249.5 629.52 3217.52 661.5 3178.07 661.5L2073.93 661.5C2034.48 661.5 2002.5 629.52 2002.5 590.071Z" stroke="#FFFFFF" stroke-width="6.875" stroke-miterlimit="8" stroke-dasharray="27.5 20.625" fill="#FFFFFF" fill-rule="evenodd"/><path d="M2069 333 3182 333C3205.13 333 3225.51 349.734 3237.55 375.185L3239 379 2012 379 2013.45 375.185C2025.49 349.734 2045.87 333 2069 333Z" fill="#61CBF4" fill-rule="evenodd"/><text font-family="Cambria,Cambria_MSFontService,sans-serif" font-weight="400" font-size="73" transform="matrix(1 0 0 1 2200.51 505)">Department of Information </text><text font-family="Cambria,Cambria_MSFontService,sans-serif" font-weight="400" font-size="73" transform="matrix(1 0 0 1 2446.23 593)">Technology</text><path d="M562.5 781.929C562.5 742.48 594.479 710.5 633.928 710.5L1737.07 710.5C1776.52 710.5 1808.5 742.48 1808.5 781.929L1808.5 967.071C1808.5 1006.52 1776.52 1038.5 1737.07 1038.5L633.928 1038.5C594.479 1038.5 562.5 1006.52 562.5 967.071Z" stroke="#FFFFFF" stroke-width="6.875" stroke-miterlimit="8" stroke-dasharray="27.5 20.625" fill="#FFFFFF" fill-rule="evenodd"/><path d="M628.951 710 1741.05 710C1764.15 710 1784.52 726.734 1796.55 752.185L1798 756 572 756 573.448 752.185C585.477 726.734 605.847 710 628.951 710Z" fill="#D86ECC" fill-rule="evenodd"/><text font-family="Cambria,Cambria_MSFontService,sans-serif" font-weight="400" font-size="73" transform="matrix(1 0 0 1 830.312 916)">Department of Foreign </text><text font-family="Cambria,Cambria_MSFontService,sans-serif" font-weight="400" font-size="73" transform="matrix(1 0 0 1 1037.73 1004)">Philology</text><path d="M562.5 1159.71C562.5 1120.38 594.382 1088.5 633.71 1088.5L1737.29 1088.5C1776.62 1088.5 1808.5 1120.38 1808.5 1159.71L1808.5 1344.29C1808.5 1383.62 1776.62 1415.5 1737.29 1415.5L633.71 1415.5C594.382 1415.5 562.5 1383.62 562.5 1344.29Z" stroke="#FFFFFF" stroke-width="6.875" stroke-miterlimit="8" stroke-dasharray="27.5 20.625" fill="#FFFFFF" fill-rule="evenodd"/><path d="M628.951 1088 1741.05 1088C1764.15 1088 1784.52 1104.73 1796.55 1130.19L1798 1134 572 1134 573.448 1130.19C585.477 1104.73 605.847 1088 628.951 1088Z" fill="#D86ECC" fill-rule="evenodd"/><text font-family="Cambria,Cambria_MSFontService,sans-serif" font-weight="400" font-size="73" transform="matrix(1 0 0 1 790.242 1293)">Department of Social and </text><text font-family="Cambria,Cambria_MSFontService,sans-serif" font-weight="400" font-size="73" transform="matrix(1 0 0 1 917.82 1381)">Political Sciences</text><path d="M2002.5 781.929C2002.5 742.48 2034.48 710.5 2073.93 710.5L3178.07 710.5C3217.52 710.5 3249.5 742.48 3249.5 781.929L3249.5 967.071C3249.5 1006.52 3217.52 1038.5 3178.07 1038.5L2073.93 1038.5C2034.48 1038.5 2002.5 1006.52 2002.5 967.071Z" stroke="#FFFFFF" stroke-width="6.875" stroke-miterlimit="8" stroke-dasharray="27.5 20.625" fill="#FFFFFF" fill-rule="evenodd"/><path d="M2069 710 3182 710C3205.13 710 3225.51 726.734 3237.55 752.185L3239 756 2012 756 2013.45 752.185C2025.49 726.734 2045.87 710 2069 710Z" fill="#61CBF4" fill-rule="evenodd"/><text font-family="Cambria,Cambria_MSFontService,sans-serif" font-weight="400" font-size="73" transform="matrix(1 0 0 1 2220.3 916)">Department of Economics</text><path d="M2002.5 1159.71C2002.5 1120.38 2034.38 1088.5 2073.71 1088.5L3178.29 1088.5C3217.62 1088.5 3249.5 1120.38 3249.5 1159.71L3249.5 1344.29C3249.5 1383.62 3217.62 1415.5 3178.29 1415.5L2073.71 1415.5C2034.38 1415.5 2002.5 1383.62 2002.5 1344.29Z" stroke="#FFFFFF" stroke-width="6.875" stroke-miterlimit="8" stroke-dasharray="27.5 20.625" fill="#FFFFFF" fill-rule="evenodd"/><path d="M2069 1088 3182 1088C3205.13 1088 3225.51 1104.73 3237.55 1130.19L3239 1134 2012 1134 2013.45 1130.19C2025.49 1104.73 2045.87 1088 2069 1088Z" fill="#61CBF4" fill-rule="evenodd"/><text font-family="Cambria,Cambria_MSFontService,sans-serif" font-weight="400" font-size="73" transform="matrix(1 0 0 1 2266.81 1293)">Department of Finance</text><text font-family="Cambria,Cambria_MSFontService,sans-serif" font-weight="400" font-size="73" transform="matrix(1 0 0 1 2462.43 1381)">and Credit</text><path d="M4955.5-1945.15C4955.5-2006.65 5005.35-2056.5 5066.85-2056.5L6091.15-2056.5C6152.65-2056.5 6202.5-2006.65 6202.5-1945.15L6202.5-1576.85C6202.5-1515.35 6152.65-1465.5 6091.15-1465.5L5066.85-1465.5C5005.35-1465.5 4955.5-1515.35 4955.5-1576.85Z" stroke="#FFFFFF" stroke-width="6.875" stroke-miterlimit="8" stroke-dasharray="27.5 20.625" fill="#FFFFFF" fill-rule="evenodd"/><path d="M5022-2057 6135-2057C6158.13-2057 6178.51-2040.27 6190.55-2014.81L6192-2011 4965-2011 4966.45-2014.81C4978.49-2040.27 4998.87-2057 5022-2057Z" fill="#00B0F0" fill-rule="evenodd"/><text font-family="Cambria,Cambria_MSFontService,sans-serif" font-weight="400" font-size="73" transform="matrix(1 0 0 1 5184.37 -1690)">Department of Education </text><text font-family="Cambria,Cambria_MSFontService,sans-serif" font-weight="400" font-size="73" transform="matrix(1 0 0 1 5339.7 -1602)">Quality Control</text><path d="M5497-1956.5C5497-1972.24 5509.76-1985 5525.5-1985L5639.5-1985C5655.24-1985 5668-1972.24 5668-1956.5L5668-1832.5C5668-1816.76 5655.24-1804 5639.5-1804L5525.5-1804C5509.76-1804 5497-1816.76 5497-1832.5Z" fill="#F2F4F9" fill-rule="evenodd"/><text fill="#747474" font-family="Bahnschrift,Bahnschrift_MSFontService,sans-serif" font-weight="400" font-size="146" transform="matrix(1 0 0 1 5544.42 -1844)">3</text><text fill="#747474" font-family="Bahnschrift,Bahnschrift_MSFontService,sans-serif" font-weight="400" font-size="146" transform="matrix(1 0 0 1 5621.77 -1844)"> </text><path d="M4955.5-2587.15C4955.5-2648.65 5005.35-2698.5 5066.85-2698.5L6091.15-2698.5C6152.65-2698.5 6202.5-2648.65 6202.5-2587.15L6202.5-2218.85C6202.5-2157.35 6152.65-2107.5 6091.15-2107.5L5066.85-2107.5C5005.35-2107.5 4955.5-2157.35 4955.5-2218.85Z" stroke="#FFFFFF" stroke-width="6.875" stroke-miterlimit="8" stroke-dasharray="27.5 20.625" fill="#FFFFFF" fill-rule="evenodd"/><path d="M5022-2699 6135-2699C6158.13-2699 6178.51-2682.27 6190.55-2656.81L6192-2653 4965-2653 4966.45-2656.81C4978.49-2682.27 4998.87-2699 5022-2699Z" fill="#00B0F0" fill-rule="evenodd"/><text font-family="Cambria,Cambria_MSFontService,sans-serif" font-weight="400" font-size="73" transform="matrix(1 0 0 1 5171.39 -2331)">International Cooperation </text><text font-family="Cambria,Cambria_MSFontService,sans-serif" font-weight="400" font-size="73" transform="matrix(1 0 0 1 5389.28 -2243)">Department</text><path d="M5497-2598.5C5497-2614.24 5509.76-2627 5525.5-2627L5639.5-2627C5655.24-2627 5668-2614.24 5668-2598.5L5668-2474.5C5668-2458.76 5655.24-2446 5639.5-2446L5525.5-2446C5509.76-2446 5497-2458.76 5497-2474.5Z" fill="#F2F4F9" fill-rule="evenodd"/><text fill="#747474" font-family="Bahnschrift,Bahnschrift_MSFontService,sans-serif" font-weight="400" font-size="146" transform="matrix(1 0 0 1 5544.42 -2486)">3</text><text fill="#747474" font-family="Bahnschrift,Bahnschrift_MSFontService,sans-serif" font-weight="400" font-size="146" transform="matrix(1 0 0 1 5621.77 -2486)"> </text><path d="M4955.5-1298.29C4955.5-1364.68 5009.32-1418.5 5075.71-1418.5L6082.29-1418.5C6148.68-1418.5 6202.5-1364.68 6202.5-1298.29L6202.5-900.705C6202.5-834.318 6148.68-780.5 6082.29-780.5L5075.71-780.5C5009.32-780.5 4955.5-834.318 4955.5-900.705Z" stroke="#FFFFFF" stroke-width="6.875" stroke-miterlimit="8" stroke-dasharray="27.5 20.625" fill="#FFFFFF" fill-rule="evenodd"/><path d="M5022-1419 6135-1419C6158.13-1419 6178.51-1402.27 6190.55-1376.81L6192-1373 4965-1373 4966.45-1376.81C4978.49-1402.27 4998.87-1419 5022-1419Z" fill="#00B0F0" fill-rule="evenodd"/><text font-family="Cambria,Cambria_MSFontService,sans-serif" font-weight="400" font-size="73" transform="matrix(1 0 0 1 5048.26 -1051)">Department for Handling Physical </text><text font-family="Cambria,Cambria_MSFontService,sans-serif" font-weight="400" font-size="73" transform="matrix(1 0 0 1 5150.7 -963)">and Legal Entities' Appeals, </text><text font-family="Cambria,Cambria_MSFontService,sans-serif" font-weight="400" font-size="73" transform="matrix(1 0 0 1 5037.65 -875)">Archiving, Control, and Monitoring</text><path d="M5497-1318.5C5497-1334.24 5509.76-1347 5525.5-1347L5639.5-1347C5655.24-1347 5668-1334.24 5668-1318.5L5668-1194.5C5668-1178.76 5655.24-1166 5639.5-1166L5525.5-1166C5509.76-1166 5497-1178.76 5497-1194.5Z" fill="#F2F4F9" fill-rule="evenodd"/><text fill="#747474" font-family="Bahnschrift,Bahnschrift_MSFontService,sans-serif" font-weight="400" font-size="146" transform="matrix(1 0 0 1 5544.42 -1206)">3</text><text fill="#747474" font-family="Bahnschrift,Bahnschrift_MSFontService,sans-serif" font-weight="400" font-size="146" transform="matrix(1 0 0 1 5621.77 -1206)"> </text><path d="M4955.5-622.15C4955.5-683.647 5005.35-733.5 5066.85-733.5L6091.15-733.5C6152.65-733.5 6202.5-683.647 6202.5-622.15L6202.5-253.851C6202.5-192.353 6152.65-142.5 6091.15-142.5L5066.85-142.5C5005.35-142.5 4955.5-192.353 4955.5-253.851Z" stroke="#FFFFFF" stroke-width="6.875" stroke-miterlimit="8" stroke-dasharray="27.5 20.625" fill="#FFFFFF" fill-rule="evenodd"/><path d="M5022-734 6135-734C6158.13-734 6178.51-717.266 6190.55-691.815L6192-688 4965-688 4966.45-691.815C4978.49-717.266 4998.87-734 5022-734Z" fill="#00B0F0" fill-rule="evenodd"/><text font-family="Cambria,Cambria_MSFontService,sans-serif" font-weight="400" font-size="73" transform="matrix(1 0 0 1 5098.88 -367)">Human Resources Department</text><path d="M5497-633.499C5497-649.24 5509.76-662 5525.5-662L5639.5-662C5655.24-662 5668-649.24 5668-633.499L5668-509.5C5668-493.76 5655.24-481 5639.5-481L5525.5-481C5509.76-481 5497-493.76 5497-509.5Z" fill="#F2F4F9" fill-rule="evenodd"/><text fill="#747474" font-family="Bahnschrift,Bahnschrift_MSFontService,sans-serif" font-weight="400" font-size="146" transform="matrix(1 0 0 1 5544.42 -521)">2</text><text fill="#747474" font-family="Bahnschrift,Bahnschrift_MSFontService,sans-serif" font-weight="400" font-size="146" transform="matrix(1 0 0 1 5620.05 -521)"> </text><path d="M4955.5-6.86256C4955.5-49.7406 4990.26-84.5001 5033.14-84.5001L6124.86-84.5001C6167.74-84.5001 6202.5-49.7406 6202.5-6.86256L6202.5 320.862C6202.5 363.74 6167.74 398.5 6124.86 398.5L5033.14 398.5C4990.26 398.5 4955.5 363.74 4955.5 320.862Z" stroke="#FFFFFF" stroke-width="6.875" stroke-miterlimit="8" stroke-dasharray="27.5 20.625" fill="#FFFFFF" fill-rule="evenodd"/><path d="M5022-84.9999 6135-84.9999C6158.13-84.9999 6178.51-68.266 6190.55-42.8146L6192-38.9998 4965-38.9998 4966.45-42.8146C4978.49-68.266 4998.87-84.9999 5022-84.9999Z" fill="#00B0F0" fill-rule="evenodd"/><text font-family="Cambria,Cambria_MSFontService,sans-serif" font-weight="400" font-size="73" transform="matrix(1 0 0 1 5250.66 116)">Legal Consultant and</text><text font-family="Cambria,Cambria_MSFontService,sans-serif" font-weight="400" font-size="73" transform="matrix(1 0 0 1 5134.91 204)">Anti</text><text font-family="Cambria,Cambria_MSFontService,sans-serif" font-weight="400" font-size="73" transform="matrix(1 0 0 1 5266.68 204)">-</text><text font-family="Cambria,Cambria_MSFontService,sans-serif" font-weight="400" font-size="73" transform="matrix(1 0 0 1 5291.31 204)">Corruption Compliance </text><text font-family="Cambria,Cambria_MSFontService,sans-serif" font-weight="400" font-size="73" transform="matrix(1 0 0 1 5130.3 292)">Control System Management</text><path d="M4955.5 541.158C4955.5 494.403 4993.4 456.5 5040.16 456.5L6117.84 456.5C6164.6 456.5 6202.5 494.403 6202.5 541.158L6202.5 713.842C6202.5 760.597 6164.6 798.5 6117.84 798.5L5040.16 798.5C4993.4 798.5 4955.5 760.597 4955.5 713.842Z" stroke="#FFFFFF" stroke-width="6.875" stroke-miterlimit="8" stroke-dasharray="27.5 20.625" fill="#FFFFFF" fill-rule="evenodd"/><path d="M5022 456 6135 456C6158.13 456 6178.51 472.734 6190.55 498.185L6192 502 4965 502 4966.45 498.185C4978.49 472.734 4998.87 456 5022 456Z" fill="#00B0F0" fill-rule="evenodd"/><text font-family="Cambria,Cambria_MSFontService,sans-serif" font-weight="400" font-size="73" transform="matrix(1 0 0 1 5217.92 609)">Secretary of the Higher </text><text font-family="Cambria,Cambria_MSFontService,sans-serif" font-weight="400" font-size="73" transform="matrix(1 0 0 1 5294.95 697)">Education Council</text><path d="M1067.5-3835.79 1291.64-3835.79 1291.64-3831.21 1067.5-3831.21ZM1067.5-3819.75 1053.75-3833.5 1067.5-3847.25 1081.25-3833.5ZM1291.64-3847.25 1305.39-3833.5 1291.64-3819.75 1277.89-3833.5Z" fill="#00B0F0"/><path d="M2.29167-5.83105e-06 2.29203 141.835-2.29131 141.835-2.29167 5.83105e-06ZM-13.75 3.49863e-05-3.49863e-05-13.75 13.75-3.49863e-05 3.49863e-05 13.75ZM13.7504 141.835 0.000395879 155.585-13.7496 141.835 0.000325906 128.085Z" fill="#00B0F0" transform="matrix(1 0 0 -1 1914.5 -3513.67)"/><path d="M1067.5-3291.79 1291.64-3291.79 1291.64-3287.21 1067.5-3287.21ZM1067.5-3275.75 1053.75-3289.5 1067.5-3303.25 1081.25-3289.5ZM1291.64-3303.25 1305.39-3289.5 1291.64-3275.75 1277.89-3289.5Z" fill="#00B0F0"/><path d="M3.53242e-06-2.29167 234.13-2.29131 234.13 2.29203-3.53242e-06 2.29167ZM-2.11945e-05 13.75-13.75-2.11945e-05 2.11945e-05-13.75 13.75 2.11945e-05ZM234.13-13.7496 247.88 0.000382087 234.13 13.7504 220.38 0.000339698Z" fill="#00B0F0" transform="matrix(1 0 0 -1 2538.5 -3289.5)"/><path d="M2.29167-6.71616e-06 2.29203 123.143-2.29131 123.143-2.29167 6.71616e-06ZM-13.75 4.02969e-05-4.02969e-05-13.75 13.75-4.02969e-05 4.02969e-05 13.75ZM13.7504 123.143 0.000401189 136.893-13.7496 123.143 0.000320595 109.393Z" fill="#00B0F0" transform="matrix(1 0 0 -1 1914.5 -2942.36)"/><path d="M2.29167-3.69149e-06 2.29203 224.041-2.29131 224.041-2.29167 3.69149e-06ZM-13.75 2.21489e-05-2.21489e-05-13.75 13.75-2.21489e-05 2.21489e-05 13.75ZM13.7504 224.041 0.000383041 237.791-13.7496 224.041 0.000338743 210.291Z" fill="#00B0F0" transform="matrix(1 0 0 -1 1175.5 -2719.46)"/><path d="M-1141.5-2946.79 6441.8-2940.74 6441.8-2936.16-1141.5-2942.21ZM-1141.51-2930.75-1155.25-2944.51-1141.49-2958.25-1127.75-2944.49ZM6441.81-2952.2 6455.55-2938.44 6441.79-2924.7 6428.05-2938.46Z" fill="#00B0F0"/><path d="M-266.792-2719.85-266.792-2942.5-262.209-2942.5-262.208-2719.85ZM-250.75-2719.85-264.5-2706.1-278.25-2719.85-264.5-2733.6ZM-278.25-2942.5-264.5-2956.25-250.75-2942.5-264.5-2928.75Z" fill="#00B0F0"/><path d="M2616.21-2720.06 2616.21-2939.5 2620.79-2939.5 2620.79-2720.06ZM2632.25-2720.06 2618.5-2706.31 2604.75-2720.06 2618.5-2733.81ZM2604.75-2939.5 2618.5-2953.25 2632.25-2939.5 2618.5-2925.75Z" fill="#00B0F0"/><path d="M4086.21-2720.22 4086.21-2939.5 4090.79-2939.5 4090.79-2720.22ZM4102.25-2720.22 4088.5-2706.47 4074.75-2720.22 4088.5-2733.97ZM4074.75-2939.5 4088.5-2953.25 4102.25-2939.5 4088.5-2925.75Z" fill="#00B0F0"/><path d="M2.29167-2.31885e-07 2.29203 3566.62-2.29131 3566.62-2.29167 2.31885e-07ZM-13.75 1.39129e-06-1.39129e-06-13.75 13.75-1.39129e-06 1.39129e-06 13.75ZM13.7504 3566.62 0.000362284 3580.37-13.7496 3566.62 0.000359501 3552.87Z" fill="#00B0F0" transform="matrix(1 0 0 -1 6441.5 627.124)"/><path d="M3380.5-2467.79 3452.41-2467.79 3452.41-2463.21 3380.5-2463.21ZM3380.5-2451.75 3366.75-2465.5 3380.5-2479.25 3394.25-2465.5ZM3452.41-2479.25 3466.16-2465.5 3452.41-2451.75 3438.66-2465.5Z" fill="#00B0F0"/><path d="M3382.79-2466.5 3382.79 37.2839 3378.21 37.2839 3378.21-2466.5ZM3366.75-2466.5 3380.5-2480.25 3394.25-2466.5 3380.5-2452.75ZM3394.25 37.2839 3380.5 51.0339 3366.75 37.2839 3380.5 23.5339Z" fill="#00B0F0"/><path d="M3382.5-1874.79 3465.67-1874.79 3465.67-1870.21 3382.5-1870.21ZM3382.5-1858.75 3368.75-1872.5 3382.5-1886.25 3396.25-1872.5ZM3465.67-1886.25 3479.42-1872.5 3465.67-1858.75 3451.92-1872.5Z" fill="#00B0F0"/><path d="M3381.5-1226.79 3465.55-1226.79 3465.55-1222.21 3381.5-1222.21ZM3381.5-1210.75 3367.75-1224.5 3381.5-1238.25 3395.25-1224.5ZM3465.55-1238.25 3479.3-1224.5 3465.55-1210.75 3451.8-1224.5Z" fill="#00B0F0"/><path d="M3381.5-590.792 3465.55-590.791 3465.55-586.208 3381.5-586.208ZM3381.5-574.75 3367.75-588.5 3381.5-602.25 3395.25-588.5ZM3465.55-602.25 3479.3-588.5 3465.55-574.75 3451.8-588.5Z" fill="#00B0F0"/><path d="M3381.5 35.2083 3465.55 35.2087 3465.55 39.792 3381.5 39.7916ZM3381.5 51.25 3367.75 37.4999 3381.5 23.75 3395.25 37.5ZM3465.55 23.7503 3479.3 37.5004 3465.55 51.2503 3451.8 37.5003Z" fill="#00B0F0"/><path d="M1914.5-2468.79 2001.83-2468.63 2001.82-2464.05 1914.5-2464.21ZM1914.47-2452.75 1900.75-2466.53 1914.53-2480.25 1928.25-2466.47ZM2001.85-2480.09 2015.57-2466.32 2001.8-2452.59 1988.07-2466.37Z" fill="#00B0F0"/><path d="M1916.79-2466.5 1916.79-1113.98 1912.21-1113.98 1912.21-2466.5ZM1900.75-2466.5 1914.5-2480.25 1928.25-2466.5 1914.5-2452.75ZM1928.25-1113.98 1914.5-1100.23 1900.75-1113.98 1914.5-1127.73Z" fill="#00B0F0"/><path d="M1916.5-1734.79 2002.62-1734.79 2002.62-1730.21 1916.5-1730.21ZM1916.5-1718.75 1902.75-1732.5 1916.5-1746.25 1930.25-1732.5ZM2002.62-1746.25 2016.37-1732.5 2002.62-1718.75 1988.87-1732.5Z" fill="#00B0F0"/><path d="M1915.5-1115.79 2002.22-1115.79 2002.22-1111.21 1915.5-1111.21ZM1915.5-1099.75 1901.75-1113.5 1915.5-1127.25 1929.25-1113.5ZM2002.22-1127.25 2015.97-1113.5 2002.22-1099.75 1988.47-1113.5Z" fill="#00B0F0"/><path d="M467.5-2468.79 552.217-2468.79 552.217-2464.21 467.5-2464.21ZM467.5-2452.75 453.75-2466.5 467.5-2480.25 481.25-2466.5ZM552.217-2480.25 565.967-2466.5 552.216-2452.75 538.467-2466.5Z" fill="#00B0F0"/><path d="M2.29167-6.65699e-07 2.29203 1242.37-2.29131 1242.37-2.29167 6.65699e-07ZM-13.75 3.99421e-06-3.99421e-06-13.75 13.75-3.99421e-06 3.99421e-06 13.75ZM13.7504 1242.37 0.000364887 1256.12-13.7496 1242.37 0.000356898 1228.62Z" fill="#00B0F0" transform="matrix(-1 0 0 1 467.5 -2466.5)"/><path d="M472.5-1864.79 552.122-1864.79 552.122-1860.21 472.5-1860.21ZM472.5-1848.75 458.75-1862.5 472.5-1876.25 486.25-1862.5ZM552.122-1876.25 565.872-1862.5 552.122-1848.75 538.372-1862.5Z" fill="#00B0F0"/><path d="M467.5-1226.79 552.217-1226.79 552.217-1222.21 467.5-1222.21ZM467.5-1210.75 453.75-1224.5 467.5-1238.25 481.25-1224.5ZM552.217-1238.25 565.967-1224.5 552.217-1210.75 538.467-1224.5Z" fill="#00B0F0"/><path d="M-965.5-2468.79-882.375-2468.79-882.375-2464.21-965.5-2464.21ZM-965.5-2452.75-979.25-2466.5-965.5-2480.25-951.75-2466.5ZM-882.375-2480.25-868.625-2466.5-882.375-2452.75-896.125-2466.5Z" fill="#00B0F0"/><path d="M2.29167-2.49814e-06 2.29311 1324.26-2.29022 1324.26-2.29167 2.49814e-06ZM-13.75 1.49888e-05-1.49888e-05-13.75 13.75-1.49888e-05 1.49888e-05 13.75ZM13.7514 1324.26 0.00145856 1338.01-13.7486 1324.26 0.00142858 1310.51Z" fill="#00B0F0" transform="matrix(-1 0 0 1 -965.499 -2466.5)"/><path d="M-965.5-1792.79-882.375-1792.79-882.375-1788.21-965.5-1788.21ZM-965.5-1776.75-979.25-1790.5-965.5-1804.25-951.75-1790.5ZM-882.375-1804.25-868.625-1790.5-882.375-1776.75-896.125-1790.5Z" fill="#00B0F0"/><path d="M-965.5-1150.79-882.375-1150.79-882.375-1146.21-965.5-1146.21ZM-965.5-1134.75-979.25-1148.5-965.5-1162.25-951.75-1148.5ZM-882.375-1162.25-868.625-1148.5-882.375-1134.75-896.125-1148.5Z" fill="#00B0F0"/><path d="M-1136.21-2944.5-1136.21-694.784-1140.79-694.784-1140.79-2944.5ZM-1152.25-2944.5-1138.5-2958.25-1124.75-2944.5-1138.5-2930.75ZM-1124.75-694.784-1138.5-681.034-1152.25-694.784-1138.5-708.534Z" fill="#00B0F0"/><path d="M-1138.5-696.792 2633.68-696.791 2633.68-692.208-1138.5-692.208ZM-1138.5-680.75-1152.25-694.5-1138.5-708.25-1124.75-694.5ZM2633.68-708.25 2647.43-694.5 2633.68-680.75 2619.93-694.5Z" fill="#00B0F0"/><path d="M-965.5-340.792-882.375-340.791-882.375-336.208-965.5-336.208ZM-965.5-324.75-979.25-338.5-965.5-352.25-951.75-338.5ZM-882.375-352.25-868.625-338.5-882.375-324.75-896.125-338.5Z" fill="#00B0F0"/><path d="M-961.208-338.5-961.208 516.448-965.791 516.448-965.792-338.5ZM-977.25-338.5-963.5-352.25-949.75-338.5-963.5-324.75ZM-949.75 516.448-963.5 530.198-977.25 516.448-963.5 502.698Z" fill="#00B0F0"/><path d="M-965.5 134.208-882.375 134.209-882.375 138.792-965.5 138.792ZM-965.5 150.25-979.25 136.5-965.5 122.75-951.75 136.5ZM-882.375 122.75-868.625 136.5-882.375 150.25-896.125 136.5Z" fill="#00B0F0"/><path d="M-965.5 513.208-882.375 513.209-882.375 517.792-965.5 517.792ZM-965.5 529.25-979.25 515.5-965.5 501.75-951.75 515.5ZM-882.375 501.75-868.625 515.501-882.375 529.25-896.125 515.5Z" fill="#00B0F0"/><path d="M-259.208-694.5-259.208-588.704-263.791-588.704-263.792-694.5ZM-275.25-694.5-261.5-708.25-247.75-694.5-261.5-680.75ZM-247.75-588.704-261.5-574.954-275.25-588.704-261.5-602.454Z" fill="#00B0F0"/><path d="M1179.79-694.5 1179.79-588.704 1175.21-588.704 1175.21-694.5ZM1163.75-694.5 1177.5-708.25 1191.25-694.5 1177.5-680.75ZM1191.25-588.704 1177.5-574.954 1163.75-588.704 1177.5-602.454Z" fill="#00B0F0"/><path d="M2635.79-694.5 2635.79-588.704 2631.21-588.704 2631.21-694.5ZM2619.75-694.5 2633.5-708.25 2647.25-694.5 2633.5-680.75ZM2647.25-588.704 2633.5-574.954 2619.75-588.704 2633.5-602.454Z" fill="#00B0F0"/><path d="M477.5-340.792 560.625-340.791 560.625-336.208 477.5-336.208ZM477.5-324.75 463.75-338.5 477.5-352.25 491.25-338.5ZM560.625-352.25 574.375-338.5 560.625-324.75 546.875-338.5Z" fill="#00B0F0"/><path d="M2.29167-0.00231936 3.90016 1589.29-0.683168 1589.29-2.29167 0.00231936ZM-13.75 0.0139161-0.0139161-13.75 13.75-0.0139161 0.0139161 13.75ZM15.3585 1589.28 1.62241 1603.04-12.1415 1589.3 1.59458 1575.54Z" fill="#00B0F0" transform="matrix(-1 0 0 1 479.108 -338.5)"/><path d="M477.5 134.208 560.625 134.209 560.625 138.792 477.5 138.792ZM477.5 150.25 463.75 136.5 477.5 122.75 491.25 136.5ZM560.625 122.75 574.375 136.5 560.625 150.25 546.875 136.5Z" fill="#00B0F0"/><path d="M477.5 510.208 560.625 510.209 560.625 514.792 477.5 514.792ZM477.5 526.25 463.75 512.5 477.5 498.75 491.25 512.5ZM560.625 498.75 574.375 512.5 560.625 526.25 546.875 512.5Z" fill="#00B0F0"/><path d="M477.5 1248.21 560.625 1248.21 560.625 1252.79 477.5 1252.79ZM477.5 1264.25 463.75 1250.5 477.5 1236.75 491.25 1250.5ZM560.625 1236.75 574.375 1250.5 560.625 1264.25 546.875 1250.5Z" fill="#00B0F0"/><path d="M477.5 890.208 560.625 890.209 560.625 894.792 477.5 894.792ZM477.5 906.25 463.75 892.5 477.5 878.75 491.25 892.5ZM560.625 878.75 574.375 892.5 560.625 906.25 546.875 892.5Z" fill="#00B0F0"/><path d="M1917.5-340.792 2000.62-340.791 2000.62-336.208 1917.5-336.208ZM1917.5-324.75 1903.75-338.5 1917.5-352.25 1931.25-338.5ZM2000.62-352.25 2014.37-338.5 2000.62-324.75 1986.87-338.5Z" fill="#00B0F0"/><path d="M2.29167-0.00231936 3.90016 1589.29-0.683168 1589.29-2.29167 0.00231936ZM-13.75 0.0139161-0.0139161-13.75 13.75-0.0139161 0.0139161 13.75ZM15.3585 1589.28 1.62241 1603.04-12.1415 1589.3 1.59458 1575.54Z" fill="#00B0F0" transform="matrix(-1 0 0 1 1919.11 -338.5)"/><path d="M1917.5 134.208 2000.62 134.209 2000.62 138.792 1917.5 138.792ZM1917.5 150.25 1903.75 136.5 1917.5 122.75 1931.25 136.5ZM2000.62 122.75 2014.37 136.5 2000.62 150.25 1986.87 136.5Z" fill="#00B0F0"/><path d="M1917.5 510.208 2000.62 510.209 2000.62 514.792 1917.5 514.792ZM1917.5 526.25 1903.75 512.5 1917.5 498.75 1931.25 512.5ZM2000.62 498.75 2014.37 512.5 2000.62 526.25 1986.87 512.5Z" fill="#00B0F0"/><path d="M1917.5 1248.21 2000.62 1248.21 2000.62 1252.79 1917.5 1252.79ZM1917.5 1264.25 1903.75 1250.5 1917.5 1236.75 1931.25 1250.5ZM2000.62 1236.75 2014.37 1250.5 2000.62 1264.25 1986.87 1250.5Z" fill="#00B0F0"/><path d="M1917.5 890.208 2000.62 890.209 2000.62 894.792 1917.5 894.792ZM1917.5 906.25 1903.75 892.5 1917.5 878.75 1931.25 892.5ZM2000.62 878.75 2014.37 892.5 2000.62 906.25 1986.87 892.5Z" fill="#00B0F0"/><path d="M6202.5-2404.79 6441.78-2404.79 6441.78-2400.21 6202.5-2400.21ZM6202.5-2388.75 6188.75-2402.5 6202.5-2416.25 6216.25-2402.5ZM6441.78-2416.25 6455.53-2402.5 6441.78-2388.75 6428.03-2402.5Z" fill="#00B0F0"/><path d="M6202.5-1751.79 6441.78-1751.79 6441.78-1747.21 6202.5-1747.21ZM6202.5-1735.75 6188.75-1749.5 6202.5-1763.25 6216.25-1749.5ZM6441.78-1763.25 6455.53-1749.5 6441.78-1735.75 6428.03-1749.5Z" fill="#00B0F0"/><path d="M6202.5-1078.79 6441.78-1078.79 6441.78-1074.21 6202.5-1074.21ZM6202.5-1062.75 6188.75-1076.5 6202.5-1090.25 6216.25-1076.5ZM6441.78-1090.25 6455.53-1076.5 6441.78-1062.75 6428.03-1076.5Z" fill="#00B0F0"/><path d="M6202.5-440.792 6441.78-440.791 6441.78-436.208 6202.5-436.208ZM6202.5-424.75 6188.75-438.5 6202.5-452.25 6216.25-438.5ZM6441.78-452.25 6455.53-438.5 6441.78-424.75 6428.03-438.5Z" fill="#00B0F0"/><path d="M6202.5 149.208 6441.78 149.209 6441.78 153.792 6202.5 153.792ZM6202.5 165.25 6188.75 151.5 6202.5 137.75 6216.25 151.5ZM6441.78 137.75 6455.53 151.5 6441.78 165.25 6428.03 151.5Z" fill="#00B0F0"/><path d="M6202.5 625.208 6441.78 625.208 6441.78 629.792 6202.5 629.792ZM6202.5 641.25 6188.75 627.5 6202.5 613.75 6216.25 627.5ZM6441.78 613.75 6455.53 627.5 6441.78 641.25 6428.03 627.5Z" fill="#00B0F0"/></g></svg>