<svg width="24" height="24" viewBox="0 0 24 24" fill="none" xmlns="http://www.w3.org/2000/svg">
<g clip-path="url(#clip0_357_2775)">
<rect y="9" width="24" height="8" fill="white"/>
<path d="M0.640625 16.6246H23.3581C21.5011 20.9561 17.1149 24 11.9994 24C6.88357 24 2.49755 20.9561 0.640625 16.6246Z" fill="#1EB53A"/>
<path d="M24 9.32887H0C1.24516 3.98721 6.14491 0 12 0C17.8549 0 22.7547 3.98721 24 9.32887Z" fill="#0099B5"/>
<path d="M23.151 17.0807H0.848851C0.776377 16.9301 0.707174 16.7781 0.641287 16.6246H23.3587C23.2928 16.7781 23.2235 16.9301 23.151 17.0807ZM0.116691 8.87302H23.8833C23.9252 9.02422 23.9641 9.1762 24 9.32888H0C0.0357692 9.17567 0.0750643 9.0239 0.116691 8.87302Z" fill="#CE1126"/>
<path d="M7.62384 2.5273C7.46934 2.50198 7.31295 2.48927 7.15628 2.48932C5.60666 2.48932 4.35059 3.71429 4.35059 5.22516C4.35059 6.73615 5.60666 7.96101 7.15628 7.96101C7.31562 7.96101 7.47178 7.94798 7.62384 7.92302C6.2968 7.70599 5.28582 6.58078 5.28582 5.22516C5.28582 3.86966 6.2968 2.74434 7.62384 2.5273ZM13.4549 2.86738L13.3288 2.48932L13.2029 2.86738H12.7951L13.125 3.10122L12.9991 3.47918L13.3288 3.24556L13.6587 3.47918L13.5326 3.10106L13.8625 2.86738H13.4549ZM13.4549 5.05615L13.3288 4.67803L13.2029 5.05615H12.7951L13.125 5.28993L12.9991 5.66789L13.3288 5.43421L13.6587 5.66789L13.5326 5.28976L13.8625 5.05615H13.4549ZM11.2104 5.05615L11.0844 4.67803L10.9584 5.05615H10.5507L10.8805 5.28993L10.7546 5.66789L11.0844 5.43421L11.4142 5.66789L11.2882 5.28976L11.618 5.05615H11.2104ZM15.6995 7.24486L15.5734 6.86674L15.4475 7.24486H15.0397L15.3696 7.47858L15.2436 7.85659L15.5734 7.62292L15.9033 7.85659L15.7772 7.47853L16.1071 7.24486H15.6995ZM13.4549 7.24486L13.3288 6.86674L13.2029 7.24486H12.7951L13.125 7.47858L12.9991 7.85659L13.3288 7.62292L13.6587 7.85659L13.5326 7.47853L13.8625 7.24486H13.4549ZM15.6995 2.86738L15.5734 2.48932L15.4475 2.86738H15.0397L15.3696 3.10122L15.2436 3.47918L15.5734 3.24556L15.9033 3.47918L15.7772 3.10106L16.1071 2.86738H15.6995ZM15.6995 5.05615L15.5734 4.67803L15.4475 5.05615H15.0397L15.3696 5.28993L15.2436 5.66789L15.5734 5.43421L15.9033 5.66789L15.7772 5.28976L16.1071 5.05615H15.6995ZM17.9441 2.86738L17.818 2.48932L17.692 2.86738H17.2843L17.6142 3.10122L17.4882 3.47918L17.818 3.24556L18.1479 3.47918L18.0218 3.10106L18.3518 2.86738H17.9441ZM17.9441 5.05615L17.818 4.67803L17.692 5.05615H17.2843L17.6142 5.28993L17.4882 5.66789L17.818 5.43421L18.1479 5.66789L18.0218 5.28976L18.3518 5.05615H17.9441ZM8.96584 7.24486L8.83976 6.86674L8.7138 7.24486H8.30607L8.63595 7.47858L8.50999 7.85659L8.83976 7.62292L9.16965 7.85659L9.04357 7.47853L9.37346 7.24486H8.96584ZM11.2104 7.24486L11.0844 6.86674L10.9584 7.24486H10.5507L10.8805 7.47858L10.7546 7.85659L11.0844 7.62292L11.4142 7.85659L11.2882 7.47853L11.618 7.24486H11.2104ZM17.9441 7.24486L17.818 6.86674L17.692 7.24486H17.2843L17.6142 7.47858L17.4882 7.85659L17.818 7.62292L18.1479 7.85659L18.0218 7.47853L18.3518 7.24486H17.9441Z" fill="white"/>
</g>
<defs>
<clipPath id="clip0_357_2775">
<rect width="24" height="24" rx="12" fill="white"/>
</clipPath>
</defs>
</svg>
